<svg width="21" height="22" viewBox="0 0 21 22" fill="none" xmlns="http://www.w3.org/2000/svg">
<path d="M18.5 21.293H2.5C1.4 21.293 0.5 20.393 0.5 19.293V8.84297C0.5 8.19297 0.8 7.59297 1.35 7.19297L10.5 0.792969L19.65 7.19297C20.2 7.54297 20.5 8.19297 20.5 8.84297V19.293C20.5 20.393 19.6 21.293 18.5 21.293Z" fill="#78909C"/>
<path d="M5.5 1.2926H15.5V16.7926H5.5V1.2926Z" fill="#AED581"/>
<path d="M18.5 21.2921H2.5C1.4 21.2921 0.5 20.3921 0.5 19.2921V9.29211L10.5 15.7921L20.5 9.29211V19.2921C20.5 20.3921 19.6 21.2921 18.5 21.2921Z" fill="#7FBA56"/>
</svg>
