<svg width="22" height="22" viewBox="0 0 22 22" fill="none" xmlns="http://www.w3.org/2000/svg">
<g clip-path="url(#clip0)">
<path d="M10.9997 21.7931C16.4765 21.7931 20.9163 17.3532 20.9163 11.8764C20.9163 6.39956 16.4765 1.95972 10.9997 1.95972C5.52285 1.95972 1.08301 6.39956 1.08301 11.8764C1.08301 17.3532 5.52285 21.7931 10.9997 21.7931Z" fill="#F4900C"/>
<path d="M10.9997 20.6263C16.4765 20.6263 20.9163 16.1865 20.9163 10.7096C20.9163 5.23281 16.4765 0.792969 10.9997 0.792969C5.52285 0.792969 1.08301 5.23281 1.08301 10.7096C1.08301 16.1865 5.52285 20.6263 10.9997 20.6263Z" fill="#FFCC4D"/>
<path d="M10.9997 19.4596C15.51 19.4596 19.1663 15.8032 19.1663 11.2929C19.1663 6.78256 15.51 3.12622 10.9997 3.12622C6.48935 3.12622 2.83301 6.78256 2.83301 11.2929C2.83301 15.8032 6.48935 19.4596 10.9997 19.4596Z" fill="#FFE8B6"/>
<path d="M10.9997 18.8763C15.51 18.8763 19.1663 15.22 19.1663 10.7096C19.1663 6.19931 15.51 2.54297 10.9997 2.54297C6.48935 2.54297 2.83301 6.19931 2.83301 10.7096C2.83301 15.22 6.48935 18.8763 10.9997 18.8763Z" fill="#FFAC33"/>
<path d="M10.5 13.6112C12.7091 13.6112 14.5 12.3087 14.5 10.7021C14.5 9.09541 12.7091 7.79297 10.5 7.79297C8.29086 7.79297 6.5 9.09541 6.5 10.7021C6.5 12.3087 8.29086 13.6112 10.5 13.6112Z" fill="#FFCB5F"/>
</g>
<defs>
<clipPath id="clip0">
<rect width="21" height="21" fill="white" transform="translate(0.5 0.792969)"/>
</clipPath>
</defs>
</svg>
