<svg width="34" height="36" viewBox="0 0 34 36" fill="none" xmlns="http://www.w3.org/2000/svg">
<path d="M7.40567 17.0713H3.19008C3.05779 17.0713 2.95058 17.1785 2.95058 17.3108V20.1159C2.95058 20.2482 3.05779 20.3554 3.19008 20.3554H7.40567C7.53796 20.3554 7.64517 20.2482 7.64517 20.1159V17.3108C7.64517 17.1785 7.53796 17.0713 7.40567 17.0713Z" fill="#6E85AE"/>
<path d="M7.40574 17.0713H5.29926V20.3554H7.40574C7.53803 20.3554 7.64524 20.2482 7.64524 20.1159V17.3108C7.64524 17.1785 7.53803 17.0713 7.40574 17.0713Z" fill="#5E7398"/>
<path d="M27.1618 4.03027C26.8717 4.03027 26.6365 4.26542 26.6365 4.55555V9.84662C26.6365 10.1368 26.8717 10.3719 27.1618 10.3719C27.452 10.3719 27.6871 10.1368 27.6871 9.84662V4.55555C27.6871 4.26549 27.452 4.03027 27.1618 4.03027Z" fill="#2D5872"/>
<path d="M28.0458 11.8449H26.2779C25.973 11.8449 25.7257 11.5976 25.7257 11.2927V9.36081C25.7257 9.05583 25.973 8.80859 26.2779 8.80859H28.0458C28.3508 8.80859 28.598 9.05583 28.598 9.36081V11.2927C28.598 11.5976 28.3508 11.8449 28.0458 11.8449Z" fill="#728DBD"/>
<path d="M30.5406 17.4454H23.7832C23.4926 17.4454 23.2571 17.2098 23.2571 16.9194V11.819C23.2571 11.5285 23.4926 11.293 23.7832 11.293H30.5406C30.8311 11.293 31.0666 11.5285 31.0666 11.819V16.9194C31.0666 17.2098 30.8311 17.4454 30.5406 17.4454Z" fill="#728DBD"/>
<path d="M32.7049 35.368H20.8472V13.8105H32.4137C32.5745 13.8105 32.7049 13.9409 32.7049 14.1017V35.368Z" fill="#7E9BCE"/>
<path d="M32.4136 13.8105H29.1928C29.3536 13.8105 29.484 13.9409 29.484 14.1017V35.368H32.7048V14.1017C32.7048 13.9409 32.5744 13.8105 32.4136 13.8105Z" fill="#728DBD"/>
<path d="M30.4873 18.9493H23.6926C23.4521 18.9493 23.2571 18.7543 23.2571 18.5139V17.5068C23.2571 17.2662 23.4521 17.0713 23.6926 17.0713H30.4873C30.7278 17.0713 30.9228 17.2663 30.9228 17.5068V18.5139C30.9228 18.7543 30.7278 18.9493 30.4873 18.9493Z" fill="#E1EFFB"/>
<path d="M30.4874 23.255H23.6926C23.4521 23.255 23.2572 23.06 23.2572 22.8195V21.8124C23.2572 21.5719 23.4522 21.377 23.6926 21.377H30.4874C30.7279 21.377 30.9228 21.572 30.9228 21.8124V22.8195C30.9228 23.06 30.7279 23.255 30.4874 23.255Z" fill="#E1EFFB"/>
<path d="M30.4874 27.5607H23.6926C23.4521 27.5607 23.2572 27.3656 23.2572 27.1252V26.1181C23.2572 25.8776 23.4522 25.6826 23.6926 25.6826H30.4874C30.7279 25.6826 30.9228 25.8776 30.9228 26.1181V27.1252C30.9228 27.3656 30.7279 27.5607 30.4874 27.5607Z" fill="#E1EFFB"/>
<path d="M30.4874 31.8663H23.6926C23.4521 31.8663 23.2572 31.6713 23.2572 31.4308V30.4238C23.2572 30.1832 23.4522 29.9883 23.6926 29.9883H30.4874C30.7279 29.9883 30.9228 30.1833 30.9228 30.4238V31.4308C30.9228 31.6714 30.7279 31.8663 30.4874 31.8663Z" fill="#E1EFFB"/>
<path d="M23.9299 35.3678H10.2371C10.0181 35.3678 9.84067 35.1903 9.84067 34.9714V1.03023C9.84067 0.811252 10.0181 0.633789 10.2371 0.633789H23.9299C24.1488 0.633789 24.3263 0.811252 24.3263 1.03023V34.9714C24.3263 35.1903 24.1488 35.3678 23.9299 35.3678Z" fill="#8F9FBB"/>
<path d="M23.9298 0.634766H20.709C20.928 0.634766 21.1055 0.812229 21.1055 1.03121V34.9723C21.1055 35.1913 20.928 35.3688 20.709 35.3688H23.9298C24.1488 35.3688 24.3263 35.1913 24.3263 34.9723V1.03121C24.3263 0.812229 24.1487 0.634766 23.9298 0.634766Z" fill="#7E8EA9"/>
<path d="M24.9487 0H9.05124C8.94258 0 8.85443 0.0880752 8.85443 0.196805V1.53113C8.85443 1.63979 8.94251 1.72793 9.05124 1.72793H24.9487C25.0574 1.72793 25.1455 1.63986 25.1455 1.53113V0.196805C25.1455 0.0880752 25.0574 0 24.9487 0Z" fill="#7E8EA9"/>
<path d="M13.8131 6.48613H11.8867C11.751 6.48613 11.641 6.37616 11.641 6.24042V3.88829C11.641 3.75262 11.7509 3.64258 11.8867 3.64258H13.8131C13.9487 3.64258 14.0588 3.75255 14.0588 3.88829V6.24049C14.0588 6.37616 13.9487 6.48613 13.8131 6.48613Z" fill="#E1EFFB"/>
<path d="M18.0467 6.48613H16.1203C15.9846 6.48613 15.8746 6.37616 15.8746 6.24042V3.88829C15.8746 3.75262 15.9846 3.64258 16.1203 3.64258H18.0467C18.1824 3.64258 18.2924 3.75255 18.2924 3.88829V6.24049C18.2924 6.37616 18.1824 6.48613 18.0467 6.48613Z" fill="#E1EFFB"/>
<path d="M22.2804 6.48613H20.354C20.2183 6.48613 20.1083 6.37616 20.1083 6.24042V3.88829C20.1083 3.75262 20.2183 3.64258 20.354 3.64258H22.2804C22.4161 3.64258 22.5261 3.75255 22.5261 3.88829V6.24049C22.5261 6.37616 22.4161 6.48613 22.2804 6.48613Z" fill="#E1EFFB"/>
<path d="M13.813 12.8309H11.8866C11.751 12.8309 11.6409 12.721 11.6409 12.5852V10.233C11.6409 10.0973 11.7509 9.9873 11.8866 9.9873H13.813C13.9487 9.9873 14.0587 10.0973 14.0587 10.233V12.5852C14.0587 12.721 13.9487 12.8309 13.813 12.8309Z" fill="#E1EFFB"/>
<path d="M18.0467 12.8309H16.1203C15.9846 12.8309 15.8746 12.721 15.8746 12.5852V10.233C15.8746 10.0973 15.9846 9.9873 16.1203 9.9873H18.0467C18.1824 9.9873 18.2924 10.0973 18.2924 10.233V12.5852C18.2924 12.721 18.1824 12.8309 18.0467 12.8309Z" fill="#E1EFFB"/>
<path d="M22.2804 12.8309H20.354C20.2183 12.8309 20.1083 12.721 20.1083 12.5852V10.233C20.1083 10.0973 20.2183 9.9873 20.354 9.9873H22.2804C22.4161 9.9873 22.5261 10.0973 22.5261 10.233V12.5852C22.5261 12.721 22.4161 12.8309 22.2804 12.8309Z" fill="#E1EFFB"/>
<path d="M13.813 19.1766H11.8866C11.751 19.1766 11.6409 19.0667 11.6409 18.9309V16.5787C11.6409 16.4431 11.7509 16.333 11.8866 16.333H13.813C13.9487 16.333 14.0587 16.443 14.0587 16.5787V18.9309C14.0587 19.0667 13.9487 19.1766 13.813 19.1766Z" fill="#E1EFFB"/>
<path d="M18.0467 19.1766H16.1203C15.9846 19.1766 15.8746 19.0667 15.8746 18.9309V16.5787C15.8746 16.4431 15.9846 16.333 16.1203 16.333H18.0467C18.1824 16.333 18.2924 16.443 18.2924 16.5787V18.9309C18.2924 19.0667 18.1824 19.1766 18.0467 19.1766Z" fill="#E1EFFB"/>
<path d="M22.2804 19.1766H20.354C20.2183 19.1766 20.1083 19.0667 20.1083 18.9309V16.5787C20.1083 16.4431 20.2183 16.333 20.354 16.333H22.2804C22.4161 16.333 22.5261 16.443 22.5261 16.5787V18.9309C22.5261 19.0667 22.4161 19.1766 22.2804 19.1766Z" fill="#E1EFFB"/>
<path d="M18.0467 25.5214H16.1203C15.9846 25.5214 15.8746 25.4114 15.8746 25.2756V22.9234C15.8746 22.7878 15.9846 22.6777 16.1203 22.6777H18.0467C18.1824 22.6777 18.2924 22.7877 18.2924 22.9234V25.2756C18.2924 25.4114 18.1824 25.5214 18.0467 25.5214Z" fill="#E1EFFB"/>
<path d="M22.2804 25.5214H20.354C20.2183 25.5214 20.1083 25.4114 20.1083 25.2756V22.9234C20.1083 22.7878 20.2183 22.6777 20.354 22.6777H22.2804C22.4161 22.6777 22.5261 22.7877 22.5261 22.9234V25.2756C22.5261 25.4114 22.4161 25.5214 22.2804 25.5214Z" fill="#E1EFFB"/>
<path d="M18.0467 31.8661H16.1203C15.9846 31.8661 15.8746 31.7561 15.8746 31.6204V29.2682C15.8746 29.1325 15.9846 29.0225 16.1203 29.0225H18.0467C18.1824 29.0225 18.2924 29.1324 18.2924 29.2682V31.6204C18.2924 31.7561 18.1824 31.8661 18.0467 31.8661Z" fill="#E1EFFB"/>
<path d="M22.2804 31.8661H20.354C20.2183 31.8661 20.1083 31.7561 20.1083 31.6204V29.2682C20.1083 29.1325 20.2183 29.0225 20.354 29.0225H22.2804C22.4161 29.0225 22.5261 29.1324 22.5261 29.2682V31.6204C22.5261 31.7561 22.4161 31.8661 22.2804 31.8661Z" fill="#E1EFFB"/>
<path d="M16.166 35.3681H1.59785C1.43061 35.3681 1.29508 35.2326 1.29508 35.0654V19.6309C1.29508 19.4637 1.43061 19.3281 1.59785 19.3281H16.166C16.3333 19.3281 16.4688 19.4637 16.4688 19.6309V35.0654C16.4688 35.2326 16.3333 35.3681 16.166 35.3681Z" fill="#6E85AE"/>
<path d="M16.1661 19.3281H12.8874C13.0546 19.3281 13.1901 19.4637 13.1901 19.6309V35.0654C13.1901 35.2327 13.0546 35.3682 12.8874 35.3682H16.1661C16.3333 35.3682 16.4689 35.2327 16.4689 35.0654V19.6309C16.4689 19.4637 16.3333 19.3281 16.1661 19.3281Z" fill="#5E7398"/>
<path d="M5.29918 23.706H3.39254C3.22468 23.706 3.08859 23.5699 3.08859 23.4021V22.1877C3.08859 22.0199 3.22468 21.8838 3.39254 21.8838H5.29918C5.46704 21.8838 5.60312 22.0199 5.60312 22.1877V23.4021C5.60312 23.5699 5.46704 23.706 5.29918 23.706Z" fill="#E1EFFB"/>
<path d="M9.73761 23.706H7.83097C7.66311 23.706 7.52702 23.5699 7.52702 23.4021V22.1877C7.52702 22.0199 7.66311 21.8838 7.83097 21.8838H9.73761C9.90547 21.8838 10.0416 22.0199 10.0416 22.1877V23.4021C10.0416 23.5699 9.90547 23.706 9.73761 23.706Z" fill="#E1EFFB"/>
<path d="M14.1761 23.706H12.2694C12.1016 23.706 11.9655 23.5699 11.9655 23.4021V22.1877C11.9655 22.0199 12.1016 21.8838 12.2694 21.8838H14.1761C14.3439 21.8838 14.48 22.0199 14.48 22.1877V23.4021C14.48 23.5699 14.3439 23.706 14.1761 23.706Z" fill="#E1EFFB"/>
<path d="M5.29915 27.9677H3.39251C3.22465 27.9677 3.08856 27.8316 3.08856 27.6638V26.4495C3.08856 26.2816 3.22465 26.1455 3.39251 26.1455H5.29915C5.46701 26.1455 5.60309 26.2816 5.60309 26.4495V27.6638C5.60309 27.8316 5.46701 27.9677 5.29915 27.9677Z" fill="#E1EFFB"/>
<path d="M9.73761 27.9677H7.83097C7.66311 27.9677 7.52702 27.8316 7.52702 27.6638V26.4495C7.52702 26.2816 7.66311 26.1455 7.83097 26.1455H9.73761C9.90547 26.1455 10.0416 26.2816 10.0416 26.4495V27.6638C10.0416 27.8316 9.90547 27.9677 9.73761 27.9677Z" fill="#E1EFFB"/>
<path d="M14.1761 27.9677H12.2694C12.1016 27.9677 11.9655 27.8316 11.9655 27.6638V26.4495C11.9655 26.2816 12.1016 26.1455 12.2694 26.1455H14.1761C14.3439 26.1455 14.48 26.2816 14.48 26.4495V27.6638C14.48 27.8316 14.3439 27.9677 14.1761 27.9677Z" fill="#E1EFFB"/>
<path d="M5.29915 32.2304H3.39251C3.22465 32.2304 3.08856 32.0943 3.08856 31.9265V30.7121C3.08856 30.5443 3.22465 30.4082 3.39251 30.4082H5.29915C5.46701 30.4082 5.60309 30.5443 5.60309 30.7121V31.9265C5.60309 32.0943 5.46701 32.2304 5.29915 32.2304Z" fill="#E1EFFB"/>
<path d="M9.73761 32.2304H7.83097C7.66311 32.2304 7.52702 32.0943 7.52702 31.9265V30.7121C7.52702 30.5443 7.66311 30.4082 7.83097 30.4082H9.73761C9.90547 30.4082 10.0416 30.5443 10.0416 30.7121V31.9265C10.0416 32.0943 9.90547 32.2304 9.73761 32.2304Z" fill="#E1EFFB"/>
<path d="M14.1761 32.2304H12.2694C12.1016 32.2304 11.9655 32.0943 11.9655 31.9265V30.7121C11.9655 30.5443 12.1016 30.4082 12.2694 30.4082H14.1761C14.3439 30.4082 14.48 30.5443 14.48 30.7121V31.9265C14.48 32.0943 14.3439 32.2304 14.1761 32.2304Z" fill="#E1EFFB"/>
<path d="M33.1886 33.7451H0.811328C0.363215 33.7451 0 34.1083 0 34.5564C0 35.0046 0.363215 35.3678 0.811328 35.3678H33.1887C33.6368 35.3678 34 35.0046 34 34.5564C33.9999 34.1084 33.6367 33.7451 33.1886 33.7451Z" fill="#2D5872"/>
<path d="M33.9948 34.4675C33.9942 34.4621 33.9931 34.4568 33.9924 34.4514C33.9892 34.4269 33.9851 34.4025 33.9798 34.3786C33.979 34.3753 33.978 34.3719 33.9771 34.3686C33.9709 34.3424 33.9635 34.3167 33.9548 34.2915C33.9544 34.2906 33.9541 34.2896 33.9537 34.2886C33.9442 34.2615 33.9333 34.235 33.921 34.2093V34.2092C33.7908 33.9351 33.5122 33.7451 33.1886 33.7451H30.7791V33.9517C30.7791 34.3502 30.4561 34.6733 30.0576 34.6733H0.811328C0.487695 34.6733 0.209101 34.4833 0.0788877 34.2092C0.0288057 34.3146 0 34.432 0 34.5564C0 35.0045 0.363215 35.3678 0.811328 35.3678H30.7791H33.1886C33.6367 35.3678 33.9999 35.0046 33.9999 34.5564C33.9999 34.5264 33.998 34.4967 33.9948 34.4675Z" fill="#1D4859"/>
</svg>
