<svg width="34" height="38" viewBox="0 0 34 38" fill="none" xmlns="http://www.w3.org/2000/svg">
<path d="M18.9513 15.3226C18.6712 15.6182 18.2753 15.7739 17.868 15.7487C17.7271 15.7398 14.3784 15.5096 10.9532 13.6639C7.71652 11.9197 3.81065 8.38054 3.58386 1.42466C3.57139 1.04531 3.71661 0.677853 3.98488 0.409438C4.3941 0 4.87438 0 5.0795 0C5.07957 0 5.07957 0 5.07957 0C5.22465 0 8.6356 0.0245068 12.1502 2.13188C13.9746 3.22591 15.4914 4.68029 16.6586 6.45479C18.0686 8.59849 18.9633 11.2103 19.318 14.2177C19.3657 14.6222 19.2313 15.0269 18.9513 15.3226Z" fill="#B5C4DD"/>
<path d="M16.7016 6.52246C16.126 7.58467 15.6406 8.781 15.2923 10.1287C14.9791 11.0642 14.5007 12.7078 14.1059 14.9817C16.1882 15.6334 17.772 15.7423 17.868 15.7483C18.2753 15.7736 18.6712 15.6179 18.9513 15.3222C19.2313 15.0265 19.3656 14.6219 19.3178 14.2175C18.9669 11.2415 18.0861 8.65347 16.7016 6.52246Z" fill="#6E85AE"/>
<path d="M17.7737 12.9683L14.8164 10.0844L14.0365 6.19823C13.9748 5.89022 13.6752 5.6909 13.3671 5.75253C13.0591 5.81431 12.8597 6.11412 12.9214 6.42198L13.3742 8.67805L11.7432 7.08758L10.9526 3.148C10.8909 2.83999 10.5911 2.64089 10.2831 2.70231C9.97513 2.76408 9.77574 3.06382 9.83744 3.37175L10.3009 5.68119L6.49494 1.97007C6.26989 1.75082 5.91012 1.75546 5.69079 1.98022C5.47153 2.20514 5.4761 2.56512 5.70094 2.78431L9.88588 6.8652L6.96652 6.81532C6.65279 6.80676 6.39365 7.06017 6.38822 7.37419C6.38292 7.68821 6.63307 7.94705 6.94709 7.95249L11.0732 8.02304L13.0145 9.91615L10.0505 9.86562C9.73927 9.85866 9.4776 10.1105 9.47216 10.4245C9.46687 10.7385 9.71701 10.9974 10.031 11.0028L14.2017 11.074L16.9794 13.7827C17.0901 13.8905 17.2333 13.9441 17.3763 13.9441C17.5242 13.9441 17.672 13.8867 17.7836 13.7724C18.0031 13.5474 17.9986 13.1875 17.7737 12.9683Z" fill="#5E7398"/>
<path d="M32.3582 0.428767C32.0781 0.133162 31.6822 -0.0225793 31.2749 0.00265252C31.134 0.0115707 27.7853 0.241775 24.3601 2.08747C21.7281 3.50575 18.6539 6.11101 17.475 10.775C16.831 12.6712 15.4125 17.8137 15.7443 25.5565C15.773 26.2264 16.325 26.7502 16.9892 26.7501C17.0072 26.7501 17.0253 26.7497 17.0435 26.7489C17.7315 26.7194 18.2653 26.1379 18.2359 25.4497C18.064 21.4385 18.3943 18.1593 18.8199 15.7396C19.7776 15.6847 22.6312 15.3738 25.5571 13.6195C27.3815 12.5254 28.8983 11.071 30.0655 9.29654C31.4755 7.15284 32.3702 4.54098 32.7249 1.53368C32.7726 1.1291 32.6382 0.724444 32.3582 0.428767Z" fill="#B5C4DD"/>
<path d="M30.5677 1.98025C30.3483 1.75541 29.9883 1.75084 29.7635 1.9701L25.9578 5.68114L26.4213 3.37177C26.483 3.06384 26.2836 2.76418 25.9756 2.70233C25.668 2.64085 25.3679 2.84002 25.3062 3.14802L24.5155 7.0876L22.8846 8.67808L23.3374 6.422C23.3991 6.11407 23.1997 5.81441 22.8917 5.75256C22.5838 5.69093 22.284 5.89025 22.2222 6.19825L21.4423 10.0845L18.4849 12.9684C18.26 13.1876 18.2555 13.5476 18.4747 13.7725C18.5862 13.8867 18.7339 13.9441 18.882 13.9441C19.0251 13.9441 19.1684 13.8904 19.2789 13.7826L22.0566 11.0739L26.2274 11.0027C26.5414 10.9974 26.7916 10.7385 26.7863 10.4244C26.781 10.1137 26.5275 9.8655 26.2179 9.8655C26.2146 9.8655 26.2113 9.8655 26.208 9.86557L23.2439 9.91611L25.1852 8.02299L29.3113 7.95245C29.6253 7.94708 29.8755 7.68824 29.8702 7.37414C29.8649 7.06339 29.6113 6.8152 29.3018 6.8152C29.2985 6.8152 29.2951 6.8152 29.2919 6.81527L26.3725 6.86516L30.5574 2.78426C30.7824 2.56508 30.7869 2.20509 30.5677 1.98025Z" fill="#5E7398"/>
<path d="M31.0073 29.7358C30.4338 29.7358 29.8981 29.8973 29.4429 30.1771C28.7705 27.9771 26.7246 26.3768 24.3045 26.3768C24.0359 26.3768 23.7722 26.3971 23.5143 26.4352C22.4173 23.9255 19.9141 22.1709 17 22.1709C14.086 22.1709 11.5827 23.9255 10.4857 26.4352C10.2277 26.3971 9.96395 26.3768 9.69554 26.3768C7.27545 26.3768 5.22964 27.9771 4.55715 30.1771C4.10189 29.8973 3.5663 29.7358 2.99271 29.7358C1.33995 29.7358 4.57764e-05 31.0757 4.57764e-05 32.7284C4.57764e-05 34.3812 1.33995 35.7211 2.99271 35.7211C3.87843 35.7211 4.67396 35.3361 5.22181 34.7246C6.18483 36.1697 7.82867 37.1223 9.69547 37.1223C11.2073 37.1223 12.5725 36.497 13.5487 35.4919C14.5708 36.0609 15.7471 36.3862 17 36.3862C18.2528 36.3862 19.4292 36.0608 20.4513 35.4919C21.4277 36.497 22.7928 37.1223 24.3046 37.1223C26.1714 37.1223 27.8153 36.1698 28.7782 34.7246C29.3262 35.3361 30.1217 35.7211 31.0073 35.7211C32.6601 35.7211 34 34.3812 34 32.7284C34 31.0756 32.6601 29.7358 31.0073 29.7358Z" fill="#6E85AE"/>
<path d="M20.907 25.0805C21.6138 25.0805 22.2958 25.1851 22.9402 25.3772C21.6695 23.4463 19.4842 22.1709 17 22.1709C14.0858 22.1709 11.5827 23.9255 10.4857 26.4352C10.2277 26.3971 9.96391 26.3768 9.69549 26.3768C7.27541 26.3768 5.2296 27.9771 4.55711 30.1771C4.10185 29.8973 3.56625 29.7357 2.99266 29.7357C1.3399 29.7357 0 31.0756 0 32.7284C0 34.3812 1.3399 35.7211 2.99266 35.7211C3.87839 35.7211 4.67391 35.3361 5.22177 34.7246C6.18478 36.1697 7.82862 37.1223 9.69542 37.1223C11.2072 37.1223 12.5724 36.4969 13.5486 35.4919C13.9944 35.7401 14.4695 35.9417 14.9674 36.0904C14.2298 34.9701 13.7994 33.6296 13.7994 32.1881C13.7994 28.2627 16.9816 25.0805 20.907 25.0805Z" fill="#5E7398"/>
<path d="M19.8265 31.8143C20.5382 31.8143 21.115 31.2374 21.115 30.5258C21.115 29.8142 20.5382 29.2373 19.8265 29.2373C19.1149 29.2373 18.538 29.8142 18.538 30.5258C18.538 31.2374 19.1149 31.8143 19.8265 31.8143Z" fill="#5E7398"/>
<path d="M25.0217 34.8485C25.7333 34.8485 26.3102 34.2716 26.3102 33.56C26.3102 32.8484 25.7333 32.2715 25.0217 32.2715C24.3101 32.2715 23.7332 32.8484 23.7332 33.56C23.7332 34.2716 24.3101 34.8485 25.0217 34.8485Z" fill="#5E7398"/>
<path d="M24.2294 29.6469C24.5032 29.6469 24.7251 29.4249 24.7251 29.1511C24.7251 28.8772 24.5032 28.6553 24.2294 28.6553C23.9555 28.6553 23.7336 28.8772 23.7336 29.1511C23.7336 29.4249 23.9555 29.6469 24.2294 29.6469Z" fill="#5E7398"/>
<path d="M17 34.5512C17.2738 34.5512 17.4957 34.3292 17.4957 34.0554C17.4957 33.7815 17.2738 33.5596 17 33.5596C16.7261 33.5596 16.5042 33.7815 16.5042 34.0554C16.5042 34.3292 16.7261 34.5512 17 34.5512Z" fill="#5E7398"/>
<path d="M18.5376 27.7933C18.8115 27.7933 19.0334 27.5714 19.0334 27.2975C19.0334 27.0237 18.8115 26.8018 18.5376 26.8018C18.2638 26.8018 18.0418 27.0237 18.0418 27.2975C18.0418 27.5714 18.2638 27.7933 18.5376 27.7933Z" fill="#5E7398"/>
<path d="M29.2062 32.3099C29.48 32.3099 29.702 32.088 29.702 31.8141C29.702 31.5403 29.48 31.3184 29.2062 31.3184C28.9324 31.3184 28.7104 31.5403 28.7104 31.8141C28.7104 32.088 28.9324 32.3099 29.2062 32.3099Z" fill="#5E7398"/>
<path d="M26.3106 24.2879C27.0222 24.2879 27.5991 23.711 27.5991 22.9994C27.5991 22.2878 27.0222 21.7109 26.3106 21.7109C25.5989 21.7109 25.0221 22.2878 25.0221 22.9994C25.0221 23.711 25.5989 24.2879 26.3106 24.2879Z" fill="#5E7398"/>
<path d="M29.2061 26.3763C29.48 26.3763 29.7019 26.1544 29.7019 25.8806C29.7019 25.6067 29.48 25.3848 29.2061 25.3848C28.9323 25.3848 28.7103 25.6067 28.7103 25.8806C28.7103 26.1544 28.9323 26.3763 29.2061 26.3763Z" fill="#5E7398"/>
<path d="M29.2061 23.9916C29.48 23.9916 29.7019 23.7696 29.7019 23.4958C29.7019 23.222 29.48 23 29.2061 23C28.9323 23 28.7103 23.222 28.7103 23.4958C28.7103 23.7696 28.9323 23.9916 29.2061 23.9916Z" fill="#5E7398"/>
<path d="M6.59746 23.8338C7.30908 23.8338 7.88595 23.2569 7.88595 22.5453C7.88595 21.8337 7.30908 21.2568 6.59746 21.2568C5.88585 21.2568 5.30897 21.8337 5.30897 22.5453C5.30897 23.2569 5.88585 23.8338 6.59746 23.8338Z" fill="#5E7398"/>
<path d="M4.45783 25.8812C4.73165 25.8812 4.95362 25.6593 4.95362 25.3854C4.95362 25.1116 4.73165 24.8896 4.45783 24.8896C4.18401 24.8896 3.96204 25.1116 3.96204 25.3854C3.96204 25.6593 4.18401 25.8812 4.45783 25.8812Z" fill="#5E7398"/>
</svg>
