<svg width="35" height="33" viewBox="0 0 35 33" fill="none" xmlns="http://www.w3.org/2000/svg">
<path d="M24.6299 30.9422L19.793 31.6282L14.9562 30.9422L15.6424 26.8256L19.793 26.1396L23.9436 26.8256L24.6299 30.9422Z" fill="#AFAFAF"/>
<path d="M24.6299 30.9417H22.5716L21.8856 26.8252H23.9436L24.6299 30.9417Z" fill="#919191"/>
<path d="M34.0975 23.7375H5.48849V5.28241C5.48849 4.52462 6.10295 3.91016 6.86075 3.91016H32.7253C33.4831 3.91016 34.0975 4.52462 34.0975 5.28241V23.7375Z" fill="#6E85AE"/>
<path d="M34.0976 5.28241V23.0515H32.0393V5.28241C32.0393 4.52436 31.4254 3.91016 30.6673 3.91016H32.7253C33.4836 3.91042 34.0976 4.52436 34.0976 5.28241Z" fill="#5E7398"/>
<path d="M31.6964 20.9936H7.88987C7.70023 20.9936 7.54675 20.8401 7.54675 20.6507V6.31188C7.54675 6.12249 7.70023 5.96875 7.88987 5.96875H31.6964C31.8858 5.96875 32.0393 6.12249 32.0393 6.31188V20.6507C32.0393 20.8401 31.8858 20.9936 31.6964 20.9936Z" fill="white"/>
<path d="M11.3201 20.994V12.5898H7.54675V20.6512C7.54675 20.8406 7.70023 20.994 7.88987 20.994H11.3201Z" fill="#E8E8E8"/>
<path d="M32.0393 8.02701H14.7504V5.96875H31.6964C31.8858 5.96875 32.0393 6.12249 32.0393 6.31188V8.02701Z" fill="#D8D8D8"/>
<path d="M26.0019 32.9997H13.5842C13.0158 32.9997 12.5551 32.5389 12.5551 31.9705C12.5551 31.4021 13.0158 30.9414 13.5842 30.9414H26.0019C26.5703 30.9414 27.031 31.4021 27.031 31.9705C27.031 32.5387 26.5703 32.9997 26.0019 32.9997Z" fill="#D8D8D8"/>
<path d="M27.031 31.9705C27.031 32.2544 26.9158 32.5116 26.7292 32.6976C26.5432 32.8842 26.286 32.9997 26.0019 32.9997H23.9436C24.2277 32.9997 24.485 32.8842 24.671 32.6976C24.8575 32.5116 24.9728 32.2544 24.9728 31.9705C24.9728 31.5142 24.6757 31.1271 24.2649 30.9929C24.164 30.9591 24.0555 30.9414 23.9436 30.9414H26.0019C26.57 30.9414 27.031 31.4024 27.031 31.9705Z" fill="#AFAFAF"/>
<path d="M32.7253 26.8251H6.86075C6.10295 26.8251 5.48849 26.2107 5.48849 25.4529V23.0518H34.0975V25.4529C34.0975 26.2109 33.4831 26.8251 32.7253 26.8251Z" fill="#D8D8D8"/>
<path d="M34.0976 23.0518V25.4529C34.0976 26.2109 33.4836 26.8251 32.7253 26.8251H30.6673C31.4254 26.8251 32.0393 26.2112 32.0393 25.4529V23.0518H34.0976Z" fill="#AFAFAF"/>
<path d="M12.0062 14.7504H2.74426C1.22866 14.7504 0 13.5218 0 12.0062V2.74426C0 1.22866 1.22866 0 2.74426 0H12.0062C13.5218 0 14.7504 1.22866 14.7504 2.74426V12.0062C14.7504 13.5218 13.5218 14.7504 12.0062 14.7504Z" fill="#B5C4DD"/>
<path d="M14.7504 2.74426V12.0062C14.7504 13.5218 13.5217 14.7504 12.0061 14.7504H9.94814C11.4635 14.7504 12.6924 13.5218 12.6924 12.0062V2.74426C12.6924 1.22866 11.4635 0 9.94814 0H12.0061C13.5217 0 14.7504 1.22866 14.7504 2.74426Z" fill="#5E7398"/>
<path d="M12.3493 7.67006V7.08031C12.3493 6.86309 12.1732 6.68723 11.956 6.68723H11.8514C11.4404 6.68723 11.0741 6.43099 10.93 6.04598C10.8995 5.96456 10.8662 5.88443 10.8306 5.80561C10.6597 5.42996 10.7351 4.9885 11.0267 4.69688L11.1009 4.62273C11.2544 4.46925 11.2544 4.22029 11.1009 4.06655L10.6839 3.64954C10.5304 3.49605 10.2814 3.49605 10.1277 3.64954L10.0538 3.72368C9.76191 4.01556 9.32044 4.091 8.94479 3.92009C8.86623 3.88419 8.78585 3.85089 8.70442 3.82045C8.31941 3.67633 8.06343 3.31005 8.06343 2.89902V2.79444C8.06343 2.57722 7.88731 2.40137 7.67009 2.40137H7.08034C6.86312 2.40137 6.68727 2.57722 6.68727 2.79444V2.89902C6.68727 3.31005 6.43103 3.67633 6.04601 3.82045C5.96459 3.85089 5.88446 3.88419 5.80564 3.92009C5.42999 4.091 4.98853 4.01556 4.69691 3.72368L4.62277 3.64954C4.46928 3.49605 4.22032 3.49605 4.06658 3.64954L3.64957 4.06655C3.49608 4.22029 3.49608 4.46925 3.64957 4.62273L3.72371 4.69688C4.01559 4.9885 4.09103 5.42996 3.92012 5.80561C3.88422 5.88443 3.85092 5.96456 3.82048 6.04598C3.67636 6.43099 3.31008 6.68723 2.89905 6.68723H2.79448C2.57726 6.68723 2.4014 6.86309 2.4014 7.08031V7.67006C2.4014 7.88728 2.57726 8.0634 2.79448 8.0634H2.89905C3.31008 8.0634 3.67636 8.31964 3.82048 8.70439C3.85092 8.78581 3.88422 8.8662 3.92012 8.94476C4.09103 9.32041 4.01559 9.76187 3.72371 10.0538L3.64957 10.1276C3.49608 10.2814 3.49608 10.5303 3.64957 10.6838L4.06658 11.1008C4.22032 11.2543 4.46928 11.2543 4.62277 11.1008L4.69691 11.0267C4.98853 10.7351 5.42999 10.6596 5.80564 10.8305C5.88446 10.8662 5.96459 10.8995 6.04601 10.9299C6.43103 11.074 6.68727 11.4403 6.68727 11.8513V11.9559C6.68727 12.1731 6.86312 12.3493 7.08034 12.3493H7.67009C7.88731 12.3493 8.06343 12.1731 8.06343 11.9559V11.8513C8.06343 11.4403 8.31967 11.074 8.70442 10.9299C8.78585 10.8995 8.86623 10.8662 8.94479 10.8305C9.32044 10.6596 9.76191 10.7351 10.0538 11.0267L10.1277 11.1008C10.2814 11.2543 10.5304 11.2543 10.6839 11.1008L11.1009 10.6838C11.2544 10.5303 11.2544 10.2814 11.1009 10.1276L11.0267 10.0538C10.7351 9.76187 10.6597 9.32041 10.8306 8.94476C10.8662 8.8662 10.8995 8.78581 10.93 8.70439C11.0741 8.31938 11.4404 8.0634 11.8514 8.0634H11.956C12.1732 8.0634 12.3493 7.88728 12.3493 7.67006Z" fill="#FAFEFF"/>
<path d="M7.37506 9.05591C6.44687 9.05591 5.69427 8.30332 5.69427 7.37512C5.69427 6.44667 6.44687 5.69434 7.37506 5.69434C8.30351 5.69434 9.05611 6.44667 9.05611 7.37512C9.05611 8.30332 8.30351 9.05591 7.37506 9.05591Z" fill="#5E7398"/>
<path d="M23.7038 11.9722H18.7639C18.4798 11.9722 18.2494 11.742 18.2494 11.4577C18.2494 11.1736 18.4798 10.9434 18.7639 10.9434H23.7038C23.9879 10.9434 24.2181 11.1736 24.2181 11.4577C24.2181 11.742 23.9879 11.9722 23.7038 11.9722Z" fill="#747A89"/>
<path d="M28.3003 11.9722H25.7618C25.4777 11.9722 25.2472 11.742 25.2472 11.4577C25.2472 11.1736 25.4777 10.9434 25.7618 10.9434H28.3003C28.5846 10.9434 28.8148 11.1736 28.8148 11.4577C28.8148 11.742 28.5846 11.9722 28.3003 11.9722Z" fill="#747A89"/>
<path d="M23.7038 14.0301H21.6455C21.3612 14.0301 21.131 13.7999 21.131 13.5155C21.131 13.2315 21.3614 13.001 21.6455 13.001H23.7038C23.9879 13.001 24.2181 13.2315 24.2181 13.5155C24.2181 13.7999 23.9879 14.0301 23.7038 14.0301Z" fill="#F2D67C"/>
<path d="M28.3002 14.0301H25.7618C25.4777 14.0301 25.2472 13.7999 25.2472 13.5155C25.2472 13.2315 25.4777 13.001 25.7618 13.001H28.3002C28.5846 13.001 28.8148 13.2315 28.8148 13.5155C28.8148 13.7999 28.5846 14.0301 28.3002 14.0301Z" fill="#F2D67C"/>
<path d="M23.7037 16.0887H21.6455C21.3612 16.0887 21.1309 15.8582 21.1309 15.5741C21.1309 15.2901 21.3614 15.0596 21.6455 15.0596H23.7037C23.9878 15.0596 24.2181 15.2901 24.2181 15.5741C24.2181 15.8582 23.9878 16.0887 23.7037 16.0887Z" fill="#F2D67C"/>
<path d="M28.3002 16.0887H25.7618C25.4777 16.0887 25.2472 15.8582 25.2472 15.5741C25.2472 15.2901 25.4777 15.0596 25.7618 15.0596H28.3002C28.5846 15.0596 28.8148 15.2901 28.8148 15.5741C28.8148 15.8582 28.5846 16.0887 28.3002 16.0887Z" fill="#F2D67C"/>
<path d="M23.7038 18.1463H18.7639C18.4798 18.1463 18.2494 17.9158 18.2494 17.6318C18.2494 17.3474 18.4798 17.1172 18.7639 17.1172H23.7038C23.9879 17.1172 24.2181 17.3474 24.2181 17.6318C24.2181 17.9158 23.9879 18.1463 23.7038 18.1463Z" fill="#747A89"/>
<path d="M28.3003 18.1463H25.7618C25.4777 18.1463 25.2472 17.9158 25.2472 17.6318C25.2472 17.3474 25.4777 17.1172 25.7618 17.1172H28.3003C28.5846 17.1172 28.8148 17.3474 28.8148 17.6318C28.8148 17.9158 28.5846 18.1463 28.3003 18.1463Z" fill="#747A89"/>
</svg>
