<svg width="25" height="42" viewBox="0 0 25 42" fill="none" xmlns="http://www.w3.org/2000/svg">
<path d="M22.2556 42.0001H2.36504C1.05871 42.0001 0 40.9414 0 39.6351V36.207H24.6206V39.6351C24.6207 40.9414 23.5619 42.0001 22.2556 42.0001Z" fill="#EDF0F3"/>
<path d="M14.4828 39.8271H10.138C9.73833 39.8271 9.41392 39.5027 9.41392 39.103C9.41392 38.7033 9.73833 38.3789 10.138 38.3789H14.4828C14.8825 38.3789 15.2069 38.7033 15.2069 39.103C15.2069 39.5027 14.8825 39.8271 14.4828 39.8271Z" fill="#B8BEC3"/>
<path d="M21 39.8271H18.1035C17.7038 39.8271 17.3794 39.5027 17.3794 39.103C17.3794 38.7033 17.7038 38.3789 18.1035 38.3789H21C21.3997 38.3789 21.7241 38.7033 21.7241 39.103C21.7241 39.5027 21.3997 39.8271 21 39.8271Z" fill="#B8BEC3"/>
<path d="M6.51724 39.8281H3.62073C3.22104 39.8281 2.89662 39.5037 2.89662 39.104C2.89662 38.7043 3.22104 38.3799 3.62073 38.3799H6.51724C6.91693 38.3799 7.24135 38.7043 7.24135 39.104C7.24143 39.5037 6.91702 39.8281 6.51724 39.8281Z" fill="#B8BEC3"/>
<path d="M2.36504 0H22.2563C23.5619 0 24.6206 1.05871 24.6206 2.36504V5.79311H0V2.36504C0 1.05871 1.05871 0 2.36504 0Z" fill="#EDF0F3"/>
<path d="M15.9311 3.62107H8.68974C8.29006 3.62107 7.96564 3.29665 7.96564 2.89696C7.96564 2.49727 8.29006 2.17285 8.68974 2.17285H15.9311C16.3308 2.17285 16.6552 2.49727 16.6552 2.89696C16.6552 3.29665 16.3308 3.62107 15.9311 3.62107Z" fill="#B8BEC3"/>
<path d="M24.6206 5.79297H0V36.2067H24.6206V5.79297Z" fill="#5E7398"/>
<path d="M10.8621 8.68945H2.89662V15.9308H10.8621V8.68945Z" fill="#93A7CA"/>
<path d="M21.7241 8.68945H13.7586V15.9308H21.7241V8.68945Z" fill="#97B0DD"/>
<path d="M10.8621 18.8271H2.89662V26.0685H10.8621V18.8271Z" fill="#97B0DD"/>
<path d="M21.7241 18.8271H13.7586V26.0685H21.7241V18.8271Z" fill="#97B0DD"/>
<path d="M10.8621 28.9658H2.89662V36.2071H10.8621V28.9658Z" fill="#97B0DD"/>
<path d="M21.7241 28.9658H13.7586V36.2071H21.7241V28.9658Z" fill="#97B0DD"/>
</svg>
