<svg width="35" height="35" viewBox="0 0 35 35" fill="none" xmlns="http://www.w3.org/2000/svg">
<path d="M0 8.94141H3.57643V19.6707H0V8.94141Z" fill="#4B699C"/>
<path d="M3.57644 10.1328H5.96072V18.4778H3.57644V10.1328Z" fill="#7D96C4"/>
<path d="M20.2664 20.2666H27.4193V22.6509H20.2664V20.2666Z" fill="#4B699C"/>
<path d="M20.2664 11.9214H18.4782L17.2861 9.53711H10.1332L8.94107 11.9214H5.96072V16.69H19.0743C20.391 16.69 21.4586 17.7575 21.4586 19.0742V20.2664H26.2271V17.8821C26.2271 14.59 23.5582 11.9214 20.2664 11.9214Z" fill="#6E85AE"/>
<path d="M8.82381 12.5061L9.05753 11.3369L12.0379 11.933L11.8042 13.1021L8.82381 12.5061Z" fill="#86A0CC"/>
<path d="M15.3843 11.9451L18.3661 11.3496L18.5998 12.5191L15.618 13.1148L15.3843 11.9451Z" fill="#86A0CC"/>
<path d="M11.3254 7.15332H16.0939V9.5376H11.3254V7.15332Z" fill="#4B699C"/>
<path d="M12.5175 4.76855H14.9018V7.15284H12.5175V4.76855Z" fill="#6E85AE"/>
<path d="M7.15289 2.38477H20.2665V4.76905H7.15289V2.38477Z" fill="#6E85AE"/>
<path d="M13.7096 0C14.368 0 14.9018 0.533786 14.9018 1.19214V2.38428H12.5175V1.19214C12.5175 0.533786 13.0513 0 13.7096 0Z" fill="#AFC7F2"/>
<path d="M9.53716 2.38477H10.7293V4.76905H9.53716V2.38477Z" fill="#5E7398"/>
<path d="M13.1136 2.38477H14.3057V4.76905H13.1136V2.38477Z" fill="#5E7398"/>
<path d="M16.69 2.38477H17.8821V4.76905H16.69V2.38477Z" fill="#5E7398"/>
<path d="M28.0154 34.5718H19.6704L21.4586 22.6504H26.2271L28.0154 34.5718Z" fill="#B2C9F2"/>
<path d="M21.4661 34.4741L22.6594 27.3213L23.8355 27.5175L22.6419 34.6703L21.4661 34.4741Z" fill="#86A0CC"/>
<path d="M24.4424 29.2732L25.6273 29.1416L26.2234 34.5059L25.0385 34.6378L24.4424 29.2732Z" fill="#86A0CC"/>
<path d="M30.3996 32.1876C30.3996 32.1876 30.0734 29.2835 31.5918 27.419C33.1099 25.5546 35.943 28.1726 33.38 29.8033C30.8167 31.4341 30.3996 32.1876 30.3996 32.1876Z" fill="#B2C9F2"/>
<path d="M17.2861 33.3803C17.2861 33.3803 17.4208 29.4575 15.4979 28.0157C13.1136 26.2274 11.0195 29.5798 13.7097 30.996C16.3995 32.4123 17.2861 33.3803 17.2861 33.3803Z" fill="#B2C9F2"/>
<path d="M17.8821 26.8232H19.0743V28.0154H17.8821V26.8232Z" fill="#2D75BB"/>
<path d="M28.6115 25.0352H29.8036V26.2273H28.6115V25.0352Z" fill="#2D75BB"/>
<path d="M15.4979 23.2471H16.69V24.4392H15.4979V23.2471Z" fill="#2D75BB"/>
<path d="M30.9958 20.2666H32.1879V21.4587H30.9958V20.2666Z" fill="#2D75BB"/>
</svg>
