<svg width="13" height="12" viewBox="0 0 13 12" fill="none" xmlns="http://www.w3.org/2000/svg">
<path d="M11.0836 0.140625H2.0308C1.31951 0.140625 0.737549 0.725838 0.737549 1.4411V10.5444C0.737549 11.2597 1.31951 11.8449 2.0308 11.8449H11.0836C11.7948 11.8449 12.3768 11.2597 12.3768 10.5444V1.4411C12.3768 0.725838 11.7948 0.140625 11.0836 0.140625ZM6.56365 9.89417C6.11101 9.89417 5.7489 9.53004 5.7489 9.07487C5.7489 8.6132 6.11101 8.26208 6.56365 8.26208C7.02275 8.26208 7.37193 8.6132 7.37193 9.07487C7.36546 9.52354 7.02275 9.89417 6.56365 9.89417ZM8.50999 5.08242C8.01856 5.80418 7.55298 6.03177 7.3008 6.49343C7.19734 6.682 7.15854 6.80555 7.15854 7.41027H5.98168C5.98168 7.09165 5.92995 6.57146 6.18214 6.1228C6.49898 5.55709 7.10035 5.21897 7.44952 4.71829C7.8181 4.1916 7.61118 3.20324 6.56365 3.20324C5.87822 3.20324 5.54198 3.72343 5.39972 4.16559L4.33279 3.71042C4.62377 2.83911 5.40619 2.09133 6.55071 2.09133C7.50772 2.09133 8.16081 2.52699 8.49706 3.07969C8.78157 3.54786 8.9497 4.42568 8.50999 5.08242Z" fill="#C2E0FF"/>
</svg>
