<svg width="12" height="13" viewBox="0 0 12 13" fill="none" xmlns="http://www.w3.org/2000/svg">
<path d="M10.4335 6.75327C10.4577 6.57039 10.4698 6.38142 10.4698 6.18025C10.4698 5.98518 10.4577 5.79011 10.4274 5.60723L11.658 4.64407C11.711 4.60012 11.7473 4.53903 11.7605 4.47123C11.7738 4.40342 11.7633 4.33309 11.7307 4.27222L10.5668 2.24836C10.5325 2.18713 10.4778 2.14008 10.4124 2.11553C10.3469 2.09098 10.2749 2.09053 10.2092 2.11424L8.76031 2.69946C8.4572 2.46781 8.13591 2.27274 7.77825 2.12644L7.56001 0.578061C7.54927 0.508281 7.51401 0.444686 7.46062 0.398825C7.40722 0.352965 7.33925 0.32788 7.26903 0.328127H4.94118C4.79569 0.328127 4.6805 0.431758 4.65626 0.578061L4.43802 2.12644C4.08036 2.27274 3.753 2.47391 3.45596 2.69946L2.00711 2.11424C1.87375 2.06548 1.72219 2.11424 1.64945 2.24836L0.491584 4.27222C0.418839 4.40023 0.443087 4.55873 0.56433 4.64407L1.79494 5.60723C1.76463 5.79011 1.74038 5.99128 1.74038 6.18025C1.74038 6.36923 1.7525 6.57039 1.78281 6.75327L0.552205 7.71644C0.499176 7.76039 0.462943 7.82147 0.449678 7.88928C0.436414 7.95708 0.446939 8.02741 0.47946 8.08829L1.64339 10.1122C1.71613 10.2463 1.86768 10.2889 2.00105 10.2463L3.4499 9.66105C3.753 9.8927 4.07429 10.0878 4.43196 10.2341L4.6502 11.7824C4.68051 11.9287 4.79569 12.0324 4.94118 12.0324H7.26903C7.41452 12.0324 7.53576 11.9287 7.55395 11.7824L7.77218 10.2341C8.12985 10.0878 8.4572 9.8927 8.75425 9.66105L10.2031 10.2463C10.3365 10.295 10.488 10.2463 10.5608 10.1122L11.7247 8.08829C11.7974 7.95418 11.7671 7.80178 11.6519 7.71644L10.4335 6.75327ZM6.1051 8.3748C4.9048 8.3748 3.92274 7.38725 3.92274 6.18025C3.92274 4.97325 4.9048 3.98571 6.1051 3.98571C7.3054 3.98571 8.28746 4.97325 8.28746 6.18025C8.28746 7.38725 7.3054 8.3748 6.1051 8.3748Z" fill="#C2E0FF"/>
</svg>
