<svg width="13" height="13" viewBox="0 0 13 13" fill="none" xmlns="http://www.w3.org/2000/svg">
<path d="M5.76038 1.87524C5.91422 1.85812 6.055 1.78025 6.15174 1.65876C6.24849 1.53726 6.29327 1.38209 6.27625 1.22739C6.25922 1.07269 6.18178 0.931127 6.06096 0.833842C5.94014 0.736557 5.78584 0.691521 5.63199 0.708641C2.713 1.03315 0.444092 3.52011 0.444092 6.54107C0.444092 9.78209 3.05672 12.4093 6.27975 12.4093C9.28278 12.4093 11.7553 10.1283 12.0798 7.19479C12.0968 7.04009 12.0521 6.88493 11.9553 6.76343C11.8586 6.64193 11.7178 6.56406 11.5639 6.54694C11.4101 6.52982 11.2558 6.57486 11.135 6.67214C11.0141 6.76943 10.9367 6.91099 10.9197 7.06569C10.7853 8.257 10.2028 9.35148 9.29155 10.1247C8.38034 10.8979 7.20948 11.2913 6.01905 11.2242C4.82863 11.1572 3.70882 10.6347 2.88924 9.76388C2.06966 8.8931 1.6124 7.74002 1.61122 6.54107C1.61126 5.38639 2.03442 4.27222 2.79984 3.41149C3.56526 2.55075 4.61925 2.00383 5.76038 1.87524Z" fill="#C2E0FF"/>
<path d="M5.69587 3.01953C5.85064 3.01953 5.99907 3.08136 6.10851 3.19141C6.21795 3.30146 6.27944 3.45072 6.27944 3.60635V6.54047H8.03013C8.18491 6.54047 8.33334 6.60229 8.44278 6.71234C8.55222 6.82239 8.6137 6.97165 8.6137 7.12729C8.6137 7.28292 8.55222 7.43218 8.44278 7.54223C8.33334 7.65229 8.18491 7.71411 8.03013 7.71411H5.69587C5.5411 7.71411 5.39267 7.65229 5.28323 7.54223C5.17379 7.43218 5.1123 7.28292 5.1123 7.12729V3.60635C5.1123 3.45072 5.17379 3.30146 5.28323 3.19141C5.39267 3.08136 5.5411 3.01953 5.69587 3.01953Z" fill="#C2E0FF"/>
<path d="M7.89453 0.900697C7.82073 0.879891 7.74358 0.873905 7.66748 0.883081C7.59138 0.892257 7.51782 0.916416 7.451 0.954178C7.31606 1.03044 7.21678 1.15749 7.17499 1.30736C7.1332 1.45723 7.15233 1.61766 7.22818 1.75335C7.30402 1.88904 7.43036 1.98888 7.5794 2.0309C7.74689 2.07844 7.91145 2.13536 8.07077 2.20108C8.21408 2.25999 8.3748 2.25923 8.51757 2.19898C8.66033 2.13873 8.77345 2.02391 8.83203 1.8798C8.89061 1.73568 8.88986 1.57407 8.82994 1.43051C8.77002 1.28695 8.65584 1.17321 8.51253 1.1143C8.31072 1.03153 8.10439 0.960412 7.89453 0.901284V0.900697Z" fill="#C2E0FF"/>
<path d="M10.913 3.97334C11.0562 3.91444 11.2169 3.91517 11.3596 3.97537C11.5023 4.03557 11.6154 4.1503 11.674 4.29433C11.7567 4.49802 11.8278 4.70629 11.887 4.91813C11.91 4.993 11.9178 5.07174 11.9101 5.14972C11.9024 5.2277 11.8792 5.30333 11.8419 5.37214C11.8046 5.44096 11.754 5.50158 11.6931 5.55041C11.6321 5.59924 11.5621 5.63531 11.487 5.65647C11.412 5.67764 11.3335 5.68348 11.2562 5.67365C11.1789 5.66381 11.1043 5.63851 11.0369 5.59923C10.9695 5.55995 10.9105 5.50748 10.8636 5.44493C10.8167 5.38237 10.7827 5.311 10.7636 5.23502C10.7164 5.06644 10.6597 4.90068 10.5938 4.73856C10.5352 4.59459 10.5358 4.43311 10.5956 4.28962C10.6553 4.14613 10.7693 4.03237 10.9124 3.97334H10.913Z" fill="#C2E0FF"/>
<path d="M9.40166 2.2524C9.50626 2.13786 9.65179 2.06976 9.80629 2.06305C9.96079 2.05634 10.1116 2.11157 10.2256 2.21661C10.3494 2.33045 10.4678 2.44958 10.581 2.5734C10.6857 2.68811 10.7407 2.83991 10.734 2.99541C10.7273 3.15092 10.6595 3.29738 10.5454 3.4026C10.4314 3.50781 10.2804 3.56314 10.1258 3.55643C9.97115 3.54972 9.82549 3.4815 9.72087 3.3668C9.63047 3.26766 9.53584 3.1725 9.43725 3.0816C9.38073 3.02955 9.33496 2.96681 9.30254 2.89696C9.27013 2.82712 9.25172 2.75154 9.24836 2.67454C9.245 2.59754 9.25676 2.52063 9.28296 2.4482C9.30917 2.37576 9.3493 2.30923 9.40107 2.2524H9.40166Z" fill="#C2E0FF"/>
</svg>
