<svg width="13" height="10" viewBox="0 0 13 10" fill="none" xmlns="http://www.w3.org/2000/svg">
<path fill-rule="evenodd" clip-rule="evenodd" d="M5.72487 9.6189C5.72487 9.6189 4.97047 9.6189 4.97047 8.86029C4.97047 8.10168 5.72487 5.82587 8.74246 5.82587C11.76 5.82587 12.5144 8.10168 12.5144 8.86029C12.5144 9.6189 11.76 9.6189 11.76 9.6189H5.72487ZM8.74246 5.06726C9.34269 5.06726 9.91835 4.82749 10.3428 4.40069C10.7672 3.97389 11.0056 3.39503 11.0056 2.79144C11.0056 2.18786 10.7672 1.609 10.3428 1.1822C9.91835 0.755398 9.34269 0.515625 8.74246 0.515625C8.14222 0.515625 7.56657 0.755398 7.14214 1.1822C6.71771 1.609 6.47927 2.18786 6.47927 2.79144C6.47927 3.39503 6.71771 3.97389 7.14214 4.40069C7.56657 4.82749 8.14222 5.06726 8.74246 5.06726ZM4.37903 9.6189C4.26719 9.38207 4.21142 9.12242 4.21608 8.86029C4.21608 7.83238 4.72907 6.77412 5.67659 6.03828C5.20365 5.89174 4.71092 5.82008 4.21608 5.82587C1.19849 5.82587 0.444092 8.10168 0.444092 8.86029C0.444092 9.6189 1.19849 9.6189 1.19849 9.6189H4.37903ZM3.83888 5.06726C4.33907 5.06726 4.81878 4.86745 5.17248 4.51178C5.52617 4.15612 5.72487 3.67373 5.72487 3.17075C5.72487 2.66776 5.52617 2.18537 5.17248 1.82971C4.81878 1.47404 4.33907 1.27423 3.83888 1.27423C3.33868 1.27423 2.85897 1.47404 2.50528 1.82971C2.15159 2.18537 1.95289 2.66776 1.95289 3.17075C1.95289 3.67373 2.15159 4.15612 2.50528 4.51178C2.85897 4.86745 3.33868 5.06726 3.83888 5.06726Z" fill="#274b89"/>
</svg>
