<svg width="75" height="24" viewBox="0 0 75 24" fill="none" xmlns="http://www.w3.org/2000/svg">
<path d="M20 6L9 17L4 12" stroke="#39B54A" stroke-width="2" stroke-linecap="round" stroke-linejoin="round"/>
<path d="M42.152 15.22C42.1953 15.324 42.217 15.4107 42.217 15.48C42.217 15.6447 42.1477 15.7833 42.009 15.896C41.879 16.0087 41.7317 16.065 41.567 16.065C41.4543 16.065 41.346 16.0347 41.242 15.974C41.1467 15.9047 41.073 15.8093 41.021 15.688L40.163 13.738H35.405L34.547 15.688C34.495 15.8093 34.417 15.9047 34.313 15.974C34.209 16.0347 34.1007 16.065 33.988 16.065C33.8147 16.065 33.6587 16.0087 33.52 15.896C33.39 15.7833 33.325 15.6447 33.325 15.48C33.325 15.4107 33.3467 15.324 33.39 15.22L37.056 7.199C37.1167 7.06033 37.212 6.952 37.342 6.874C37.4807 6.796 37.6237 6.757 37.771 6.757C37.9183 6.757 38.057 6.796 38.187 6.874C38.3257 6.952 38.4253 7.06033 38.486 7.199L42.152 15.22ZM35.886 12.672H39.695L37.784 8.369L35.886 12.672ZM46.1739 16.091C45.5585 16.091 45.0169 15.9567 44.5489 15.688C44.0895 15.4193 43.7299 15.038 43.4699 14.544C43.2185 14.05 43.0929 13.478 43.0929 12.828C43.0929 12.1693 43.2229 11.5887 43.4829 11.086C43.7515 10.5833 44.1242 10.1933 44.6009 9.916C45.0775 9.63867 45.6235 9.5 46.2389 9.5C46.5682 9.5 46.8975 9.54767 47.2269 9.643C47.5649 9.73833 47.8639 9.86833 48.1239 10.033C48.4012 10.2237 48.5399 10.4447 48.5399 10.696C48.5399 10.8433 48.5009 10.969 48.4229 11.073C48.3449 11.1683 48.2452 11.216 48.1239 11.216C48.0459 11.216 47.9679 11.1987 47.8899 11.164C47.8119 11.1207 47.7122 11.06 47.5909 10.982C47.3742 10.8433 47.1705 10.7393 46.9799 10.67C46.7979 10.592 46.5769 10.553 46.3169 10.553C45.7275 10.553 45.2682 10.7523 44.9389 11.151C44.6182 11.5497 44.4579 12.1043 44.4579 12.815C44.4579 13.5257 44.6182 14.076 44.9389 14.466C45.2595 14.8473 45.7145 15.038 46.3039 15.038C46.5639 15.038 46.7935 14.999 46.9929 14.921C47.1922 14.843 47.3959 14.739 47.6039 14.609C47.6992 14.5483 47.7945 14.4963 47.8899 14.453C47.9852 14.4097 48.0719 14.388 48.1499 14.388C48.2712 14.388 48.3709 14.44 48.4489 14.544C48.5269 14.6393 48.5659 14.7607 48.5659 14.908C48.5659 15.0293 48.5312 15.142 48.4619 15.246C48.4012 15.3413 48.2929 15.441 48.1369 15.545C47.8769 15.7183 47.5735 15.8527 47.2269 15.948C46.8802 16.0433 46.5292 16.091 46.1739 16.091ZM52.4581 16.091C51.8427 16.091 51.3011 15.9567 50.8331 15.688C50.3737 15.4193 50.0141 15.038 49.7541 14.544C49.5027 14.05 49.3771 13.478 49.3771 12.828C49.3771 12.1693 49.5071 11.5887 49.7671 11.086C50.0357 10.5833 50.4084 10.1933 50.8851 9.916C51.3617 9.63867 51.9077 9.5 52.5231 9.5C52.8524 9.5 53.1817 9.54767 53.5111 9.643C53.8491 9.73833 54.1481 9.86833 54.4081 10.033C54.6854 10.2237 54.8241 10.4447 54.8241 10.696C54.8241 10.8433 54.7851 10.969 54.7071 11.073C54.6291 11.1683 54.5294 11.216 54.4081 11.216C54.3301 11.216 54.2521 11.1987 54.1741 11.164C54.0961 11.1207 53.9964 11.06 53.8751 10.982C53.6584 10.8433 53.4547 10.7393 53.2641 10.67C53.0821 10.592 52.8611 10.553 52.6011 10.553C52.0117 10.553 51.5524 10.7523 51.2231 11.151C50.9024 11.5497 50.7421 12.1043 50.7421 12.815C50.7421 13.5257 50.9024 14.076 51.2231 14.466C51.5437 14.8473 51.9987 15.038 52.5881 15.038C52.8481 15.038 53.0777 14.999 53.2771 14.921C53.4764 14.843 53.6801 14.739 53.8881 14.609C53.9834 14.5483 54.0787 14.4963 54.1741 14.453C54.2694 14.4097 54.3561 14.388 54.4341 14.388C54.5554 14.388 54.6551 14.44 54.7331 14.544C54.8111 14.6393 54.8501 14.7607 54.8501 14.908C54.8501 15.0293 54.8154 15.142 54.7461 15.246C54.6854 15.3413 54.5771 15.441 54.4211 15.545C54.1611 15.7183 53.8577 15.8527 53.5111 15.948C53.1644 16.0433 52.8134 16.091 52.4581 16.091ZM60.9912 14.401C61.1126 14.401 61.2122 14.4487 61.2902 14.544C61.3682 14.6393 61.4072 14.7607 61.4072 14.908C61.4072 15.1593 61.2512 15.3717 60.9392 15.545C60.6359 15.7183 60.3022 15.8527 59.9382 15.948C59.5829 16.0433 59.2406 16.091 58.9112 16.091C57.9059 16.091 57.1129 15.8007 56.5322 15.22C55.9516 14.6307 55.6612 13.829 55.6612 12.815C55.6612 12.165 55.7869 11.5887 56.0382 11.086C56.2982 10.5833 56.6579 10.1933 57.1172 9.916C57.5852 9.63867 58.1139 9.5 58.7032 9.5C59.5526 9.5 60.2242 9.773 60.7182 10.319C61.2122 10.865 61.4592 11.6017 61.4592 12.529C61.4592 12.8757 61.3032 13.049 60.9912 13.049H56.9742C57.0609 14.3923 57.7066 15.064 58.9112 15.064C59.2319 15.064 59.5092 15.0207 59.7432 14.934C59.9772 14.8473 60.2242 14.7347 60.4842 14.596C60.5102 14.5787 60.5796 14.544 60.6922 14.492C60.8136 14.4313 60.9132 14.401 60.9912 14.401ZM58.7292 10.462C58.2266 10.462 57.8236 10.6223 57.5202 10.943C57.2169 11.2637 57.0349 11.7143 56.9742 12.295H60.3282C60.3022 11.7057 60.1506 11.255 59.8732 10.943C59.6046 10.6223 59.2232 10.462 58.7292 10.462ZM66.3121 9.5C66.8581 9.5 67.3434 9.63867 67.7681 9.916C68.2014 10.1933 68.5351 10.5833 68.7691 11.086C69.0118 11.5887 69.1331 12.1693 69.1331 12.828C69.1331 13.478 69.0161 14.05 68.7821 14.544C68.5481 15.038 68.2144 15.4193 67.7811 15.688C67.3564 15.9567 66.8668 16.091 66.3121 16.091C65.8354 16.091 65.4151 15.9913 65.0511 15.792C64.6871 15.584 64.4098 15.2893 64.2191 14.908V17.807C64.2191 17.989 64.1584 18.132 64.0371 18.236C63.9244 18.3487 63.7728 18.405 63.5821 18.405C63.3828 18.405 63.2181 18.3487 63.0881 18.236C62.9668 18.1233 62.9061 17.9717 62.9061 17.781V10.163C62.9061 9.97233 62.9668 9.82067 63.0881 9.708C63.2094 9.58667 63.3698 9.526 63.5691 9.526C63.7598 9.526 63.9158 9.58667 64.0371 9.708C64.1584 9.82067 64.2191 9.97233 64.2191 10.163V10.696C64.4098 10.3147 64.6871 10.02 65.0511 9.812C65.4151 9.604 65.8354 9.5 66.3121 9.5ZM66.0001 15.051C66.5721 15.051 67.0141 14.8603 67.3261 14.479C67.6381 14.089 67.7941 13.5387 67.7941 12.828C67.7941 12.1087 67.6338 11.5497 67.3131 11.151C67.0011 10.7523 66.5634 10.553 66.0001 10.553C65.4281 10.553 64.9861 10.748 64.6741 11.138C64.3708 11.528 64.2191 12.0827 64.2191 12.802C64.2191 13.5213 64.3708 14.076 64.6741 14.466C64.9861 14.856 65.4281 15.051 66.0001 15.051ZM73.6684 15.064C73.859 15.0813 73.9934 15.1333 74.0714 15.22C74.158 15.298 74.2014 15.4107 74.2014 15.558C74.2014 15.7313 74.132 15.8657 73.9934 15.961C73.8634 16.0477 73.6684 16.0823 73.4084 16.065L73.0574 16.039C72.3554 15.987 71.831 15.7747 71.4844 15.402C71.1377 15.0207 70.9644 14.4617 70.9644 13.725V10.67H70.1844C69.803 10.67 69.6124 10.501 69.6124 10.163C69.6124 10.007 69.66 9.88567 69.7554 9.799C69.8594 9.70367 70.0024 9.656 70.1844 9.656H70.9644V8.317C70.9644 8.11767 71.0207 7.96167 71.1334 7.849C71.2547 7.73633 71.415 7.68 71.6144 7.68C71.8137 7.68 71.974 7.73633 72.0954 7.849C72.2167 7.96167 72.2774 8.11767 72.2774 8.317V9.656H73.5644C73.7464 9.656 73.885 9.70367 73.9804 9.799C74.0844 9.88567 74.1364 10.007 74.1364 10.163C74.1364 10.3277 74.0844 10.4533 73.9804 10.54C73.885 10.6267 73.7464 10.67 73.5644 10.67H72.2774V13.816C72.2774 14.2233 72.3597 14.5223 72.5244 14.713C72.6977 14.9037 72.9577 15.012 73.3044 15.038L73.6684 15.064Z" fill="#39B54A"/>
</svg>
