<svg width="108" height="40" viewBox="0 0 108 40" fill="none" xmlns="http://www.w3.org/2000/svg">
<circle cx="15.5" cy="19.5" r="15.5" fill="#ECF7FF"/>
<path d="M47.567 34.365C47.393 34.365 47.2383 34.2973 47.103 34.162C46.987 34.046 46.929 33.8913 46.929 33.698V9.077C46.929 8.88367 46.987 8.729 47.103 8.613C47.2383 8.47767 47.393 8.41 47.567 8.41C47.7217 8.41 47.857 8.47767 47.973 8.613C48.1083 8.729 48.176 8.88367 48.176 9.077V33.698C48.176 33.8913 48.118 34.046 48.002 34.162C47.886 34.2973 47.741 34.365 47.567 34.365Z" fill="#274B89"/>
<path d="M64.7791 25.4054C64.8128 25.4729 64.8297 25.5446 64.8297 25.6205C64.8297 25.747 64.7791 25.8524 64.6779 25.9367C64.5851 26.0211 64.4713 26.0633 64.3364 26.0633C64.1255 26.0633 63.9779 25.962 63.8936 25.7596L62.9955 23.7103H58.2264L57.3156 25.7596C57.2313 25.962 57.0837 26.0633 56.8729 26.0633C56.7379 26.0633 56.6199 26.0211 56.5187 25.9367C56.4175 25.844 56.3669 25.7343 56.3669 25.6078C56.3669 25.5404 56.3837 25.4729 56.4175 25.4054L60.0354 17.36C60.086 17.242 60.1619 17.1534 60.2631 17.0944C60.3643 17.0354 60.4739 17.0058 60.592 17.0058C60.7185 17.0058 60.8323 17.0396 60.9335 17.107C61.0347 17.1661 61.1106 17.2504 61.1612 17.36L64.7791 25.4054ZM58.6059 22.8501H62.616L60.6046 18.3088L58.6059 22.8501ZM71.0859 17.0185C71.2462 17.0185 71.3727 17.0649 71.4654 17.1576C71.5582 17.2504 71.6046 17.3685 71.6046 17.5118V25.5572C71.6046 25.709 71.5582 25.8313 71.4654 25.9241C71.3727 26.0169 71.2462 26.0633 71.0859 26.0633C70.9257 26.0633 70.7992 26.0169 70.7064 25.9241C70.6221 25.8313 70.5799 25.709 70.5799 25.5572V24.8741C70.3944 25.2621 70.1203 25.5615 69.7577 25.7723C69.4035 25.9831 68.986 26.0886 68.5053 26.0886C67.9656 26.0886 67.4891 25.9536 67.0759 25.6837C66.6626 25.4139 66.3422 25.0386 66.1145 24.5579C65.8868 24.0688 65.7729 23.5037 65.7729 22.8628C65.7729 22.2303 65.8868 21.6737 66.1145 21.193C66.3422 20.7123 66.6626 20.3412 67.0759 20.0798C67.4891 19.8184 67.9656 19.6876 68.5053 19.6876C68.986 19.6876 69.4035 19.7931 69.7577 20.0039C70.1203 20.2147 70.3944 20.5141 70.5799 20.902V17.5118C70.5799 17.36 70.6221 17.242 70.7064 17.1576C70.7992 17.0649 70.9257 17.0185 71.0859 17.0185ZM68.7077 25.241C69.3065 25.241 69.7661 25.0386 70.0866 24.6338C70.4155 24.2206 70.5799 23.6387 70.5799 22.8881C70.5799 22.1375 70.4155 21.5598 70.0866 21.155C69.7661 20.7502 69.3065 20.5478 68.7077 20.5478C68.109 20.5478 67.6409 20.7502 67.3036 21.155C66.9747 21.5598 66.8102 22.1291 66.8102 22.8628C66.8102 23.6134 66.9747 24.1995 67.3036 24.6211C67.6409 25.0344 68.109 25.241 68.7077 25.241ZM78.4486 17.0185C78.6089 17.0185 78.7354 17.0649 78.8281 17.1576C78.9209 17.2504 78.9673 17.3685 78.9673 17.5118V25.5572C78.9673 25.709 78.9209 25.8313 78.8281 25.9241C78.7354 26.0169 78.6089 26.0633 78.4486 26.0633C78.2884 26.0633 78.1619 26.0169 78.0691 25.9241C77.9848 25.8313 77.9426 25.709 77.9426 25.5572V24.8741C77.7571 25.2621 77.483 25.5615 77.1204 25.7723C76.7662 25.9831 76.3487 26.0886 75.868 26.0886C75.3283 26.0886 74.8518 25.9536 74.4386 25.6837C74.0253 25.4139 73.7049 25.0386 73.4772 24.5579C73.2495 24.0688 73.1356 23.5037 73.1356 22.8628C73.1356 22.2303 73.2495 21.6737 73.4772 21.193C73.7049 20.7123 74.0253 20.3412 74.4386 20.0798C74.8518 19.8184 75.3283 19.6876 75.868 19.6876C76.3487 19.6876 76.7662 19.7931 77.1204 20.0039C77.483 20.2147 77.7571 20.5141 77.9426 20.902V17.5118C77.9426 17.36 77.9848 17.242 78.0691 17.1576C78.1619 17.0649 78.2884 17.0185 78.4486 17.0185ZM76.0704 25.241C76.6692 25.241 77.1288 25.0386 77.4493 24.6338C77.7782 24.2206 77.9426 23.6387 77.9426 22.8881C77.9426 22.1375 77.7782 21.5598 77.4493 21.155C77.1288 20.7502 76.6692 20.5478 76.0704 20.5478C75.4717 20.5478 75.0036 20.7502 74.6663 21.155C74.3374 21.5598 74.1729 22.1291 74.1729 22.8628C74.1729 23.6134 74.3374 24.1995 74.6663 24.6211C75.0036 25.0344 75.4717 25.241 76.0704 25.241ZM87.2258 19.6876C88.7016 19.6876 89.4395 20.5015 89.4395 22.1291V25.5572C89.4395 25.7175 89.3931 25.844 89.3004 25.9367C89.216 26.0211 89.0938 26.0633 88.9335 26.0633C88.7733 26.0633 88.6468 26.0211 88.554 25.9367C88.4613 25.844 88.4149 25.7175 88.4149 25.5572V22.1923C88.4149 21.6189 88.301 21.2014 88.0733 20.94C87.854 20.6786 87.4998 20.5478 87.0107 20.5478C86.4457 20.5478 85.9945 20.7207 85.6572 21.0665C85.3198 21.4123 85.1512 21.8803 85.1512 22.4706V25.5572C85.1512 25.7175 85.1048 25.844 85.012 25.9367C84.9277 26.0211 84.8054 26.0633 84.6452 26.0633C84.4849 26.0633 84.3584 26.0211 84.2657 25.9367C84.1729 25.844 84.1265 25.7175 84.1265 25.5572V20.2189C84.1265 20.0671 84.1729 19.9449 84.2657 19.8521C84.3584 19.7593 84.4849 19.7129 84.6452 19.7129C84.797 19.7129 84.915 19.7593 84.9994 19.8521C85.0921 19.9449 85.1385 20.0629 85.1385 20.2063V20.8514C85.3409 20.4719 85.6234 20.1852 85.9861 19.9912C86.3487 19.7888 86.7619 19.6876 87.2258 19.6876ZM96.0853 24.5705C96.1781 24.5705 96.2582 24.6085 96.3257 24.6844C96.3931 24.7603 96.4269 24.8573 96.4269 24.9753C96.4269 25.1862 96.2793 25.3801 95.9841 25.5572C95.6805 25.7343 95.3601 25.8693 95.0227 25.962C94.6854 26.0464 94.3565 26.0886 94.036 26.0886C93.0831 26.0886 92.3283 25.806 91.7717 25.241C91.2235 24.676 90.9494 23.8959 90.9494 22.9007C90.9494 22.2682 91.0717 21.7116 91.3163 21.2309C91.5608 20.7418 91.9024 20.3623 92.3409 20.0924C92.7879 19.8226 93.2939 19.6876 93.8589 19.6876C94.6601 19.6876 95.2968 19.9491 95.7691 20.4719C96.2413 20.9948 96.4775 21.7032 96.4775 22.5971C96.4775 22.7658 96.4437 22.8881 96.3763 22.964C96.3088 23.0399 96.1992 23.0778 96.0474 23.0778H91.9741C92.05 24.5284 92.7373 25.2536 94.036 25.2536C94.3649 25.2536 94.6474 25.2115 94.8836 25.1271C95.1197 25.0344 95.3727 24.9121 95.6426 24.7603C95.8618 24.6338 96.0094 24.5705 96.0853 24.5705ZM93.8716 20.4846C93.3318 20.4846 92.8975 20.6533 92.5686 20.9906C92.2482 21.3279 92.0584 21.8044 91.9994 22.42H95.5793C95.5625 21.796 95.4064 21.3195 95.1113 20.9906C94.8161 20.6533 94.4029 20.4846 93.8716 20.4846ZM106.338 20.0418C106.422 19.8394 106.561 19.7382 106.755 19.7382C106.882 19.7382 106.996 19.7804 107.097 19.8647C107.198 19.9491 107.249 20.0545 107.249 20.181C107.249 20.24 107.236 20.3033 107.211 20.3707L105.111 25.6837C105.06 25.7934 104.984 25.8819 104.883 25.9494C104.79 26.0084 104.685 26.038 104.567 26.038C104.457 26.038 104.352 26.0084 104.251 25.9494C104.158 25.8819 104.086 25.7934 104.036 25.6837L102.29 21.2436L100.557 25.6837C100.515 25.7934 100.443 25.8819 100.342 25.9494C100.241 26.0084 100.131 26.038 100.013 26.038C99.9033 26.038 99.7979 26.0084 99.6967 25.9494C99.5955 25.8819 99.5196 25.7934 99.469 25.6837L97.3691 20.3834C97.3438 20.3159 97.3311 20.2569 97.3311 20.2063C97.3311 20.0714 97.386 19.9575 97.4956 19.8647C97.6137 19.772 97.7402 19.7256 97.8751 19.7256C98.0775 19.7256 98.2209 19.8268 98.3052 20.0292L100.038 24.697L101.822 20.0671C101.873 19.9575 101.94 19.8732 102.024 19.8141C102.117 19.7551 102.214 19.7256 102.315 19.7256C102.425 19.7256 102.522 19.7551 102.606 19.8141C102.699 19.8732 102.766 19.9575 102.809 20.0671L104.592 24.6844L106.338 20.0418Z" fill="black" fill-opacity="0.7"/>
<path d="M17.325 19.8255C17.4852 19.8255 17.616 19.8803 17.7172 19.9899C17.8268 20.0911 17.8816 20.2219 17.8816 20.3821C17.8816 20.5423 17.8268 20.6773 17.7172 20.7869C17.616 20.8881 17.4852 20.9387 17.325 20.9387H15.3516V22.8994C15.3516 23.0597 15.2968 23.1946 15.1872 23.3042C15.086 23.4139 14.9552 23.4687 14.795 23.4687C14.6348 23.4687 14.4998 23.4139 14.3902 23.3042C14.289 23.1946 14.2384 23.0597 14.2384 22.8994V20.9387H12.265C12.1048 20.9387 11.9698 20.8881 11.8602 20.7869C11.759 20.6773 11.7084 20.5423 11.7084 20.3821C11.7084 20.2219 11.759 20.0911 11.8602 19.9899C11.9698 19.8803 12.1048 19.8255 12.265 19.8255H14.2384V17.8521C14.2384 17.6919 14.289 17.5611 14.3902 17.4599C14.4998 17.3503 14.6348 17.2955 14.795 17.2955C14.9552 17.2955 15.086 17.3503 15.1872 17.4599C15.2968 17.5611 15.3516 17.6919 15.3516 17.8521V19.8255H17.325Z" fill="black" fill-opacity="0.7"/>
</svg>
