<svg width="16" height="12" viewBox="0 0 16 12" fill="none" xmlns="http://www.w3.org/2000/svg">
<path d="M2 0C1.46957 0 0.960859 0.210714 0.585786 0.585786C0.210714 0.960859 0 1.46957 0 2L0 10C0 10.5304 0.210714 11.0391 0.585786 11.4142C0.960859 11.7893 1.46957 12 2 12H14C14.5304 12 15.0391 11.7893 15.4142 11.4142C15.7893 11.0391 16 10.5304 16 10V2C16 1.46957 15.7893 0.960859 15.4142 0.585786C15.0391 0.210714 14.5304 0 14 0H2ZM8.209 6.32C8.209 5.04 8.903 4.276 9.962 4.276C10.617 4.276 11.118 4.57 11.298 5.045H11.351V2.685H12.511V9H11.373V8.253H11.316C11.171 8.727 10.626 9.057 9.949 9.057C8.894 9.057 8.209 8.293 8.209 7.014V6.319V6.32ZM4.169 7.458L3.7 9H2.5L4.513 3.001H5.9L7.905 9H6.644L6.174 7.458H4.17H4.169Z" fill="#929AA7"/>
</svg>
