<svg width="291" height="291" viewBox="0 0 291 291" fill="none" xmlns="http://www.w3.org/2000/svg">
<path d="M205 146C205 179.137 178.137 206 145 206C111.863 206 85 179.137 85 146C85 112.863 111.863 86 145 86C178.137 86 205 112.863 205 146Z" fill="#C4C4C4"/>
<path fill-rule="evenodd" clip-rule="evenodd" d="M145.5 291C225.857 291 291 225.857 291 145.5C291 65.1426 225.857 0 145.5 0C65.1426 0 0 65.1426 0 145.5C0 225.857 65.1426 291 145.5 291ZM145.5 254C205.423 254 254 205.423 254 145.5C254 85.5771 205.423 37 145.5 37C85.5771 37 37 85.5771 37 145.5C37 205.423 85.5771 254 145.5 254Z" fill="#C4C4C4"/>
</svg>
