<svg width="78" height="24" viewBox="0 0 78 24" fill="none" xmlns="http://www.w3.org/2000/svg">
<g opacity="0.5">
<path d="M35.6653 11.862C35.8053 11.862 35.9173 11.904 36.0013 11.988C36.0947 12.072 36.1413 12.1887 36.1413 12.338V15.824C36.1413 16.048 36.104 16.216 36.0293 16.328C35.964 16.44 35.838 16.5287 35.6513 16.594C35.278 16.7527 34.8253 16.8787 34.2933 16.972C33.7613 17.0653 33.2293 17.112 32.6973 17.112C31.7173 17.112 30.8727 16.9113 30.1633 16.51C29.454 16.1087 28.908 15.53 28.5253 14.774C28.152 14.018 27.9653 13.1127 27.9653 12.058C27.9653 11.022 28.152 10.126 28.5253 9.37C28.8987 8.614 29.4353 8.03533 30.1353 7.634C30.8353 7.22333 31.6567 7.018 32.5993 7.018C33.2527 7.018 33.8593 7.12067 34.4193 7.326C34.9793 7.522 35.4507 7.80667 35.8333 8.18C35.992 8.33867 36.0713 8.502 36.0713 8.67C36.0713 8.80067 36.034 8.91733 35.9593 9.02C35.8847 9.11333 35.7913 9.16 35.6793 9.16C35.5673 9.16 35.4367 9.104 35.2873 8.992C34.802 8.61867 34.3633 8.362 33.9713 8.222C33.5793 8.07267 33.1267 7.998 32.6133 7.998C31.5027 7.998 30.6487 8.348 30.0513 9.048C29.4633 9.748 29.1693 10.7513 29.1693 12.058C29.1693 13.3927 29.468 14.41 30.0653 15.11C30.672 15.8007 31.5587 16.146 32.7253 16.146C33.5933 16.146 34.382 16.0153 35.0913 15.754V12.758H33.0473C32.8887 12.758 32.7627 12.716 32.6693 12.632C32.576 12.548 32.5293 12.4407 32.5293 12.31C32.5293 12.17 32.576 12.0627 32.6693 11.988C32.7627 11.904 32.8887 11.862 33.0473 11.862H35.6653ZM41.1202 17.098C40.4762 17.098 39.9069 16.9533 39.4122 16.664C38.9269 16.3747 38.5489 15.964 38.2782 15.432C38.0169 14.8907 37.8862 14.2653 37.8862 13.556C37.8862 12.8467 38.0169 12.226 38.2782 11.694C38.5489 11.1527 38.9269 10.7373 39.4122 10.448C39.9069 10.1587 40.4762 10.014 41.1202 10.014C41.7642 10.014 42.3335 10.1587 42.8282 10.448C43.3229 10.7373 43.7009 11.1527 43.9622 11.694C44.2329 12.226 44.3682 12.8467 44.3682 13.556C44.3682 14.2653 44.2329 14.8907 43.9622 15.432C43.7009 15.964 43.3229 16.3747 42.8282 16.664C42.3335 16.9533 41.7642 17.098 41.1202 17.098ZM41.1202 16.16C41.7922 16.16 42.3055 15.9407 42.6602 15.502C43.0242 15.054 43.2062 14.4053 43.2062 13.556C43.2062 12.7253 43.0242 12.086 42.6602 11.638C42.2962 11.1807 41.7829 10.952 41.1202 10.952C40.4575 10.952 39.9442 11.1807 39.5802 11.638C39.2162 12.086 39.0342 12.7253 39.0342 13.556C39.0342 14.396 39.2115 15.04 39.5662 15.488C39.9302 15.936 40.4482 16.16 41.1202 16.16ZM53.0972 10.014C53.6945 10.014 54.2219 10.1587 54.6792 10.448C55.1365 10.7373 55.4912 11.148 55.7432 11.68C55.9952 12.212 56.1212 12.828 56.1212 13.528C56.1212 14.2373 55.9952 14.8627 55.7432 15.404C55.4912 15.936 55.1365 16.3513 54.6792 16.65C54.2219 16.9487 53.6945 17.098 53.0972 17.098C52.5652 17.098 52.0985 16.9813 51.6972 16.748C51.3052 16.5147 51.0065 16.1833 50.8012 15.754V16.51C50.8012 16.678 50.7499 16.8133 50.6472 16.916C50.5539 17.0187 50.4185 17.07 50.2412 17.07C50.0639 17.07 49.9239 17.0187 49.8212 16.916C49.7185 16.8133 49.6672 16.678 49.6672 16.51V7.606C49.6672 7.44733 49.7185 7.31667 49.8212 7.214C49.9239 7.11133 50.0639 7.06 50.2412 7.06C50.4185 7.06 50.5539 7.11133 50.6472 7.214C50.7499 7.30733 50.8012 7.438 50.8012 7.606V11.358C51.0065 10.9287 51.3052 10.5973 51.6972 10.364C52.0985 10.1307 52.5652 10.014 53.0972 10.014ZM52.8732 16.16C53.5359 16.16 54.0492 15.9313 54.4132 15.474C54.7772 15.0073 54.9592 14.3587 54.9592 13.528C54.9592 12.716 54.7772 12.086 54.4132 11.638C54.0492 11.19 53.5359 10.966 52.8732 10.966C52.2105 10.966 51.6972 11.19 51.3332 11.638C50.9785 12.086 50.8012 12.7253 50.8012 13.556C50.8012 14.3867 50.9785 15.0307 51.3332 15.488C51.6972 15.936 52.2105 16.16 52.8732 16.16ZM60.6016 10.014C62.3096 10.014 63.1636 10.91 63.1636 12.702V16.51C63.1636 16.678 63.1123 16.8133 63.0096 16.916C62.9163 17.0187 62.7856 17.07 62.6176 17.07C62.4496 17.07 62.3143 17.0187 62.2116 16.916C62.109 16.8133 62.0576 16.678 62.0576 16.51V15.838C61.8803 16.2393 61.6096 16.552 61.2456 16.776C60.8816 16.9907 60.4616 17.098 59.9856 17.098C59.547 17.098 59.141 17.0093 58.7676 16.832C58.4036 16.6547 58.1143 16.4073 57.8996 16.09C57.685 15.7727 57.5776 15.4227 57.5776 15.04C57.5776 14.5267 57.7083 14.13 57.9696 13.85C58.231 13.5607 58.6603 13.3553 59.2576 13.234C59.855 13.1033 60.6856 13.038 61.7496 13.038H62.0576V12.576C62.0576 12.016 61.941 11.6053 61.7076 11.344C61.4836 11.0827 61.115 10.952 60.6016 10.952C59.967 10.952 59.323 11.1247 58.6696 11.47C58.4176 11.6287 58.2403 11.708 58.1376 11.708C58.0256 11.708 57.9323 11.666 57.8576 11.582C57.783 11.498 57.7456 11.3907 57.7456 11.26C57.7456 11.1293 57.783 11.0173 57.8576 10.924C57.9416 10.8213 58.0723 10.7187 58.2496 10.616C58.5763 10.4293 58.945 10.2847 59.3556 10.182C59.7756 10.07 60.191 10.014 60.6016 10.014ZM60.1396 16.202C60.6996 16.202 61.157 16.0153 61.5116 15.642C61.8756 15.2593 62.0576 14.7693 62.0576 14.172V13.766H61.8056C60.9843 13.766 60.359 13.8033 59.9296 13.878C59.5003 13.9433 59.1923 14.06 59.0056 14.228C58.8283 14.3867 58.7396 14.6247 58.7396 14.942C58.7396 15.306 58.8703 15.6093 59.1316 15.852C59.4023 16.0853 59.7383 16.202 60.1396 16.202ZM68.0535 17.098C67.4188 17.098 66.8541 16.9533 66.3595 16.664C65.8741 16.3747 65.4961 15.964 65.2255 15.432C64.9641 14.9 64.8335 14.284 64.8335 13.584C64.8335 12.884 64.9688 12.2633 65.2395 11.722C65.5195 11.1807 65.9068 10.7607 66.4015 10.462C66.8961 10.1633 67.4655 10.014 68.1095 10.014C68.4641 10.014 68.8141 10.0653 69.1595 10.168C69.5141 10.2613 69.8221 10.4013 70.0835 10.588C70.2515 10.7 70.3681 10.812 70.4335 10.924C70.5081 11.0267 70.5455 11.1433 70.5455 11.274C70.5455 11.4047 70.5081 11.512 70.4335 11.596C70.3681 11.68 70.2795 11.722 70.1675 11.722C70.1021 11.722 70.0321 11.7033 69.9575 11.666C69.8828 11.6287 69.8175 11.5913 69.7615 11.554C69.7148 11.5167 69.6821 11.4933 69.6635 11.484C69.4208 11.3253 69.1875 11.1993 68.9635 11.106C68.7488 11.0127 68.4828 10.966 68.1655 10.966C67.4841 10.966 66.9521 11.1993 66.5695 11.666C66.1961 12.1233 66.0095 12.7627 66.0095 13.584C66.0095 14.4053 66.1961 15.04 66.5695 15.488C66.9521 15.936 67.4841 16.16 68.1655 16.16C68.4828 16.16 68.7535 16.1133 68.9775 16.02C69.2108 15.9267 69.4441 15.8007 69.6775 15.642C69.7801 15.5767 69.8781 15.5207 69.9715 15.474C70.0648 15.4273 70.1441 15.404 70.2095 15.404C70.3121 15.404 70.3961 15.446 70.4615 15.53C70.5361 15.614 70.5735 15.7213 70.5735 15.852C70.5735 15.9733 70.5408 16.0853 70.4755 16.188C70.4101 16.2813 70.2888 16.3887 70.1115 16.51C69.8501 16.6873 69.5328 16.832 69.1595 16.944C68.7955 17.0467 68.4268 17.098 68.0535 17.098ZM77.3847 16.104C77.534 16.244 77.6087 16.3933 77.6087 16.552C77.6087 16.692 77.5573 16.8133 77.4547 16.916C77.3613 17.0187 77.2447 17.07 77.1047 17.07C76.9833 17.07 76.8573 17.014 76.7267 16.902L73.0727 13.752V16.51C73.0727 16.6873 73.0167 16.8273 72.9047 16.93C72.802 17.0233 72.6713 17.07 72.5127 17.07C72.3447 17.07 72.2047 17.0233 72.0927 16.93C71.99 16.8273 71.9387 16.6873 71.9387 16.51V7.62C71.9387 7.44267 71.99 7.30733 72.0927 7.214C72.2047 7.11133 72.3447 7.06 72.5127 7.06C72.6713 7.06 72.802 7.11133 72.9047 7.214C73.0167 7.30733 73.0727 7.44267 73.0727 7.62V13.304L76.4187 10.238C76.5307 10.126 76.6567 10.07 76.7967 10.07C76.9367 10.07 77.058 10.1213 77.1607 10.224C77.2633 10.3267 77.3147 10.448 77.3147 10.588C77.3147 10.7467 77.2493 10.8867 77.1187 11.008L74.3607 13.472L77.3847 16.104Z" fill="#274B89"/>
<path d="M15 18L9 12L15 6" stroke="#274B89" stroke-width="2" stroke-linecap="round" stroke-linejoin="round"/>
</g>
</svg>
