<svg width="18" height="18" viewBox="0 0 18 18" fill="none" xmlns="http://www.w3.org/2000/svg">
<path d="M0.751922 4.63741L8.57542 0.735563C8.6117 0.717459 8.6517 0.708026 8.69225 0.708008C8.7328 0.70799 8.7728 0.717386 8.8091 0.735457L16.6482 4.63731C16.896 4.76064 16.8082 5.13389 16.5315 5.13389H0.868852C0.592207 5.13389 0.504352 4.76088 0.751922 4.63741ZM16.6746 5.4234H0.727734C0.660601 5.4234 0.596218 5.45007 0.548748 5.49754C0.501278 5.54501 0.474609 5.60939 0.474609 5.67653V7.739C0.474609 7.80614 0.501278 7.87052 0.548748 7.91799C0.596218 7.96546 0.660601 7.99213 0.727734 7.99213H1.26562V15.7061C1.26562 15.9857 1.49228 16.2123 1.77188 16.2123H15.6305C15.9101 16.2123 16.1367 15.9857 16.1367 15.7061V7.99213H16.6746C16.7417 7.99213 16.8061 7.96546 16.8536 7.91799C16.9011 7.87052 16.9277 7.80614 16.9277 7.739V5.67653C16.9277 5.60939 16.9011 5.54501 16.8536 5.49754C16.8061 5.45007 16.7417 5.4234 16.6746 5.4234Z" fill="#DADBDC"/>
<path d="M4.58754 15.7062H2.99219V7.20703H4.58754V15.7062ZM14.394 7.20703H12.7986V15.7062H14.394V7.20703Z" fill="#767777"/>
<path d="M16.9146 4.76854L8.8294 0.744241C8.78666 0.722962 8.73956 0.711896 8.69181 0.711914C8.64406 0.711932 8.59696 0.723034 8.55424 0.744346L0.485243 4.76865C0.193762 4.91402 0.297227 5.35322 0.62295 5.35322H0.701348C0.748996 5.35322 0.795996 5.34219 0.838668 5.32099L8.56454 1.48101C8.60702 1.45989 8.6538 1.44886 8.70125 1.44876C8.74869 1.44867 8.79552 1.45953 8.83809 1.48048L16.6408 5.32151C16.6832 5.34238 16.7299 5.35323 16.7771 5.35322C17.1029 5.35326 17.2063 4.91374 16.9146 4.76854Z" fill="#767777"/>
<path d="M17.1492 4.82031H0.253125C0.185992 4.82031 0.121609 4.84698 0.0741386 4.89445C0.0266685 4.94192 0 5.0063 0 5.07344V5.77336C0 5.8405 0.0266685 5.90488 0.0741386 5.95235C0.121609 5.99982 0.185992 6.02649 0.253125 6.02649H17.1492C17.2164 6.02649 17.2807 5.99982 17.3282 5.95235C17.3757 5.90488 17.4023 5.8405 17.4023 5.77336V5.07344C17.4023 5.0063 17.3757 4.94192 17.3282 4.89445C17.2807 4.84698 17.2164 4.82031 17.1492 4.82031Z" fill="#999999"/>
<path d="M17.1492 7.18164H0.253125C0.185992 7.18164 0.121609 7.20831 0.0741386 7.25578C0.0266685 7.30325 0 7.36763 0 7.43477V8.13469C0 8.20182 0.0266685 8.26621 0.0741386 8.31368C0.121609 8.36115 0.185992 8.38782 0.253125 8.38782H6.00289V15.7065H1.17253C1.00645 15.7065 0.852609 15.7939 0.767496 15.9365L0.126773 17.0103C-0.0608203 17.3247 0.165727 17.7237 0.531809 17.7237H16.8705C17.2366 17.7237 17.4632 17.3247 17.2756 17.0103L16.6348 15.9365C16.593 15.8664 16.5337 15.8083 16.4627 15.768C16.3917 15.7277 16.3115 15.7065 16.2298 15.7065H11.3835V8.38782H17.1492C17.2164 8.38782 17.2807 8.36115 17.3282 8.31368C17.3757 8.26621 17.4023 8.20182 17.4023 8.13469V7.43477C17.4023 7.36763 17.3757 7.30325 17.3282 7.25578C17.2807 7.20831 17.2164 7.18164 17.1492 7.18164Z" fill="#999999"/>
<path d="M6.00244 15.7101L11.3813 15.7031L11.3831 17.0166L6.00416 17.0236L6.00244 15.7101Z" fill="#C8CACB"/>
<path d="M12.1738 17.7238H5.21289V16.9973C5.21289 16.9301 5.23956 16.8657 5.28703 16.8183C5.3345 16.7708 5.39888 16.7441 5.46602 16.7441H11.9207C11.9878 16.7441 12.0522 16.7708 12.0997 16.8183C12.1472 16.8657 12.1738 16.9301 12.1738 16.9973V17.7238Z" fill="#EBECED"/>
<path d="M10.5845 15.7055H6.80225V12.2492C6.80225 11.0879 7.64891 10.1465 8.69337 10.1465C9.73779 10.1465 10.5845 11.0879 10.5845 12.2492V15.7055H10.5845Z" fill="#2B3B47"/>
</svg>
