<svg width="25" height="23" viewBox="0 0 25 23" fill="none" xmlns="http://www.w3.org/2000/svg">
<path d="M20.5569 13.0822C20.552 13.0822 20.5472 13.0833 20.5423 13.0833C15.8794 13.0833 12.084 9.289 12.084 4.625C12.084 3.34284 12.379 2.13082 12.8925 1.04093C12.6266 1.01571 12.3571 1 12.084 1C7.41271 1 3.62575 4.78673 3.62575 9.45826V12.8271C3.62575 15.2184 2.57812 17.4756 0.740178 19.0294C0.12753 19.5527 -0.144389 20.3864 0.0755358 21.1997C0.331746 22.1458 1.26698 22.75 2.24824 22.75H21.9138C22.9433 22.75 23.9137 22.0829 24.1226 21.074C24.2846 20.2935 24.0067 19.514 23.4013 19.0053C21.6444 17.5324 20.6281 15.3682 20.5569 13.0822Z" fill="#274B89"/>
<path d="M23.777 5.41312C23.777 7.85039 21.8013 9.82609 19.3639 9.82609C16.9266 9.82609 14.9509 7.85039 14.9509 5.41312C14.9509 2.97586 16.9266 1 19.3639 1C21.8013 1 23.777 2.97586 23.777 5.41312Z" fill="#FF4B3E"/>
</svg>
