<svg width="449" height="448" viewBox="0 0 449 448" fill="none" xmlns="http://www.w3.org/2000/svg">
<path d="M270.203 146.54C270.203 215.433 214.354 271.282 145.46 271.282C76.5672 271.282 20.7182 215.433 20.7182 146.54C20.7182 77.6463 76.5672 21.7973 145.46 21.7973C214.354 21.7973 270.203 77.6463 270.203 146.54Z" fill="#C4C4C4"/>
<path fill-rule="evenodd" clip-rule="evenodd" d="M146.5 448C313.566 448 449 312.566 449 145.5C449 -21.5661 313.566 -157 146.5 -157C-20.5661 -157 -156 -21.5661 -156 145.5C-156 312.566 -20.5661 448 146.5 448ZM146.5 371.076C271.082 371.076 372.076 270.082 372.076 145.5C372.076 20.918 271.082 -80.0756 146.5 -80.0756C21.918 -80.0756 -79.0756 20.918 -79.0756 145.5C-79.0756 270.082 21.918 371.076 146.5 371.076Z" fill="#C4C4C4"/>
</svg>
