<svg width="14" height="9" viewBox="0 0 14 9" fill="none" xmlns="http://www.w3.org/2000/svg">
<path d="M9.09817 4.19305C9.09817 5.30524 8.15709 6.20685 6.9962 6.20685C5.83532 6.20685 4.89424 5.30524 4.89424 4.19305C4.89424 3.08084 5.83532 2.17924 6.9962 2.17924C8.15709 2.17923 9.09817 3.08085 9.09817 4.19305ZM7 0C5.79804 0.00533166 4.55217 0.297943 3.37279 0.858165C2.49711 1.29125 1.64372 1.90228 0.90293 2.65648C0.539093 3.04146 0.0750283 3.59892 0 4.1937C0.00886667 4.70891 0.561517 5.34484 0.90293 5.73093C1.5976 6.4555 2.42877 7.04948 3.37279 7.52969C4.47262 8.06345 5.68997 8.37076 7 8.38785C8.2031 8.38244 9.44869 8.08646 10.6268 7.52969C11.5024 7.0966 12.3563 6.48512 13.0971 5.73093C13.4609 5.34594 13.925 4.78848 14 4.1937C13.9911 3.67849 13.4385 3.04254 13.0971 2.65645C12.4024 1.93188 11.5708 1.33836 10.6268 0.858141C9.52751 0.324788 8.30716 0.0195883 7 0ZM6.99911 1.04123C8.8205 1.04123 10.297 2.45282 10.297 4.19415C10.297 5.93547 8.8205 7.34707 6.99911 7.34707C5.17773 7.34707 3.70124 5.93546 3.70124 4.19415C3.70124 2.45282 5.17773 1.04123 6.99911 1.04123Z" fill="#274B89"/>
</svg>
