<svg width="26" height="26" viewBox="0 0 26 26" fill="none" xmlns="http://www.w3.org/2000/svg">
<path d="M25.6111 16.1438C23.8742 23.1118 16.8145 27.3475 9.85643 25.6105C2.88822 23.8736 -1.34755 16.8142 0.389479 9.85623C2.1264 2.88822 9.17586 -1.34755 16.1441 0.389479C23.1021 2.11625 27.3481 9.17566 25.6111 16.1438Z" fill="url(#paint0_linear)"/>
<path d="M19.1898 11.3803C19.4437 9.65371 18.1335 8.71934 16.3257 8.09981L16.9148 5.75371L15.4929 5.39824L14.9241 7.6834C14.5483 7.59199 14.1624 7.50059 13.7765 7.41934L14.3452 5.12402L12.9233 4.76855L12.3444 7.10449C12.0296 7.0334 11.7249 6.96231 11.4304 6.89121V6.88106L9.46006 6.39356L9.08428 7.91699C9.08428 7.91699 10.1405 8.16074 10.1202 8.1709C10.6991 8.31309 10.8007 8.69903 10.7804 9.00371L10.1101 11.6748C10.1507 11.685 10.2015 11.6951 10.2624 11.7256C10.2116 11.7154 10.1608 11.7053 10.1101 11.685L9.17568 15.4225C9.10459 15.5951 8.92178 15.8592 8.52568 15.7576C8.53584 15.7779 7.48975 15.5037 7.48975 15.5037L6.77881 17.1389L8.6374 17.6061C8.98272 17.6975 9.31787 17.7787 9.65303 17.8701L9.06397 20.2365L10.4858 20.592L11.0749 18.2459C11.4608 18.3475 11.8468 18.449 12.2124 18.5404L11.6335 20.8764L13.0554 21.2318L13.6444 18.8654C16.0819 19.3225 17.9101 19.1397 18.6718 16.9357C19.2913 15.1686 18.6413 14.1428 17.3616 13.4725C18.3062 13.2592 19.0069 12.6397 19.1898 11.3803ZM15.9296 15.9506C15.4929 17.7178 12.5069 16.7631 11.5421 16.5193L12.3241 13.3811C13.289 13.6248 16.3968 14.1022 15.9296 15.9506ZM16.3765 11.3498C15.9702 12.9647 13.4921 12.142 12.6897 11.9389L13.4007 9.09512C14.203 9.29824 16.7929 9.67403 16.3765 11.3498Z" fill="white"/>
<defs>
<linearGradient id="paint0_linear" x1="12.993" y1="-0.00624" x2="12.993" y2="25.9974" gradientUnits="userSpaceOnUse">
<stop stop-color="#F9AA4B"/>
<stop offset="1" stop-color="#F7931A"/>
</linearGradient>
</defs>
</svg>
