<svg width="16" height="17" viewBox="0 0 16 17" fill="none" xmlns="http://www.w3.org/2000/svg">
<path d="M7.71422 14.9551C4.16372 14.9551 1.28564 12.045 1.28564 8.45508C1.28564 4.86513 4.16372 1.95508 7.71422 1.95508C11.2647 1.95508 14.1428 4.86513 14.1428 8.45508C14.1428 12.045 11.2647 14.9551 7.71422 14.9551ZM7.71422 13.6551C9.07819 13.6551 10.3863 13.1072 11.3508 12.132C12.3152 11.1568 12.8571 9.8342 12.8571 8.45508C12.8571 7.07595 12.3152 5.75331 11.3508 4.77812C10.3863 3.80293 9.07819 3.25508 7.71422 3.25508C6.35025 3.25508 5.04214 3.80293 4.07767 4.77812C3.11319 5.75331 2.57136 7.07595 2.57136 8.45508C2.57136 9.8342 3.11319 11.1568 4.07767 12.132C5.04214 13.1072 6.35025 13.6551 7.71422 13.6551ZM7.71422 5.23758L10.8964 8.45508L7.71422 11.6726L4.53207 8.45508L7.71422 5.23758ZM7.71422 7.07643L6.35072 8.45508L7.71422 9.83373L9.07772 8.45508L7.71422 7.07643Z" fill="black"/>
</svg>
