<svg width="162" height="41" viewBox="0 0 162 41" fill="none" xmlns="http://www.w3.org/2000/svg">
<rect x="0.5" y="0.5" width="160.319" height="40" rx="3.5" fill="#ECF7FF" stroke="#F6F6F6"/>
<path d="M89.632 25.096C88.832 25.096 88.14 24.924 87.556 24.58C86.972 24.228 86.52 23.728 86.2 23.08C85.888 22.424 85.732 21.652 85.732 20.764C85.732 19.884 85.888 19.12 86.2 18.472C86.52 17.816 86.972 17.316 87.556 16.972C88.14 16.62 88.832 16.444 89.632 16.444C90.168 16.444 90.672 16.532 91.144 16.708C91.624 16.876 92.04 17.12 92.392 17.44C92.52 17.56 92.584 17.7 92.584 17.86C92.584 17.972 92.552 18.072 92.488 18.16C92.424 18.24 92.348 18.28 92.26 18.28C92.164 18.28 92.048 18.236 91.912 18.148C91.504 17.828 91.132 17.604 90.796 17.476C90.468 17.348 90.088 17.284 89.656 17.284C88.728 17.284 88.012 17.588 87.508 18.196C87.012 18.796 86.764 19.652 86.764 20.764C86.764 21.884 87.012 22.748 87.508 23.356C88.012 23.956 88.728 24.256 89.656 24.256C90.08 24.256 90.46 24.192 90.796 24.064C91.132 23.936 91.504 23.712 91.912 23.392C92.048 23.304 92.164 23.26 92.26 23.26C92.348 23.26 92.424 23.3 92.488 23.38C92.552 23.46 92.584 23.56 92.584 23.68C92.584 23.84 92.52 23.98 92.392 24.1C92.04 24.42 91.624 24.668 91.144 24.844C90.672 25.012 90.168 25.096 89.632 25.096ZM96.2919 19.012C97.7559 19.012 98.4879 19.78 98.4879 21.316V24.58C98.4879 24.724 98.4439 24.84 98.3559 24.928C98.2759 25.016 98.1639 25.06 98.0199 25.06C97.8759 25.06 97.7599 25.016 97.6719 24.928C97.5839 24.84 97.5399 24.724 97.5399 24.58V24.004C97.3879 24.348 97.1559 24.616 96.8439 24.808C96.5319 24.992 96.1719 25.084 95.7639 25.084C95.3879 25.084 95.0399 25.008 94.7199 24.856C94.4079 24.704 94.1599 24.492 93.9759 24.22C93.7919 23.948 93.6999 23.648 93.6999 23.32C93.6999 22.88 93.8119 22.54 94.0359 22.3C94.2599 22.052 94.6279 21.876 95.1399 21.772C95.6519 21.66 96.3639 21.604 97.2759 21.604H97.5399V21.208C97.5399 20.728 97.4399 20.376 97.2399 20.152C97.0479 19.928 96.7319 19.816 96.2919 19.816C95.7479 19.816 95.1959 19.964 94.6359 20.26C94.4199 20.396 94.2679 20.464 94.1799 20.464C94.0839 20.464 94.0039 20.428 93.9399 20.356C93.8759 20.284 93.8439 20.192 93.8439 20.08C93.8439 19.968 93.8759 19.872 93.9399 19.792C94.0119 19.704 94.1239 19.616 94.2759 19.528C94.5559 19.368 94.8719 19.244 95.2239 19.156C95.5839 19.06 95.9399 19.012 96.2919 19.012ZM95.8959 24.316C96.3759 24.316 96.7679 24.156 97.0719 23.836C97.3839 23.508 97.5399 23.088 97.5399 22.576V22.228H97.3239C96.6199 22.228 96.0839 22.26 95.7159 22.324C95.3479 22.38 95.0839 22.48 94.9239 22.624C94.7719 22.76 94.6959 22.964 94.6959 23.236C94.6959 23.548 94.8079 23.808 95.0319 24.016C95.2639 24.216 95.5519 24.316 95.8959 24.316ZM100.759 25.06C100.615 25.06 100.495 25.02 100.399 24.94C100.311 24.852 100.267 24.732 100.267 24.58V16.96C100.267 16.808 100.311 16.692 100.399 16.612C100.495 16.524 100.615 16.48 100.759 16.48C100.895 16.48 101.007 16.524 101.095 16.612C101.191 16.692 101.239 16.808 101.239 16.96V24.58C101.239 24.732 101.191 24.852 101.095 24.94C101.007 25.02 100.895 25.06 100.759 25.06ZM103.548 25.06C103.404 25.06 103.284 25.02 103.188 24.94C103.1 24.852 103.056 24.732 103.056 24.58V16.96C103.056 16.808 103.1 16.692 103.188 16.612C103.284 16.524 103.404 16.48 103.548 16.48C103.684 16.48 103.796 16.524 103.884 16.612C103.98 16.692 104.028 16.808 104.028 16.96V24.58C104.028 24.732 103.98 24.852 103.884 24.94C103.796 25.02 103.684 25.06 103.548 25.06Z" fill="#274B89"/>
<path d="M61.0074 14C61.9894 14.1906 62.8918 14.6683 63.5993 15.3719C64.3067 16.0756 64.787 16.9733 64.9786 17.95L61.0074 14ZM61.0074 10C63.0476 10.2254 64.95 11.1342 66.4024 12.577C67.8548 14.0198 68.7708 15.911 69 17.94L61.0074 10ZM67.9946 25.92V28.92C67.9958 29.1985 67.9384 29.4742 67.8263 29.7293C67.7141 29.9845 67.5496 30.2136 67.3433 30.4019C67.1369 30.5901 66.8934 30.7335 66.6281 30.8227C66.3629 30.9119 66.0818 30.9451 65.803 30.92C62.7093 30.5856 59.7377 29.5341 57.1267 27.85C54.6976 26.3147 52.6382 24.2662 51.0946 21.85C49.3955 19.2412 48.3382 16.271 48.0082 13.18C47.983 12.9035 48.0161 12.6248 48.1052 12.3616C48.1943 12.0985 48.3375 11.8567 48.5257 11.6516C48.7139 11.4466 48.9429 11.2827 49.1983 11.1705C49.4536 11.0583 49.7297 11.0003 50.0088 11H53.0249C53.5128 10.9952 53.9858 11.1671 54.3557 11.4835C54.7257 11.8 54.9673 12.2394 55.0356 12.72C55.1629 13.6801 55.399 14.6227 55.7394 15.53C55.8746 15.8879 55.9039 16.2769 55.8237 16.6509C55.7435 17.0248 55.5572 17.3681 55.2869 17.64L54.0101 18.91C55.4413 21.4135 57.5253 23.4864 60.0423 24.91L61.3191 23.64C61.5924 23.3711 61.9375 23.1858 62.3135 23.1061C62.6895 23.0263 63.0805 23.0555 63.4404 23.19C64.3525 23.5286 65.3002 23.7634 66.2654 23.89C66.7538 23.9585 67.1998 24.2032 67.5186 24.5775C67.8375 24.9518 68.0069 25.4296 67.9946 25.92Z" stroke="#274B89" stroke-width="2" stroke-linecap="round" stroke-linejoin="round"/>
</svg>
