<svg width="46" height="15" viewBox="0 0 46 15" fill="none" xmlns="http://www.w3.org/2000/svg">
<path d="M10.7341 3.85449L3.82275 10.7659" stroke="#FF4B3E" stroke-width="1.1519" stroke-linecap="round" stroke-linejoin="round"/>
<path d="M3.82275 3.85449L10.7341 10.7659" stroke="#FF4B3E" stroke-width="1.1519" stroke-linecap="round" stroke-linejoin="round"/>
<path d="M20.3692 9.55078C20.2494 9.55078 20.1546 9.51834 20.0847 9.45345C20.0198 9.38356 19.9874 9.29122 19.9874 9.17641V4.64657C19.9874 4.53177 20.0198 4.44192 20.0847 4.37703C20.1546 4.30715 20.2494 4.27221 20.3692 4.27221H21.8367C22.6903 4.27221 23.3517 4.50182 23.8209 4.96104C24.2901 5.42026 24.5247 6.06917 24.5247 6.90775C24.5247 7.74633 24.2901 8.39773 23.8209 8.86195C23.3517 9.32117 22.6903 9.55078 21.8367 9.55078H20.3692ZM21.7918 8.90687C23.0896 8.90687 23.7385 8.2405 23.7385 6.90775C23.7385 5.57999 23.0896 4.91612 21.7918 4.91612H20.7586V8.90687H21.7918ZM28.3439 8.62984C28.4138 8.62984 28.4712 8.65729 28.5162 8.7122C28.5611 8.76711 28.5835 8.83699 28.5835 8.92184C28.5835 9.0666 28.4937 9.18889 28.314 9.28872C28.1393 9.38856 27.9471 9.46592 27.7375 9.52083C27.5328 9.57574 27.3357 9.60319 27.146 9.60319C26.567 9.60319 26.1102 9.43598 25.7758 9.10154C25.4414 8.76211 25.2741 8.3004 25.2741 7.71638C25.2741 7.34202 25.3465 7.01008 25.4913 6.72057C25.641 6.43106 25.8482 6.20644 26.1127 6.04671C26.3823 5.88698 26.6868 5.80711 27.0262 5.80711C27.5154 5.80711 27.9022 5.96434 28.1867 6.27881C28.4712 6.59328 28.6135 7.01756 28.6135 7.55166C28.6135 7.75132 28.5236 7.85115 28.3439 7.85115H26.0304C26.0803 8.62485 26.4521 9.01169 27.146 9.01169C27.3307 9.01169 27.4904 8.98673 27.6252 8.93682C27.7599 8.8869 27.9022 8.82201 28.0519 8.74215C28.0669 8.73217 28.1069 8.7122 28.1717 8.68225C28.2416 8.64731 28.299 8.62984 28.3439 8.62984ZM27.0412 6.36117C26.7516 6.36117 26.5195 6.45352 26.3448 6.63821C26.1701 6.82289 26.0653 7.08245 26.0304 7.41689H27.9621C27.9471 7.07746 27.8598 6.8179 27.7 6.63821C27.5453 6.45352 27.3257 6.36117 27.0412 6.36117ZM31.0117 9.60319C30.6573 9.60319 30.3453 9.52582 30.0757 9.37109C29.8112 9.21635 29.604 8.99672 29.4543 8.7122C29.3095 8.42768 29.2372 8.09824 29.2372 7.72387C29.2372 7.34451 29.312 7.01008 29.4618 6.72057C29.6165 6.43106 29.8312 6.20644 30.1057 6.04671C30.3802 5.88698 30.6947 5.80711 31.0491 5.80711C31.2388 5.80711 31.4285 5.83456 31.6181 5.88947C31.8128 5.94438 31.985 6.01925 32.1348 6.11409C32.2945 6.22391 32.3744 6.35119 32.3744 6.49595C32.3744 6.5808 32.3519 6.65318 32.307 6.71308C32.2621 6.76799 32.2046 6.79544 32.1348 6.79544C32.0898 6.79544 32.0449 6.78546 32 6.76549C31.9551 6.74053 31.8977 6.70559 31.8278 6.66067C31.703 6.5808 31.5857 6.5209 31.4759 6.48097C31.3711 6.43605 31.2438 6.41358 31.094 6.41358C30.7546 6.41358 30.49 6.52839 30.3004 6.758C30.1157 6.98761 30.0233 7.30707 30.0233 7.71638C30.0233 8.12569 30.1157 8.44265 30.3004 8.66727C30.4851 8.8869 30.7471 8.99672 31.0865 8.99672C31.2363 8.99672 31.3686 8.97426 31.4834 8.92933C31.5982 8.88441 31.7155 8.82451 31.8353 8.74964C31.8902 8.71469 31.9451 8.68475 32 8.65979C32.0549 8.63483 32.1048 8.62235 32.1497 8.62235C32.2196 8.62235 32.277 8.6523 32.322 8.7122C32.3669 8.76711 32.3893 8.83699 32.3893 8.92184C32.3893 8.99173 32.3694 9.05662 32.3294 9.11652C32.2945 9.17142 32.2321 9.22883 32.1423 9.28872C31.9925 9.38856 31.8178 9.46592 31.6181 9.52083C31.4185 9.57574 31.2163 9.60319 31.0117 9.60319ZM33.448 9.58822C33.3382 9.58822 33.2459 9.55827 33.171 9.49837C33.1011 9.43847 33.0662 9.34862 33.0662 9.22883V4.60165C33.0662 4.48185 33.1011 4.392 33.171 4.3321C33.2459 4.26721 33.3382 4.23477 33.448 4.23477C33.5578 4.23477 33.6477 4.26721 33.7176 4.3321C33.7875 4.392 33.8224 4.48185 33.8224 4.60165V9.22883C33.8224 9.34862 33.7875 9.43847 33.7176 9.49837C33.6477 9.55827 33.5578 9.58822 33.448 9.58822ZM35.2614 9.58822C35.1516 9.58822 35.0592 9.55827 34.9843 9.49837C34.9145 9.43847 34.8795 9.34862 34.8795 9.22883V6.18896C34.8795 6.06917 34.9145 5.97932 34.9843 5.91942C35.0592 5.85453 35.1516 5.82209 35.2614 5.82209C35.3712 5.82209 35.461 5.85453 35.5309 5.91942C35.6008 5.97932 35.6357 6.06917 35.6357 6.18896V9.22883C35.6357 9.34862 35.6008 9.43847 35.5309 9.49837C35.461 9.55827 35.3712 9.58822 35.2614 9.58822ZM35.2614 5.08833C35.1166 5.08833 35.0018 5.04839 34.917 4.96853C34.8321 4.88866 34.7897 4.78384 34.7897 4.65406C34.7897 4.52428 34.8321 4.42195 34.917 4.34708C35.0018 4.26721 35.1166 4.22728 35.2614 4.22728C35.4011 4.22728 35.5134 4.26721 35.5983 4.34708C35.6882 4.42195 35.7331 4.52428 35.7331 4.65406C35.7331 4.78384 35.6907 4.88866 35.6058 4.96853C35.5209 5.04839 35.4061 5.08833 35.2614 5.08833ZM38.662 5.80711C39.5356 5.80711 39.9723 6.29878 39.9723 7.28212V9.22883C39.9723 9.34363 39.9374 9.43348 39.8675 9.49837C39.8026 9.55827 39.7103 9.58822 39.5905 9.58822C39.4757 9.58822 39.3833 9.55577 39.3134 9.49088C39.2485 9.42599 39.2161 9.33864 39.2161 9.22883V7.31955C39.2161 7.01008 39.1537 6.78296 39.0289 6.63821C38.9091 6.49345 38.7194 6.42107 38.4599 6.42107C38.1554 6.42107 37.9108 6.51591 37.7261 6.70559C37.5414 6.89527 37.4491 7.14984 37.4491 7.4693V9.22883C37.4491 9.33864 37.4141 9.42599 37.3443 9.49088C37.2794 9.55577 37.1895 9.58822 37.0747 9.58822C36.9599 9.58822 36.8676 9.55577 36.7977 9.49088C36.7278 9.42599 36.6929 9.33864 36.6929 9.22883V6.18148C36.6929 6.07665 36.7278 5.9918 36.7977 5.92691C36.8726 5.85703 36.9649 5.82209 37.0747 5.82209C37.1845 5.82209 37.2719 5.85453 37.3368 5.91942C37.4017 5.98431 37.4341 6.06917 37.4341 6.17399V6.48097C37.5539 6.26134 37.7211 6.09413 37.9358 5.97932C38.1504 5.86451 38.3925 5.80711 38.662 5.80711ZM43.867 8.62984C43.9369 8.62984 43.9943 8.65729 44.0392 8.7122C44.0842 8.76711 44.1066 8.83699 44.1066 8.92184C44.1066 9.0666 44.0168 9.18889 43.8371 9.28872C43.6624 9.38856 43.4702 9.46592 43.2605 9.52083C43.0559 9.57574 42.8587 9.60319 42.669 9.60319C42.09 9.60319 41.6333 9.43598 41.2989 9.10154C40.9644 8.76211 40.7972 8.3004 40.7972 7.71638C40.7972 7.34202 40.8696 7.01008 41.0143 6.72057C41.1641 6.43106 41.3712 6.20644 41.6358 6.04671C41.9053 5.88698 42.2098 5.80711 42.5493 5.80711C43.0384 5.80711 43.4253 5.96434 43.7098 6.27881C43.9943 6.59328 44.1366 7.01756 44.1366 7.55166C44.1366 7.75132 44.0467 7.85115 43.867 7.85115H41.5534C41.6033 8.62485 41.9752 9.01169 42.669 9.01169C42.8537 9.01169 43.0135 8.98673 43.1482 8.93682C43.283 8.8869 43.4253 8.82201 43.575 8.74215C43.59 8.73217 43.6299 8.7122 43.6948 8.68225C43.7647 8.64731 43.8221 8.62984 43.867 8.62984ZM42.5642 6.36117C42.2747 6.36117 42.0426 6.45352 41.8679 6.63821C41.6932 6.82289 41.5884 7.08245 41.5534 7.41689H43.4852C43.4702 7.07746 43.3828 6.8179 43.2231 6.63821C43.0684 6.45352 42.8487 6.36117 42.5642 6.36117Z" fill="#FF4B3E"/>
</svg>
