<svg width="32" height="32" viewBox="0 0 32 32" fill="none" xmlns="http://www.w3.org/2000/svg">
<path d="M3.54846 12.71H28.0514V24.9614H3.54846V12.71Z" fill="#CFD8DC"/>
<path d="M3.54846 24.9612H28.0514V27.5404H3.54846V24.9612Z" fill="#B0BEC5"/>
<path d="M17.7341 15.9338H25.4719V27.5405H17.7341V15.9338Z" fill="#455A64"/>
<path d="M6.12744 15.9338H15.1548V23.0268H6.12744V15.9338Z" fill="#E3F2FD"/>
<path d="M6.77209 16.5786H14.5099V22.3819H6.77209V16.5786Z" fill="#1E88E5"/>
<path d="M23.8599 22.0596C23.6664 22.0596 23.5375 22.1885 23.5375 22.382V23.6716C23.5375 23.865 23.6664 23.994 23.8599 23.994C24.0533 23.994 24.1823 23.865 24.1823 23.6716V22.382C24.1823 22.1885 24.0533 22.0596 23.8599 22.0596Z" fill="#90A4AE"/>
<path d="M15.7997 14.6443C16.868 14.6443 17.7341 13.7782 17.7341 12.7098C17.7341 11.6415 16.868 10.7754 15.7997 10.7754C14.7313 10.7754 13.8652 11.6415 13.8652 12.7098C13.8652 13.7782 14.7313 14.6443 15.7997 14.6443Z" fill="#558B2F"/>
<path d="M23.5375 14.6443C24.6058 14.6443 25.4719 13.7782 25.4719 12.7098C25.4719 11.6415 24.6058 10.7754 23.5375 10.7754C22.4691 10.7754 21.603 11.6415 21.603 12.7098C21.603 13.7782 22.4691 14.6443 23.5375 14.6443Z" fill="#558B2F"/>
<path d="M8.06188 14.6443C9.13025 14.6443 9.99633 13.7782 9.99633 12.7098C9.99633 11.6415 9.13025 10.7754 8.06188 10.7754C6.99352 10.7754 6.12744 11.6415 6.12744 12.7098C6.12744 13.7782 6.99352 14.6443 8.06188 14.6443Z" fill="#558B2F"/>
<path d="M26.1167 4.32715H5.48262C4.77333 4.32715 4.19299 4.90748 4.19299 5.61678V7.55122H27.4063V5.61678C27.4063 4.90748 26.826 4.32715 26.1167 4.32715Z" fill="#7CB342"/>
<path d="M13.8652 7.55127H17.7341V12.7098H13.8652V7.55127Z" fill="#7CB342"/>
<path d="M24.1824 7.55127H20.9584L21.6032 12.7098H25.4721L24.1824 7.55127Z" fill="#7CB342"/>
<path d="M7.41707 7.55127H10.6411L9.99633 12.7098H6.12744L7.41707 7.55127Z" fill="#7CB342"/>
<path d="M19.6683 14.6443C20.7367 14.6443 21.6028 13.7782 21.6028 12.7098C21.6028 11.6415 20.7367 10.7754 19.6683 10.7754C18.6 10.7754 17.7339 11.6415 17.7339 12.7098C17.7339 13.7782 18.6 14.6443 19.6683 14.6443Z" fill="#FFA000"/>
<path d="M29.3406 12.7098C29.3406 13.806 28.5023 14.6443 27.4061 14.6443C26.3099 14.6443 25.4717 13.806 25.4717 12.7098C25.4717 11.6136 26.3099 10.7754 27.4061 10.7754L29.3406 12.7098Z" fill="#FFA000"/>
<path d="M11.9305 14.6443C12.9989 14.6443 13.865 13.7782 13.865 12.7098C13.865 11.6415 12.9989 10.7754 11.9305 10.7754C10.8622 10.7754 9.99609 11.6415 9.99609 12.7098C9.99609 13.7782 10.8622 14.6443 11.9305 14.6443Z" fill="#FFA000"/>
<path d="M2.25854 12.7098C2.25854 13.806 3.0968 14.6443 4.19299 14.6443C5.28917 14.6443 6.12743 13.806 6.12743 12.7098C6.12743 11.6136 5.28917 10.7754 4.19299 10.7754L2.25854 12.7098Z" fill="#FFA000"/>
<path d="M20.958 7.55103H17.7339V12.7095H21.6028L20.958 7.55103Z" fill="#FFC107"/>
<path d="M27.406 7.55103H24.1819L25.4715 12.7095H29.3404L27.406 7.55103Z" fill="#FFC107"/>
<path d="M10.6409 7.55103H13.865V12.7095H9.99609L10.6409 7.55103Z" fill="#FFC107"/>
<path d="M4.19299 7.55127H7.41706L6.12743 12.7098H2.25854L4.19299 7.55127Z" fill="#FFC107"/>
</svg>
