<svg width="159" height="153" viewBox="0 0 159 153" fill="none" xmlns="http://www.w3.org/2000/svg">
<path d="M115.336 106.87L12.3281 151.69C5.61357 154.363 -1.05926 147.747 1.55458 141.01L46.5681 36.3813" fill="#FFB636"/>
<path d="M2.55482 143.01L6.1322 134.695C6.43897 134.227 6.7448 133.759 7.05188 133.291C24.8452 106.185 42.8992 79.2438 61.5698 52.7329L82.5043 74.191C66.7088 85.0349 15.4207 138.037 4.67777 152.095C2.33919 149.944 1.20265 146.495 2.55482 143.01Z" fill="#FFD469"/>
<path d="M90.4224 61.1554C109.531 80.2638 119.982 100.793 113.766 107.009C107.55 113.225 87.0208 102.774 67.9121 83.6657C48.8035 64.5573 38.3524 44.0279 44.5684 37.8116C50.7843 31.5954 71.3137 42.0467 90.4224 61.1554Z" fill="#A06C33"/>
<path d="M104.353 22.5667C103.939 25.3672 102.129 27.8407 99.3883 29.3532C97.4958 30.3974 95.2703 30.9402 92.9604 30.9402C92.2245 30.9399 91.4897 30.8855 90.7618 30.7777C89.1282 30.5361 87.493 30.7826 86.2761 31.4539C85.7306 31.7548 84.7933 32.4132 84.641 33.4428C84.489 34.4725 85.1958 35.3739 85.6305 35.8197C86.5752 36.7882 88.017 37.482 89.5999 37.7412C89.6435 37.7459 89.6867 37.7474 89.7303 37.7539C96.409 38.7412 101.179 44.0313 100.364 49.5466C99.9499 52.3473 98.1405 54.8209 95.3991 56.3334C93.5066 57.3776 91.2814 57.9204 88.9715 57.9204C88.2357 57.92 87.5008 57.8657 86.7729 57.7579C85.1396 57.516 83.5038 57.7625 82.287 58.4341C81.7414 58.735 80.8041 59.3933 80.6518 60.423C80.4078 62.0754 82.4368 64.2571 85.7399 64.7452C87.5369 65.0109 88.7785 66.6831 88.5128 68.4804C88.2712 70.1146 86.8668 71.2892 85.2629 71.2892C85.1025 71.2892 84.9407 71.2774 84.7775 71.2533C78.0989 70.266 73.3287 64.9756 74.144 59.4607C74.5579 56.6599 76.3673 54.1864 79.1087 52.6738C81.5971 51.301 84.6608 50.795 87.7352 51.2494C89.3688 51.4907 91.0037 51.2444 92.2208 50.5731C92.7664 50.2722 93.7037 49.6139 93.856 48.5843C94.096 46.9587 92.1331 44.8243 88.9246 44.2908C88.8721 44.2855 88.8192 44.2812 88.7664 44.2735C85.6923 43.8188 82.9058 42.4484 80.9212 40.4141C78.7349 38.1731 77.7186 35.2816 78.1328 32.4805C78.5468 29.6801 80.3562 27.2065 83.0973 25.694C85.5857 24.3211 88.6493 23.8151 91.7238 24.2695C93.3568 24.5105 94.9925 24.2646 96.2094 23.5933C96.755 23.2924 97.6922 22.6341 97.8445 21.6044C97.9965 20.5748 97.2897 19.6733 96.8551 19.2275C95.8844 18.2328 94.3907 17.5235 92.7565 17.2822C90.9595 17.0165 89.7179 15.3443 89.9836 13.547C90.249 11.7496 91.9218 10.5096 93.7188 10.7737C96.793 11.2285 99.5795 12.5989 101.564 14.6332C103.751 16.8744 104.767 19.766 104.353 22.5667Z" fill="#BEA4FF"/>
<path d="M32.6388 47.3322C32.6388 50.3525 30.1902 52.8011 27.1699 52.8011C24.1495 52.8011 21.7009 50.3525 21.7009 47.3322C21.7009 44.3118 24.1495 41.8632 27.1699 41.8632C30.1902 41.8632 32.6388 44.3115 32.6388 47.3322ZM130.397 41.0137C126.908 41.0137 124.079 43.8425 124.079 47.3319C124.079 50.8212 126.908 53.65 130.397 53.65C133.887 53.65 136.715 50.8212 136.715 47.3319C136.715 43.8425 133.887 41.0137 130.397 41.0137ZM73.9727 120.304C70.483 120.304 67.6545 123.133 67.6545 126.622C67.6545 130.111 70.4833 132.94 73.9727 132.94C77.4623 132.94 80.2908 130.111 80.2908 126.622C80.2908 123.133 77.4623 120.304 73.9727 120.304ZM157.786 91.3741C158.741 89.5239 158.016 87.2493 156.166 86.2938C155.428 85.9132 154.547 85.4077 153.528 84.8229C144.571 79.6846 125.935 68.9929 103.991 86.7102C102.37 88.0182 102.118 90.3923 103.426 92.0123C104.733 93.6326 107.107 93.886 108.728 92.5773C126.656 78.1022 141.129 86.4034 149.775 91.3639C150.827 91.9669 151.82 92.5366 152.705 92.9938C153.145 93.221 153.625 93.3594 154.119 93.401C154.612 93.4426 155.109 93.3866 155.581 93.2362C156.052 93.0858 156.49 92.844 156.868 92.5244C157.247 92.2049 157.558 91.814 157.786 91.3741Z" fill="#FF6E83"/>
<path d="M156.467 58.851C156.467 61.5164 154.307 63.677 151.641 63.677C148.976 63.677 146.815 61.5164 146.815 58.851C146.815 56.1855 148.976 54.0249 151.641 54.0249C154.307 54.0249 156.467 56.1855 156.467 58.851ZM124.239 123.115C121.574 123.115 119.413 125.275 119.413 127.941C119.413 130.606 121.574 132.767 124.239 132.767C126.905 132.767 129.065 130.606 129.065 127.941C129.065 125.275 126.904 123.115 124.239 123.115Z" fill="#FFB636"/>
<path d="M44.4595 102.196C44.4595 104.053 42.9538 105.558 41.0968 105.558C39.2398 105.558 37.7341 104.053 37.7341 102.196C37.7341 100.338 39.2395 98.833 41.0968 98.833C42.9541 98.833 44.4595 100.338 44.4595 102.196Z" fill="#F7F9AA"/>
<path d="M134.722 17.3933C134.722 19.2506 133.216 20.756 131.359 20.756C129.502 20.756 127.997 19.2506 127.997 17.3933C127.997 15.536 129.502 14.0306 131.359 14.0306C133.217 14.0303 134.722 15.536 134.722 17.3933ZM14.7008 1.67447C12.8435 1.67447 11.3381 3.17987 11.3381 5.03714C11.3381 6.89441 12.8435 8.39981 14.7008 8.39981C16.5581 8.39981 18.0638 6.89441 18.0638 5.03714C18.0638 3.17987 16.5581 1.67447 14.7008 1.67447ZM67.4288 45.5597C67.8091 44.814 68.2781 43.9648 68.7745 43.0658C71.2935 38.5026 74.743 32.2536 74.9506 24.9753C75.1999 16.2314 70.646 8.29261 61.4159 1.37944C59.8134 0.179258 57.5422 0.505794 56.343 2.10758C55.1431 3.70968 55.469 5.98091 57.0711 7.18048C64.4081 12.6757 67.8866 18.4288 67.7059 24.7686C67.5484 30.2898 64.7103 35.4316 62.4294 39.5629C61.904 40.5153 61.4072 41.4146 60.9735 42.265C60.0637 44.0479 60.7714 46.2304 62.5539 47.1402C63.0629 47.401 63.6265 47.5371 64.1984 47.5372C64.8668 47.5376 65.5224 47.3531 66.0925 47.0041C66.6626 46.6551 67.1251 46.1552 67.4288 45.5597Z" fill="#59CAFC"/>
</svg>
