<svg width="159" height="159" viewBox="0 0 159 159" fill="none" xmlns="http://www.w3.org/2000/svg">
<path d="M116.945 109.87L13.9375 154.69C7.22295 157.363 0.550118 150.747 3.16395 144.01L48.1774 39.3813" fill="#FFB636"/>
<path d="M3.1642 144.01L6.74158 135.695C7.04834 135.227 7.35418 134.759 7.66125 134.291C25.4545 107.185 43.5085 80.2438 62.1792 53.7329L83.1136 75.191C67.3182 86.0349 16.0301 139.037 5.28715 153.095C2.94857 150.944 1.81202 147.495 3.1642 144.01Z" fill="#FFD469"/>
<path d="M94.0318 63.1554C113.14 82.2638 123.592 102.793 117.376 109.01C111.16 115.225 90.6302 104.774 71.5215 85.6657C52.4128 66.5573 41.9618 46.0279 48.1777 39.8117C54.3937 33.5954 74.9231 44.0467 94.0318 63.1554Z" fill="#A06C33"/>
<path d="M48.0689 101.196C48.0689 103.053 46.5631 104.558 44.7062 104.558C42.8492 104.558 41.3435 103.053 41.3435 101.196C41.3435 99.3384 42.8489 97.833 44.7062 97.833C46.5635 97.833 48.0689 99.3384 48.0689 101.196Z" fill="#F7F9AA"/>
<path d="M155.077 65.851C155.077 68.5164 152.916 70.677 150.251 70.677C147.585 70.677 145.425 68.5164 145.425 65.851C145.425 63.1855 147.585 61.0249 150.251 61.0249C152.916 61.0249 155.077 63.1855 155.077 65.851ZM122.849 130.115C120.183 130.115 118.022 132.275 118.022 134.941C118.022 137.606 120.183 139.767 122.849 139.767C125.514 139.767 127.675 137.606 127.675 134.941C127.675 132.275 125.514 130.115 122.849 130.115Z" fill="#FFB636"/>
<path d="M109.962 24.5667C109.548 27.3672 107.739 29.8407 104.998 31.3532C103.105 32.3974 100.88 32.9402 98.5698 32.9402C97.8339 32.9399 97.0991 32.8855 96.3711 32.7777C94.7375 32.5361 93.1024 32.7826 91.8855 33.4539C91.34 33.7548 90.4027 34.4132 90.2504 35.4428C90.0984 36.4725 90.8052 37.3739 91.2399 37.8197C92.1846 38.7882 93.6263 39.482 95.2093 39.7412C95.2528 39.7459 95.2961 39.7474 95.3396 39.7539C102.018 40.7412 106.789 46.0313 105.973 51.5466C105.559 54.3473 103.75 56.8209 101.008 58.3334C99.116 59.3776 96.8908 59.9204 94.5809 59.9204C93.845 59.92 93.1102 59.8657 92.3823 59.7579C90.749 59.516 89.1132 59.7625 87.8963 60.4341C87.3508 60.735 86.4135 61.3933 86.2612 62.423C86.0171 64.0754 88.0462 66.2571 91.3492 66.7452C93.1463 67.0109 94.3878 68.6831 94.1222 70.4804C93.8806 72.1146 92.4762 73.2892 90.8722 73.2892C90.7119 73.2892 90.55 73.2774 90.3869 73.2533C83.7082 72.266 78.9381 66.9756 79.7533 61.4607C80.1673 58.6599 81.9767 56.1864 84.7181 54.6738C87.2065 53.301 90.2701 52.795 93.3446 53.2494C94.9782 53.4907 96.613 53.2444 97.8302 52.5731C98.3758 52.2722 99.3131 51.6139 99.4654 50.5843C99.7054 48.9587 97.7425 46.8243 94.534 46.2908C94.4814 46.2855 94.4286 46.2812 94.3758 46.2735C91.3017 45.8188 88.5151 44.4484 86.5306 42.4141C84.3443 40.1731 83.3279 37.2816 83.7422 34.4805C84.1562 31.6801 85.9655 29.2065 88.7067 27.694C91.1951 26.3211 94.2587 25.8151 97.3331 26.2695C98.9661 26.5105 100.602 26.2646 101.819 25.5933C102.364 25.2924 103.302 24.6341 103.454 23.6044C103.606 22.5748 102.899 21.6733 102.464 21.2275C101.494 20.2328 100 19.5235 98.3659 19.2822C96.5689 19.0165 95.3273 17.3443 95.593 15.547C95.8583 13.7496 97.5312 12.5096 99.3282 12.7737C102.402 13.2285 105.189 14.5989 107.173 16.6332C109.36 18.8744 110.376 21.766 109.962 24.5667Z" fill="#BEA4FF"/>
<path d="M25.2482 49.3322C25.2482 52.3525 22.7996 54.8011 19.7792 54.8011C16.7589 54.8011 14.3103 52.3525 14.3103 49.3322C14.3103 46.3118 16.7589 43.8632 19.7792 43.8632C22.7996 43.8632 25.2482 46.3115 25.2482 49.3322ZM123.007 43.0137C119.517 43.0137 116.688 45.8425 116.688 49.3319C116.688 52.8212 119.517 55.65 123.007 55.65C126.496 55.65 129.325 52.8212 129.325 49.3319C129.325 45.8425 126.496 43.0137 123.007 43.0137ZM66.582 122.304C63.0924 122.304 60.2638 125.133 60.2638 128.622C60.2638 132.111 63.0927 134.94 66.582 134.94C70.0717 134.94 72.9002 132.111 72.9002 128.622C72.9002 125.133 70.0717 122.304 66.582 122.304ZM150.395 93.3741C151.35 91.5239 150.625 89.2493 148.775 88.2938C148.037 87.9132 147.157 87.4077 146.137 86.8229C137.181 81.6846 118.544 70.9929 96.6002 88.7102C94.9799 90.0182 94.7271 92.3923 96.0351 94.0123C97.3428 95.6326 99.7166 95.886 101.337 94.5773C119.266 80.1022 133.738 88.4034 142.385 93.3639C143.436 93.9669 144.429 94.5366 145.314 94.9938C145.754 95.221 146.235 95.3594 146.728 95.401C147.221 95.4426 147.718 95.3866 148.19 95.2362C148.662 95.0858 149.099 94.844 149.478 94.5244C149.856 94.2049 150.168 93.814 150.395 93.3741Z" fill="#FF6E83"/>
<path d="M134.331 19.3933C134.331 21.2506 132.826 22.756 130.969 22.756C129.112 22.756 127.606 21.2506 127.606 19.3933C127.606 17.536 129.112 16.0306 130.969 16.0306C132.826 16.0303 134.331 17.536 134.331 19.3933ZM14.3102 3.67447C12.4529 3.67447 10.9475 5.17987 10.9475 7.03714C10.9475 8.89441 12.4529 10.3998 14.3102 10.3998C16.1675 10.3998 17.6732 8.89441 17.6732 7.03714C17.6732 5.17987 16.1675 3.67447 14.3102 3.67447ZM67.0382 47.5597C67.4185 46.814 67.8874 45.9648 68.3839 45.0658C70.9029 40.5026 74.3523 34.2536 74.5599 26.9753C74.8092 18.2314 70.2554 10.2926 61.0252 3.37944C59.4228 2.17926 57.1516 2.50579 55.9523 4.10758C54.7525 5.70968 55.0784 7.98091 56.6805 9.18048C64.0175 14.6757 67.496 20.4288 67.3153 26.7686C67.1577 32.2898 64.3196 37.4316 62.0388 41.5629C61.5133 42.5153 61.0166 43.4146 60.5828 44.265C59.6731 46.0479 60.3808 48.2304 62.1633 49.1402C62.6722 49.401 63.2359 49.5371 63.8077 49.5372C64.4762 49.5376 65.1318 49.3531 65.7019 49.0041C66.272 48.6551 66.7345 48.1552 67.0382 47.5597Z" fill="#59CAFC"/>
</svg>
