<svg width="690" height="174" viewBox="0 0 690 174" fill="none" xmlns="http://www.w3.org/2000/svg">
<path d="M1.44 142.055C1.25667 142.07 1.11733 142.044 1.022 141.978C0.926667 141.912 0.879 141.813 0.879 141.681C0.879 141.439 1.01467 141.314 1.286 141.307L1.616 141.285C1.99 141.263 2.26867 141.149 2.452 140.944C2.63533 140.731 2.727 140.394 2.727 139.932V134.652C2.727 134.513 2.771 134.403 2.859 134.322C2.947 134.234 3.05333 134.19 3.178 134.19C3.31733 134.19 3.42733 134.234 3.508 134.322C3.58867 134.403 3.629 134.513 3.629 134.652V139.943C3.629 140.618 3.475 141.127 3.167 141.472C2.859 141.809 2.39333 141.996 1.77 142.033L1.44 142.055ZM7.60189 136.511C8.94389 136.511 9.61489 137.215 9.61489 138.623V141.615C9.61489 141.747 9.57456 141.853 9.49389 141.934C9.42056 142.015 9.31789 142.055 9.18589 142.055C9.05389 142.055 8.94756 142.015 8.86689 141.934C8.78622 141.853 8.74589 141.747 8.74589 141.615V141.087C8.60656 141.402 8.39389 141.648 8.10789 141.824C7.82189 141.993 7.49189 142.077 7.11789 142.077C6.77322 142.077 6.45422 142.007 6.16089 141.868C5.87489 141.729 5.64756 141.534 5.47889 141.285C5.31022 141.036 5.22589 140.761 5.22589 140.46C5.22589 140.057 5.32856 139.745 5.53389 139.525C5.73922 139.298 6.07656 139.136 6.54589 139.041C7.01522 138.938 7.66789 138.887 8.50389 138.887H8.74589V138.524C8.74589 138.084 8.65422 137.761 8.47089 137.556C8.29489 137.351 8.00522 137.248 7.60189 137.248C7.10322 137.248 6.59722 137.384 6.08389 137.655C5.88589 137.78 5.74656 137.842 5.66589 137.842C5.57789 137.842 5.50456 137.809 5.44589 137.743C5.38722 137.677 5.35789 137.593 5.35789 137.49C5.35789 137.387 5.38722 137.299 5.44589 137.226C5.51189 137.145 5.61456 137.065 5.75389 136.984C6.01056 136.837 6.30022 136.724 6.62289 136.643C6.95289 136.555 7.27922 136.511 7.60189 136.511ZM7.23889 141.373C7.67889 141.373 8.03822 141.226 8.31689 140.933C8.60289 140.632 8.74589 140.247 8.74589 139.778V139.459H8.54789C7.90256 139.459 7.41122 139.488 7.07389 139.547C6.73656 139.598 6.49456 139.69 6.34789 139.822C6.20856 139.947 6.13889 140.134 6.13889 140.383C6.13889 140.669 6.24156 140.907 6.44689 141.098C6.65956 141.281 6.92356 141.373 7.23889 141.373ZM13.9409 136.511C15.2242 136.511 15.8659 137.219 15.8659 138.634V141.615C15.8659 141.754 15.8256 141.864 15.7449 141.945C15.6716 142.018 15.5652 142.055 15.4259 142.055C15.2866 142.055 15.1766 142.018 15.0959 141.945C15.0152 141.864 14.9749 141.754 14.9749 141.615V138.689C14.9749 138.19 14.8759 137.827 14.6779 137.6C14.4872 137.373 14.1792 137.259 13.7539 137.259C13.2626 137.259 12.8702 137.409 12.5769 137.71C12.2836 138.011 12.1369 138.418 12.1369 138.931V141.615C12.1369 141.754 12.0966 141.864 12.0159 141.945C11.9426 142.018 11.8362 142.055 11.6969 142.055C11.5576 142.055 11.4476 142.018 11.3669 141.945C11.2862 141.864 11.2459 141.754 11.2459 141.615V136.973C11.2459 136.841 11.2862 136.735 11.3669 136.654C11.4476 136.573 11.5576 136.533 11.6969 136.533C11.8289 136.533 11.9316 136.573 12.0049 136.654C12.0856 136.735 12.1259 136.837 12.1259 136.962V137.523C12.3019 137.193 12.5476 136.944 12.8629 136.775C13.1782 136.599 13.5376 136.511 13.9409 136.511ZM24.9208 141.241C25.0528 141.241 25.1555 141.274 25.2288 141.34C25.3021 141.406 25.3388 141.498 25.3388 141.615C25.3388 141.74 25.3021 141.835 25.2288 141.901C25.1628 141.967 25.0601 142 24.9208 142H21.2798C21.1405 142 21.0341 141.967 20.9608 141.901C20.8948 141.835 20.8618 141.74 20.8618 141.615C20.8618 141.498 20.8985 141.406 20.9718 141.34C21.0451 141.274 21.1478 141.241 21.2798 141.241H22.6438V135.345L21.4448 136.126C21.3861 136.163 21.3275 136.181 21.2688 136.181C21.1661 136.181 21.0745 136.133 20.9938 136.038C20.9205 135.943 20.8838 135.84 20.8838 135.73C20.8838 135.576 20.9425 135.466 21.0598 135.4L22.7318 134.311C22.8565 134.23 22.9848 134.19 23.1168 134.19C23.2415 134.19 23.3441 134.23 23.4248 134.311C23.5055 134.392 23.5458 134.505 23.5458 134.652V141.241H24.9208ZM27.2265 139.437C27.0945 139.437 26.9918 139.404 26.9185 139.338C26.8525 139.272 26.8195 139.184 26.8195 139.074C26.8195 138.964 26.8525 138.876 26.9185 138.81C26.9918 138.737 27.0945 138.7 27.2265 138.7H29.6465C29.7858 138.7 29.8885 138.737 29.9545 138.81C30.0278 138.876 30.0645 138.964 30.0645 139.074C30.0645 139.184 30.0278 139.272 29.9545 139.338C29.8885 139.404 29.7858 139.437 29.6465 139.437H27.2265ZM36.3653 141.241C36.4973 141.241 36.6 141.274 36.6733 141.34C36.7467 141.406 36.7833 141.498 36.7833 141.615C36.7833 141.872 36.644 142 36.3653 142H32.0533C31.9287 142 31.826 141.963 31.7453 141.89C31.6647 141.809 31.6243 141.714 31.6243 141.604C31.6243 141.465 31.6757 141.344 31.7783 141.241L34.4293 138.326C34.796 137.915 35.06 137.549 35.2213 137.226C35.39 136.896 35.4743 136.566 35.4743 136.236C35.4743 135.811 35.3497 135.484 35.1003 135.257C34.8583 135.03 34.5137 134.916 34.0663 134.916C33.7143 134.916 33.377 134.982 33.0543 135.114C32.7317 135.239 32.409 135.433 32.0863 135.697C31.9763 135.785 31.8737 135.829 31.7783 135.829C31.6977 135.829 31.628 135.792 31.5693 135.719C31.5107 135.638 31.4813 135.543 31.4813 135.433C31.4813 135.279 31.54 135.154 31.6573 135.059C31.958 134.78 32.3247 134.56 32.7573 134.399C33.19 134.238 33.6337 134.157 34.0883 134.157C34.785 134.157 35.3387 134.34 35.7493 134.707C36.1673 135.074 36.3763 135.569 36.3763 136.192C36.3763 136.639 36.2737 137.068 36.0683 137.479C35.8703 137.89 35.5403 138.348 35.0783 138.854L32.8783 141.241H36.3653Z" fill="#3B3B3B" fill-opacity="0.7"/>
<path d="M263.44 142.055C263.257 142.07 263.117 142.044 263.022 141.978C262.927 141.912 262.879 141.813 262.879 141.681C262.879 141.439 263.015 141.314 263.286 141.307L263.616 141.285C263.99 141.263 264.269 141.149 264.452 140.944C264.635 140.731 264.727 140.394 264.727 139.932V134.652C264.727 134.513 264.771 134.403 264.859 134.322C264.947 134.234 265.053 134.19 265.178 134.19C265.317 134.19 265.427 134.234 265.508 134.322C265.589 134.403 265.629 134.513 265.629 134.652V139.943C265.629 140.618 265.475 141.127 265.167 141.472C264.859 141.809 264.393 141.996 263.77 142.033L263.44 142.055ZM269.602 136.511C270.944 136.511 271.615 137.215 271.615 138.623V141.615C271.615 141.747 271.575 141.853 271.494 141.934C271.421 142.015 271.318 142.055 271.186 142.055C271.054 142.055 270.948 142.015 270.867 141.934C270.786 141.853 270.746 141.747 270.746 141.615V141.087C270.607 141.402 270.394 141.648 270.108 141.824C269.822 141.993 269.492 142.077 269.118 142.077C268.773 142.077 268.454 142.007 268.161 141.868C267.875 141.729 267.648 141.534 267.479 141.285C267.31 141.036 267.226 140.761 267.226 140.46C267.226 140.057 267.329 139.745 267.534 139.525C267.739 139.298 268.077 139.136 268.546 139.041C269.015 138.938 269.668 138.887 270.504 138.887H270.746V138.524C270.746 138.084 270.654 137.761 270.471 137.556C270.295 137.351 270.005 137.248 269.602 137.248C269.103 137.248 268.597 137.384 268.084 137.655C267.886 137.78 267.747 137.842 267.666 137.842C267.578 137.842 267.505 137.809 267.446 137.743C267.387 137.677 267.358 137.593 267.358 137.49C267.358 137.387 267.387 137.299 267.446 137.226C267.512 137.145 267.615 137.065 267.754 136.984C268.011 136.837 268.3 136.724 268.623 136.643C268.953 136.555 269.279 136.511 269.602 136.511ZM269.239 141.373C269.679 141.373 270.038 141.226 270.317 140.933C270.603 140.632 270.746 140.247 270.746 139.778V139.459H270.548C269.903 139.459 269.411 139.488 269.074 139.547C268.737 139.598 268.495 139.69 268.348 139.822C268.209 139.947 268.139 140.134 268.139 140.383C268.139 140.669 268.242 140.907 268.447 141.098C268.66 141.281 268.924 141.373 269.239 141.373ZM275.941 136.511C277.224 136.511 277.866 137.219 277.866 138.634V141.615C277.866 141.754 277.826 141.864 277.745 141.945C277.672 142.018 277.565 142.055 277.426 142.055C277.287 142.055 277.177 142.018 277.096 141.945C277.015 141.864 276.975 141.754 276.975 141.615V138.689C276.975 138.19 276.876 137.827 276.678 137.6C276.487 137.373 276.179 137.259 275.754 137.259C275.263 137.259 274.87 137.409 274.577 137.71C274.284 138.011 274.137 138.418 274.137 138.931V141.615C274.137 141.754 274.097 141.864 274.016 141.945C273.943 142.018 273.836 142.055 273.697 142.055C273.558 142.055 273.448 142.018 273.367 141.945C273.286 141.864 273.246 141.754 273.246 141.615V136.973C273.246 136.841 273.286 136.735 273.367 136.654C273.448 136.573 273.558 136.533 273.697 136.533C273.829 136.533 273.932 136.573 274.005 136.654C274.086 136.735 274.126 136.837 274.126 136.962V137.523C274.302 137.193 274.548 136.944 274.863 136.775C275.178 136.599 275.538 136.511 275.941 136.511ZM286.921 141.241C287.053 141.241 287.155 141.274 287.229 141.34C287.302 141.406 287.339 141.498 287.339 141.615C287.339 141.74 287.302 141.835 287.229 141.901C287.163 141.967 287.06 142 286.921 142H283.28C283.14 142 283.034 141.967 282.961 141.901C282.895 141.835 282.862 141.74 282.862 141.615C282.862 141.498 282.898 141.406 282.972 141.34C283.045 141.274 283.148 141.241 283.28 141.241H284.644V135.345L283.445 136.126C283.386 136.163 283.327 136.181 283.269 136.181C283.166 136.181 283.074 136.133 282.994 136.038C282.92 135.943 282.884 135.84 282.884 135.73C282.884 135.576 282.942 135.466 283.06 135.4L284.732 134.311C284.856 134.23 284.985 134.19 285.117 134.19C285.241 134.19 285.344 134.23 285.425 134.311C285.505 134.392 285.546 134.505 285.546 134.652V141.241H286.921ZM289.226 139.437C289.094 139.437 288.992 139.404 288.918 139.338C288.852 139.272 288.819 139.184 288.819 139.074C288.819 138.964 288.852 138.876 288.918 138.81C288.992 138.737 289.094 138.7 289.226 138.7H291.646C291.786 138.7 291.888 138.737 291.954 138.81C292.028 138.876 292.064 138.964 292.064 139.074C292.064 139.184 292.028 139.272 291.954 139.338C291.888 139.404 291.786 139.437 291.646 139.437H289.226ZM298.365 141.241C298.497 141.241 298.6 141.274 298.673 141.34C298.747 141.406 298.783 141.498 298.783 141.615C298.783 141.872 298.644 142 298.365 142H294.053C293.929 142 293.826 141.963 293.745 141.89C293.665 141.809 293.624 141.714 293.624 141.604C293.624 141.465 293.676 141.344 293.778 141.241L296.429 138.326C296.796 137.915 297.06 137.549 297.221 137.226C297.39 136.896 297.474 136.566 297.474 136.236C297.474 135.811 297.35 135.484 297.1 135.257C296.858 135.03 296.514 134.916 296.066 134.916C295.714 134.916 295.377 134.982 295.054 135.114C294.732 135.239 294.409 135.433 294.086 135.697C293.976 135.785 293.874 135.829 293.778 135.829C293.698 135.829 293.628 135.792 293.569 135.719C293.511 135.638 293.481 135.543 293.481 135.433C293.481 135.279 293.54 135.154 293.657 135.059C293.958 134.78 294.325 134.56 294.757 134.399C295.19 134.238 295.634 134.157 296.088 134.157C296.785 134.157 297.339 134.34 297.749 134.707C298.167 135.074 298.376 135.569 298.376 136.192C298.376 136.639 298.274 137.068 298.068 137.479C297.87 137.89 297.54 138.348 297.078 138.854L294.878 141.241H298.365Z" fill="#3B3B3B" fill-opacity="0.7"/>
<path d="M525.44 142.055C525.257 142.07 525.117 142.044 525.022 141.978C524.927 141.912 524.879 141.813 524.879 141.681C524.879 141.439 525.015 141.314 525.286 141.307L525.616 141.285C525.99 141.263 526.269 141.149 526.452 140.944C526.635 140.731 526.727 140.394 526.727 139.932V134.652C526.727 134.513 526.771 134.403 526.859 134.322C526.947 134.234 527.053 134.19 527.178 134.19C527.317 134.19 527.427 134.234 527.508 134.322C527.589 134.403 527.629 134.513 527.629 134.652V139.943C527.629 140.618 527.475 141.127 527.167 141.472C526.859 141.809 526.393 141.996 525.77 142.033L525.44 142.055ZM531.602 136.511C532.944 136.511 533.615 137.215 533.615 138.623V141.615C533.615 141.747 533.575 141.853 533.494 141.934C533.421 142.015 533.318 142.055 533.186 142.055C533.054 142.055 532.948 142.015 532.867 141.934C532.786 141.853 532.746 141.747 532.746 141.615V141.087C532.607 141.402 532.394 141.648 532.108 141.824C531.822 141.993 531.492 142.077 531.118 142.077C530.773 142.077 530.454 142.007 530.161 141.868C529.875 141.729 529.648 141.534 529.479 141.285C529.31 141.036 529.226 140.761 529.226 140.46C529.226 140.057 529.329 139.745 529.534 139.525C529.739 139.298 530.077 139.136 530.546 139.041C531.015 138.938 531.668 138.887 532.504 138.887H532.746V138.524C532.746 138.084 532.654 137.761 532.471 137.556C532.295 137.351 532.005 137.248 531.602 137.248C531.103 137.248 530.597 137.384 530.084 137.655C529.886 137.78 529.747 137.842 529.666 137.842C529.578 137.842 529.505 137.809 529.446 137.743C529.387 137.677 529.358 137.593 529.358 137.49C529.358 137.387 529.387 137.299 529.446 137.226C529.512 137.145 529.615 137.065 529.754 136.984C530.011 136.837 530.3 136.724 530.623 136.643C530.953 136.555 531.279 136.511 531.602 136.511ZM531.239 141.373C531.679 141.373 532.038 141.226 532.317 140.933C532.603 140.632 532.746 140.247 532.746 139.778V139.459H532.548C531.903 139.459 531.411 139.488 531.074 139.547C530.737 139.598 530.495 139.69 530.348 139.822C530.209 139.947 530.139 140.134 530.139 140.383C530.139 140.669 530.242 140.907 530.447 141.098C530.66 141.281 530.924 141.373 531.239 141.373ZM537.941 136.511C539.224 136.511 539.866 137.219 539.866 138.634V141.615C539.866 141.754 539.826 141.864 539.745 141.945C539.672 142.018 539.565 142.055 539.426 142.055C539.287 142.055 539.177 142.018 539.096 141.945C539.015 141.864 538.975 141.754 538.975 141.615V138.689C538.975 138.19 538.876 137.827 538.678 137.6C538.487 137.373 538.179 137.259 537.754 137.259C537.263 137.259 536.87 137.409 536.577 137.71C536.284 138.011 536.137 138.418 536.137 138.931V141.615C536.137 141.754 536.097 141.864 536.016 141.945C535.943 142.018 535.836 142.055 535.697 142.055C535.558 142.055 535.448 142.018 535.367 141.945C535.286 141.864 535.246 141.754 535.246 141.615V136.973C535.246 136.841 535.286 136.735 535.367 136.654C535.448 136.573 535.558 136.533 535.697 136.533C535.829 136.533 535.932 136.573 536.005 136.654C536.086 136.735 536.126 136.837 536.126 136.962V137.523C536.302 137.193 536.548 136.944 536.863 136.775C537.178 136.599 537.538 136.511 537.941 136.511ZM548.921 141.241C549.053 141.241 549.155 141.274 549.229 141.34C549.302 141.406 549.339 141.498 549.339 141.615C549.339 141.74 549.302 141.835 549.229 141.901C549.163 141.967 549.06 142 548.921 142H545.28C545.14 142 545.034 141.967 544.961 141.901C544.895 141.835 544.862 141.74 544.862 141.615C544.862 141.498 544.898 141.406 544.972 141.34C545.045 141.274 545.148 141.241 545.28 141.241H546.644V135.345L545.445 136.126C545.386 136.163 545.327 136.181 545.269 136.181C545.166 136.181 545.074 136.133 544.994 136.038C544.92 135.943 544.884 135.84 544.884 135.73C544.884 135.576 544.942 135.466 545.06 135.4L546.732 134.311C546.856 134.23 546.985 134.19 547.117 134.19C547.241 134.19 547.344 134.23 547.425 134.311C547.505 134.392 547.546 134.505 547.546 134.652V141.241H548.921ZM551.226 139.437C551.094 139.437 550.992 139.404 550.918 139.338C550.852 139.272 550.819 139.184 550.819 139.074C550.819 138.964 550.852 138.876 550.918 138.81C550.992 138.737 551.094 138.7 551.226 138.7H553.646C553.786 138.7 553.888 138.737 553.954 138.81C554.028 138.876 554.064 138.964 554.064 139.074C554.064 139.184 554.028 139.272 553.954 139.338C553.888 139.404 553.786 139.437 553.646 139.437H551.226ZM560.365 141.241C560.497 141.241 560.6 141.274 560.673 141.34C560.747 141.406 560.783 141.498 560.783 141.615C560.783 141.872 560.644 142 560.365 142H556.053C555.929 142 555.826 141.963 555.745 141.89C555.665 141.809 555.624 141.714 555.624 141.604C555.624 141.465 555.676 141.344 555.778 141.241L558.429 138.326C558.796 137.915 559.06 137.549 559.221 137.226C559.39 136.896 559.474 136.566 559.474 136.236C559.474 135.811 559.35 135.484 559.1 135.257C558.858 135.03 558.514 134.916 558.066 134.916C557.714 134.916 557.377 134.982 557.054 135.114C556.732 135.239 556.409 135.433 556.086 135.697C555.976 135.785 555.874 135.829 555.778 135.829C555.698 135.829 555.628 135.792 555.569 135.719C555.511 135.638 555.481 135.543 555.481 135.433C555.481 135.279 555.54 135.154 555.657 135.059C555.958 134.78 556.325 134.56 556.757 134.399C557.19 134.238 557.634 134.157 558.088 134.157C558.785 134.157 559.339 134.34 559.749 134.707C560.167 135.074 560.376 135.569 560.376 136.192C560.376 136.639 560.274 137.068 560.068 137.479C559.87 137.89 559.54 138.348 559.078 138.854L556.878 141.241H560.365Z" fill="#3B3B3B" fill-opacity="0.7"/>
<path d="M65.44 142.055C65.2567 142.07 65.1173 142.044 65.022 141.978C64.9267 141.912 64.879 141.813 64.879 141.681C64.879 141.439 65.0147 141.314 65.286 141.307L65.616 141.285C65.99 141.263 66.2687 141.149 66.452 140.944C66.6353 140.731 66.727 140.394 66.727 139.932V134.652C66.727 134.513 66.771 134.403 66.859 134.322C66.947 134.234 67.0533 134.19 67.178 134.19C67.3173 134.19 67.4273 134.234 67.508 134.322C67.5887 134.403 67.629 134.513 67.629 134.652V139.943C67.629 140.618 67.475 141.127 67.167 141.472C66.859 141.809 66.3933 141.996 65.77 142.033L65.44 142.055ZM71.6019 136.511C72.9439 136.511 73.6149 137.215 73.6149 138.623V141.615C73.6149 141.747 73.5746 141.853 73.4939 141.934C73.4206 142.015 73.3179 142.055 73.1859 142.055C73.0539 142.055 72.9476 142.015 72.8669 141.934C72.7862 141.853 72.7459 141.747 72.7459 141.615V141.087C72.6066 141.402 72.3939 141.648 72.1079 141.824C71.8219 141.993 71.4919 142.077 71.1179 142.077C70.7732 142.077 70.4542 142.007 70.1609 141.868C69.8749 141.729 69.6476 141.534 69.4789 141.285C69.3102 141.036 69.2259 140.761 69.2259 140.46C69.2259 140.057 69.3286 139.745 69.5339 139.525C69.7392 139.298 70.0766 139.136 70.5459 139.041C71.0152 138.938 71.6679 138.887 72.5039 138.887H72.7459V138.524C72.7459 138.084 72.6542 137.761 72.4709 137.556C72.2949 137.351 72.0052 137.248 71.6019 137.248C71.1032 137.248 70.5972 137.384 70.0839 137.655C69.8859 137.78 69.7466 137.842 69.6659 137.842C69.5779 137.842 69.5046 137.809 69.4459 137.743C69.3872 137.677 69.3579 137.593 69.3579 137.49C69.3579 137.387 69.3872 137.299 69.4459 137.226C69.5119 137.145 69.6146 137.065 69.7539 136.984C70.0106 136.837 70.3002 136.724 70.6229 136.643C70.9529 136.555 71.2792 136.511 71.6019 136.511ZM71.2389 141.373C71.6789 141.373 72.0382 141.226 72.3169 140.933C72.6029 140.632 72.7459 140.247 72.7459 139.778V139.459H72.5479C71.9026 139.459 71.4112 139.488 71.0739 139.547C70.7366 139.598 70.4946 139.69 70.3479 139.822C70.2086 139.947 70.1389 140.134 70.1389 140.383C70.1389 140.669 70.2416 140.907 70.4469 141.098C70.6596 141.281 70.9236 141.373 71.2389 141.373ZM77.9409 136.511C79.2242 136.511 79.8659 137.219 79.8659 138.634V141.615C79.8659 141.754 79.8256 141.864 79.7449 141.945C79.6716 142.018 79.5652 142.055 79.4259 142.055C79.2866 142.055 79.1766 142.018 79.0959 141.945C79.0152 141.864 78.9749 141.754 78.9749 141.615V138.689C78.9749 138.19 78.8759 137.827 78.6779 137.6C78.4872 137.373 78.1792 137.259 77.7539 137.259C77.2626 137.259 76.8702 137.409 76.5769 137.71C76.2836 138.011 76.1369 138.418 76.1369 138.931V141.615C76.1369 141.754 76.0966 141.864 76.0159 141.945C75.9426 142.018 75.8362 142.055 75.6969 142.055C75.5576 142.055 75.4476 142.018 75.3669 141.945C75.2862 141.864 75.2459 141.754 75.2459 141.615V136.973C75.2459 136.841 75.2862 136.735 75.3669 136.654C75.4476 136.573 75.5576 136.533 75.6969 136.533C75.8289 136.533 75.9316 136.573 76.0049 136.654C76.0856 136.735 76.1259 136.837 76.1259 136.962V137.523C76.3019 137.193 76.5476 136.944 76.8629 136.775C77.1782 136.599 77.5376 136.511 77.9409 136.511ZM89.0968 141.241C89.2288 141.241 89.3315 141.274 89.4048 141.34C89.4781 141.406 89.5148 141.498 89.5148 141.615C89.5148 141.872 89.3755 142 89.0968 142H84.7848C84.6601 142 84.5575 141.963 84.4768 141.89C84.3961 141.809 84.3558 141.714 84.3558 141.604C84.3558 141.465 84.4071 141.344 84.5098 141.241L87.1608 138.326C87.5275 137.915 87.7915 137.549 87.9528 137.226C88.1215 136.896 88.2058 136.566 88.2058 136.236C88.2058 135.811 88.0811 135.484 87.8318 135.257C87.5898 135.03 87.2451 134.916 86.7978 134.916C86.4458 134.916 86.1085 134.982 85.7858 135.114C85.4631 135.239 85.1405 135.433 84.8178 135.697C84.7078 135.785 84.6051 135.829 84.5098 135.829C84.4291 135.829 84.3595 135.792 84.3008 135.719C84.2421 135.638 84.2128 135.543 84.2128 135.433C84.2128 135.279 84.2715 135.154 84.3888 135.059C84.6895 134.78 85.0561 134.56 85.4888 134.399C85.9215 134.238 86.3651 134.157 86.8198 134.157C87.5165 134.157 88.0701 134.34 88.4808 134.707C88.8988 135.074 89.1078 135.569 89.1078 136.192C89.1078 136.639 89.0051 137.068 88.7998 137.479C88.6018 137.89 88.2718 138.348 87.8098 138.854L85.6098 141.241H89.0968ZM91.2265 139.437C91.0945 139.437 90.9918 139.404 90.9185 139.338C90.8525 139.272 90.8195 139.184 90.8195 139.074C90.8195 138.964 90.8525 138.876 90.9185 138.81C90.9918 138.737 91.0945 138.7 91.2265 138.7H93.6465C93.7858 138.7 93.8885 138.737 93.9545 138.81C94.0278 138.876 94.0645 138.964 94.0645 139.074C94.0645 139.184 94.0278 139.272 93.9545 139.338C93.8885 139.404 93.7858 139.437 93.6465 139.437H91.2265ZM98.3743 137.138C98.8657 137.138 99.2947 137.241 99.6613 137.446C100.035 137.651 100.321 137.941 100.519 138.315C100.725 138.682 100.827 139.107 100.827 139.591C100.827 140.075 100.717 140.508 100.497 140.889C100.277 141.263 99.9693 141.556 99.5733 141.769C99.1847 141.974 98.7337 142.077 98.2203 142.077C97.7657 142.077 97.322 141.996 96.8893 141.835C96.4567 141.674 96.09 141.454 95.7893 141.175C95.672 141.065 95.6133 140.94 95.6133 140.801C95.6133 140.691 95.6427 140.599 95.7013 140.526C95.76 140.453 95.8297 140.416 95.9103 140.416C96.013 140.416 96.1157 140.456 96.2183 140.537C96.541 140.801 96.8637 140.999 97.1863 141.131C97.509 141.256 97.8463 141.318 98.1983 141.318C98.741 141.318 99.1663 141.164 99.4743 140.856C99.7823 140.548 99.9363 140.13 99.9363 139.602C99.9363 139.089 99.7823 138.674 99.4743 138.359C99.1663 138.044 98.752 137.886 98.2313 137.886C97.564 137.886 97.0213 138.143 96.6033 138.656C96.5007 138.766 96.376 138.821 96.2293 138.821C96.1267 138.821 96.0387 138.792 95.9653 138.733C95.8993 138.667 95.8663 138.579 95.8663 138.469V134.674C95.8663 134.549 95.903 134.447 95.9763 134.366C96.057 134.285 96.167 134.245 96.3063 134.245H100.178C100.31 134.245 100.413 134.278 100.486 134.344C100.567 134.41 100.607 134.502 100.607 134.619C100.607 134.736 100.567 134.828 100.486 134.894C100.413 134.96 100.31 134.993 100.178 134.993H96.7573V137.754C96.9627 137.556 97.201 137.406 97.4723 137.303C97.751 137.193 98.0517 137.138 98.3743 137.138Z" fill="#3B3B3B" fill-opacity="0.7"/>
<path d="M327.44 142.055C327.257 142.07 327.117 142.044 327.022 141.978C326.927 141.912 326.879 141.813 326.879 141.681C326.879 141.439 327.015 141.314 327.286 141.307L327.616 141.285C327.99 141.263 328.269 141.149 328.452 140.944C328.635 140.731 328.727 140.394 328.727 139.932V134.652C328.727 134.513 328.771 134.403 328.859 134.322C328.947 134.234 329.053 134.19 329.178 134.19C329.317 134.19 329.427 134.234 329.508 134.322C329.589 134.403 329.629 134.513 329.629 134.652V139.943C329.629 140.618 329.475 141.127 329.167 141.472C328.859 141.809 328.393 141.996 327.77 142.033L327.44 142.055ZM333.602 136.511C334.944 136.511 335.615 137.215 335.615 138.623V141.615C335.615 141.747 335.575 141.853 335.494 141.934C335.421 142.015 335.318 142.055 335.186 142.055C335.054 142.055 334.948 142.015 334.867 141.934C334.786 141.853 334.746 141.747 334.746 141.615V141.087C334.607 141.402 334.394 141.648 334.108 141.824C333.822 141.993 333.492 142.077 333.118 142.077C332.773 142.077 332.454 142.007 332.161 141.868C331.875 141.729 331.648 141.534 331.479 141.285C331.31 141.036 331.226 140.761 331.226 140.46C331.226 140.057 331.329 139.745 331.534 139.525C331.739 139.298 332.077 139.136 332.546 139.041C333.015 138.938 333.668 138.887 334.504 138.887H334.746V138.524C334.746 138.084 334.654 137.761 334.471 137.556C334.295 137.351 334.005 137.248 333.602 137.248C333.103 137.248 332.597 137.384 332.084 137.655C331.886 137.78 331.747 137.842 331.666 137.842C331.578 137.842 331.505 137.809 331.446 137.743C331.387 137.677 331.358 137.593 331.358 137.49C331.358 137.387 331.387 137.299 331.446 137.226C331.512 137.145 331.615 137.065 331.754 136.984C332.011 136.837 332.3 136.724 332.623 136.643C332.953 136.555 333.279 136.511 333.602 136.511ZM333.239 141.373C333.679 141.373 334.038 141.226 334.317 140.933C334.603 140.632 334.746 140.247 334.746 139.778V139.459H334.548C333.903 139.459 333.411 139.488 333.074 139.547C332.737 139.598 332.495 139.69 332.348 139.822C332.209 139.947 332.139 140.134 332.139 140.383C332.139 140.669 332.242 140.907 332.447 141.098C332.66 141.281 332.924 141.373 333.239 141.373ZM339.941 136.511C341.224 136.511 341.866 137.219 341.866 138.634V141.615C341.866 141.754 341.826 141.864 341.745 141.945C341.672 142.018 341.565 142.055 341.426 142.055C341.287 142.055 341.177 142.018 341.096 141.945C341.015 141.864 340.975 141.754 340.975 141.615V138.689C340.975 138.19 340.876 137.827 340.678 137.6C340.487 137.373 340.179 137.259 339.754 137.259C339.263 137.259 338.87 137.409 338.577 137.71C338.284 138.011 338.137 138.418 338.137 138.931V141.615C338.137 141.754 338.097 141.864 338.016 141.945C337.943 142.018 337.836 142.055 337.697 142.055C337.558 142.055 337.448 142.018 337.367 141.945C337.286 141.864 337.246 141.754 337.246 141.615V136.973C337.246 136.841 337.286 136.735 337.367 136.654C337.448 136.573 337.558 136.533 337.697 136.533C337.829 136.533 337.932 136.573 338.005 136.654C338.086 136.735 338.126 136.837 338.126 136.962V137.523C338.302 137.193 338.548 136.944 338.863 136.775C339.178 136.599 339.538 136.511 339.941 136.511ZM351.097 141.241C351.229 141.241 351.331 141.274 351.405 141.34C351.478 141.406 351.515 141.498 351.515 141.615C351.515 141.872 351.375 142 351.097 142H346.785C346.66 142 346.557 141.963 346.477 141.89C346.396 141.809 346.356 141.714 346.356 141.604C346.356 141.465 346.407 141.344 346.51 141.241L349.161 138.326C349.527 137.915 349.791 137.549 349.953 137.226C350.121 136.896 350.206 136.566 350.206 136.236C350.206 135.811 350.081 135.484 349.832 135.257C349.59 135.03 349.245 134.916 348.798 134.916C348.446 134.916 348.108 134.982 347.786 135.114C347.463 135.239 347.14 135.433 346.818 135.697C346.708 135.785 346.605 135.829 346.51 135.829C346.429 135.829 346.359 135.792 346.301 135.719C346.242 135.638 346.213 135.543 346.213 135.433C346.213 135.279 346.271 135.154 346.389 135.059C346.689 134.78 347.056 134.56 347.489 134.399C347.921 134.238 348.365 134.157 348.82 134.157C349.516 134.157 350.07 134.34 350.481 134.707C350.899 135.074 351.108 135.569 351.108 136.192C351.108 136.639 351.005 137.068 350.8 137.479C350.602 137.89 350.272 138.348 349.81 138.854L347.61 141.241H351.097ZM353.226 139.437C353.094 139.437 352.992 139.404 352.918 139.338C352.852 139.272 352.819 139.184 352.819 139.074C352.819 138.964 352.852 138.876 352.918 138.81C352.992 138.737 353.094 138.7 353.226 138.7H355.646C355.786 138.7 355.888 138.737 355.954 138.81C356.028 138.876 356.064 138.964 356.064 139.074C356.064 139.184 356.028 139.272 355.954 139.338C355.888 139.404 355.786 139.437 355.646 139.437H353.226ZM360.374 137.138C360.866 137.138 361.295 137.241 361.661 137.446C362.035 137.651 362.321 137.941 362.519 138.315C362.725 138.682 362.827 139.107 362.827 139.591C362.827 140.075 362.717 140.508 362.497 140.889C362.277 141.263 361.969 141.556 361.573 141.769C361.185 141.974 360.734 142.077 360.22 142.077C359.766 142.077 359.322 141.996 358.889 141.835C358.457 141.674 358.09 141.454 357.789 141.175C357.672 141.065 357.613 140.94 357.613 140.801C357.613 140.691 357.643 140.599 357.701 140.526C357.76 140.453 357.83 140.416 357.91 140.416C358.013 140.416 358.116 140.456 358.218 140.537C358.541 140.801 358.864 140.999 359.186 141.131C359.509 141.256 359.846 141.318 360.198 141.318C360.741 141.318 361.166 141.164 361.474 140.856C361.782 140.548 361.936 140.13 361.936 139.602C361.936 139.089 361.782 138.674 361.474 138.359C361.166 138.044 360.752 137.886 360.231 137.886C359.564 137.886 359.021 138.143 358.603 138.656C358.501 138.766 358.376 138.821 358.229 138.821C358.127 138.821 358.039 138.792 357.965 138.733C357.899 138.667 357.866 138.579 357.866 138.469V134.674C357.866 134.549 357.903 134.447 357.976 134.366C358.057 134.285 358.167 134.245 358.306 134.245H362.178C362.31 134.245 362.413 134.278 362.486 134.344C362.567 134.41 362.607 134.502 362.607 134.619C362.607 134.736 362.567 134.828 362.486 134.894C362.413 134.96 362.31 134.993 362.178 134.993H358.757V137.754C358.963 137.556 359.201 137.406 359.472 137.303C359.751 137.193 360.052 137.138 360.374 137.138Z" fill="#3B3B3B" fill-opacity="0.7"/>
<path d="M589.44 142.055C589.257 142.07 589.117 142.044 589.022 141.978C588.927 141.912 588.879 141.813 588.879 141.681C588.879 141.439 589.015 141.314 589.286 141.307L589.616 141.285C589.99 141.263 590.269 141.149 590.452 140.944C590.635 140.731 590.727 140.394 590.727 139.932V134.652C590.727 134.513 590.771 134.403 590.859 134.322C590.947 134.234 591.053 134.19 591.178 134.19C591.317 134.19 591.427 134.234 591.508 134.322C591.589 134.403 591.629 134.513 591.629 134.652V139.943C591.629 140.618 591.475 141.127 591.167 141.472C590.859 141.809 590.393 141.996 589.77 142.033L589.44 142.055ZM595.602 136.511C596.944 136.511 597.615 137.215 597.615 138.623V141.615C597.615 141.747 597.575 141.853 597.494 141.934C597.421 142.015 597.318 142.055 597.186 142.055C597.054 142.055 596.948 142.015 596.867 141.934C596.786 141.853 596.746 141.747 596.746 141.615V141.087C596.607 141.402 596.394 141.648 596.108 141.824C595.822 141.993 595.492 142.077 595.118 142.077C594.773 142.077 594.454 142.007 594.161 141.868C593.875 141.729 593.648 141.534 593.479 141.285C593.31 141.036 593.226 140.761 593.226 140.46C593.226 140.057 593.329 139.745 593.534 139.525C593.739 139.298 594.077 139.136 594.546 139.041C595.015 138.938 595.668 138.887 596.504 138.887H596.746V138.524C596.746 138.084 596.654 137.761 596.471 137.556C596.295 137.351 596.005 137.248 595.602 137.248C595.103 137.248 594.597 137.384 594.084 137.655C593.886 137.78 593.747 137.842 593.666 137.842C593.578 137.842 593.505 137.809 593.446 137.743C593.387 137.677 593.358 137.593 593.358 137.49C593.358 137.387 593.387 137.299 593.446 137.226C593.512 137.145 593.615 137.065 593.754 136.984C594.011 136.837 594.3 136.724 594.623 136.643C594.953 136.555 595.279 136.511 595.602 136.511ZM595.239 141.373C595.679 141.373 596.038 141.226 596.317 140.933C596.603 140.632 596.746 140.247 596.746 139.778V139.459H596.548C595.903 139.459 595.411 139.488 595.074 139.547C594.737 139.598 594.495 139.69 594.348 139.822C594.209 139.947 594.139 140.134 594.139 140.383C594.139 140.669 594.242 140.907 594.447 141.098C594.66 141.281 594.924 141.373 595.239 141.373ZM601.941 136.511C603.224 136.511 603.866 137.219 603.866 138.634V141.615C603.866 141.754 603.826 141.864 603.745 141.945C603.672 142.018 603.565 142.055 603.426 142.055C603.287 142.055 603.177 142.018 603.096 141.945C603.015 141.864 602.975 141.754 602.975 141.615V138.689C602.975 138.19 602.876 137.827 602.678 137.6C602.487 137.373 602.179 137.259 601.754 137.259C601.263 137.259 600.87 137.409 600.577 137.71C600.284 138.011 600.137 138.418 600.137 138.931V141.615C600.137 141.754 600.097 141.864 600.016 141.945C599.943 142.018 599.836 142.055 599.697 142.055C599.558 142.055 599.448 142.018 599.367 141.945C599.286 141.864 599.246 141.754 599.246 141.615V136.973C599.246 136.841 599.286 136.735 599.367 136.654C599.448 136.573 599.558 136.533 599.697 136.533C599.829 136.533 599.932 136.573 600.005 136.654C600.086 136.735 600.126 136.837 600.126 136.962V137.523C600.302 137.193 600.548 136.944 600.863 136.775C601.178 136.599 601.538 136.511 601.941 136.511ZM613.097 141.241C613.229 141.241 613.331 141.274 613.405 141.34C613.478 141.406 613.515 141.498 613.515 141.615C613.515 141.872 613.375 142 613.097 142H608.785C608.66 142 608.557 141.963 608.477 141.89C608.396 141.809 608.356 141.714 608.356 141.604C608.356 141.465 608.407 141.344 608.51 141.241L611.161 138.326C611.527 137.915 611.791 137.549 611.953 137.226C612.121 136.896 612.206 136.566 612.206 136.236C612.206 135.811 612.081 135.484 611.832 135.257C611.59 135.03 611.245 134.916 610.798 134.916C610.446 134.916 610.108 134.982 609.786 135.114C609.463 135.239 609.14 135.433 608.818 135.697C608.708 135.785 608.605 135.829 608.51 135.829C608.429 135.829 608.359 135.792 608.301 135.719C608.242 135.638 608.213 135.543 608.213 135.433C608.213 135.279 608.271 135.154 608.389 135.059C608.689 134.78 609.056 134.56 609.489 134.399C609.921 134.238 610.365 134.157 610.82 134.157C611.516 134.157 612.07 134.34 612.481 134.707C612.899 135.074 613.108 135.569 613.108 136.192C613.108 136.639 613.005 137.068 612.8 137.479C612.602 137.89 612.272 138.348 611.81 138.854L609.61 141.241H613.097ZM615.226 139.437C615.094 139.437 614.992 139.404 614.918 139.338C614.852 139.272 614.819 139.184 614.819 139.074C614.819 138.964 614.852 138.876 614.918 138.81C614.992 138.737 615.094 138.7 615.226 138.7H617.646C617.786 138.7 617.888 138.737 617.954 138.81C618.028 138.876 618.064 138.964 618.064 139.074C618.064 139.184 618.028 139.272 617.954 139.338C617.888 139.404 617.786 139.437 617.646 139.437H615.226ZM622.374 137.138C622.866 137.138 623.295 137.241 623.661 137.446C624.035 137.651 624.321 137.941 624.519 138.315C624.725 138.682 624.827 139.107 624.827 139.591C624.827 140.075 624.717 140.508 624.497 140.889C624.277 141.263 623.969 141.556 623.573 141.769C623.185 141.974 622.734 142.077 622.22 142.077C621.766 142.077 621.322 141.996 620.889 141.835C620.457 141.674 620.09 141.454 619.789 141.175C619.672 141.065 619.613 140.94 619.613 140.801C619.613 140.691 619.643 140.599 619.701 140.526C619.76 140.453 619.83 140.416 619.91 140.416C620.013 140.416 620.116 140.456 620.218 140.537C620.541 140.801 620.864 140.999 621.186 141.131C621.509 141.256 621.846 141.318 622.198 141.318C622.741 141.318 623.166 141.164 623.474 140.856C623.782 140.548 623.936 140.13 623.936 139.602C623.936 139.089 623.782 138.674 623.474 138.359C623.166 138.044 622.752 137.886 622.231 137.886C621.564 137.886 621.021 138.143 620.603 138.656C620.501 138.766 620.376 138.821 620.229 138.821C620.127 138.821 620.039 138.792 619.965 138.733C619.899 138.667 619.866 138.579 619.866 138.469V134.674C619.866 134.549 619.903 134.447 619.976 134.366C620.057 134.285 620.167 134.245 620.306 134.245H624.178C624.31 134.245 624.413 134.278 624.486 134.344C624.567 134.41 624.607 134.502 624.607 134.619C624.607 134.736 624.567 134.828 624.486 134.894C624.413 134.96 624.31 134.993 624.178 134.993H620.757V137.754C620.963 137.556 621.201 137.406 621.472 137.303C621.751 137.193 622.052 137.138 622.374 137.138Z" fill="#3B3B3B" fill-opacity="0.7"/>
<path d="M129.44 142.055C129.257 142.07 129.117 142.044 129.022 141.978C128.927 141.912 128.879 141.813 128.879 141.681C128.879 141.439 129.015 141.314 129.286 141.307L129.616 141.285C129.99 141.263 130.269 141.149 130.452 140.944C130.635 140.731 130.727 140.394 130.727 139.932V134.652C130.727 134.513 130.771 134.403 130.859 134.322C130.947 134.234 131.053 134.19 131.178 134.19C131.317 134.19 131.427 134.234 131.508 134.322C131.589 134.403 131.629 134.513 131.629 134.652V139.943C131.629 140.618 131.475 141.127 131.167 141.472C130.859 141.809 130.393 141.996 129.77 142.033L129.44 142.055ZM135.602 136.511C136.944 136.511 137.615 137.215 137.615 138.623V141.615C137.615 141.747 137.575 141.853 137.494 141.934C137.421 142.015 137.318 142.055 137.186 142.055C137.054 142.055 136.948 142.015 136.867 141.934C136.786 141.853 136.746 141.747 136.746 141.615V141.087C136.607 141.402 136.394 141.648 136.108 141.824C135.822 141.993 135.492 142.077 135.118 142.077C134.773 142.077 134.454 142.007 134.161 141.868C133.875 141.729 133.648 141.534 133.479 141.285C133.31 141.036 133.226 140.761 133.226 140.46C133.226 140.057 133.329 139.745 133.534 139.525C133.739 139.298 134.077 139.136 134.546 139.041C135.015 138.938 135.668 138.887 136.504 138.887H136.746V138.524C136.746 138.084 136.654 137.761 136.471 137.556C136.295 137.351 136.005 137.248 135.602 137.248C135.103 137.248 134.597 137.384 134.084 137.655C133.886 137.78 133.747 137.842 133.666 137.842C133.578 137.842 133.505 137.809 133.446 137.743C133.387 137.677 133.358 137.593 133.358 137.49C133.358 137.387 133.387 137.299 133.446 137.226C133.512 137.145 133.615 137.065 133.754 136.984C134.011 136.837 134.3 136.724 134.623 136.643C134.953 136.555 135.279 136.511 135.602 136.511ZM135.239 141.373C135.679 141.373 136.038 141.226 136.317 140.933C136.603 140.632 136.746 140.247 136.746 139.778V139.459H136.548C135.903 139.459 135.411 139.488 135.074 139.547C134.737 139.598 134.495 139.69 134.348 139.822C134.209 139.947 134.139 140.134 134.139 140.383C134.139 140.669 134.242 140.907 134.447 141.098C134.66 141.281 134.924 141.373 135.239 141.373ZM141.941 136.511C143.224 136.511 143.866 137.219 143.866 138.634V141.615C143.866 141.754 143.826 141.864 143.745 141.945C143.672 142.018 143.565 142.055 143.426 142.055C143.287 142.055 143.177 142.018 143.096 141.945C143.015 141.864 142.975 141.754 142.975 141.615V138.689C142.975 138.19 142.876 137.827 142.678 137.6C142.487 137.373 142.179 137.259 141.754 137.259C141.263 137.259 140.87 137.409 140.577 137.71C140.284 138.011 140.137 138.418 140.137 138.931V141.615C140.137 141.754 140.097 141.864 140.016 141.945C139.943 142.018 139.836 142.055 139.697 142.055C139.558 142.055 139.448 142.018 139.367 141.945C139.286 141.864 139.246 141.754 139.246 141.615V136.973C139.246 136.841 139.286 136.735 139.367 136.654C139.448 136.573 139.558 136.533 139.697 136.533C139.829 136.533 139.932 136.573 140.005 136.654C140.086 136.735 140.126 136.837 140.126 136.962V137.523C140.302 137.193 140.548 136.944 140.863 136.775C141.178 136.599 141.538 136.511 141.941 136.511ZM151.128 137.127C151.597 137.127 152.015 137.23 152.382 137.435C152.748 137.64 153.034 137.93 153.24 138.304C153.445 138.678 153.548 139.107 153.548 139.591C153.548 140.068 153.441 140.497 153.229 140.878C153.016 141.259 152.719 141.556 152.338 141.769C151.956 141.982 151.527 142.088 151.051 142.088C150.112 142.088 149.386 141.762 148.873 141.109C148.367 140.456 148.114 139.525 148.114 138.315C148.114 137.45 148.231 136.705 148.466 136.082C148.7 135.459 149.041 134.982 149.489 134.652C149.936 134.322 150.468 134.157 151.084 134.157C151.502 134.157 151.916 134.238 152.327 134.399C152.745 134.56 153.1 134.78 153.394 135.059C153.518 135.176 153.581 135.301 153.581 135.433C153.581 135.543 153.551 135.635 153.493 135.708C153.434 135.781 153.364 135.818 153.284 135.818C153.181 135.818 153.075 135.778 152.965 135.697C152.327 135.176 151.707 134.916 151.106 134.916C150.453 134.916 149.943 135.213 149.577 135.807C149.21 136.401 149.027 137.233 149.027 138.304V138.447C149.195 138.036 149.467 137.714 149.841 137.479C150.222 137.244 150.651 137.127 151.128 137.127ZM151.007 141.329C151.505 141.329 151.905 141.171 152.206 140.856C152.506 140.541 152.657 140.123 152.657 139.602C152.657 139.081 152.503 138.667 152.195 138.359C151.894 138.044 151.494 137.886 150.996 137.886C150.49 137.886 150.075 138.047 149.753 138.37C149.437 138.685 149.28 139.096 149.28 139.602C149.28 140.115 149.437 140.533 149.753 140.856C150.075 141.171 150.493 141.329 151.007 141.329ZM155.216 139.437C155.084 139.437 154.981 139.404 154.908 139.338C154.842 139.272 154.809 139.184 154.809 139.074C154.809 138.964 154.842 138.876 154.908 138.81C154.981 138.737 155.084 138.7 155.216 138.7H157.636C157.775 138.7 157.878 138.737 157.944 138.81C158.017 138.876 158.054 138.964 158.054 139.074C158.054 139.184 158.017 139.272 157.944 139.338C157.878 139.404 157.775 139.437 157.636 139.437H155.216ZM164.3 134.245C164.432 134.245 164.531 134.282 164.597 134.355C164.67 134.421 164.707 134.509 164.707 134.619C164.707 134.722 164.674 134.835 164.608 134.96L160.956 141.835C160.868 141.996 160.739 142.077 160.571 142.077C160.453 142.077 160.347 142.037 160.252 141.956C160.164 141.875 160.12 141.776 160.12 141.659C160.12 141.578 160.145 141.498 160.197 141.417L163.629 135.004H159.834C159.702 135.004 159.599 134.971 159.526 134.905C159.46 134.839 159.427 134.747 159.427 134.63C159.427 134.505 159.46 134.41 159.526 134.344C159.599 134.278 159.702 134.245 159.834 134.245H164.3Z" fill="#3B3B3B" fill-opacity="0.7"/>
<path d="M391.44 142.055C391.257 142.07 391.117 142.044 391.022 141.978C390.927 141.912 390.879 141.813 390.879 141.681C390.879 141.439 391.015 141.314 391.286 141.307L391.616 141.285C391.99 141.263 392.269 141.149 392.452 140.944C392.635 140.731 392.727 140.394 392.727 139.932V134.652C392.727 134.513 392.771 134.403 392.859 134.322C392.947 134.234 393.053 134.19 393.178 134.19C393.317 134.19 393.427 134.234 393.508 134.322C393.589 134.403 393.629 134.513 393.629 134.652V139.943C393.629 140.618 393.475 141.127 393.167 141.472C392.859 141.809 392.393 141.996 391.77 142.033L391.44 142.055ZM397.602 136.511C398.944 136.511 399.615 137.215 399.615 138.623V141.615C399.615 141.747 399.575 141.853 399.494 141.934C399.421 142.015 399.318 142.055 399.186 142.055C399.054 142.055 398.948 142.015 398.867 141.934C398.786 141.853 398.746 141.747 398.746 141.615V141.087C398.607 141.402 398.394 141.648 398.108 141.824C397.822 141.993 397.492 142.077 397.118 142.077C396.773 142.077 396.454 142.007 396.161 141.868C395.875 141.729 395.648 141.534 395.479 141.285C395.31 141.036 395.226 140.761 395.226 140.46C395.226 140.057 395.329 139.745 395.534 139.525C395.739 139.298 396.077 139.136 396.546 139.041C397.015 138.938 397.668 138.887 398.504 138.887H398.746V138.524C398.746 138.084 398.654 137.761 398.471 137.556C398.295 137.351 398.005 137.248 397.602 137.248C397.103 137.248 396.597 137.384 396.084 137.655C395.886 137.78 395.747 137.842 395.666 137.842C395.578 137.842 395.505 137.809 395.446 137.743C395.387 137.677 395.358 137.593 395.358 137.49C395.358 137.387 395.387 137.299 395.446 137.226C395.512 137.145 395.615 137.065 395.754 136.984C396.011 136.837 396.3 136.724 396.623 136.643C396.953 136.555 397.279 136.511 397.602 136.511ZM397.239 141.373C397.679 141.373 398.038 141.226 398.317 140.933C398.603 140.632 398.746 140.247 398.746 139.778V139.459H398.548C397.903 139.459 397.411 139.488 397.074 139.547C396.737 139.598 396.495 139.69 396.348 139.822C396.209 139.947 396.139 140.134 396.139 140.383C396.139 140.669 396.242 140.907 396.447 141.098C396.66 141.281 396.924 141.373 397.239 141.373ZM403.941 136.511C405.224 136.511 405.866 137.219 405.866 138.634V141.615C405.866 141.754 405.826 141.864 405.745 141.945C405.672 142.018 405.565 142.055 405.426 142.055C405.287 142.055 405.177 142.018 405.096 141.945C405.015 141.864 404.975 141.754 404.975 141.615V138.689C404.975 138.19 404.876 137.827 404.678 137.6C404.487 137.373 404.179 137.259 403.754 137.259C403.263 137.259 402.87 137.409 402.577 137.71C402.284 138.011 402.137 138.418 402.137 138.931V141.615C402.137 141.754 402.097 141.864 402.016 141.945C401.943 142.018 401.836 142.055 401.697 142.055C401.558 142.055 401.448 142.018 401.367 141.945C401.286 141.864 401.246 141.754 401.246 141.615V136.973C401.246 136.841 401.286 136.735 401.367 136.654C401.448 136.573 401.558 136.533 401.697 136.533C401.829 136.533 401.932 136.573 402.005 136.654C402.086 136.735 402.126 136.837 402.126 136.962V137.523C402.302 137.193 402.548 136.944 402.863 136.775C403.178 136.599 403.538 136.511 403.941 136.511ZM413.128 137.127C413.597 137.127 414.015 137.23 414.382 137.435C414.748 137.64 415.034 137.93 415.24 138.304C415.445 138.678 415.548 139.107 415.548 139.591C415.548 140.068 415.441 140.497 415.229 140.878C415.016 141.259 414.719 141.556 414.338 141.769C413.956 141.982 413.527 142.088 413.051 142.088C412.112 142.088 411.386 141.762 410.873 141.109C410.367 140.456 410.114 139.525 410.114 138.315C410.114 137.45 410.231 136.705 410.466 136.082C410.7 135.459 411.041 134.982 411.489 134.652C411.936 134.322 412.468 134.157 413.084 134.157C413.502 134.157 413.916 134.238 414.327 134.399C414.745 134.56 415.1 134.78 415.394 135.059C415.518 135.176 415.581 135.301 415.581 135.433C415.581 135.543 415.551 135.635 415.493 135.708C415.434 135.781 415.364 135.818 415.284 135.818C415.181 135.818 415.075 135.778 414.965 135.697C414.327 135.176 413.707 134.916 413.106 134.916C412.453 134.916 411.943 135.213 411.577 135.807C411.21 136.401 411.027 137.233 411.027 138.304V138.447C411.195 138.036 411.467 137.714 411.841 137.479C412.222 137.244 412.651 137.127 413.128 137.127ZM413.007 141.329C413.505 141.329 413.905 141.171 414.206 140.856C414.506 140.541 414.657 140.123 414.657 139.602C414.657 139.081 414.503 138.667 414.195 138.359C413.894 138.044 413.494 137.886 412.996 137.886C412.49 137.886 412.075 138.047 411.753 138.37C411.437 138.685 411.28 139.096 411.28 139.602C411.28 140.115 411.437 140.533 411.753 140.856C412.075 141.171 412.493 141.329 413.007 141.329ZM417.216 139.437C417.084 139.437 416.981 139.404 416.908 139.338C416.842 139.272 416.809 139.184 416.809 139.074C416.809 138.964 416.842 138.876 416.908 138.81C416.981 138.737 417.084 138.7 417.216 138.7H419.636C419.775 138.7 419.878 138.737 419.944 138.81C420.017 138.876 420.054 138.964 420.054 139.074C420.054 139.184 420.017 139.272 419.944 139.338C419.878 139.404 419.775 139.437 419.636 139.437H417.216ZM426.3 134.245C426.432 134.245 426.531 134.282 426.597 134.355C426.67 134.421 426.707 134.509 426.707 134.619C426.707 134.722 426.674 134.835 426.608 134.96L422.956 141.835C422.868 141.996 422.739 142.077 422.571 142.077C422.453 142.077 422.347 142.037 422.252 141.956C422.164 141.875 422.12 141.776 422.12 141.659C422.12 141.578 422.145 141.498 422.197 141.417L425.629 135.004H421.834C421.702 135.004 421.599 134.971 421.526 134.905C421.46 134.839 421.427 134.747 421.427 134.63C421.427 134.505 421.46 134.41 421.526 134.344C421.599 134.278 421.702 134.245 421.834 134.245H426.3Z" fill="#3B3B3B" fill-opacity="0.7"/>
<path d="M653.44 142.055C653.257 142.07 653.117 142.044 653.022 141.978C652.927 141.912 652.879 141.813 652.879 141.681C652.879 141.439 653.015 141.314 653.286 141.307L653.616 141.285C653.99 141.263 654.269 141.149 654.452 140.944C654.635 140.731 654.727 140.394 654.727 139.932V134.652C654.727 134.513 654.771 134.403 654.859 134.322C654.947 134.234 655.053 134.19 655.178 134.19C655.317 134.19 655.427 134.234 655.508 134.322C655.589 134.403 655.629 134.513 655.629 134.652V139.943C655.629 140.618 655.475 141.127 655.167 141.472C654.859 141.809 654.393 141.996 653.77 142.033L653.44 142.055ZM659.602 136.511C660.944 136.511 661.615 137.215 661.615 138.623V141.615C661.615 141.747 661.575 141.853 661.494 141.934C661.421 142.015 661.318 142.055 661.186 142.055C661.054 142.055 660.948 142.015 660.867 141.934C660.786 141.853 660.746 141.747 660.746 141.615V141.087C660.607 141.402 660.394 141.648 660.108 141.824C659.822 141.993 659.492 142.077 659.118 142.077C658.773 142.077 658.454 142.007 658.161 141.868C657.875 141.729 657.648 141.534 657.479 141.285C657.31 141.036 657.226 140.761 657.226 140.46C657.226 140.057 657.329 139.745 657.534 139.525C657.739 139.298 658.077 139.136 658.546 139.041C659.015 138.938 659.668 138.887 660.504 138.887H660.746V138.524C660.746 138.084 660.654 137.761 660.471 137.556C660.295 137.351 660.005 137.248 659.602 137.248C659.103 137.248 658.597 137.384 658.084 137.655C657.886 137.78 657.747 137.842 657.666 137.842C657.578 137.842 657.505 137.809 657.446 137.743C657.387 137.677 657.358 137.593 657.358 137.49C657.358 137.387 657.387 137.299 657.446 137.226C657.512 137.145 657.615 137.065 657.754 136.984C658.011 136.837 658.3 136.724 658.623 136.643C658.953 136.555 659.279 136.511 659.602 136.511ZM659.239 141.373C659.679 141.373 660.038 141.226 660.317 140.933C660.603 140.632 660.746 140.247 660.746 139.778V139.459H660.548C659.903 139.459 659.411 139.488 659.074 139.547C658.737 139.598 658.495 139.69 658.348 139.822C658.209 139.947 658.139 140.134 658.139 140.383C658.139 140.669 658.242 140.907 658.447 141.098C658.66 141.281 658.924 141.373 659.239 141.373ZM665.941 136.511C667.224 136.511 667.866 137.219 667.866 138.634V141.615C667.866 141.754 667.826 141.864 667.745 141.945C667.672 142.018 667.565 142.055 667.426 142.055C667.287 142.055 667.177 142.018 667.096 141.945C667.015 141.864 666.975 141.754 666.975 141.615V138.689C666.975 138.19 666.876 137.827 666.678 137.6C666.487 137.373 666.179 137.259 665.754 137.259C665.263 137.259 664.87 137.409 664.577 137.71C664.284 138.011 664.137 138.418 664.137 138.931V141.615C664.137 141.754 664.097 141.864 664.016 141.945C663.943 142.018 663.836 142.055 663.697 142.055C663.558 142.055 663.448 142.018 663.367 141.945C663.286 141.864 663.246 141.754 663.246 141.615V136.973C663.246 136.841 663.286 136.735 663.367 136.654C663.448 136.573 663.558 136.533 663.697 136.533C663.829 136.533 663.932 136.573 664.005 136.654C664.086 136.735 664.126 136.837 664.126 136.962V137.523C664.302 137.193 664.548 136.944 664.863 136.775C665.178 136.599 665.538 136.511 665.941 136.511ZM675.128 137.127C675.597 137.127 676.015 137.23 676.382 137.435C676.748 137.64 677.034 137.93 677.24 138.304C677.445 138.678 677.548 139.107 677.548 139.591C677.548 140.068 677.441 140.497 677.229 140.878C677.016 141.259 676.719 141.556 676.338 141.769C675.956 141.982 675.527 142.088 675.051 142.088C674.112 142.088 673.386 141.762 672.873 141.109C672.367 140.456 672.114 139.525 672.114 138.315C672.114 137.45 672.231 136.705 672.466 136.082C672.7 135.459 673.041 134.982 673.489 134.652C673.936 134.322 674.468 134.157 675.084 134.157C675.502 134.157 675.916 134.238 676.327 134.399C676.745 134.56 677.1 134.78 677.394 135.059C677.518 135.176 677.581 135.301 677.581 135.433C677.581 135.543 677.551 135.635 677.493 135.708C677.434 135.781 677.364 135.818 677.284 135.818C677.181 135.818 677.075 135.778 676.965 135.697C676.327 135.176 675.707 134.916 675.106 134.916C674.453 134.916 673.943 135.213 673.577 135.807C673.21 136.401 673.027 137.233 673.027 138.304V138.447C673.195 138.036 673.467 137.714 673.841 137.479C674.222 137.244 674.651 137.127 675.128 137.127ZM675.007 141.329C675.505 141.329 675.905 141.171 676.206 140.856C676.506 140.541 676.657 140.123 676.657 139.602C676.657 139.081 676.503 138.667 676.195 138.359C675.894 138.044 675.494 137.886 674.996 137.886C674.49 137.886 674.075 138.047 673.753 138.37C673.437 138.685 673.28 139.096 673.28 139.602C673.28 140.115 673.437 140.533 673.753 140.856C674.075 141.171 674.493 141.329 675.007 141.329ZM679.216 139.437C679.084 139.437 678.981 139.404 678.908 139.338C678.842 139.272 678.809 139.184 678.809 139.074C678.809 138.964 678.842 138.876 678.908 138.81C678.981 138.737 679.084 138.7 679.216 138.7H681.636C681.775 138.7 681.878 138.737 681.944 138.81C682.017 138.876 682.054 138.964 682.054 139.074C682.054 139.184 682.017 139.272 681.944 139.338C681.878 139.404 681.775 139.437 681.636 139.437H679.216ZM688.3 134.245C688.432 134.245 688.531 134.282 688.597 134.355C688.67 134.421 688.707 134.509 688.707 134.619C688.707 134.722 688.674 134.835 688.608 134.96L684.956 141.835C684.868 141.996 684.739 142.077 684.571 142.077C684.453 142.077 684.347 142.037 684.252 141.956C684.164 141.875 684.12 141.776 684.12 141.659C684.12 141.578 684.145 141.498 684.197 141.417L687.629 135.004H683.834C683.702 135.004 683.599 134.971 683.526 134.905C683.46 134.839 683.427 134.747 683.427 134.63C683.427 134.505 683.46 134.41 683.526 134.344C683.599 134.278 683.702 134.245 683.834 134.245H688.3Z" fill="#3B3B3B" fill-opacity="0.7"/>
<path d="M193.44 142.055C193.257 142.07 193.117 142.044 193.022 141.978C192.927 141.912 192.879 141.813 192.879 141.681C192.879 141.439 193.015 141.314 193.286 141.307L193.616 141.285C193.99 141.263 194.269 141.149 194.452 140.944C194.635 140.731 194.727 140.394 194.727 139.932V134.652C194.727 134.513 194.771 134.403 194.859 134.322C194.947 134.234 195.053 134.19 195.178 134.19C195.317 134.19 195.427 134.234 195.508 134.322C195.589 134.403 195.629 134.513 195.629 134.652V139.943C195.629 140.618 195.475 141.127 195.167 141.472C194.859 141.809 194.393 141.996 193.77 142.033L193.44 142.055ZM199.602 136.511C200.944 136.511 201.615 137.215 201.615 138.623V141.615C201.615 141.747 201.575 141.853 201.494 141.934C201.421 142.015 201.318 142.055 201.186 142.055C201.054 142.055 200.948 142.015 200.867 141.934C200.786 141.853 200.746 141.747 200.746 141.615V141.087C200.607 141.402 200.394 141.648 200.108 141.824C199.822 141.993 199.492 142.077 199.118 142.077C198.773 142.077 198.454 142.007 198.161 141.868C197.875 141.729 197.648 141.534 197.479 141.285C197.31 141.036 197.226 140.761 197.226 140.46C197.226 140.057 197.329 139.745 197.534 139.525C197.739 139.298 198.077 139.136 198.546 139.041C199.015 138.938 199.668 138.887 200.504 138.887H200.746V138.524C200.746 138.084 200.654 137.761 200.471 137.556C200.295 137.351 200.005 137.248 199.602 137.248C199.103 137.248 198.597 137.384 198.084 137.655C197.886 137.78 197.747 137.842 197.666 137.842C197.578 137.842 197.505 137.809 197.446 137.743C197.387 137.677 197.358 137.593 197.358 137.49C197.358 137.387 197.387 137.299 197.446 137.226C197.512 137.145 197.615 137.065 197.754 136.984C198.011 136.837 198.3 136.724 198.623 136.643C198.953 136.555 199.279 136.511 199.602 136.511ZM199.239 141.373C199.679 141.373 200.038 141.226 200.317 140.933C200.603 140.632 200.746 140.247 200.746 139.778V139.459H200.548C199.903 139.459 199.411 139.488 199.074 139.547C198.737 139.598 198.495 139.69 198.348 139.822C198.209 139.947 198.139 140.134 198.139 140.383C198.139 140.669 198.242 140.907 198.447 141.098C198.66 141.281 198.924 141.373 199.239 141.373ZM205.941 136.511C207.224 136.511 207.866 137.219 207.866 138.634V141.615C207.866 141.754 207.826 141.864 207.745 141.945C207.672 142.018 207.565 142.055 207.426 142.055C207.287 142.055 207.177 142.018 207.096 141.945C207.015 141.864 206.975 141.754 206.975 141.615V138.689C206.975 138.19 206.876 137.827 206.678 137.6C206.487 137.373 206.179 137.259 205.754 137.259C205.263 137.259 204.87 137.409 204.577 137.71C204.284 138.011 204.137 138.418 204.137 138.931V141.615C204.137 141.754 204.097 141.864 204.016 141.945C203.943 142.018 203.836 142.055 203.697 142.055C203.558 142.055 203.448 142.018 203.367 141.945C203.286 141.864 203.246 141.754 203.246 141.615V136.973C203.246 136.841 203.286 136.735 203.367 136.654C203.448 136.573 203.558 136.533 203.697 136.533C203.829 136.533 203.932 136.573 204.005 136.654C204.086 136.735 204.126 136.837 204.126 136.962V137.523C204.302 137.193 204.548 136.944 204.863 136.775C205.178 136.599 205.538 136.511 205.941 136.511ZM214.567 134.157C215.505 134.157 216.228 134.483 216.734 135.136C217.247 135.789 217.504 136.72 217.504 137.93C217.504 138.795 217.386 139.54 217.152 140.163C216.917 140.786 216.576 141.263 216.129 141.593C215.681 141.923 215.15 142.088 214.534 142.088C214.116 142.088 213.698 142.007 213.28 141.846C212.869 141.685 212.517 141.465 212.224 141.186C212.099 141.069 212.037 140.944 212.037 140.812C212.037 140.702 212.066 140.61 212.125 140.537C212.183 140.464 212.253 140.427 212.334 140.427C212.436 140.427 212.543 140.467 212.653 140.548C213.291 141.069 213.91 141.329 214.512 141.329C215.164 141.329 215.674 141.032 216.041 140.438C216.407 139.844 216.591 139.012 216.591 137.941V137.798C216.422 138.209 216.147 138.531 215.766 138.766C215.392 139.001 214.966 139.118 214.49 139.118C214.02 139.118 213.602 139.015 213.236 138.81C212.869 138.605 212.583 138.315 212.378 137.941C212.172 137.567 212.07 137.138 212.07 136.654C212.07 136.177 212.176 135.748 212.389 135.367C212.601 134.986 212.898 134.689 213.28 134.476C213.661 134.263 214.09 134.157 214.567 134.157ZM214.622 138.359C215.128 138.359 215.538 138.201 215.854 137.886C216.176 137.563 216.338 137.149 216.338 136.643C216.338 136.13 216.176 135.715 215.854 135.4C215.538 135.077 215.124 134.916 214.611 134.916C214.112 134.916 213.712 135.074 213.412 135.389C213.111 135.704 212.961 136.122 212.961 136.643C212.961 137.164 213.111 137.582 213.412 137.897C213.72 138.205 214.123 138.359 214.622 138.359ZM219.226 139.437C219.094 139.437 218.992 139.404 218.918 139.338C218.852 139.272 218.819 139.184 218.819 139.074C218.819 138.964 218.852 138.876 218.918 138.81C218.992 138.737 219.094 138.7 219.226 138.7H221.646C221.786 138.7 221.888 138.737 221.954 138.81C222.028 138.876 222.064 138.964 222.064 139.074C222.064 139.184 222.028 139.272 221.954 139.338C221.888 139.404 221.786 139.437 221.646 139.437H219.226ZM228.189 141.241C228.321 141.241 228.424 141.274 228.497 141.34C228.571 141.406 228.607 141.498 228.607 141.615C228.607 141.74 228.571 141.835 228.497 141.901C228.431 141.967 228.329 142 228.189 142H224.548C224.409 142 224.303 141.967 224.229 141.901C224.163 141.835 224.13 141.74 224.13 141.615C224.13 141.498 224.167 141.406 224.24 141.34C224.314 141.274 224.416 141.241 224.548 141.241H225.912V135.345L224.713 136.126C224.655 136.163 224.596 136.181 224.537 136.181C224.435 136.181 224.343 136.133 224.262 136.038C224.189 135.943 224.152 135.84 224.152 135.73C224.152 135.576 224.211 135.466 224.328 135.4L226 134.311C226.125 134.23 226.253 134.19 226.385 134.19C226.51 134.19 226.613 134.23 226.693 134.311C226.774 134.392 226.814 134.505 226.814 134.652V141.241H228.189ZM234.785 141.241C234.917 141.241 235.02 141.274 235.093 141.34C235.166 141.406 235.203 141.498 235.203 141.615C235.203 141.74 235.166 141.835 235.093 141.901C235.027 141.967 234.924 142 234.785 142H231.144C231.005 142 230.898 141.967 230.825 141.901C230.759 141.835 230.726 141.74 230.726 141.615C230.726 141.498 230.763 141.406 230.836 141.34C230.909 141.274 231.012 141.241 231.144 141.241H232.508V135.345L231.309 136.126C231.25 136.163 231.192 136.181 231.133 136.181C231.03 136.181 230.939 136.133 230.858 136.038C230.785 135.943 230.748 135.84 230.748 135.73C230.748 135.576 230.807 135.466 230.924 135.4L232.596 134.311C232.721 134.23 232.849 134.19 232.981 134.19C233.106 134.19 233.208 134.23 233.289 134.311C233.37 134.392 233.41 134.505 233.41 134.652V141.241H234.785Z" fill="#3B3B3B" fill-opacity="0.7"/>
<path d="M455.44 142.055C455.257 142.07 455.117 142.044 455.022 141.978C454.927 141.912 454.879 141.813 454.879 141.681C454.879 141.439 455.015 141.314 455.286 141.307L455.616 141.285C455.99 141.263 456.269 141.149 456.452 140.944C456.635 140.731 456.727 140.394 456.727 139.932V134.652C456.727 134.513 456.771 134.403 456.859 134.322C456.947 134.234 457.053 134.19 457.178 134.19C457.317 134.19 457.427 134.234 457.508 134.322C457.589 134.403 457.629 134.513 457.629 134.652V139.943C457.629 140.618 457.475 141.127 457.167 141.472C456.859 141.809 456.393 141.996 455.77 142.033L455.44 142.055ZM461.602 136.511C462.944 136.511 463.615 137.215 463.615 138.623V141.615C463.615 141.747 463.575 141.853 463.494 141.934C463.421 142.015 463.318 142.055 463.186 142.055C463.054 142.055 462.948 142.015 462.867 141.934C462.786 141.853 462.746 141.747 462.746 141.615V141.087C462.607 141.402 462.394 141.648 462.108 141.824C461.822 141.993 461.492 142.077 461.118 142.077C460.773 142.077 460.454 142.007 460.161 141.868C459.875 141.729 459.648 141.534 459.479 141.285C459.31 141.036 459.226 140.761 459.226 140.46C459.226 140.057 459.329 139.745 459.534 139.525C459.739 139.298 460.077 139.136 460.546 139.041C461.015 138.938 461.668 138.887 462.504 138.887H462.746V138.524C462.746 138.084 462.654 137.761 462.471 137.556C462.295 137.351 462.005 137.248 461.602 137.248C461.103 137.248 460.597 137.384 460.084 137.655C459.886 137.78 459.747 137.842 459.666 137.842C459.578 137.842 459.505 137.809 459.446 137.743C459.387 137.677 459.358 137.593 459.358 137.49C459.358 137.387 459.387 137.299 459.446 137.226C459.512 137.145 459.615 137.065 459.754 136.984C460.011 136.837 460.3 136.724 460.623 136.643C460.953 136.555 461.279 136.511 461.602 136.511ZM461.239 141.373C461.679 141.373 462.038 141.226 462.317 140.933C462.603 140.632 462.746 140.247 462.746 139.778V139.459H462.548C461.903 139.459 461.411 139.488 461.074 139.547C460.737 139.598 460.495 139.69 460.348 139.822C460.209 139.947 460.139 140.134 460.139 140.383C460.139 140.669 460.242 140.907 460.447 141.098C460.66 141.281 460.924 141.373 461.239 141.373ZM467.941 136.511C469.224 136.511 469.866 137.219 469.866 138.634V141.615C469.866 141.754 469.826 141.864 469.745 141.945C469.672 142.018 469.565 142.055 469.426 142.055C469.287 142.055 469.177 142.018 469.096 141.945C469.015 141.864 468.975 141.754 468.975 141.615V138.689C468.975 138.19 468.876 137.827 468.678 137.6C468.487 137.373 468.179 137.259 467.754 137.259C467.263 137.259 466.87 137.409 466.577 137.71C466.284 138.011 466.137 138.418 466.137 138.931V141.615C466.137 141.754 466.097 141.864 466.016 141.945C465.943 142.018 465.836 142.055 465.697 142.055C465.558 142.055 465.448 142.018 465.367 141.945C465.286 141.864 465.246 141.754 465.246 141.615V136.973C465.246 136.841 465.286 136.735 465.367 136.654C465.448 136.573 465.558 136.533 465.697 136.533C465.829 136.533 465.932 136.573 466.005 136.654C466.086 136.735 466.126 136.837 466.126 136.962V137.523C466.302 137.193 466.548 136.944 466.863 136.775C467.178 136.599 467.538 136.511 467.941 136.511ZM476.567 134.157C477.505 134.157 478.228 134.483 478.734 135.136C479.247 135.789 479.504 136.72 479.504 137.93C479.504 138.795 479.386 139.54 479.152 140.163C478.917 140.786 478.576 141.263 478.129 141.593C477.681 141.923 477.15 142.088 476.534 142.088C476.116 142.088 475.698 142.007 475.28 141.846C474.869 141.685 474.517 141.465 474.224 141.186C474.099 141.069 474.037 140.944 474.037 140.812C474.037 140.702 474.066 140.61 474.125 140.537C474.183 140.464 474.253 140.427 474.334 140.427C474.436 140.427 474.543 140.467 474.653 140.548C475.291 141.069 475.91 141.329 476.512 141.329C477.164 141.329 477.674 141.032 478.041 140.438C478.407 139.844 478.591 139.012 478.591 137.941V137.798C478.422 138.209 478.147 138.531 477.766 138.766C477.392 139.001 476.966 139.118 476.49 139.118C476.02 139.118 475.602 139.015 475.236 138.81C474.869 138.605 474.583 138.315 474.378 137.941C474.172 137.567 474.07 137.138 474.07 136.654C474.07 136.177 474.176 135.748 474.389 135.367C474.601 134.986 474.898 134.689 475.28 134.476C475.661 134.263 476.09 134.157 476.567 134.157ZM476.622 138.359C477.128 138.359 477.538 138.201 477.854 137.886C478.176 137.563 478.338 137.149 478.338 136.643C478.338 136.13 478.176 135.715 477.854 135.4C477.538 135.077 477.124 134.916 476.611 134.916C476.112 134.916 475.712 135.074 475.412 135.389C475.111 135.704 474.961 136.122 474.961 136.643C474.961 137.164 475.111 137.582 475.412 137.897C475.72 138.205 476.123 138.359 476.622 138.359ZM481.226 139.437C481.094 139.437 480.992 139.404 480.918 139.338C480.852 139.272 480.819 139.184 480.819 139.074C480.819 138.964 480.852 138.876 480.918 138.81C480.992 138.737 481.094 138.7 481.226 138.7H483.646C483.786 138.7 483.888 138.737 483.954 138.81C484.028 138.876 484.064 138.964 484.064 139.074C484.064 139.184 484.028 139.272 483.954 139.338C483.888 139.404 483.786 139.437 483.646 139.437H481.226ZM490.189 141.241C490.321 141.241 490.424 141.274 490.497 141.34C490.571 141.406 490.607 141.498 490.607 141.615C490.607 141.74 490.571 141.835 490.497 141.901C490.431 141.967 490.329 142 490.189 142H486.548C486.409 142 486.303 141.967 486.229 141.901C486.163 141.835 486.13 141.74 486.13 141.615C486.13 141.498 486.167 141.406 486.24 141.34C486.314 141.274 486.416 141.241 486.548 141.241H487.912V135.345L486.713 136.126C486.655 136.163 486.596 136.181 486.537 136.181C486.435 136.181 486.343 136.133 486.262 136.038C486.189 135.943 486.152 135.84 486.152 135.73C486.152 135.576 486.211 135.466 486.328 135.4L488 134.311C488.125 134.23 488.253 134.19 488.385 134.19C488.51 134.19 488.613 134.23 488.693 134.311C488.774 134.392 488.814 134.505 488.814 134.652V141.241H490.189ZM496.785 141.241C496.917 141.241 497.02 141.274 497.093 141.34C497.166 141.406 497.203 141.498 497.203 141.615C497.203 141.74 497.166 141.835 497.093 141.901C497.027 141.967 496.924 142 496.785 142H493.144C493.005 142 492.898 141.967 492.825 141.901C492.759 141.835 492.726 141.74 492.726 141.615C492.726 141.498 492.763 141.406 492.836 141.34C492.909 141.274 493.012 141.241 493.144 141.241H494.508V135.345L493.309 136.126C493.25 136.163 493.192 136.181 493.133 136.181C493.03 136.181 492.939 136.133 492.858 136.038C492.785 135.943 492.748 135.84 492.748 135.73C492.748 135.576 492.807 135.466 492.924 135.4L494.596 134.311C494.721 134.23 494.849 134.19 494.981 134.19C495.106 134.19 495.208 134.23 495.289 134.311C495.37 134.392 495.41 134.505 495.41 134.652V141.241H496.785Z" fill="#3B3B3B" fill-opacity="0.7"/>
<g clip-path="url(#clip0)">
<g opacity="0.24">
<g opacity="0.8">
<rect y="118.807" width="118.806" height="17.8209" rx="1.48507" transform="rotate(-90 0 118.807)" fill="#274B89"/>
</g>
</g>
<g opacity="0.24">
<g opacity="0.8">
<rect x="23.7612" y="118.807" width="95.7873" height="17.8209" rx="1.48507" transform="rotate(-90 23.7612 118.807)" fill="#274B89"/>
</g>
</g>
<g opacity="0.24">
<g opacity="0.8">
<rect x="47.5225" y="118.807" width="78.709" height="17.8209" rx="1.48507" transform="rotate(-90 47.5225 118.807)" fill="#274B89"/>
</g>
</g>
<g opacity="0.24">
<g opacity="0.8">
<rect x="71.2837" y="118.807" width="59.403" height="17.8209" rx="1.48507" transform="rotate(-90 71.2837 118.807)" fill="#274B89"/>
</g>
</g>
<g opacity="0.24">
<g opacity="0.8">
<rect x="95.0449" y="118.807" width="29.7015" height="17.8209" rx="1.48507" transform="rotate(-90 95.0449 118.807)" fill="#274B89"/>
</g>
</g>
<g opacity="0.24">
<g opacity="0.8">
<rect x="118.806" y="118.807" width="11.8806" height="17.8209" rx="1.48507" transform="rotate(-90 118.806 118.807)" fill="#274B89"/>
</g>
</g>
<g opacity="0.24">
<g opacity="0.8">
<rect x="142.567" y="118.807" width="7.42537" height="17.8209" rx="1.48507" transform="rotate(-90 142.567 118.807)" fill="#274B89"/>
</g>
</g>
<g opacity="0.4">
<g opacity="0.8">
<rect y="118.807" width="96.5299" height="17.8209" rx="1.48507" transform="rotate(-90 0 118.807)" fill="#274B89"/>
</g>
</g>
<g opacity="0.4">
<g opacity="0.8">
<rect x="23.7612" y="118.807" width="71.2836" height="17.8209" rx="1.48507" transform="rotate(-90 23.7612 118.807)" fill="#274B89"/>
</g>
</g>
<g opacity="0.4">
<g opacity="0.8">
<rect x="47.5225" y="118.807" width="57.9179" height="17.8209" rx="1.48507" transform="rotate(-90 47.5225 118.807)" fill="#274B89"/>
</g>
</g>
<g opacity="0.4">
<g opacity="0.8">
<rect x="71.2837" y="118.807" width="47.5224" height="17.8209" rx="1.48507" transform="rotate(-90 71.2837 118.807)" fill="#274B89"/>
</g>
</g>
<g opacity="0.4">
<g opacity="0.8">
<rect x="95.0449" y="118.807" width="44.5522" height="17.8209" rx="1.48507" transform="rotate(-90 95.0449 118.807)" fill="#274B89"/>
</g>
</g>
<g opacity="0.4">
<g opacity="0.8">
<rect x="118.806" y="118.807" width="38.6119" height="17.8209" rx="1.48507" transform="rotate(-90 118.806 118.807)" fill="#274B89"/>
</g>
</g>
<g opacity="0.4">
<g opacity="0.8">
<rect x="142.567" y="118.807" width="35.6418" height="17.8209" rx="1.48507" transform="rotate(-90 142.567 118.807)" fill="#274B89"/>
</g>
</g>
<g opacity="0.4">
<g opacity="0.8">
<rect x="166" y="119" width="118.672" height="17.8209" rx="1.48507" transform="rotate(-90 166 119)" fill="#274B89"/>
</g>
</g>
<g opacity="0.4">
<g opacity="0.8">
<rect x="190.089" y="118.807" width="20.0485" height="17.8209" rx="1.48507" transform="rotate(-90 190.089 118.807)" fill="#274B89"/>
</g>
</g>
<g opacity="0.4">
<g opacity="0.8">
<rect x="214" y="119" width="78.3657" height="17.8209" rx="1.48507" transform="rotate(-90 214 119)" fill="#274B89"/>
</g>
</g>
<g opacity="0.4">
<g opacity="0.8">
<rect x="237.612" y="118.807" width="10.3955" height="17.8209" rx="1.48507" transform="rotate(-90 237.612 118.807)" fill="#274B89"/>
</g>
</g>
<g opacity="0.4">
<g opacity="0.8">
<rect x="261.373" y="118.807" width="8.91045" height="17.8209" rx="1.48507" transform="rotate(-90 261.373 118.807)" fill="#274B89"/>
</g>
</g>
<g opacity="0.4">
<g opacity="0.8">
<rect x="285" y="119" width="44.4254" height="17.8209" rx="1.48507" transform="rotate(-90 285 119)" fill="#274B89"/>
</g>
</g>
<g opacity="0.4">
<g opacity="0.8">
<rect x="308.896" y="118.807" width="6.68284" height="17.8209" rx="1.48507" transform="rotate(-90 308.896 118.807)" fill="#274B89"/>
</g>
</g>
<g opacity="0.4">
<g opacity="0.8">
<rect x="333" y="119" width="10.4552" height="16.8209" rx="1.48507" transform="rotate(-90 333 119)" fill="#274B89"/>
</g>
</g>
<g opacity="0.4">
<g opacity="0.8">
<rect x="356.418" y="118.807" width="2.97015" height="17.8209" rx="1.48507" transform="rotate(-90 356.418 118.807)" fill="#274B89"/>
</g>
</g>
<g opacity="0.4">
<g opacity="0.8">
<rect x="380.179" y="118.807" width="2.22761" height="17.8209" rx="1.11381" transform="rotate(-90 380.179 118.807)" fill="#274B89"/>
</g>
</g>
</g>
<g clip-path="url(#clip1)">
<g opacity="0.4">
<g opacity="0.8">
<rect x="380.045" y="118.807" width="44.5522" height="17.8209" rx="1.48507" transform="rotate(-90 380.045 118.807)" fill="#274B89"/>
</g>
</g>
<g opacity="0.4">
<g opacity="0.8">
<rect x="403.806" y="118.807" width="38.6119" height="17.8209" rx="1.48507" transform="rotate(-90 403.806 118.807)" fill="#274B89"/>
</g>
</g>
<g opacity="0.4">
<g opacity="0.8">
<rect x="427.567" y="118.807" width="35.6418" height="17.8209" rx="1.48507" transform="rotate(-90 427.567 118.807)" fill="#274B89"/>
</g>
</g>
<g opacity="0.4">
<g opacity="0.8">
<rect x="451" y="119" width="95.6716" height="17.8209" rx="1.48507" transform="rotate(-90 451 119)" fill="#274B89"/>
</g>
</g>
<g opacity="0.4">
<g opacity="0.8">
<rect x="475.09" y="118.807" width="20.0485" height="17.8209" rx="1.48507" transform="rotate(-90 475.09 118.807)" fill="#274B89"/>
</g>
</g>
<g opacity="0.4">
<g opacity="0.8">
<rect x="498.851" y="118.807" width="13.3657" height="17.8209" rx="1.48507" transform="rotate(-90 498.851 118.807)" fill="#274B89"/>
</g>
</g>
<g opacity="0.4">
<g opacity="0.8">
<rect x="522.612" y="118.807" width="10.3955" height="17.8209" rx="1.48507" transform="rotate(-90 522.612 118.807)" fill="#274B89"/>
</g>
</g>
<g opacity="0.4">
<g opacity="0.8">
<rect x="546" y="119" width="25.9104" height="17.8209" rx="1.48507" transform="rotate(-90 546 119)" fill="#274B89"/>
</g>
</g>
<g opacity="0.4">
<g opacity="0.8">
<rect x="570.134" y="118.807" width="7.42537" height="17.8209" rx="1.48507" transform="rotate(-90 570.134 118.807)" fill="#274B89"/>
</g>
</g>
<g opacity="0.4">
<g opacity="0.8">
<rect x="594" y="119" width="19.6828" height="17.8209" rx="1.48507" transform="rotate(-90 594 119)" fill="#274B89"/>
</g>
</g>
<g opacity="0.4">
<g opacity="0.8">
<rect x="617.657" y="118.807" width="4.45522" height="17.8209" rx="1.48507" transform="rotate(-90 617.657 118.807)" fill="#274B89"/>
</g>
</g>
<g opacity="0.4">
<g opacity="0.8">
<rect x="641.418" y="118.807" width="2.97015" height="17.8209" rx="1.48507" transform="rotate(-90 641.418 118.807)" fill="#274B89"/>
</g>
</g>
<g opacity="0.4">
<g opacity="0.8">
<rect x="665.179" y="118.807" width="2.22761" height="17.8209" rx="1.11381" transform="rotate(-90 665.179 118.807)" fill="#274B89"/>
</g>
</g>
</g>
<path d="M14.397 169C14.2723 169 14.166 168.963 14.078 168.89C13.9973 168.809 13.957 168.707 13.957 168.582V161.652C13.957 161.513 13.9973 161.403 14.078 161.322C14.1587 161.234 14.2687 161.19 14.408 161.19C14.5473 161.19 14.6573 161.234 14.738 161.322C14.8187 161.403 14.859 161.513 14.859 161.652V168.23H18.412C18.544 168.23 18.6467 168.263 18.72 168.329C18.7933 168.395 18.83 168.49 18.83 168.615C18.83 168.74 18.7933 168.835 18.72 168.901C18.6467 168.967 18.544 169 18.412 169H14.397ZM21.9544 163.511C23.2964 163.511 23.9674 164.215 23.9674 165.623V168.615C23.9674 168.747 23.9271 168.853 23.8464 168.934C23.7731 169.015 23.6704 169.055 23.5384 169.055C23.4064 169.055 23.3001 169.015 23.2194 168.934C23.1388 168.853 23.0984 168.747 23.0984 168.615V168.087C22.9591 168.402 22.7464 168.648 22.4604 168.824C22.1744 168.993 21.8444 169.077 21.4704 169.077C21.1258 169.077 20.8068 169.007 20.5134 168.868C20.2274 168.729 20.0001 168.534 19.8314 168.285C19.6628 168.036 19.5784 167.761 19.5784 167.46C19.5784 167.057 19.6811 166.745 19.8864 166.525C20.0918 166.298 20.4291 166.136 20.8984 166.041C21.3678 165.938 22.0204 165.887 22.8564 165.887H23.0984V165.524C23.0984 165.084 23.0068 164.761 22.8234 164.556C22.6474 164.351 22.3578 164.248 21.9544 164.248C21.4558 164.248 20.9498 164.384 20.4364 164.655C20.2384 164.78 20.0991 164.842 20.0184 164.842C19.9304 164.842 19.8571 164.809 19.7984 164.743C19.7398 164.677 19.7104 164.593 19.7104 164.49C19.7104 164.387 19.7398 164.299 19.7984 164.226C19.8644 164.145 19.9671 164.065 20.1064 163.984C20.3631 163.837 20.6528 163.724 20.9754 163.643C21.3054 163.555 21.6318 163.511 21.9544 163.511ZM21.5914 168.373C22.0314 168.373 22.3908 168.226 22.6694 167.933C22.9554 167.632 23.0984 167.247 23.0984 166.778V166.459H22.9004C22.2551 166.459 21.7638 166.488 21.4264 166.547C21.0891 166.598 20.8471 166.69 20.7004 166.822C20.5611 166.947 20.4914 167.134 20.4914 167.383C20.4914 167.669 20.5941 167.907 20.7994 168.098C21.0121 168.281 21.2761 168.373 21.5914 168.373ZM27.4024 169.077C27.0651 169.077 26.7424 169.037 26.4344 168.956C26.1338 168.875 25.8661 168.762 25.6314 168.615C25.4994 168.527 25.4041 168.446 25.3454 168.373C25.2941 168.292 25.2684 168.197 25.2684 168.087C25.2684 167.992 25.2941 167.915 25.3454 167.856C25.4041 167.79 25.4774 167.757 25.5654 167.757C25.6534 167.757 25.7818 167.812 25.9504 167.922C26.1704 168.054 26.3868 168.16 26.5994 168.241C26.8194 168.314 27.0908 168.351 27.4134 168.351C27.8094 168.351 28.1174 168.281 28.3374 168.142C28.5574 168.003 28.6674 167.801 28.6674 167.537C28.6674 167.376 28.6271 167.247 28.5464 167.152C28.4658 167.049 28.3264 166.961 28.1284 166.888C27.9304 166.807 27.6408 166.727 27.2594 166.646C26.6141 166.507 26.1521 166.32 25.8734 166.085C25.5948 165.85 25.4554 165.531 25.4554 165.128C25.4554 164.813 25.5434 164.534 25.7194 164.292C25.8954 164.05 26.1374 163.859 26.4454 163.72C26.7608 163.581 27.1164 163.511 27.5124 163.511C27.7984 163.511 28.0734 163.551 28.3374 163.632C28.6088 163.705 28.8471 163.812 29.0524 163.951C29.3018 164.127 29.4264 164.31 29.4264 164.501C29.4264 164.596 29.3971 164.677 29.3384 164.743C29.2798 164.809 29.2101 164.842 29.1294 164.842C29.0414 164.842 28.9094 164.78 28.7334 164.655C28.5281 164.523 28.3338 164.42 28.1504 164.347C27.9671 164.274 27.7398 164.237 27.4684 164.237C27.1238 164.237 26.8451 164.314 26.6324 164.468C26.4271 164.622 26.3244 164.827 26.3244 165.084C26.3244 165.245 26.3611 165.377 26.4344 165.48C26.5151 165.575 26.6434 165.663 26.8194 165.744C27.0028 165.817 27.2631 165.891 27.6004 165.964C28.0991 166.074 28.4841 166.195 28.7554 166.327C29.0341 166.459 29.2321 166.62 29.3494 166.811C29.4668 167.002 29.5254 167.244 29.5254 167.537C29.5254 167.999 29.3311 168.373 28.9424 168.659C28.5538 168.938 28.0404 169.077 27.4024 169.077ZM33.3049 168.351C33.5615 168.373 33.6899 168.49 33.6899 168.703C33.6899 168.828 33.6422 168.923 33.5469 168.989C33.4589 169.048 33.3232 169.07 33.1399 169.055L32.8429 169.033C32.2562 168.989 31.8235 168.813 31.5449 168.505C31.2662 168.197 31.1269 167.731 31.1269 167.108V164.347H30.3899C30.2652 164.347 30.1662 164.318 30.0929 164.259C30.0269 164.193 29.9939 164.109 29.9939 164.006C29.9939 163.896 30.0269 163.808 30.0929 163.742C30.1662 163.676 30.2652 163.643 30.3899 163.643H31.1269V162.4C31.1269 162.261 31.1672 162.154 31.2479 162.081C31.3285 162 31.4385 161.96 31.5779 161.96C31.7099 161.96 31.8162 162 31.8969 162.081C31.9775 162.154 32.0179 162.261 32.0179 162.4V163.643H33.2389C33.3562 163.643 33.4479 163.676 33.5139 163.742C33.5872 163.808 33.6239 163.896 33.6239 164.006C33.6239 164.109 33.5872 164.193 33.5139 164.259C33.4479 164.318 33.3562 164.347 33.2389 164.347H32.0179V167.152C32.0179 167.555 32.0985 167.849 32.2599 168.032C32.4285 168.208 32.6779 168.307 33.0079 168.329L33.3049 168.351ZM43.3661 163.511C44.5541 163.511 45.1481 164.219 45.1481 165.634V168.615C45.1481 168.754 45.1078 168.864 45.0271 168.945C44.9464 169.018 44.8401 169.055 44.7081 169.055C44.5761 169.055 44.4661 169.018 44.3781 168.945C44.2974 168.864 44.2571 168.754 44.2571 168.615V165.656C44.2571 165.165 44.1691 164.809 43.9931 164.589C43.8171 164.369 43.5421 164.259 43.1681 164.259C42.7208 164.259 42.3688 164.409 42.1121 164.71C41.8554 165.011 41.7271 165.418 41.7271 165.931V168.615C41.7271 168.754 41.6831 168.864 41.5951 168.945C41.5144 169.018 41.4081 169.055 41.2761 169.055C41.1441 169.055 41.0378 169.018 40.9571 168.945C40.8764 168.864 40.8361 168.754 40.8361 168.615V165.656C40.8361 165.165 40.7481 164.809 40.5721 164.589C40.3961 164.369 40.1174 164.259 39.7361 164.259C39.2961 164.259 38.9441 164.409 38.6801 164.71C38.4234 165.011 38.2951 165.418 38.2951 165.931V168.615C38.2951 168.754 38.2548 168.864 38.1741 168.945C38.0934 169.018 37.9871 169.055 37.8551 169.055C37.7231 169.055 37.6131 169.018 37.5251 168.945C37.4444 168.864 37.4041 168.754 37.4041 168.615V163.973C37.4041 163.841 37.4444 163.735 37.5251 163.654C37.6131 163.573 37.7231 163.533 37.8551 163.533C37.9798 163.533 38.0824 163.573 38.1631 163.654C38.2438 163.727 38.2841 163.83 38.2841 163.962V164.49C38.4454 164.175 38.6691 163.933 38.9551 163.764C39.2411 163.595 39.5711 163.511 39.9451 163.511C40.7811 163.511 41.3274 163.863 41.5841 164.567C41.7381 164.244 41.9728 163.988 42.2881 163.797C42.6034 163.606 42.9628 163.511 43.3661 163.511ZM48.9933 169.077C48.4873 169.077 48.04 168.963 47.6513 168.736C47.27 168.509 46.973 168.186 46.7603 167.768C46.555 167.343 46.4523 166.851 46.4523 166.294C46.4523 165.737 46.555 165.249 46.7603 164.831C46.973 164.406 47.27 164.079 47.6513 163.852C48.04 163.625 48.4873 163.511 48.9933 163.511C49.4993 163.511 49.9466 163.625 50.3353 163.852C50.724 164.079 51.021 164.406 51.2263 164.831C51.439 165.249 51.5453 165.737 51.5453 166.294C51.5453 166.851 51.439 167.343 51.2263 167.768C51.021 168.186 50.724 168.509 50.3353 168.736C49.9466 168.963 49.4993 169.077 48.9933 169.077ZM48.9933 168.34C49.5213 168.34 49.9246 168.168 50.2033 167.823C50.4893 167.471 50.6323 166.961 50.6323 166.294C50.6323 165.641 50.4893 165.139 50.2033 164.787C49.9173 164.428 49.514 164.248 48.9933 164.248C48.4726 164.248 48.0693 164.428 47.7833 164.787C47.4973 165.139 47.3543 165.641 47.3543 166.294C47.3543 166.954 47.4936 167.46 47.7723 167.812C48.0583 168.164 48.4653 168.34 48.9933 168.34ZM55.5679 163.511C56.8512 163.511 57.4929 164.219 57.4929 165.634V168.615C57.4929 168.754 57.4525 168.864 57.3719 168.945C57.2985 169.018 57.1922 169.055 57.0529 169.055C56.9135 169.055 56.8035 169.018 56.7229 168.945C56.6422 168.864 56.6019 168.754 56.6019 168.615V165.689C56.6019 165.19 56.5029 164.827 56.3049 164.6C56.1142 164.373 55.8062 164.259 55.3809 164.259C54.8895 164.259 54.4972 164.409 54.2039 164.71C53.9105 165.011 53.7639 165.418 53.7639 165.931V168.615C53.7639 168.754 53.7235 168.864 53.6429 168.945C53.5695 169.018 53.4632 169.055 53.3239 169.055C53.1845 169.055 53.0745 169.018 52.9939 168.945C52.9132 168.864 52.8729 168.754 52.8729 168.615V163.973C52.8729 163.841 52.9132 163.735 52.9939 163.654C53.0745 163.573 53.1845 163.533 53.3239 163.533C53.4559 163.533 53.5585 163.573 53.6319 163.654C53.7125 163.735 53.7529 163.837 53.7529 163.962V164.523C53.9289 164.193 54.1745 163.944 54.4899 163.775C54.8052 163.599 55.1645 163.511 55.5679 163.511ZM61.5998 168.351C61.8565 168.373 61.9848 168.49 61.9848 168.703C61.9848 168.828 61.9371 168.923 61.8418 168.989C61.7538 169.048 61.6181 169.07 61.4348 169.055L61.1378 169.033C60.5511 168.989 60.1185 168.813 59.8398 168.505C59.5611 168.197 59.4218 167.731 59.4218 167.108V164.347H58.6848C58.5601 164.347 58.4611 164.318 58.3878 164.259C58.3218 164.193 58.2888 164.109 58.2888 164.006C58.2888 163.896 58.3218 163.808 58.3878 163.742C58.4611 163.676 58.5601 163.643 58.6848 163.643H59.4218V162.4C59.4218 162.261 59.4621 162.154 59.5428 162.081C59.6235 162 59.7335 161.96 59.8728 161.96C60.0048 161.96 60.1111 162 60.1918 162.081C60.2725 162.154 60.3128 162.261 60.3128 162.4V163.643H61.5338C61.6511 163.643 61.7428 163.676 61.8088 163.742C61.8821 163.808 61.9188 163.896 61.9188 164.006C61.9188 164.109 61.8821 164.193 61.8088 164.259C61.7428 164.318 61.6511 164.347 61.5338 164.347H60.3128V167.152C60.3128 167.555 60.3935 167.849 60.5548 168.032C60.7235 168.208 60.9728 168.307 61.3028 168.329L61.5998 168.351ZM65.5691 163.511C66.1998 163.511 66.6764 163.691 66.9991 164.05C67.3218 164.402 67.4831 164.93 67.4831 165.634V168.615C67.4831 168.754 67.4428 168.864 67.3621 168.945C67.2814 169.018 67.1751 169.055 67.0431 169.055C66.9038 169.055 66.7938 169.018 66.7131 168.945C66.6324 168.864 66.5921 168.754 66.5921 168.615V165.656C66.5921 165.179 66.4931 164.827 66.2951 164.6C66.1044 164.373 65.7964 164.259 65.3711 164.259C64.8798 164.259 64.4874 164.409 64.1941 164.71C63.9008 165.011 63.7541 165.418 63.7541 165.931V168.615C63.7541 168.754 63.7138 168.864 63.6331 168.945C63.5598 169.018 63.4534 169.055 63.3141 169.055C63.1748 169.055 63.0648 169.018 62.9841 168.945C62.9034 168.864 62.8631 168.754 62.8631 168.615V161.619C62.8631 161.494 62.9034 161.392 62.9841 161.311C63.0721 161.23 63.1821 161.19 63.3141 161.19C63.4534 161.19 63.5598 161.23 63.6331 161.311C63.7138 161.384 63.7541 161.487 63.7541 161.619V164.501C63.9301 164.178 64.1758 163.933 64.4911 163.764C64.8064 163.595 65.1658 163.511 65.5691 163.511Z" fill="#274B89"/>
<path d="M95.289 169.055C95.1497 169.055 95.036 169.015 94.948 168.934C94.8673 168.846 94.827 168.732 94.827 168.593V162.015H92.462C92.33 162.015 92.2273 161.982 92.154 161.916C92.0807 161.85 92.044 161.755 92.044 161.63C92.044 161.505 92.0807 161.41 92.154 161.344C92.2273 161.278 92.33 161.245 92.462 161.245H98.105C98.237 161.245 98.3397 161.278 98.413 161.344C98.4863 161.41 98.523 161.505 98.523 161.63C98.523 161.755 98.4863 161.85 98.413 161.916C98.3397 161.982 98.237 162.015 98.105 162.015H95.74V168.593C95.74 168.732 95.6997 168.846 95.619 168.934C95.5383 169.015 95.4283 169.055 95.289 169.055ZM102.728 163.511C103.359 163.511 103.836 163.691 104.158 164.05C104.481 164.402 104.642 164.93 104.642 165.634V168.615C104.642 168.754 104.602 168.864 104.521 168.945C104.441 169.018 104.334 169.055 104.202 169.055C104.063 169.055 103.953 169.018 103.872 168.945C103.792 168.864 103.751 168.754 103.751 168.615V165.656C103.751 165.179 103.652 164.827 103.454 164.6C103.264 164.373 102.956 164.259 102.53 164.259C102.039 164.259 101.647 164.409 101.353 164.71C101.06 165.011 100.913 165.418 100.913 165.931V168.615C100.913 168.754 100.873 168.864 100.792 168.945C100.719 169.018 100.613 169.055 100.473 169.055C100.334 169.055 100.224 169.018 100.143 168.945C100.063 168.864 100.022 168.754 100.022 168.615V161.619C100.022 161.494 100.063 161.392 100.143 161.311C100.231 161.23 100.341 161.19 100.473 161.19C100.613 161.19 100.719 161.23 100.792 161.311C100.873 161.384 100.913 161.487 100.913 161.619V164.501C101.089 164.178 101.335 163.933 101.65 163.764C101.966 163.595 102.325 163.511 102.728 163.511ZM106.725 169.055C106.593 169.055 106.483 169.018 106.395 168.945C106.315 168.864 106.274 168.754 106.274 168.615V163.973C106.274 163.834 106.315 163.727 106.395 163.654C106.483 163.573 106.593 163.533 106.725 163.533C106.857 163.533 106.964 163.573 107.044 163.654C107.125 163.727 107.165 163.834 107.165 163.973V168.615C107.165 168.762 107.125 168.872 107.044 168.945C106.964 169.018 106.857 169.055 106.725 169.055ZM106.725 162.378C106.549 162.378 106.406 162.327 106.296 162.224C106.186 162.121 106.131 161.986 106.131 161.817C106.131 161.656 106.186 161.524 106.296 161.421C106.406 161.318 106.549 161.267 106.725 161.267C106.901 161.267 107.044 161.318 107.154 161.421C107.264 161.524 107.319 161.656 107.319 161.817C107.319 161.986 107.264 162.121 107.154 162.224C107.044 162.327 106.901 162.378 106.725 162.378ZM110.635 169.077C110.298 169.077 109.975 169.037 109.667 168.956C109.366 168.875 109.099 168.762 108.864 168.615C108.732 168.527 108.637 168.446 108.578 168.373C108.527 168.292 108.501 168.197 108.501 168.087C108.501 167.992 108.527 167.915 108.578 167.856C108.637 167.79 108.71 167.757 108.798 167.757C108.886 167.757 109.014 167.812 109.183 167.922C109.403 168.054 109.619 168.16 109.832 168.241C110.052 168.314 110.323 168.351 110.646 168.351C111.042 168.351 111.35 168.281 111.57 168.142C111.79 168.003 111.9 167.801 111.9 167.537C111.9 167.376 111.86 167.247 111.779 167.152C111.698 167.049 111.559 166.961 111.361 166.888C111.163 166.807 110.873 166.727 110.492 166.646C109.847 166.507 109.385 166.32 109.106 166.085C108.827 165.85 108.688 165.531 108.688 165.128C108.688 164.813 108.776 164.534 108.952 164.292C109.128 164.05 109.37 163.859 109.678 163.72C109.993 163.581 110.349 163.511 110.745 163.511C111.031 163.511 111.306 163.551 111.57 163.632C111.841 163.705 112.08 163.812 112.285 163.951C112.534 164.127 112.659 164.31 112.659 164.501C112.659 164.596 112.63 164.677 112.571 164.743C112.512 164.809 112.443 164.842 112.362 164.842C112.274 164.842 112.142 164.78 111.966 164.655C111.761 164.523 111.566 164.42 111.383 164.347C111.2 164.274 110.972 164.237 110.701 164.237C110.356 164.237 110.078 164.314 109.865 164.468C109.66 164.622 109.557 164.827 109.557 165.084C109.557 165.245 109.594 165.377 109.667 165.48C109.748 165.575 109.876 165.663 110.052 165.744C110.235 165.817 110.496 165.891 110.833 165.964C111.332 166.074 111.717 166.195 111.988 166.327C112.267 166.459 112.465 166.62 112.582 166.811C112.699 167.002 112.758 167.244 112.758 167.537C112.758 167.999 112.564 168.373 112.175 168.659C111.786 168.938 111.273 169.077 110.635 169.077ZM122.914 163.511C124.102 163.511 124.696 164.219 124.696 165.634V168.615C124.696 168.754 124.656 168.864 124.575 168.945C124.494 169.018 124.388 169.055 124.256 169.055C124.124 169.055 124.014 169.018 123.926 168.945C123.845 168.864 123.805 168.754 123.805 168.615V165.656C123.805 165.165 123.717 164.809 123.541 164.589C123.365 164.369 123.09 164.259 122.716 164.259C122.269 164.259 121.917 164.409 121.66 164.71C121.403 165.011 121.275 165.418 121.275 165.931V168.615C121.275 168.754 121.231 168.864 121.143 168.945C121.062 169.018 120.956 169.055 120.824 169.055C120.692 169.055 120.586 169.018 120.505 168.945C120.424 168.864 120.384 168.754 120.384 168.615V165.656C120.384 165.165 120.296 164.809 120.12 164.589C119.944 164.369 119.665 164.259 119.284 164.259C118.844 164.259 118.492 164.409 118.228 164.71C117.971 165.011 117.843 165.418 117.843 165.931V168.615C117.843 168.754 117.803 168.864 117.722 168.945C117.641 169.018 117.535 169.055 117.403 169.055C117.271 169.055 117.161 169.018 117.073 168.945C116.992 168.864 116.952 168.754 116.952 168.615V163.973C116.952 163.841 116.992 163.735 117.073 163.654C117.161 163.573 117.271 163.533 117.403 163.533C117.528 163.533 117.63 163.573 117.711 163.654C117.792 163.727 117.832 163.83 117.832 163.962V164.49C117.993 164.175 118.217 163.933 118.503 163.764C118.789 163.595 119.119 163.511 119.493 163.511C120.329 163.511 120.875 163.863 121.132 164.567C121.286 164.244 121.521 163.988 121.836 163.797C122.151 163.606 122.511 163.511 122.914 163.511ZM128.541 169.077C128.035 169.077 127.588 168.963 127.199 168.736C126.818 168.509 126.521 168.186 126.308 167.768C126.103 167.343 126 166.851 126 166.294C126 165.737 126.103 165.249 126.308 164.831C126.521 164.406 126.818 164.079 127.199 163.852C127.588 163.625 128.035 163.511 128.541 163.511C129.047 163.511 129.494 163.625 129.883 163.852C130.272 164.079 130.569 164.406 130.774 164.831C130.987 165.249 131.093 165.737 131.093 166.294C131.093 166.851 130.987 167.343 130.774 167.768C130.569 168.186 130.272 168.509 129.883 168.736C129.494 168.963 129.047 169.077 128.541 169.077ZM128.541 168.34C129.069 168.34 129.472 168.168 129.751 167.823C130.037 167.471 130.18 166.961 130.18 166.294C130.18 165.641 130.037 165.139 129.751 164.787C129.465 164.428 129.062 164.248 128.541 164.248C128.02 164.248 127.617 164.428 127.331 164.787C127.045 165.139 126.902 165.641 126.902 166.294C126.902 166.954 127.041 167.46 127.32 167.812C127.606 168.164 128.013 168.34 128.541 168.34ZM135.116 163.511C136.399 163.511 137.041 164.219 137.041 165.634V168.615C137.041 168.754 137 168.864 136.92 168.945C136.846 169.018 136.74 169.055 136.601 169.055C136.461 169.055 136.351 169.018 136.271 168.945C136.19 168.864 136.15 168.754 136.15 168.615V165.689C136.15 165.19 136.051 164.827 135.853 164.6C135.662 164.373 135.354 164.259 134.929 164.259C134.437 164.259 134.045 164.409 133.752 164.71C133.458 165.011 133.312 165.418 133.312 165.931V168.615C133.312 168.754 133.271 168.864 133.191 168.945C133.117 169.018 133.011 169.055 132.872 169.055C132.732 169.055 132.622 169.018 132.542 168.945C132.461 168.864 132.421 168.754 132.421 168.615V163.973C132.421 163.841 132.461 163.735 132.542 163.654C132.622 163.573 132.732 163.533 132.872 163.533C133.004 163.533 133.106 163.573 133.18 163.654C133.26 163.735 133.301 163.837 133.301 163.962V164.523C133.477 164.193 133.722 163.944 134.038 163.775C134.353 163.599 134.712 163.511 135.116 163.511ZM141.148 168.351C141.404 168.373 141.533 168.49 141.533 168.703C141.533 168.828 141.485 168.923 141.39 168.989C141.302 169.048 141.166 169.07 140.983 169.055L140.686 169.033C140.099 168.989 139.666 168.813 139.388 168.505C139.109 168.197 138.97 167.731 138.97 167.108V164.347H138.233C138.108 164.347 138.009 164.318 137.936 164.259C137.87 164.193 137.837 164.109 137.837 164.006C137.837 163.896 137.87 163.808 137.936 163.742C138.009 163.676 138.108 163.643 138.233 163.643H138.97V162.4C138.97 162.261 139.01 162.154 139.091 162.081C139.171 162 139.281 161.96 139.421 161.96C139.553 161.96 139.659 162 139.74 162.081C139.82 162.154 139.861 162.261 139.861 162.4V163.643H141.082C141.199 163.643 141.291 163.676 141.357 163.742C141.43 163.808 141.467 163.896 141.467 164.006C141.467 164.109 141.43 164.193 141.357 164.259C141.291 164.318 141.199 164.347 141.082 164.347H139.861V167.152C139.861 167.555 139.941 167.849 140.103 168.032C140.271 168.208 140.521 168.307 140.851 168.329L141.148 168.351ZM145.117 163.511C145.748 163.511 146.224 163.691 146.547 164.05C146.87 164.402 147.031 164.93 147.031 165.634V168.615C147.031 168.754 146.991 168.864 146.91 168.945C146.829 169.018 146.723 169.055 146.591 169.055C146.452 169.055 146.342 169.018 146.261 168.945C146.18 168.864 146.14 168.754 146.14 168.615V165.656C146.14 165.179 146.041 164.827 145.843 164.6C145.652 164.373 145.344 164.259 144.919 164.259C144.428 164.259 144.035 164.409 143.742 164.71C143.449 165.011 143.302 165.418 143.302 165.931V168.615C143.302 168.754 143.262 168.864 143.181 168.945C143.108 169.018 143.001 169.055 142.862 169.055C142.723 169.055 142.613 169.018 142.532 168.945C142.451 168.864 142.411 168.754 142.411 168.615V161.619C142.411 161.494 142.451 161.392 142.532 161.311C142.62 161.23 142.73 161.19 142.862 161.19C143.001 161.19 143.108 161.23 143.181 161.311C143.262 161.384 143.302 161.487 143.302 161.619V164.501C143.478 164.178 143.724 163.933 144.039 163.764C144.354 163.595 144.714 163.511 145.117 163.511Z" fill="#274B89"/>
<circle cx="4.5" cy="165.5" r="3.5" fill="#D6DCE8"/>
<circle cx="83.5" cy="165.5" r="3.5" fill="#9EAECA"/>
<defs>
<clipPath id="clip0">
<rect width="118.806" height="398" fill="white" transform="translate(0 118.807) rotate(-90)"/>
</clipPath>
<clipPath id="clip1">
<rect width="45" height="303" fill="white" transform="translate(380 119) rotate(-90)"/>
</clipPath>
</defs>
</svg>
