<svg width="49" height="15" viewBox="0 0 49 15" fill="none" xmlns="http://www.w3.org/2000/svg">
<path d="M11.7406 3.85449L5.40514 10.1899L2.52539 7.31019" stroke="#39B54A" stroke-width="1.1519" stroke-linecap="round" stroke-linejoin="round"/>
<path d="M24.499 9.10154C24.524 9.16144 24.5364 9.21136 24.5364 9.25129C24.5364 9.34613 24.4965 9.42599 24.4166 9.49088C24.3418 9.55577 24.2569 9.58822 24.1621 9.58822C24.0972 9.58822 24.0348 9.57075 23.9749 9.53581C23.92 9.49587 23.8775 9.44097 23.8476 9.37109L23.3534 8.24798H20.6131L20.1189 9.37109C20.0889 9.44097 20.044 9.49587 19.9841 9.53581C19.9242 9.57075 19.8618 9.58822 19.7969 9.58822C19.6971 9.58822 19.6073 9.55577 19.5274 9.49088C19.4525 9.42599 19.4151 9.34613 19.4151 9.25129C19.4151 9.21136 19.4276 9.16144 19.4525 9.10154L21.564 4.48185C21.5989 4.40199 21.6538 4.33959 21.7287 4.29467C21.8085 4.24974 21.8909 4.22728 21.9758 4.22728C22.0606 4.22728 22.1405 4.24974 22.2154 4.29467C22.2952 4.33959 22.3526 4.40199 22.3876 4.48185L24.499 9.10154ZM20.8901 7.63402H23.0839L21.9832 5.15571L20.8901 7.63402ZM27.2122 5.80711C27.5267 5.80711 27.8062 5.88698 28.0508 6.04671C28.3004 6.20644 28.4926 6.43106 28.6273 6.72057C28.7671 7.01008 28.837 7.34451 28.837 7.72387C28.837 8.09824 28.7696 8.42768 28.6348 8.7122C28.5 8.99672 28.3079 9.21635 28.0583 9.37109C27.8137 9.52582 27.5317 9.60319 27.2122 9.60319C26.9377 9.60319 26.6956 9.54579 26.4859 9.43098C26.2763 9.31119 26.1166 9.14147 26.0068 8.92184V10.5915C26.0068 10.6963 25.9718 10.7787 25.9019 10.8386C25.837 10.9035 25.7497 10.9359 25.6399 10.9359C25.5251 10.9359 25.4302 10.9035 25.3554 10.8386C25.2855 10.7737 25.2505 10.6864 25.2505 10.5765V6.18896C25.2505 6.07915 25.2855 5.9918 25.3554 5.92691C25.4252 5.85703 25.5176 5.82209 25.6324 5.82209C25.7422 5.82209 25.8321 5.85703 25.9019 5.92691C25.9718 5.9918 26.0068 6.07915 26.0068 6.18896V6.49595C26.1166 6.27632 26.2763 6.1066 26.4859 5.98681C26.6956 5.86701 26.9377 5.80711 27.2122 5.80711ZM27.0325 9.00421C27.362 9.00421 27.6165 8.89439 27.7962 8.67476C27.9759 8.45014 28.0658 8.13318 28.0658 7.72387C28.0658 7.30957 27.9734 6.98761 27.7887 6.758C27.609 6.52839 27.357 6.41358 27.0325 6.41358C26.7031 6.41358 26.4485 6.5259 26.2688 6.75052C26.0941 6.97514 26.0068 7.2946 26.0068 7.7089C26.0068 8.12319 26.0941 8.44265 26.2688 8.66727C26.4485 8.8919 26.7031 9.00421 27.0325 9.00421ZM31.6359 5.80711C31.9504 5.80711 32.2299 5.88698 32.4745 6.04671C32.7241 6.20644 32.9162 6.43106 33.051 6.72057C33.1908 7.01008 33.2606 7.34451 33.2606 7.72387C33.2606 8.09824 33.1933 8.42768 33.0585 8.7122C32.9237 8.99672 32.7315 9.21635 32.482 9.37109C32.2374 9.52582 31.9554 9.60319 31.6359 9.60319C31.3614 9.60319 31.1193 9.54579 30.9096 9.43098C30.7 9.31119 30.5402 9.14147 30.4304 8.92184V10.5915C30.4304 10.6963 30.3955 10.7787 30.3256 10.8386C30.2607 10.9035 30.1734 10.9359 30.0636 10.9359C29.9487 10.9359 29.8539 10.9035 29.779 10.8386C29.7091 10.7737 29.6742 10.6864 29.6742 10.5765V6.18896C29.6742 6.07915 29.7091 5.9918 29.779 5.92691C29.8489 5.85703 29.9413 5.82209 30.0561 5.82209C30.1659 5.82209 30.2557 5.85703 30.3256 5.92691C30.3955 5.9918 30.4304 6.07915 30.4304 6.18896V6.49595C30.5402 6.27632 30.7 6.1066 30.9096 5.98681C31.1193 5.86701 31.3614 5.80711 31.6359 5.80711ZM31.4562 9.00421C31.7856 9.00421 32.0402 8.89439 32.2199 8.67476C32.3996 8.45014 32.4894 8.13318 32.4894 7.72387C32.4894 7.30957 32.3971 6.98761 32.2124 6.758C32.0327 6.52839 31.7806 6.41358 31.4562 6.41358C31.1268 6.41358 30.8722 6.5259 30.6925 6.75052C30.5178 6.97514 30.4304 7.2946 30.4304 7.7089C30.4304 8.12319 30.5178 8.44265 30.6925 8.66727C30.8722 8.8919 31.1268 9.00421 31.4562 9.00421ZM36.0146 5.82209C36.2542 5.80711 36.374 5.90944 36.374 6.12907C36.374 6.23888 36.3466 6.32124 36.2917 6.37615C36.2368 6.43106 36.1419 6.4635 36.0072 6.47348L35.7825 6.49595C35.4681 6.5259 35.2335 6.63571 35.0787 6.82539C34.929 7.01507 34.8541 7.24468 34.8541 7.51422V9.22883C34.8541 9.34862 34.8192 9.43847 34.7493 9.49837C34.6794 9.55827 34.5896 9.58822 34.4797 9.58822C34.3699 9.58822 34.2776 9.55827 34.2027 9.49837C34.1328 9.43847 34.0979 9.34862 34.0979 9.22883V6.18148C34.0979 6.06667 34.1328 5.97932 34.2027 5.91942C34.2776 5.85453 34.3699 5.82209 34.4797 5.82209C34.5796 5.82209 34.6619 5.85453 34.7268 5.91942C34.7967 5.97932 34.8316 6.06418 34.8316 6.17399V6.53338C34.9315 6.31375 35.0762 6.14654 35.2659 6.03173C35.4556 5.91692 35.6702 5.84954 35.9098 5.82957L36.0146 5.82209ZM38.354 9.60319C37.9946 9.60319 37.6777 9.52582 37.4031 9.37109C37.1336 9.21635 36.9239 8.99672 36.7742 8.7122C36.6294 8.42269 36.5571 8.08825 36.5571 7.7089C36.5571 7.32454 36.6294 6.99011 36.7742 6.70559C36.9239 6.41608 37.1336 6.19396 37.4031 6.03922C37.6777 5.88448 37.9946 5.80711 38.354 5.80711C38.7134 5.80711 39.0279 5.88448 39.2974 6.03922C39.572 6.19396 39.7816 6.41608 39.9264 6.70559C40.0761 6.99011 40.151 7.32454 40.151 7.7089C40.151 8.08825 40.0761 8.42269 39.9264 8.7122C39.7816 8.99672 39.572 9.21635 39.2974 9.37109C39.0279 9.52582 38.7134 9.60319 38.354 9.60319ZM38.354 9.00421C38.6885 9.00421 38.943 8.89439 39.1177 8.67476C39.2974 8.45513 39.3873 8.13318 39.3873 7.7089C39.3873 7.2896 39.2974 6.97014 39.1177 6.75052C38.938 6.5259 38.6835 6.41358 38.354 6.41358C38.0246 6.41358 37.77 6.5259 37.5903 6.75052C37.4106 6.97014 37.3208 7.2896 37.3208 7.7089C37.3208 8.13318 37.4081 8.45513 37.5828 8.67476C37.7625 8.89439 38.0196 9.00421 38.354 9.00421ZM43.5399 6.04671C43.5698 5.97183 43.6123 5.91692 43.6672 5.88198C43.7271 5.84704 43.7895 5.82957 43.8544 5.82957C43.9492 5.82957 44.0316 5.86202 44.1014 5.92691C44.1763 5.9918 44.2137 6.06917 44.2137 6.15902C44.2137 6.20893 44.2038 6.25635 44.1838 6.30127L42.7537 9.33365C42.7188 9.41351 42.6639 9.47591 42.589 9.52083C42.5191 9.56076 42.4442 9.58073 42.3644 9.58073C42.2845 9.58073 42.2071 9.56076 42.1323 9.52083C42.0624 9.47591 42.01 9.41351 41.975 9.33365L40.545 6.30127C40.525 6.26134 40.515 6.21392 40.515 6.15902C40.515 6.06917 40.5549 5.9918 40.6348 5.92691C40.7147 5.86202 40.8045 5.82957 40.9043 5.82957C41.0491 5.82957 41.1564 5.89945 41.2263 6.03922L42.3868 8.61486L43.5399 6.04671ZM47.6407 8.62984C47.7106 8.62984 47.768 8.65729 47.8129 8.7122C47.8578 8.76711 47.8803 8.83699 47.8803 8.92184C47.8803 9.0666 47.7904 9.18889 47.6107 9.28872C47.436 9.38856 47.2438 9.46592 47.0342 9.52083C46.8295 9.57574 46.6324 9.60319 46.4427 9.60319C45.8637 9.60319 45.4069 9.43598 45.0725 9.10154C44.7381 8.76211 44.5709 8.3004 44.5709 7.71638C44.5709 7.34202 44.6432 7.01008 44.788 6.72057C44.9377 6.43106 45.1449 6.20644 45.4094 6.04671C45.679 5.88698 45.9835 5.80711 46.3229 5.80711C46.8121 5.80711 47.1989 5.96434 47.4834 6.27881C47.768 6.59328 47.9102 7.01756 47.9102 7.55166C47.9102 7.75132 47.8204 7.85115 47.6407 7.85115H45.3271C45.377 8.62485 45.7489 9.01169 46.4427 9.01169C46.6274 9.01169 46.7871 8.98673 46.9219 8.93682C47.0567 8.8869 47.1989 8.82201 47.3487 8.74215C47.3636 8.73217 47.4036 8.7122 47.4685 8.68225C47.5383 8.64731 47.5957 8.62984 47.6407 8.62984ZM46.3379 6.36117C46.0484 6.36117 45.8163 6.45352 45.6415 6.63821C45.4668 6.82289 45.362 7.08245 45.3271 7.41689H47.2588C47.2438 7.07746 47.1565 6.8179 46.9968 6.63821C46.842 6.45352 46.6224 6.36117 46.3379 6.36117Z" fill="#39B54A"/>
</svg>
