<svg width="7" height="8" viewBox="0 0 7 8" fill="none" xmlns="http://www.w3.org/2000/svg">
<path d="M1.0243 0.852154C0.943 0.773191 0.834107 0.729497 0.721078 0.730485C0.608049 0.731473 0.499928 0.777063 0.420002 0.857435C0.340075 0.937807 0.294739 1.04653 0.293757 1.16019C0.292774 1.27385 0.336225 1.38335 0.414751 1.46511L2.90426 3.96851L0.41432 6.47191C0.373147 6.5119 0.340306 6.55973 0.317713 6.61262C0.29512 6.66551 0.283229 6.72239 0.282731 6.77995C0.282234 6.83751 0.293141 6.89459 0.314816 6.94786C0.336491 7.00114 0.368501 7.04954 0.408976 7.09024C0.449452 7.13094 0.497583 7.16313 0.550562 7.18492C0.603541 7.20672 0.660305 7.21769 0.717544 7.21719C0.774783 7.21669 0.83135 7.20473 0.883944 7.18201C0.936538 7.15929 0.984106 7.12627 1.02387 7.08487L3.51381 4.58146L6.00332 7.08487C6.08462 7.16383 6.19352 7.20752 6.30655 7.20653C6.41957 7.20555 6.5277 7.15996 6.60762 7.07959C6.68755 6.99921 6.73288 6.89049 6.73387 6.77683C6.73485 6.66317 6.6914 6.55367 6.61287 6.47191L4.12336 3.96851L6.61287 1.46511C6.6914 1.38335 6.73485 1.27385 6.73387 1.16019C6.73288 1.04653 6.68755 0.937807 6.60762 0.857435C6.5277 0.777063 6.41957 0.731473 6.30655 0.730485C6.19352 0.729497 6.08462 0.773191 6.00332 0.852154L3.51381 3.35556L1.0243 0.851721V0.852154Z" fill="white"/>
</svg>
