<svg width="24" height="26" viewBox="0 0 24 26" fill="none" xmlns="http://www.w3.org/2000/svg">
<g clip-path="url(#clip0)">
<path d="M13.1696 3.08398C11.1542 3.08398 9.18405 3.67732 7.50829 4.78895C5.83253 5.90058 4.52644 7.48059 3.75517 9.32916C2.98391 11.1777 2.78211 13.2119 3.1753 15.1743C3.56849 17.1367 4.539 18.9394 5.96411 20.3542C7.38923 21.769 9.20493 22.7326 11.1816 23.1229C13.1583 23.5133 15.2072 23.3129 17.0692 22.5472C18.9312 21.7815 20.5227 20.4848 21.6424 18.8212C22.7621 17.1575 23.3597 15.2015 23.3597 13.2006C23.3597 11.8721 23.0962 10.5566 22.5841 9.32916C22.072 8.10175 21.3214 6.9865 20.3751 6.04708C19.4289 5.10767 18.3055 4.36248 17.0692 3.85407C15.8329 3.34566 14.5078 3.08398 13.1696 3.08398ZM15.9311 14.5057C16.0266 14.5997 16.1025 14.7116 16.1542 14.8349C16.2059 14.9582 16.2326 15.0904 16.2326 15.224C16.2326 15.3575 16.2059 15.4898 16.1542 15.613C16.1025 15.7363 16.0266 15.8482 15.9311 15.9423C15.8364 16.0371 15.7237 16.1123 15.5995 16.1637C15.4754 16.2151 15.3422 16.2415 15.2076 16.2415C15.0731 16.2415 14.9399 16.2151 14.8158 16.1637C14.6916 16.1123 14.5789 16.0371 14.4841 15.9423L13.1696 14.6271L11.8551 15.9423C11.7604 16.0371 11.6477 16.1123 11.5235 16.1637C11.3993 16.2151 11.2661 16.2415 11.1316 16.2415C10.9971 16.2415 10.8639 16.2151 10.7397 16.1637C10.6155 16.1123 10.5028 16.0371 10.4081 15.9423C10.3126 15.8482 10.2368 15.7363 10.185 15.613C10.1333 15.4898 10.1067 15.3575 10.1067 15.224C10.1067 15.0904 10.1333 14.9582 10.185 14.8349C10.2368 14.7116 10.3126 14.5997 10.4081 14.5057L11.7328 13.2006L10.4081 11.8956C10.2162 11.7051 10.1084 11.4467 10.1084 11.1773C10.1084 10.9079 10.2162 10.6495 10.4081 10.459C10.6 10.2685 10.8602 10.1615 11.1316 10.1615C11.403 10.1615 11.6632 10.2685 11.8551 10.459L13.1696 11.7742L14.4841 10.459C14.676 10.2685 14.9363 10.1615 15.2076 10.1615C15.479 10.1615 15.7393 10.2685 15.9311 10.459C16.123 10.6495 16.2308 10.9079 16.2308 11.1773C16.2308 11.4467 16.123 11.7051 15.9311 11.8956L14.6064 13.2006L15.9311 14.5057Z" fill="#061E48"/>
</g>
<defs>
<clipPath id="clip0">
<rect width="22.9333" height="25" fill="white" transform="translate(0.426514 0.400391)"/>
</clipPath>
</defs>
</svg>
