<svg width="27" height="26" viewBox="0 0 27 26" fill="none" xmlns="http://www.w3.org/2000/svg">
<path d="M4.19239 3.80761C-0.876153 8.87615 -0.876507 17.1235 4.19239 22.1924C9.26128 27.2613 17.5086 27.2609 22.5772 22.1924C27.6457 17.1238 27.6461 8.87651 22.5772 3.80761C17.5083 -1.26128 9.26093 -1.26093 4.19239 3.80761ZM18.5113 9.28769L14.799 13L18.6881 16.8891C19.0784 17.2794 19.0784 17.913 18.6881 18.3033C18.2978 18.6936 17.6642 18.6936 17.2739 18.3033L13.3848 14.4142L9.67247 18.1265C9.28214 18.5168 8.64857 18.5168 8.25825 18.1265C7.86793 17.7362 7.86793 17.1026 8.25825 16.7123L11.9706 13L8.43503 9.46447C8.04471 9.07414 8.04471 8.44058 8.43503 8.05025C8.82535 7.65993 9.45892 7.65993 9.84924 8.05025L13.3848 11.5858L17.0971 7.87348C17.4874 7.48315 18.121 7.48315 18.5113 7.87348C18.9016 8.2638 18.9016 8.89737 18.5113 9.28769Z" fill="#274B89"/>
</svg>
