<svg width="15" height="15" viewBox="0 0 15 15" fill="none" xmlns="http://www.w3.org/2000/svg">
<g clip-path="url(#clip0)">
<path d="M7.24118 14.4829C11.0183 14.4829 14.0803 11.4209 14.0803 7.64377C14.0803 3.86665 11.0183 0.804688 7.24118 0.804688C3.46406 0.804688 0.4021 3.86665 0.4021 7.64377C0.4021 11.4209 3.46406 14.4829 7.24118 14.4829Z" fill="#F40C0C"/>
<path d="M7.24118 13.6782C11.0183 13.6782 14.0803 10.6162 14.0803 6.83908C14.0803 3.06196 11.0183 0 7.24118 0C3.46406 0 0.4021 3.06196 0.4021 6.83908C0.4021 10.6162 3.46406 13.6782 7.24118 13.6782Z" fill="#FF6D4D"/>
<path d="M7.24131 12.8737C10.3519 12.8737 12.8735 10.3521 12.8735 7.24156C12.8735 4.13099 10.3519 1.60938 7.24131 1.60938C4.13075 1.60938 1.60913 4.13099 1.60913 7.24156C1.60913 10.3521 4.13075 12.8737 7.24131 12.8737Z" fill="#FFB6B6"/>
<path d="M7.24131 12.4714C10.3519 12.4714 12.8735 9.94979 12.8735 6.83922C12.8735 3.72865 10.3519 1.20703 7.24131 1.20703C4.13075 1.20703 1.60913 3.72865 1.60913 6.83922C1.60913 9.94979 4.13075 12.4714 7.24131 12.4714Z" fill="#FF3333"/>
<path d="M6.8968 8.83969C8.42035 8.83969 9.65543 7.94145 9.65543 6.83342C9.65543 5.72539 8.42035 4.82715 6.8968 4.82715C5.37326 4.82715 4.13818 5.72539 4.13818 6.83342C4.13818 7.94145 5.37326 8.83969 6.8968 8.83969Z" fill="#FF725F"/>
</g>
<defs>
<clipPath id="clip0">
<rect width="14.4828" height="14.4828" fill="white"/>
</clipPath>
</defs>
</svg>
