<svg width="31" height="31" viewBox="0 0 31 31" fill="none" xmlns="http://www.w3.org/2000/svg">
<circle cx="15.5" cy="15.5" r="15.5" fill="#ECF7FF"/>
<path d="M13.7916 19.3522L13.7217 19.4424C13.6751 19.5001 13.6084 19.5865 13.5205 19.6934C13.4153 19.8222 13.3086 19.9498 13.2004 20.0761C13.1343 20.1541 13.0676 20.2315 13.0003 20.3083C12.9262 20.3939 12.8515 20.4789 12.776 20.5633C12.6946 20.6555 12.6125 20.747 12.5296 20.8379C12.444 20.9323 12.3556 21.0301 12.2632 21.129C12.0799 21.3283 11.8835 21.5356 11.6796 21.7491L11.3671 22.0724L11.0434 22.4002C10.9351 22.5111 10.8228 22.6197 10.7118 22.7305C10.6005 22.8415 10.4883 22.9517 10.375 23.0608L10.0359 23.3887L9.69581 23.7105C9.46859 23.9217 9.24394 24.1284 9.02306 24.325C8.58188 24.7188 8.15966 25.0759 7.78991 25.3741C7.62152 25.51 7.45143 25.6438 7.27969 25.7754C7.14667 25.8771 7.01237 25.977 6.87683 26.0753C6.6502 26.2385 6.51565 26.3266 6.51565 26.3266C5.84524 26.7655 4.94595 26.5779 4.50702 25.9075C4.18138 25.4101 4.20164 24.7859 4.50702 24.318C4.50702 24.318 4.59511 24.1835 4.75822 23.9569C4.85647 23.8213 4.95644 23.687 5.05812 23.554C5.18977 23.3823 5.32354 23.2122 5.45941 23.0438C5.7576 22.674 6.11468 22.2518 6.50851 21.8106C6.70513 21.5897 6.91182 21.365 7.123 21.1378L7.44477 20.7977L7.77275 20.4586C7.88191 20.3451 7.99242 20.233 8.10306 20.1219C8.21384 20.0108 8.3225 19.8985 8.43332 19.7902L8.76112 19.4666L9.08442 19.1541C9.29798 18.9501 9.50521 18.7538 9.70452 18.5704C9.80344 18.478 9.90119 18.3896 9.99566 18.304C10.0865 18.2211 10.178 18.139 10.2703 18.0576C10.3546 17.9822 10.4396 17.9074 10.5252 17.8334C10.6021 17.766 10.6795 17.6993 10.7574 17.6333C10.8837 17.5251 11.0113 17.4184 11.1401 17.3132C11.2471 17.2253 11.3334 17.1585 11.3912 17.1119L11.4814 17.0421C12.2004 16.4853 13.2347 16.6167 13.7915 17.3357C14.261 17.9418 14.2401 18.7728 13.7916 19.3522Z" fill="#2B3B47"/>
<path d="M11.347 22.1872C10.4968 23.0374 7.7953 20.3359 8.64553 19.4857L10.0892 18.042L12.7907 20.7435L11.347 22.1872Z" fill="#4E5D66"/>
<path d="M17.3455 22.4547C22.392 22.4547 26.483 18.3637 26.483 13.3172C26.483 8.27069 22.392 4.17969 17.3455 4.17969C12.299 4.17969 8.20798 8.27069 8.20798 13.3172C8.20798 18.3637 12.299 22.4547 17.3455 22.4547Z" fill="#2B3B47"/>
<path d="M17.3455 20.4333C21.2756 20.4333 24.4616 17.2473 24.4616 13.3172C24.4616 9.38715 21.2756 6.20117 17.3455 6.20117C13.4154 6.20117 10.2294 9.38715 10.2294 13.3172C10.2294 17.2473 13.4154 20.4333 17.3455 20.4333Z" fill="#597B91"/>
<path d="M15.6534 17.5821C13.9073 17.5681 12.4744 16.143 12.4515 14.3971C12.4338 13.0516 13.2393 11.8926 14.3962 11.391C15.0565 11.1047 15.6099 10.6249 16.02 10.0336C16.7939 8.91775 18.0917 8.19289 19.5576 8.21535C21.8293 8.25012 23.6816 10.1051 23.7133 12.3768C23.7462 14.7363 21.8434 16.6593 19.4915 16.6593C19.448 16.6593 19.4046 16.6586 19.3614 16.6573C18.6354 16.6353 17.9116 16.7959 17.2814 17.157C16.8024 17.4316 16.2463 17.5868 15.6534 17.5821ZM6.34737 25.1849L6.79659 24.7356C6.98953 24.5427 6.98953 24.2298 6.79659 24.0368C6.6036 23.8439 6.29072 23.8439 6.09774 24.0368L5.64852 24.486C5.45558 24.679 5.45558 24.9919 5.64852 25.1849C5.74501 25.2813 5.87147 25.3296 5.99792 25.3296C6.12438 25.3296 6.25088 25.2813 6.34737 25.1849Z" fill="#F9F9F7"/>
<path d="M19.4915 14.5953C20.6839 14.5953 21.6505 13.6287 21.6505 12.4363C21.6505 11.244 20.6839 10.2773 19.4915 10.2773C18.2991 10.2773 17.3325 11.244 17.3325 12.4363C17.3325 13.6287 18.2991 14.5953 19.4915 14.5953Z" fill="#FFA41F"/>
</svg>
