<svg width="14" height="17" viewBox="0 0 14 17" fill="none" xmlns="http://www.w3.org/2000/svg">
<path d="M1.375 2.86688V11.6875C1.37487 12.5602 1.7067 13.4004 2.30318 14.0374C2.89966 14.6745 3.71614 15.0609 4.587 15.1181L4.8125 15.125H10.8817C10.7396 15.5271 10.4763 15.8752 10.1281 16.1214C9.77992 16.3677 9.36396 16.4999 8.9375 16.5H4.125C3.03098 16.5 1.98177 16.0654 1.20818 15.2918C0.434597 14.5182 2.83575e-07 13.469 2.83575e-07 12.375V4.8125C-0.00022341 4.3858 0.131901 3.96954 0.378164 3.62108C0.624427 3.27261 0.972705 3.00911 1.375 2.86688ZM11.6875 0C12.2345 0 12.7591 0.217299 13.1459 0.604092C13.5327 0.990886 13.75 1.51549 13.75 2.0625V11.6875C13.75 12.2345 13.5327 12.7591 13.1459 13.1459C12.7591 13.5327 12.2345 13.75 11.6875 13.75H4.8125C4.26549 13.75 3.74089 13.5327 3.35409 13.1459C2.9673 12.7591 2.75 12.2345 2.75 11.6875V2.0625C2.75 1.51549 2.9673 0.990886 3.35409 0.604092C3.74089 0.217299 4.26549 0 4.8125 0H11.6875ZM11.6875 1.375H4.8125C4.63016 1.375 4.4553 1.44743 4.32636 1.57636C4.19743 1.7053 4.125 1.88016 4.125 2.0625V11.6875C4.125 11.8698 4.19743 12.0447 4.32636 12.1736C4.4553 12.3026 4.63016 12.375 4.8125 12.375H11.6875C11.8698 12.375 12.0447 12.3026 12.1736 12.1736C12.3026 12.0447 12.375 11.8698 12.375 11.6875V2.0625C12.375 1.88016 12.3026 1.7053 12.1736 1.57636C12.0447 1.44743 11.8698 1.375 11.6875 1.375Z" fill="#274B89"/>
</svg>
