<svg width="12" height="13" viewBox="0 0 12 13" fill="none" xmlns="http://www.w3.org/2000/svg">
<path d="M1.80216 2.21487V8.97387C1.80206 9.64263 2.05633 10.2864 2.5134 10.7746C2.97047 11.2627 3.59611 11.5588 4.26343 11.6027L4.43622 11.6079H9.08692C8.97799 11.916 8.77623 12.1828 8.50943 12.3715C8.24262 12.5602 7.92388 12.6615 7.59709 12.6616H3.90941C3.07109 12.6616 2.26711 12.3285 1.67433 11.7358C1.08156 11.143 0.748535 10.339 0.748535 9.50068V3.70575C0.748364 3.37878 0.849607 3.05981 1.03831 2.7928C1.22702 2.52578 1.49389 2.32386 1.80216 2.21487ZM9.70434 0.0180664C10.1235 0.0180664 10.5255 0.184576 10.8219 0.480966C11.1183 0.777355 11.2848 1.17935 11.2848 1.5985V8.97387C11.2848 9.39303 11.1183 9.79502 10.8219 10.0914C10.5255 10.3878 10.1235 10.5543 9.70434 10.5543H4.43622C4.01706 10.5543 3.61507 10.3878 3.31868 10.0914C3.02229 9.79502 2.85578 9.39303 2.85578 8.97387V1.5985C2.85578 1.17935 3.02229 0.777355 3.31868 0.480966C3.61507 0.184576 4.01706 0.0180664 4.43622 0.0180664H9.70434ZM9.70434 1.07169H4.43622C4.2965 1.07169 4.1625 1.12719 4.06371 1.22599C3.96491 1.32479 3.90941 1.45878 3.90941 1.5985V8.97387C3.90941 9.11359 3.96491 9.24759 4.06371 9.34639C4.1625 9.44518 4.2965 9.50068 4.43622 9.50068H9.70434C9.84406 9.50068 9.97806 9.44518 10.0769 9.34639C10.1757 9.24759 10.2312 9.11359 10.2312 8.97387V1.5985C10.2312 1.45878 10.1757 1.32479 10.0769 1.22599C9.97806 1.12719 9.84406 1.07169 9.70434 1.07169Z" fill="white"/>
</svg>
