<svg width="26" height="30" viewBox="0 0 26 30" fill="none" xmlns="http://www.w3.org/2000/svg">
<path d="M23.1111 0.444458H2.88889C2.12271 0.444458 1.38791 0.748822 0.846136 1.29059C0.304364 1.83237 0 2.56717 0 3.33335V22.1111C0 22.8773 0.304364 23.6121 0.846136 24.1539C1.38791 24.6956 2.12271 25 2.88889 25H8.66667L13 29.3333L17.3333 25H23.1111C23.8773 25 24.6121 24.6956 25.1539 24.1539C25.6956 23.6121 26 22.8773 26 22.1111V3.33335C26 2.56717 25.6956 1.83237 25.1539 1.29059C24.6121 0.748822 23.8773 0.444458 23.1111 0.444458Z" fill="#929AA7"/>
<path d="M12.2778 4.89816C7.95892 4.89816 4.45374 8.40335 4.45374 12.7222C4.45374 17.0411 7.95892 20.5463 12.2778 20.5463C16.5967 20.5463 20.1019 17.0411 20.1019 12.7222C20.1019 8.40335 16.5967 4.89816 12.2778 4.89816ZM15.1023 9.85863C15.9395 9.85863 16.6123 10.5315 16.6123 11.3687C16.6123 12.2058 15.9395 12.8787 15.1023 12.8787C14.2651 12.8787 13.5923 12.2058 13.5923 11.3687C13.5844 10.5315 14.2651 9.85863 15.1023 9.85863ZM10.4079 8.62242C11.425 8.62242 12.2543 9.45177 12.2543 10.4689C12.2543 11.486 11.425 12.3154 10.4079 12.3154C9.39073 12.3154 8.56137 11.486 8.56137 10.4689C8.56137 9.44395 9.3829 8.62242 10.4079 8.62242ZM10.4079 15.7658V18.6998C8.53008 18.113 7.0435 16.6656 6.38628 14.8191C7.20781 13.9428 9.25772 13.4968 10.4079 13.4968C10.8225 13.4968 11.3467 13.5594 11.8944 13.669C10.6113 14.3496 10.4079 15.2494 10.4079 15.7658ZM12.2778 18.9815C12.0666 18.9815 11.8631 18.9737 11.6597 18.9502V15.7658C11.6597 14.6548 13.96 14.0993 15.1023 14.0993C15.9395 14.0993 17.3869 14.4044 18.1067 14.999C17.1913 17.3228 14.9302 18.9815 12.2778 18.9815Z" fill="white"/>
</svg>
