<svg width="77" height="24" viewBox="0 0 77 24" fill="none" xmlns="http://www.w3.org/2000/svg">
<path d="M18 6L6 18" stroke="#FF4B3E" stroke-width="2" stroke-linecap="round" stroke-linejoin="round"/>
<path d="M6 6L18 18" stroke="#FF4B3E" stroke-width="2" stroke-linecap="round" stroke-linejoin="round"/>
<path d="M34.729 16C34.521 16 34.3563 15.9437 34.235 15.831C34.1223 15.7097 34.066 15.5493 34.066 15.35V7.485C34.066 7.28567 34.1223 7.12967 34.235 7.017C34.3563 6.89567 34.521 6.835 34.729 6.835H37.277C38.759 6.835 39.9073 7.23367 40.722 8.031C41.5367 8.82833 41.944 9.955 41.944 11.411C41.944 12.867 41.5367 13.998 40.722 14.804C39.9073 15.6013 38.759 16 37.277 16H34.729ZM37.199 14.882C39.4523 14.882 40.579 13.725 40.579 11.411C40.579 9.10567 39.4523 7.953 37.199 7.953H35.405V14.882H37.199ZM48.5752 14.401C48.6966 14.401 48.7962 14.4487 48.8742 14.544C48.9522 14.6393 48.9912 14.7607 48.9912 14.908C48.9912 15.1593 48.8352 15.3717 48.5232 15.545C48.2199 15.7183 47.8862 15.8527 47.5222 15.948C47.1669 16.0433 46.8246 16.091 46.4952 16.091C45.4899 16.091 44.6969 15.8007 44.1162 15.22C43.5356 14.6307 43.2452 13.829 43.2452 12.815C43.2452 12.165 43.3709 11.5887 43.6222 11.086C43.8822 10.5833 44.2419 10.1933 44.7012 9.916C45.1692 9.63867 45.6979 9.5 46.2872 9.5C47.1366 9.5 47.8082 9.773 48.3022 10.319C48.7962 10.865 49.0432 11.6017 49.0432 12.529C49.0432 12.8757 48.8872 13.049 48.5752 13.049H44.5582C44.6449 14.3923 45.2906 15.064 46.4952 15.064C46.8159 15.064 47.0932 15.0207 47.3272 14.934C47.5612 14.8473 47.8082 14.7347 48.0682 14.596C48.0942 14.5787 48.1636 14.544 48.2762 14.492C48.3976 14.4313 48.4972 14.401 48.5752 14.401ZM46.3132 10.462C45.8106 10.462 45.4076 10.6223 45.1042 10.943C44.8009 11.2637 44.6189 11.7143 44.5582 12.295H47.9122C47.8862 11.7057 47.7346 11.255 47.4572 10.943C47.1886 10.6223 46.8072 10.462 46.3132 10.462ZM53.2071 16.091C52.5917 16.091 52.0501 15.9567 51.5821 15.688C51.1227 15.4193 50.7631 15.038 50.5031 14.544C50.2517 14.05 50.1261 13.478 50.1261 12.828C50.1261 12.1693 50.2561 11.5887 50.5161 11.086C50.7847 10.5833 51.1574 10.1933 51.6341 9.916C52.1107 9.63867 52.6567 9.5 53.2721 9.5C53.6014 9.5 53.9307 9.54767 54.2601 9.643C54.5981 9.73833 54.8971 9.86833 55.1571 10.033C55.4344 10.2237 55.5731 10.4447 55.5731 10.696C55.5731 10.8433 55.5341 10.969 55.4561 11.073C55.3781 11.1683 55.2784 11.216 55.1571 11.216C55.0791 11.216 55.0011 11.1987 54.9231 11.164C54.8451 11.1207 54.7454 11.06 54.6241 10.982C54.4074 10.8433 54.2037 10.7393 54.0131 10.67C53.8311 10.592 53.6101 10.553 53.3501 10.553C52.7607 10.553 52.3014 10.7523 51.9721 11.151C51.6514 11.5497 51.4911 12.1043 51.4911 12.815C51.4911 13.5257 51.6514 14.076 51.9721 14.466C52.2927 14.8473 52.7477 15.038 53.3371 15.038C53.5971 15.038 53.8267 14.999 54.0261 14.921C54.2254 14.843 54.4291 14.739 54.6371 14.609C54.7324 14.5483 54.8277 14.4963 54.9231 14.453C55.0184 14.4097 55.1051 14.388 55.1831 14.388C55.3044 14.388 55.4041 14.44 55.4821 14.544C55.5601 14.6393 55.5991 14.7607 55.5991 14.908C55.5991 15.0293 55.5644 15.142 55.4951 15.246C55.4344 15.3413 55.3261 15.441 55.1701 15.545C54.9101 15.7183 54.6067 15.8527 54.2601 15.948C53.9134 16.0433 53.5624 16.091 53.2071 16.091ZM57.4373 16.065C57.2466 16.065 57.0863 16.013 56.9563 15.909C56.8349 15.805 56.7743 15.649 56.7743 15.441V7.407C56.7743 7.199 56.8349 7.043 56.9563 6.939C57.0863 6.82633 57.2466 6.77 57.4373 6.77C57.6279 6.77 57.7839 6.82633 57.9053 6.939C58.0266 7.043 58.0873 7.199 58.0873 7.407V15.441C58.0873 15.649 58.0266 15.805 57.9053 15.909C57.7839 16.013 57.6279 16.065 57.4373 16.065ZM60.5857 16.065C60.395 16.065 60.2347 16.013 60.1047 15.909C59.9834 15.805 59.9227 15.649 59.9227 15.441V10.163C59.9227 9.955 59.9834 9.799 60.1047 9.695C60.2347 9.58233 60.395 9.526 60.5857 9.526C60.7764 9.526 60.9324 9.58233 61.0537 9.695C61.175 9.799 61.2357 9.955 61.2357 10.163V15.441C61.2357 15.649 61.175 15.805 61.0537 15.909C60.9324 16.013 60.7764 16.065 60.5857 16.065ZM60.5857 8.252C60.3344 8.252 60.135 8.18267 59.9877 8.044C59.8404 7.90533 59.7667 7.72333 59.7667 7.498C59.7667 7.27267 59.8404 7.095 59.9877 6.965C60.135 6.82633 60.3344 6.757 60.5857 6.757C60.8284 6.757 61.0234 6.82633 61.1707 6.965C61.3267 7.095 61.4047 7.27267 61.4047 7.498C61.4047 7.72333 61.331 7.90533 61.1837 8.044C61.0364 8.18267 60.837 8.252 60.5857 8.252ZM66.4901 9.5C68.0068 9.5 68.7651 10.3537 68.7651 12.061V15.441C68.7651 15.6403 68.7045 15.7963 68.5831 15.909C68.4705 16.013 68.3101 16.065 68.1021 16.065C67.9028 16.065 67.7425 16.0087 67.6211 15.896C67.5085 15.7833 67.4521 15.6317 67.4521 15.441V12.126C67.4521 11.5887 67.3438 11.1943 67.1271 10.943C66.9191 10.6917 66.5898 10.566 66.1391 10.566C65.6105 10.566 65.1858 10.7307 64.8651 11.06C64.5445 11.3893 64.3841 11.8313 64.3841 12.386V15.441C64.3841 15.6317 64.3235 15.7833 64.2021 15.896C64.0895 16.0087 63.9335 16.065 63.7341 16.065C63.5348 16.065 63.3745 16.0087 63.2531 15.896C63.1318 15.7833 63.0711 15.6317 63.0711 15.441V10.15C63.0711 9.968 63.1318 9.82067 63.2531 9.708C63.3831 9.58667 63.5435 9.526 63.7341 9.526C63.9248 9.526 64.0765 9.58233 64.1891 9.695C64.3018 9.80767 64.3581 9.955 64.3581 10.137V10.67C64.5661 10.2887 64.8565 9.99833 65.2291 9.799C65.6018 9.59967 66.0221 9.5 66.4901 9.5ZM75.5274 14.401C75.6487 14.401 75.7484 14.4487 75.8264 14.544C75.9044 14.6393 75.9434 14.7607 75.9434 14.908C75.9434 15.1593 75.7874 15.3717 75.4754 15.545C75.172 15.7183 74.8384 15.8527 74.4744 15.948C74.119 16.0433 73.7767 16.091 73.4474 16.091C72.442 16.091 71.649 15.8007 71.0684 15.22C70.4877 14.6307 70.1974 13.829 70.1974 12.815C70.1974 12.165 70.323 11.5887 70.5744 11.086C70.8344 10.5833 71.194 10.1933 71.6534 9.916C72.1214 9.63867 72.65 9.5 73.2394 9.5C74.0887 9.5 74.7604 9.773 75.2544 10.319C75.7484 10.865 75.9954 11.6017 75.9954 12.529C75.9954 12.8757 75.8394 13.049 75.5274 13.049H71.5104C71.597 14.3923 72.2427 15.064 73.4474 15.064C73.768 15.064 74.0454 15.0207 74.2794 14.934C74.5134 14.8473 74.7604 14.7347 75.0204 14.596C75.0464 14.5787 75.1157 14.544 75.2284 14.492C75.3497 14.4313 75.4494 14.401 75.5274 14.401ZM73.2654 10.462C72.7627 10.462 72.3597 10.6223 72.0564 10.943C71.753 11.2637 71.571 11.7143 71.5104 12.295H74.8644C74.8384 11.7057 74.6867 11.255 74.4094 10.943C74.1407 10.6223 73.7594 10.462 73.2654 10.462Z" fill="#FF4B3E"/>
</svg>
