<svg width="83" height="51" viewBox="0 0 83 51" fill="none" xmlns="http://www.w3.org/2000/svg">
<path fill-rule="evenodd" clip-rule="evenodd" d="M3 0C1.34314 0 0 1.34315 0 3V20C0 21.6569 1.34315 23 3 23H80C81.6569 23 83 21.6569 83 20V3C83 1.34315 81.6569 0 80 0H3Z" fill="#E3E8F0" fill-opacity="0.51"/>
<path d="M20.0544 10.432C20.4064 10.432 20.7158 10.5067 20.9824 10.656C21.2544 10.8053 21.4651 11.016 21.6144 11.288C21.7638 11.56 21.8384 11.872 21.8384 12.224C21.8384 12.5813 21.7558 12.8987 21.5904 13.176C21.4251 13.4533 21.1931 13.6693 20.8944 13.824C20.6011 13.9787 20.2624 14.056 19.8784 14.056C19.5478 14.056 19.2224 14 18.9024 13.888C18.5878 13.776 18.3238 13.6213 18.1104 13.424C18.0038 13.3333 17.9504 13.2267 17.9504 13.104C17.9504 13.008 17.9771 12.928 18.0304 12.864C18.0838 12.7947 18.1478 12.76 18.2224 12.76C18.2704 12.76 18.3131 12.768 18.3504 12.784C18.3931 12.8 18.4411 12.8267 18.4944 12.864C18.7131 13.0347 18.9318 13.1653 19.1504 13.256C19.3744 13.3413 19.6091 13.384 19.8544 13.384C20.2278 13.384 20.5184 13.2853 20.7264 13.088C20.9344 12.8853 21.0384 12.6027 21.0384 12.24C21.0384 11.8933 20.9318 11.616 20.7184 11.408C20.5104 11.2 20.2304 11.096 19.8784 11.096C19.6491 11.096 19.4438 11.136 19.2624 11.216C19.0811 11.2907 18.9104 11.4107 18.7504 11.576C18.6704 11.6507 18.5744 11.688 18.4624 11.688C18.3718 11.688 18.2944 11.6613 18.2304 11.608C18.1718 11.5493 18.1424 11.4747 18.1424 11.384V8.752C18.1424 8.62933 18.1744 8.53333 18.2384 8.464C18.3078 8.39467 18.4064 8.36 18.5344 8.36H21.2864C21.4091 8.36 21.5051 8.38933 21.5744 8.448C21.6438 8.50667 21.6784 8.58667 21.6784 8.688C21.6784 8.79467 21.6438 8.87733 21.5744 8.936C21.5051 8.99467 21.4091 9.024 21.2864 9.024H18.9584V10.8C19.2518 10.5547 19.6171 10.432 20.0544 10.432ZM23.1313 13.008C23.2913 13.008 23.4166 13.0667 23.5073 13.184C23.6033 13.3013 23.6513 13.4747 23.6513 13.704C23.6513 14.1573 23.4993 14.5493 23.1953 14.88C23.1313 14.944 23.062 14.976 22.9873 14.976C22.918 14.976 22.8593 14.952 22.8113 14.904C22.7633 14.8613 22.7393 14.808 22.7393 14.744C22.7393 14.6907 22.7633 14.6347 22.8113 14.576C22.9606 14.4213 23.0566 14.2373 23.0993 14.024C22.966 14.0133 22.854 13.9627 22.7633 13.872C22.678 13.7813 22.6353 13.6667 22.6353 13.528C22.6353 13.3787 22.6833 13.256 22.7793 13.16C22.8753 13.0587 22.9926 13.008 23.1313 13.008ZM28.1256 8.36C28.2429 8.36 28.3309 8.392 28.3896 8.456C28.4536 8.52 28.4856 8.60267 28.4856 8.704C28.4856 8.8 28.4562 8.90133 28.3976 9.008L25.7816 13.84C25.6962 13.9893 25.5789 14.064 25.4296 14.064C25.3282 14.064 25.2349 14.0293 25.1496 13.96C25.0696 13.8853 25.0296 13.7947 25.0296 13.688C25.0296 13.624 25.0509 13.5493 25.0936 13.464L27.5016 9.04H24.9016C24.7736 9.04 24.6776 9.01067 24.6136 8.952C24.5496 8.89333 24.5176 8.81067 24.5176 8.704C24.5176 8.47467 24.6456 8.36 24.9016 8.36H28.1256ZM32.3224 11.104C32.6531 11.2 32.9091 11.3707 33.0904 11.616C33.2718 11.8613 33.3624 12.1547 33.3624 12.496C33.3624 12.9867 33.1811 13.3707 32.8184 13.648C32.4611 13.92 31.9544 14.056 31.2984 14.056C30.6424 14.056 30.1331 13.92 29.7704 13.648C29.4131 13.3707 29.2344 12.9867 29.2344 12.496C29.2344 12.1493 29.3251 11.8533 29.5064 11.608C29.6931 11.3627 29.9518 11.1947 30.2824 11.104C29.9998 10.9973 29.7758 10.8293 29.6104 10.6C29.4504 10.3707 29.3704 10.104 29.3704 9.8C29.3704 9.336 29.5411 8.97067 29.8824 8.704C30.2238 8.432 30.6958 8.296 31.2984 8.296C31.9011 8.296 32.3731 8.432 32.7144 8.704C33.0558 8.97067 33.2264 9.336 33.2264 9.8C33.2264 10.104 33.1438 10.3733 32.9784 10.608C32.8184 10.8373 32.5998 11.0027 32.3224 11.104ZM31.2984 8.96C30.9251 8.96 30.6424 9.04 30.4504 9.2C30.2584 9.35467 30.1624 9.57867 30.1624 9.872C30.1624 10.176 30.2584 10.408 30.4504 10.568C30.6424 10.728 30.9251 10.808 31.2984 10.808C31.6718 10.808 31.9544 10.728 32.1464 10.568C32.3384 10.408 32.4344 10.176 32.4344 9.872C32.4344 9.57867 32.3384 9.35467 32.1464 9.2C31.9544 9.04 31.6718 8.96 31.2984 8.96ZM31.2984 13.392C32.1464 13.392 32.5704 13.0747 32.5704 12.44C32.5704 11.8 32.1464 11.48 31.2984 11.48C30.4504 11.48 30.0264 11.8 30.0264 12.44C30.0264 13.0747 30.4504 13.392 31.2984 13.392ZM36.3833 10.424C36.7193 10.424 37.0206 10.5013 37.2873 10.656C37.554 10.8053 37.7593 11.016 37.9033 11.288C38.0526 11.56 38.1273 11.872 38.1273 12.224C38.1273 12.576 38.0473 12.8933 37.8873 13.176C37.7273 13.4533 37.506 13.672 37.2233 13.832C36.946 13.9867 36.6286 14.064 36.2713 14.064C35.5726 14.064 35.034 13.8267 34.6553 13.352C34.282 12.872 34.0953 12.1893 34.0953 11.304C34.0953 10.68 34.1833 10.144 34.3593 9.696C34.5353 9.24267 34.7886 8.896 35.1193 8.656C35.45 8.416 35.842 8.296 36.2953 8.296C36.5993 8.296 36.9033 8.352 37.2073 8.464C37.5113 8.576 37.77 8.73067 37.9833 8.928C38.09 9.01867 38.1433 9.12533 38.1433 9.248C38.1433 9.344 38.1166 9.42667 38.0633 9.496C38.01 9.56 37.946 9.592 37.8713 9.592C37.8233 9.592 37.778 9.584 37.7353 9.568C37.698 9.552 37.6526 9.52533 37.5993 9.488C37.1513 9.14133 36.7246 8.968 36.3193 8.968C35.8766 8.968 35.5326 9.17333 35.2873 9.584C35.042 9.98933 34.9193 10.5573 34.9193 11.288V11.304C35.0366 11.032 35.226 10.8187 35.4873 10.664C35.754 10.504 36.0526 10.424 36.3833 10.424ZM36.2313 13.392C36.562 13.392 36.826 13.288 37.0233 13.08C37.226 12.8667 37.3273 12.5867 37.3273 12.24C37.3273 11.8987 37.226 11.624 37.0233 11.416C36.826 11.2027 36.562 11.096 36.2313 11.096C35.8953 11.096 35.6206 11.2027 35.4073 11.416C35.1993 11.624 35.0953 11.8987 35.0953 12.24C35.0953 12.5867 35.1993 12.8667 35.4073 13.08C35.6153 13.288 35.89 13.392 36.2313 13.392ZM41.5618 14.04C41.4444 14.04 41.3458 14.008 41.2658 13.944C41.1911 13.88 41.1538 13.784 41.1538 13.656V10.408C41.1538 10.28 41.1911 10.184 41.2658 10.12C41.3458 10.0507 41.4444 10.016 41.5618 10.016C41.6791 10.016 41.7751 10.0507 41.8498 10.12C41.9244 10.184 41.9618 10.28 41.9618 10.408V13.656C41.9618 13.784 41.9244 13.88 41.8498 13.944C41.7751 14.008 41.6791 14.04 41.5618 14.04ZM41.5618 9.232C41.4071 9.232 41.2844 9.18933 41.1938 9.104C41.1031 9.01867 41.0578 8.90667 41.0578 8.768C41.0578 8.62933 41.1031 8.52 41.1938 8.44C41.2844 8.35467 41.4071 8.312 41.5618 8.312C41.7111 8.312 41.8311 8.35467 41.9218 8.44C42.0178 8.52 42.0658 8.62933 42.0658 8.768C42.0658 8.90667 42.0204 9.01867 41.9298 9.104C41.8391 9.18933 41.7164 9.232 41.5618 9.232ZM45.1126 13.424C45.23 13.4347 45.3126 13.4667 45.3606 13.52C45.414 13.568 45.4406 13.6373 45.4406 13.728C45.4406 13.8347 45.398 13.9173 45.3126 13.976C45.2326 14.0293 45.1126 14.0507 44.9526 14.04L44.7366 14.024C44.3046 13.992 43.982 13.8613 43.7686 13.632C43.5553 13.3973 43.4486 13.0533 43.4486 12.6V10.72H42.9686C42.734 10.72 42.6166 10.616 42.6166 10.408C42.6166 10.312 42.646 10.2373 42.7046 10.184C42.7686 10.1253 42.8566 10.096 42.9686 10.096H43.4486V9.272C43.4486 9.14933 43.4833 9.05333 43.5526 8.984C43.6273 8.91467 43.726 8.88 43.8486 8.88C43.9713 8.88 44.07 8.91467 44.1446 8.984C44.2193 9.05333 44.2566 9.14933 44.2566 9.272V10.096H45.0486C45.1606 10.096 45.246 10.1253 45.3046 10.184C45.3686 10.2373 45.4006 10.312 45.4006 10.408C45.4006 10.5093 45.3686 10.5867 45.3046 10.64C45.246 10.6933 45.1606 10.72 45.0486 10.72H44.2566V12.656C44.2566 12.9067 44.3073 13.0907 44.4086 13.208C44.5153 13.3253 44.6753 13.392 44.8886 13.408L45.1126 13.424ZM49.0769 13.016C49.1516 13.016 49.2129 13.0453 49.2609 13.104C49.3089 13.1627 49.3329 13.2373 49.3329 13.328C49.3329 13.4827 49.2369 13.6133 49.0449 13.72C48.8583 13.8267 48.6529 13.9093 48.4289 13.968C48.2103 14.0267 47.9996 14.056 47.7969 14.056C47.1783 14.056 46.6903 13.8773 46.3329 13.52C45.9756 13.1573 45.7969 12.664 45.7969 12.04C45.7969 11.64 45.8743 11.2853 46.0289 10.976C46.1889 10.6667 46.4103 10.4267 46.6929 10.256C46.9809 10.0853 47.3063 10 47.6689 10C48.1916 10 48.6049 10.168 48.9089 10.504C49.2129 10.84 49.3649 11.2933 49.3649 11.864C49.3649 12.0773 49.2689 12.184 49.0769 12.184H46.6049C46.6583 13.0107 47.0556 13.424 47.7969 13.424C47.9943 13.424 48.1649 13.3973 48.3089 13.344C48.4529 13.2907 48.6049 13.2213 48.7649 13.136C48.7809 13.1253 48.8236 13.104 48.8929 13.072C48.9676 13.0347 49.0289 13.016 49.0769 13.016ZM47.6849 10.592C47.3756 10.592 47.1276 10.6907 46.9409 10.888C46.7543 11.0853 46.6423 11.3627 46.6049 11.72H48.6689C48.6529 11.3573 48.5596 11.08 48.3889 10.888C48.2236 10.6907 47.9889 10.592 47.6849 10.592ZM54.7353 10C55.61 10 56.0473 10.5253 56.0473 11.576V13.656C56.0473 13.7787 56.01 13.8747 55.9353 13.944C55.8606 14.008 55.762 14.04 55.6393 14.04C55.522 14.04 55.426 14.008 55.3513 13.944C55.2766 13.8747 55.2393 13.7787 55.2393 13.656V11.584C55.2393 11.2587 55.1806 11.024 55.0633 10.88C54.946 10.7307 54.762 10.656 54.5113 10.656C54.218 10.656 53.986 10.7573 53.8153 10.96C53.6446 11.1573 53.5593 11.4293 53.5593 11.776V13.656C53.5593 13.7787 53.522 13.8747 53.4473 13.944C53.3726 14.008 53.274 14.04 53.1513 14.04C53.034 14.04 52.938 14.008 52.8633 13.944C52.7886 13.8747 52.7513 13.7787 52.7513 13.656V11.584C52.7513 11.2587 52.6926 11.024 52.5753 10.88C52.458 10.7307 52.274 10.656 52.0233 10.656C51.73 10.656 51.4953 10.7573 51.3193 10.96C51.1486 11.1573 51.0633 11.4293 51.0633 11.776V13.656C51.0633 13.7787 51.026 13.8747 50.9513 13.944C50.8766 14.008 50.7806 14.04 50.6633 14.04C50.546 14.04 50.4473 14.008 50.3673 13.944C50.2926 13.8747 50.2553 13.7787 50.2553 13.656V10.4C50.2553 10.2827 50.2953 10.1893 50.3753 10.12C50.4553 10.0507 50.5513 10.016 50.6633 10.016C50.7753 10.016 50.866 10.0507 50.9353 10.12C51.01 10.184 51.0473 10.2747 51.0473 10.392V10.688C51.1646 10.464 51.3273 10.2933 51.5353 10.176C51.7433 10.0587 51.9833 10 52.2553 10C52.554 10 52.7993 10.0613 52.9913 10.184C53.1886 10.3067 53.3353 10.496 53.4313 10.752C53.5486 10.5227 53.722 10.3413 53.9513 10.208C54.1806 10.0693 54.442 10 54.7353 10ZM58.5138 14.056C57.9698 14.056 57.5244 13.944 57.1778 13.72C57.0818 13.6613 57.0124 13.6 56.9698 13.536C56.9324 13.472 56.9138 13.4 56.9138 13.32C56.9138 13.2347 56.9378 13.1627 56.9858 13.104C57.0338 13.0453 57.0951 13.016 57.1698 13.016C57.2391 13.016 57.3484 13.0587 57.4978 13.144C57.6578 13.2293 57.8124 13.2987 57.9618 13.352C58.1164 13.4053 58.3084 13.432 58.5378 13.432C58.7938 13.432 58.9938 13.3867 59.1378 13.296C59.2818 13.2053 59.3538 13.0773 59.3538 12.912C59.3538 12.8053 59.3244 12.72 59.2658 12.656C59.2124 12.592 59.1164 12.536 58.9778 12.488C58.8391 12.4347 58.6338 12.3787 58.3618 12.32C57.8924 12.2187 57.5538 12.0827 57.3458 11.912C57.1431 11.736 57.0418 11.4987 57.0418 11.2C57.0418 10.9707 57.1084 10.7653 57.2418 10.584C57.3751 10.3973 57.5591 10.2533 57.7938 10.152C58.0284 10.0507 58.2951 10 58.5938 10C58.8071 10 59.0151 10.0293 59.2178 10.088C59.4204 10.1413 59.5991 10.2213 59.7538 10.328C59.9298 10.4453 60.0178 10.5813 60.0178 10.736C60.0178 10.8213 59.9911 10.8933 59.9378 10.952C59.8898 11.0107 59.8311 11.04 59.7618 11.04C59.7138 11.04 59.6658 11.0293 59.6178 11.008C59.5698 10.9867 59.5058 10.952 59.4258 10.904C59.2818 10.8187 59.1458 10.752 59.0178 10.704C58.8951 10.656 58.7404 10.632 58.5538 10.632C58.3298 10.632 58.1484 10.68 58.0098 10.776C57.8764 10.872 57.8098 11.0027 57.8098 11.168C57.8098 11.3173 57.8711 11.4347 57.9938 11.52C58.1218 11.6 58.3591 11.6773 58.7057 11.752C59.0631 11.8267 59.3431 11.912 59.5458 12.008C59.7484 12.104 59.8924 12.224 59.9778 12.368C60.0684 12.5067 60.1138 12.6853 60.1138 12.904C60.1138 13.2507 59.9671 13.5307 59.6738 13.744C59.3858 13.952 58.9991 14.056 58.5138 14.056ZM64.4825 14.056C63.9385 14.056 63.4932 13.944 63.1465 13.72C63.0505 13.6613 62.9812 13.6 62.9385 13.536C62.9012 13.472 62.8825 13.4 62.8825 13.32C62.8825 13.2347 62.9065 13.1627 62.9545 13.104C63.0025 13.0453 63.0638 13.016 63.1385 13.016C63.2078 13.016 63.3172 13.0587 63.4665 13.144C63.6265 13.2293 63.7812 13.2987 63.9305 13.352C64.0852 13.4053 64.2772 13.432 64.5065 13.432C64.7625 13.432 64.9625 13.3867 65.1065 13.296C65.2505 13.2053 65.3225 13.0773 65.3225 12.912C65.3225 12.8053 65.2932 12.72 65.2345 12.656C65.1812 12.592 65.0852 12.536 64.9465 12.488C64.8078 12.4347 64.6025 12.3787 64.3305 12.32C63.8612 12.2187 63.5225 12.0827 63.3145 11.912C63.1118 11.736 63.0105 11.4987 63.0105 11.2C63.0105 10.9707 63.0772 10.7653 63.2105 10.584C63.3438 10.3973 63.5278 10.2533 63.7625 10.152C63.9972 10.0507 64.2638 10 64.5625 10C64.7758 10 64.9838 10.0293 65.1865 10.088C65.3892 10.1413 65.5678 10.2213 65.7225 10.328C65.8985 10.4453 65.9865 10.5813 65.9865 10.736C65.9865 10.8213 65.9598 10.8933 65.9065 10.952C65.8585 11.0107 65.7998 11.04 65.7305 11.04C65.6825 11.04 65.6345 11.0293 65.5865 11.008C65.5385 10.9867 65.4745 10.952 65.3945 10.904C65.2505 10.8187 65.1145 10.752 64.9865 10.704C64.8638 10.656 64.7092 10.632 64.5225 10.632C64.2985 10.632 64.1172 10.68 63.9785 10.776C63.8452 10.872 63.7785 11.0027 63.7785 11.168C63.7785 11.3173 63.8398 11.4347 63.9625 11.52C64.0905 11.6 64.3278 11.6773 64.6745 11.752C65.0318 11.8267 65.3118 11.912 65.5145 12.008C65.7172 12.104 65.8612 12.224 65.9465 12.368C66.0372 12.5067 66.0825 12.6853 66.0825 12.904C66.0825 13.2507 65.9358 13.5307 65.6425 13.744C65.3545 13.952 64.9678 14.056 64.4825 14.056ZM68.6779 14.056C68.2939 14.056 67.9552 13.9733 67.6619 13.808C67.3739 13.6427 67.1499 13.408 66.9899 13.104C66.8352 12.7947 66.7579 12.4373 66.7579 12.032C66.7579 11.6213 66.8352 11.264 66.9899 10.96C67.1499 10.6507 67.3739 10.4133 67.6619 10.248C67.9552 10.0827 68.2939 10 68.6779 10C69.0619 10 69.3979 10.0827 69.6859 10.248C69.9792 10.4133 70.2032 10.6507 70.3579 10.96C70.5179 11.264 70.5979 11.6213 70.5979 12.032C70.5979 12.4373 70.5179 12.7947 70.3579 13.104C70.2032 13.408 69.9792 13.6427 69.6859 13.808C69.3979 13.9733 69.0619 14.056 68.6779 14.056ZM68.6779 13.416C69.0352 13.416 69.3072 13.2987 69.4939 13.064C69.6859 12.8293 69.7819 12.4853 69.7819 12.032C69.7819 11.584 69.6859 11.2427 69.4939 11.008C69.3019 10.768 69.0299 10.648 68.6779 10.648C68.3259 10.648 68.0539 10.768 67.8619 11.008C67.6699 11.2427 67.5739 11.584 67.5739 12.032C67.5739 12.4853 67.6672 12.8293 67.8539 13.064C68.0459 13.2987 68.3205 13.416 68.6779 13.416ZM71.9055 14.04C71.7882 14.04 71.6895 14.008 71.6095 13.944C71.5348 13.88 71.4975 13.784 71.4975 13.656V8.712C71.4975 8.584 71.5348 8.488 71.6095 8.424C71.6895 8.35467 71.7882 8.32 71.9055 8.32C72.0228 8.32 72.1188 8.35467 72.1935 8.424C72.2682 8.488 72.3055 8.584 72.3055 8.712V13.656C72.3055 13.784 72.2682 13.88 72.1935 13.944C72.1188 14.008 72.0228 14.04 71.9055 14.04ZM76.627 8.32C76.7497 8.32 76.8483 8.35467 76.923 8.424C76.9977 8.49333 77.035 8.58667 77.035 8.704V13.648C77.035 13.7707 76.9977 13.8667 76.923 13.936C76.8537 14.0053 76.7577 14.04 76.635 14.04C76.5123 14.04 76.4137 14.0053 76.339 13.936C76.2697 13.8667 76.235 13.7707 76.235 13.648V13.328C76.1177 13.5627 75.947 13.744 75.723 13.872C75.499 13.9947 75.2403 14.056 74.947 14.056C74.611 14.056 74.3097 13.9707 74.043 13.8C73.7817 13.6293 73.5763 13.3893 73.427 13.08C73.283 12.7707 73.211 12.416 73.211 12.016C73.211 11.6107 73.283 11.256 73.427 10.952C73.5763 10.648 73.7817 10.4133 74.043 10.248C74.3043 10.0827 74.6057 10 74.947 10C75.2403 10 75.4963 10.064 75.715 10.192C75.939 10.3147 76.1097 10.4907 76.227 10.72V8.688C76.227 8.576 76.2617 8.488 76.331 8.424C76.4057 8.35467 76.5043 8.32 76.627 8.32ZM75.139 13.416C75.4857 13.416 75.755 13.296 75.947 13.056C76.139 12.816 76.235 12.4747 76.235 12.032C76.235 11.5893 76.139 11.248 75.947 11.008C75.7603 10.768 75.491 10.648 75.139 10.648C74.787 10.648 74.5123 10.768 74.315 11.008C74.123 11.2427 74.027 11.5787 74.027 12.016C74.027 12.4533 74.1257 12.7973 74.323 13.048C74.5203 13.2933 74.7923 13.416 75.139 13.416Z" fill="#274B89"/>
<path d="M13.9713 12.0287L11.2825 14.7175C11.2128 14.7872 11.1301 14.8426 11.0391 14.8803C10.948 14.918 10.8504 14.9375 10.7519 14.9375C10.6533 14.9375 10.5557 14.918 10.4647 14.8803C10.3736 14.8426 10.2909 14.7872 10.2213 14.7175L7 11.5V7.75H10.75L13.9713 10.9713C14.1109 11.1118 14.1893 11.3019 14.1893 11.5C14.1893 11.6981 14.1109 11.8882 13.9713 12.0287V12.0287Z" stroke="#274B89" stroke-width="0.75" stroke-linecap="round" stroke-linejoin="round"/>
<path d="M8.875 19.625H8.87875" stroke="#274B89" stroke-width="0.75" stroke-linecap="round" stroke-linejoin="round"/>
<path fill-rule="evenodd" clip-rule="evenodd" d="M3 28C1.34314 28 0 29.3431 0 31V48C0 49.6569 1.34315 51 3 51H80C81.6569 51 83 49.6569 83 48V31C83 29.3431 81.6569 28 80 28H3Z" fill="#FFB211" fill-opacity="0.15"/>
<path d="M11.4078 40.176C11.6691 40.176 11.7998 40.2853 11.7998 40.504C11.7998 40.7227 11.6691 40.832 11.4078 40.832H10.8958V41.624C10.8958 41.7573 10.8584 41.8613 10.7838 41.936C10.7091 42.0053 10.6104 42.04 10.4878 42.04C10.3704 42.04 10.2744 42.0053 10.1998 41.936C10.1251 41.8613 10.0878 41.7573 10.0878 41.624V40.832H7.83978C7.72245 40.832 7.63178 40.8 7.56778 40.736C7.50378 40.672 7.47178 40.5893 7.47178 40.488C7.47178 40.3813 7.50645 40.2773 7.57578 40.176L10.1278 36.504C10.2131 36.3813 10.3331 36.32 10.4878 36.32C10.5998 36.32 10.6958 36.3573 10.7758 36.432C10.8558 36.5013 10.8958 36.6027 10.8958 36.736V40.176H11.4078ZM8.35978 40.176H10.0878V37.68L8.35978 40.176ZM12.9087 41.008C13.0687 41.008 13.194 41.0667 13.2847 41.184C13.3807 41.3013 13.4287 41.4747 13.4287 41.704C13.4287 42.1573 13.2767 42.5493 12.9727 42.88C12.9087 42.944 12.8393 42.976 12.7647 42.976C12.6953 42.976 12.6367 42.952 12.5887 42.904C12.5407 42.8613 12.5167 42.808 12.5167 42.744C12.5167 42.6907 12.5407 42.6347 12.5887 42.576C12.738 42.4213 12.834 42.2373 12.8767 42.024C12.7433 42.0133 12.6313 41.9627 12.5407 41.872C12.4553 41.7813 12.4127 41.6667 12.4127 41.528C12.4127 41.3787 12.4607 41.256 12.5567 41.16C12.6527 41.0587 12.77 41.008 12.9087 41.008ZM16.5349 38.432C16.8869 38.432 17.1962 38.5067 17.4629 38.656C17.7349 38.8053 17.9456 39.016 18.0949 39.288C18.2442 39.56 18.3189 39.872 18.3189 40.224C18.3189 40.5813 18.2362 40.8987 18.0709 41.176C17.9056 41.4533 17.6736 41.6693 17.3749 41.824C17.0816 41.9787 16.7429 42.056 16.3589 42.056C16.0282 42.056 15.7029 42 15.3829 41.888C15.0682 41.776 14.8042 41.6213 14.5909 41.424C14.4842 41.3333 14.4309 41.2267 14.4309 41.104C14.4309 41.008 14.4576 40.928 14.5109 40.864C14.5642 40.7947 14.6282 40.76 14.7029 40.76C14.7509 40.76 14.7936 40.768 14.8309 40.784C14.8736 40.8 14.9216 40.8267 14.9749 40.864C15.1936 41.0347 15.4122 41.1653 15.6309 41.256C15.8549 41.3413 16.0896 41.384 16.3349 41.384C16.7082 41.384 16.9989 41.2853 17.2069 41.088C17.4149 40.8853 17.5189 40.6027 17.5189 40.24C17.5189 39.8933 17.4122 39.616 17.1989 39.408C16.9909 39.2 16.7109 39.096 16.3589 39.096C16.1296 39.096 15.9242 39.136 15.7429 39.216C15.5616 39.2907 15.3909 39.4107 15.2309 39.576C15.1509 39.6507 15.0549 39.688 14.9429 39.688C14.8522 39.688 14.7749 39.6613 14.7109 39.608C14.6522 39.5493 14.6229 39.4747 14.6229 39.384V36.752C14.6229 36.6293 14.6549 36.5333 14.7189 36.464C14.7882 36.3947 14.8869 36.36 15.0149 36.36H17.7669C17.8896 36.36 17.9856 36.3893 18.0549 36.448C18.1242 36.5067 18.1589 36.5867 18.1589 36.688C18.1589 36.7947 18.1242 36.8773 18.0549 36.936C17.9856 36.9947 17.8896 37.024 17.7669 37.024H15.4389V38.8C15.7322 38.5547 16.0976 38.432 16.5349 38.432ZM21.3638 38.424C21.6998 38.424 22.0011 38.5013 22.2678 38.656C22.5344 38.8053 22.7398 39.016 22.8838 39.288C23.0331 39.56 23.1078 39.872 23.1078 40.224C23.1078 40.576 23.0278 40.8933 22.8678 41.176C22.7078 41.4533 22.4864 41.672 22.2038 41.832C21.9264 41.9867 21.6091 42.064 21.2518 42.064C20.5531 42.064 20.0144 41.8267 19.6358 41.352C19.2624 40.872 19.0758 40.1893 19.0758 39.304C19.0758 38.68 19.1638 38.144 19.3398 37.696C19.5158 37.2427 19.7691 36.896 20.0998 36.656C20.4304 36.416 20.8224 36.296 21.2758 36.296C21.5798 36.296 21.8838 36.352 22.1878 36.464C22.4918 36.576 22.7504 36.7307 22.9638 36.928C23.0704 37.0187 23.1238 37.1253 23.1238 37.248C23.1238 37.344 23.0971 37.4267 23.0438 37.496C22.9904 37.56 22.9264 37.592 22.8518 37.592C22.8038 37.592 22.7584 37.584 22.7158 37.568C22.6784 37.552 22.6331 37.5253 22.5798 37.488C22.1318 37.1413 21.7051 36.968 21.2998 36.968C20.8571 36.968 20.5131 37.1733 20.2678 37.584C20.0224 37.9893 19.8998 38.5573 19.8998 39.288V39.304C20.0171 39.032 20.2064 38.8187 20.4678 38.664C20.7344 38.504 21.0331 38.424 21.3638 38.424ZM21.2118 41.392C21.5424 41.392 21.8064 41.288 22.0038 41.08C22.2064 40.8667 22.3078 40.5867 22.3078 40.24C22.3078 39.8987 22.2064 39.624 22.0038 39.416C21.8064 39.2027 21.5424 39.096 21.2118 39.096C20.8758 39.096 20.6011 39.2027 20.3878 39.416C20.1798 39.624 20.0758 39.8987 20.0758 40.24C20.0758 40.5867 20.1798 40.8667 20.3878 41.08C20.5958 41.288 20.8704 41.392 21.2118 41.392ZM27.4888 36.36C27.6062 36.36 27.6942 36.392 27.7528 36.456C27.8168 36.52 27.8488 36.6027 27.8488 36.704C27.8488 36.8 27.8195 36.9013 27.7608 37.008L25.1448 41.84C25.0595 41.9893 24.9422 42.064 24.7928 42.064C24.6915 42.064 24.5982 42.0293 24.5128 41.96C24.4328 41.8853 24.3928 41.7947 24.3928 41.688C24.3928 41.624 24.4142 41.5493 24.4568 41.464L26.8648 37.04H24.2648C24.1368 37.04 24.0408 37.0107 23.9768 36.952C23.9128 36.8933 23.8808 36.8107 23.8808 36.704C23.8808 36.4747 24.0088 36.36 24.2648 36.36H27.4888ZM33.0271 38C33.3631 38 33.6618 38.0853 33.9231 38.256C34.1898 38.4267 34.3951 38.6667 34.5391 38.976C34.6884 39.2853 34.7631 39.6427 34.7631 40.048C34.7631 40.448 34.6911 40.8 34.5471 41.104C34.4031 41.408 34.1978 41.6427 33.9311 41.808C33.6698 41.9733 33.3684 42.056 33.0271 42.056C32.7338 42.056 32.4751 41.9947 32.2511 41.872C32.0271 41.744 31.8564 41.5627 31.7391 41.328V43.112C31.7391 43.224 31.7018 43.312 31.6271 43.376C31.5578 43.4453 31.4644 43.48 31.3471 43.48C31.2244 43.48 31.1231 43.4453 31.0431 43.376C30.9684 43.3067 30.9311 43.2133 30.9311 43.096V38.408C30.9311 38.2907 30.9684 38.1973 31.0431 38.128C31.1178 38.0533 31.2164 38.016 31.3391 38.016C31.4564 38.016 31.5524 38.0533 31.6271 38.128C31.7018 38.1973 31.7391 38.2907 31.7391 38.408V38.736C31.8564 38.5013 32.0271 38.32 32.2511 38.192C32.4751 38.064 32.7338 38 33.0271 38ZM32.8351 41.416C33.1871 41.416 33.4591 41.2987 33.6511 41.064C33.8431 40.824 33.9391 40.4853 33.9391 40.048C33.9391 39.6053 33.8404 39.2613 33.6431 39.016C33.4511 38.7707 33.1818 38.648 32.8351 38.648C32.4831 38.648 32.2111 38.768 32.0191 39.008C31.8324 39.248 31.7391 39.5893 31.7391 40.032C31.7391 40.4747 31.8324 40.816 32.0191 41.056C32.2111 41.296 32.4831 41.416 32.8351 41.416ZM38.7137 41.016C38.7883 41.016 38.8497 41.0453 38.8977 41.104C38.9457 41.1627 38.9697 41.2373 38.9697 41.328C38.9697 41.4827 38.8737 41.6133 38.6817 41.72C38.495 41.8267 38.2897 41.9093 38.0657 41.968C37.847 42.0267 37.6363 42.056 37.4337 42.056C36.815 42.056 36.327 41.8773 35.9697 41.52C35.6123 41.1573 35.4337 40.664 35.4337 40.04C35.4337 39.64 35.511 39.2853 35.6657 38.976C35.8257 38.6667 36.047 38.4267 36.3297 38.256C36.6177 38.0853 36.943 38 37.3057 38C37.8283 38 38.2417 38.168 38.5457 38.504C38.8497 38.84 39.0017 39.2933 39.0017 39.864C39.0017 40.0773 38.9057 40.184 38.7137 40.184H36.2417C36.295 41.0107 36.6923 41.424 37.4337 41.424C37.631 41.424 37.8017 41.3973 37.9457 41.344C38.0897 41.2907 38.2417 41.2213 38.4017 41.136C38.4177 41.1253 38.4603 41.104 38.5297 41.072C38.6043 41.0347 38.6657 41.016 38.7137 41.016ZM37.3217 38.592C37.0123 38.592 36.7643 38.6907 36.5777 38.888C36.391 39.0853 36.279 39.3627 36.2417 39.72H38.3057C38.2897 39.3573 38.1963 39.08 38.0257 38.888C37.8603 38.6907 37.6257 38.592 37.3217 38.592ZM41.588 42.056C41.204 42.056 40.8654 41.9733 40.572 41.808C40.284 41.6427 40.06 41.408 39.9 41.104C39.7454 40.7947 39.668 40.4373 39.668 40.032C39.668 39.6213 39.7454 39.264 39.9 38.96C40.06 38.6507 40.284 38.4133 40.572 38.248C40.8654 38.0827 41.204 38 41.588 38C41.972 38 42.308 38.0827 42.596 38.248C42.8894 38.4133 43.1134 38.6507 43.268 38.96C43.428 39.264 43.508 39.6213 43.508 40.032C43.508 40.4373 43.428 40.7947 43.268 41.104C43.1134 41.408 42.8894 41.6427 42.596 41.808C42.308 41.9733 41.972 42.056 41.588 42.056ZM41.588 41.416C41.9454 41.416 42.2174 41.2987 42.404 41.064C42.596 40.8293 42.692 40.4853 42.692 40.032C42.692 39.584 42.596 39.2427 42.404 39.008C42.212 38.768 41.94 38.648 41.588 38.648C41.236 38.648 40.964 38.768 40.772 39.008C40.58 39.2427 40.484 39.584 40.484 40.032C40.484 40.4853 40.5774 40.8293 40.764 41.064C40.956 41.2987 41.2307 41.416 41.588 41.416ZM46.5037 38C46.8397 38 47.1383 38.0853 47.3997 38.256C47.6663 38.4267 47.8717 38.6667 48.0157 38.976C48.165 39.2853 48.2397 39.6427 48.2397 40.048C48.2397 40.448 48.1677 40.8 48.0237 41.104C47.8797 41.408 47.6743 41.6427 47.4077 41.808C47.1463 41.9733 46.845 42.056 46.5037 42.056C46.2103 42.056 45.9517 41.9947 45.7277 41.872C45.5037 41.744 45.333 41.5627 45.2157 41.328V43.112C45.2157 43.224 45.1783 43.312 45.1037 43.376C45.0343 43.4453 44.941 43.48 44.8237 43.48C44.701 43.48 44.5997 43.4453 44.5197 43.376C44.445 43.3067 44.4077 43.2133 44.4077 43.096V38.408C44.4077 38.2907 44.445 38.1973 44.5197 38.128C44.5943 38.0533 44.693 38.016 44.8157 38.016C44.933 38.016 45.029 38.0533 45.1037 38.128C45.1783 38.1973 45.2157 38.2907 45.2157 38.408V38.736C45.333 38.5013 45.5037 38.32 45.7277 38.192C45.9517 38.064 46.2103 38 46.5037 38ZM46.3117 41.416C46.6637 41.416 46.9357 41.2987 47.1277 41.064C47.3197 40.824 47.4157 40.4853 47.4157 40.048C47.4157 39.6053 47.317 39.2613 47.1197 39.016C46.9277 38.7707 46.6583 38.648 46.3117 38.648C45.9597 38.648 45.6877 38.768 45.4957 39.008C45.309 39.248 45.2157 39.5893 45.2157 40.032C45.2157 40.4747 45.309 40.816 45.4957 41.056C45.6877 41.296 45.9597 41.416 46.3117 41.416ZM49.5422 42.04C49.4249 42.04 49.3262 42.008 49.2462 41.944C49.1716 41.88 49.1342 41.784 49.1342 41.656V36.712C49.1342 36.584 49.1716 36.488 49.2462 36.424C49.3262 36.3547 49.4249 36.32 49.5422 36.32C49.6596 36.32 49.7556 36.3547 49.8302 36.424C49.9049 36.488 49.9422 36.584 49.9422 36.712V41.656C49.9422 41.784 49.9049 41.88 49.8302 41.944C49.7556 42.008 49.6596 42.04 49.5422 42.04ZM54.1277 41.016C54.2024 41.016 54.2637 41.0453 54.3117 41.104C54.3597 41.1627 54.3837 41.2373 54.3837 41.328C54.3837 41.4827 54.2877 41.6133 54.0957 41.72C53.9091 41.8267 53.7037 41.9093 53.4797 41.968C53.2611 42.0267 53.0504 42.056 52.8477 42.056C52.2291 42.056 51.7411 41.8773 51.3837 41.52C51.0264 41.1573 50.8477 40.664 50.8477 40.04C50.8477 39.64 50.9251 39.2853 51.0797 38.976C51.2397 38.6667 51.4611 38.4267 51.7437 38.256C52.0317 38.0853 52.3571 38 52.7197 38C53.2424 38 53.6557 38.168 53.9597 38.504C54.2637 38.84 54.4157 39.2933 54.4157 39.864C54.4157 40.0773 54.3197 40.184 54.1277 40.184H51.6557C51.7091 41.0107 52.1064 41.424 52.8477 41.424C53.0451 41.424 53.2157 41.3973 53.3597 41.344C53.5037 41.2907 53.6557 41.2213 53.8157 41.136C53.8317 41.1253 53.8744 41.104 53.9437 41.072C54.0184 41.0347 54.0797 41.016 54.1277 41.016ZM52.7357 38.592C52.4264 38.592 52.1784 38.6907 51.9917 38.888C51.8051 39.0853 51.6931 39.3627 51.6557 39.72H53.7197C53.7037 39.3573 53.6104 39.08 53.4397 38.888C53.2744 38.6907 53.0397 38.592 52.7357 38.592ZM59.4635 38.016C59.7195 38 59.8475 38.1093 59.8475 38.344C59.8475 38.4613 59.8181 38.5493 59.7595 38.608C59.7008 38.6667 59.5995 38.7013 59.4555 38.712L59.2155 38.736C58.8795 38.768 58.6288 38.8853 58.4635 39.088C58.3035 39.2907 58.2235 39.536 58.2235 39.824V41.656C58.2235 41.784 58.1861 41.88 58.1115 41.944C58.0368 42.008 57.9408 42.04 57.8235 42.04C57.7061 42.04 57.6075 42.008 57.5275 41.944C57.4528 41.88 57.4155 41.784 57.4155 41.656V38.4C57.4155 38.2773 57.4528 38.184 57.5275 38.12C57.6075 38.0507 57.7061 38.016 57.8235 38.016C57.9301 38.016 58.0181 38.0507 58.0875 38.12C58.1621 38.184 58.1995 38.2747 58.1995 38.392V38.776C58.3061 38.5413 58.4608 38.3627 58.6635 38.24C58.8661 38.1173 59.0955 38.0453 59.3515 38.024L59.4635 38.016ZM61.9617 38C62.4791 38 62.8631 38.1307 63.1137 38.392C63.3697 38.6533 63.4977 39.0507 63.4977 39.584V41.656C63.4977 41.7787 63.4631 41.8747 63.3937 41.944C63.3244 42.008 63.2284 42.04 63.1057 42.04C62.9884 42.04 62.8951 42.0053 62.8257 41.936C62.7564 41.8667 62.7217 41.7733 62.7217 41.656V41.36C62.6204 41.584 62.4684 41.7573 62.2657 41.88C62.0684 41.9973 61.8364 42.056 61.5697 42.056C61.3137 42.056 61.0791 42.0053 60.8657 41.904C60.6577 41.7973 60.4924 41.6533 60.3697 41.472C60.2471 41.2907 60.1857 41.0853 60.1857 40.856C60.1804 40.568 60.2524 40.344 60.4017 40.184C60.5511 40.0187 60.7937 39.9013 61.1297 39.832C61.4657 39.7573 61.9324 39.72 62.5297 39.72H62.7137V39.488C62.7137 39.1893 62.6524 38.9733 62.5297 38.84C62.4071 38.7067 62.2097 38.64 61.9377 38.64C61.7511 38.64 61.5751 38.664 61.4097 38.712C61.2444 38.76 61.0631 38.8293 60.8657 38.92C60.7217 39 60.6204 39.04 60.5617 39.04C60.4817 39.04 60.4151 39.0107 60.3617 38.952C60.3137 38.8933 60.2897 38.8187 60.2897 38.728C60.2897 38.648 60.3111 38.5787 60.3537 38.52C60.4017 38.456 60.4764 38.3947 60.5777 38.336C60.7644 38.2347 60.9831 38.1547 61.2337 38.096C61.4844 38.032 61.7271 38 61.9617 38ZM61.7137 41.456C62.0071 41.456 62.2471 41.3573 62.4337 41.16C62.6204 40.9573 62.7137 40.6987 62.7137 40.384V40.176H62.5697C62.1537 40.176 61.8337 40.1947 61.6097 40.232C61.3857 40.2693 61.2257 40.3333 61.1297 40.424C61.0337 40.5093 60.9857 40.6347 60.9857 40.8C60.9857 40.992 61.0551 41.1493 61.1937 41.272C61.3324 41.3947 61.5057 41.456 61.7137 41.456ZM66.515 41.424C66.6323 41.4347 66.715 41.4667 66.763 41.52C66.8163 41.568 66.843 41.6373 66.843 41.728C66.843 41.8347 66.8003 41.9173 66.715 41.976C66.635 42.0293 66.515 42.0507 66.355 42.04L66.139 42.024C65.707 41.992 65.3843 41.8613 65.171 41.632C64.9576 41.3973 64.851 41.0533 64.851 40.6V38.72H64.371C64.1363 38.72 64.019 38.616 64.019 38.408C64.019 38.312 64.0483 38.2373 64.107 38.184C64.171 38.1253 64.259 38.096 64.371 38.096H64.851V37.272C64.851 37.1493 64.8856 37.0533 64.955 36.984C65.0296 36.9147 65.1283 36.88 65.251 36.88C65.3736 36.88 65.4723 36.9147 65.547 36.984C65.6216 37.0533 65.659 37.1493 65.659 37.272V38.096H66.451C66.563 38.096 66.6483 38.1253 66.707 38.184C66.771 38.2373 66.803 38.312 66.803 38.408C66.803 38.5093 66.771 38.5867 66.707 38.64C66.6483 38.6933 66.563 38.72 66.451 38.72H65.659V40.656C65.659 40.9067 65.7096 41.0907 65.811 41.208C65.9176 41.3253 66.0776 41.392 66.291 41.408L66.515 41.424ZM70.4793 41.016C70.5539 41.016 70.6153 41.0453 70.6633 41.104C70.7113 41.1627 70.7353 41.2373 70.7353 41.328C70.7353 41.4827 70.6393 41.6133 70.4473 41.72C70.2606 41.8267 70.0553 41.9093 69.8313 41.968C69.6126 42.0267 69.4019 42.056 69.1993 42.056C68.5806 42.056 68.0926 41.8773 67.7353 41.52C67.3779 41.1573 67.1993 40.664 67.1993 40.04C67.1993 39.64 67.2766 39.2853 67.4313 38.976C67.5913 38.6667 67.8126 38.4267 68.0953 38.256C68.3833 38.0853 68.7086 38 69.0713 38C69.5939 38 70.0073 38.168 70.3113 38.504C70.6153 38.84 70.7673 39.2933 70.7673 39.864C70.7673 40.0773 70.6713 40.184 70.4793 40.184H68.0073C68.0606 41.0107 68.4579 41.424 69.1993 41.424C69.3966 41.424 69.5673 41.3973 69.7113 41.344C69.8553 41.2907 70.0073 41.2213 70.1673 41.136C70.1833 41.1253 70.2259 41.104 70.2953 41.072C70.3699 41.0347 70.4313 41.016 70.4793 41.016ZM69.0873 38.592C68.7779 38.592 68.5299 38.6907 68.3433 38.888C68.1566 39.0853 68.0446 39.3627 68.0073 39.72H70.0713C70.0553 39.3573 69.9619 39.08 69.7913 38.888C69.6259 38.6907 69.3913 38.592 69.0873 38.592ZM74.8497 36.32C74.9723 36.32 75.071 36.3547 75.1457 36.424C75.2203 36.4933 75.2577 36.5867 75.2577 36.704V41.648C75.2577 41.7707 75.2203 41.8667 75.1457 41.936C75.0763 42.0053 74.9803 42.04 74.8577 42.04C74.735 42.04 74.6363 42.0053 74.5617 41.936C74.4923 41.8667 74.4577 41.7707 74.4577 41.648V41.328C74.3403 41.5627 74.1697 41.744 73.9457 41.872C73.7217 41.9947 73.463 42.056 73.1697 42.056C72.8337 42.056 72.5323 41.9707 72.2657 41.8C72.0043 41.6293 71.799 41.3893 71.6497 41.08C71.5057 40.7707 71.4337 40.416 71.4337 40.016C71.4337 39.6107 71.5057 39.256 71.6497 38.952C71.799 38.648 72.0043 38.4133 72.2657 38.248C72.527 38.0827 72.8283 38 73.1697 38C73.463 38 73.719 38.064 73.9377 38.192C74.1617 38.3147 74.3323 38.4907 74.4497 38.72V36.688C74.4497 36.576 74.4843 36.488 74.5537 36.424C74.6283 36.3547 74.727 36.32 74.8497 36.32ZM73.3617 41.416C73.7083 41.416 73.9777 41.296 74.1697 41.056C74.3617 40.816 74.4577 40.4747 74.4577 40.032C74.4577 39.5893 74.3617 39.248 74.1697 39.008C73.983 38.768 73.7137 38.648 73.3617 38.648C73.0097 38.648 72.735 38.768 72.5377 39.008C72.3457 39.2427 72.2497 39.5787 72.2497 40.016C72.2497 40.4533 72.3483 40.7973 72.5457 41.048C72.743 41.2933 73.015 41.416 73.3617 41.416Z" fill="#E09B09"/>
</svg>
