<svg width="72" height="73" viewBox="0 0 72 73" fill="none" xmlns="http://www.w3.org/2000/svg">
<circle cx="36" cy="36.708" r="35.5" stroke="#FF4B3E"/>
<path d="M49.9644 47.573C50.6035 48.2121 50.923 48.9577 50.923 49.8099C50.923 50.6194 50.6248 51.3224 50.0283 51.9189C49.4744 52.4728 48.7927 52.7497 47.9832 52.7497C47.1737 52.7497 46.4281 52.3876 45.7463 51.6633L35.9681 40.6708L26.2538 51.6633C25.5721 52.3876 24.8265 52.7497 24.017 52.7497C23.2075 52.7497 22.5045 52.4515 21.908 51.855C21.3541 51.2585 21.0771 50.5555 21.0771 49.746C21.0771 48.9364 21.3754 48.2121 21.9719 47.573L32.0696 36.4527L22.4832 25.7798C21.8441 25.0555 21.5245 24.3312 21.5245 23.6068C21.5245 22.7973 21.8228 22.1156 22.4193 21.5617C23.0157 20.9652 23.6975 20.667 24.4644 20.667C25.2739 20.667 26.0195 21.0291 26.7012 21.7535L35.9681 32.2347L45.2351 21.7535C45.9168 21.0291 46.6837 20.667 47.5358 20.667C48.3027 20.667 48.9844 20.9652 49.5809 21.5617C50.1774 22.1156 50.4757 22.7973 50.4757 23.6068C50.4757 24.4164 50.1561 25.1407 49.517 25.7798L39.9306 36.4527L49.9644 47.573Z" fill="#FF4B3E"/>
</svg>
