<svg width="83" height="83" viewBox="0 0 83 83" fill="none" xmlns="http://www.w3.org/2000/svg">
<path fill-rule="evenodd" clip-rule="evenodd" d="M41.5 83C64.4198 83 83 64.4198 83 41.5C83 18.5802 64.4198 0 41.5 0C18.5802 0 0 18.5802 0 41.5C0 64.4198 18.5802 83 41.5 83Z" fill="#C2E0FF" fill-opacity="0.5"/>
<path d="M51.1501 50.6H32.9501C31.5201 50.6 30.3501 49.43 30.3501 48V35C30.3501 33.57 31.5201 32.4 32.9501 32.4H51.1501C52.5801 32.4 53.7501 33.57 53.7501 35V48C53.7501 49.43 52.5801 50.6 51.1501 50.6Z" fill="#274B89"/>
<path d="M47.9002 39.55C48.9772 39.55 49.8502 38.677 49.8502 37.6C49.8502 36.5231 48.9772 35.65 47.9002 35.65C46.8232 35.65 45.9502 36.5231 45.9502 37.6C45.9502 38.677 46.8232 39.55 47.9002 39.55Z" fill="#C2E0FF"/>
<path d="M39.4501 38.835L33.6001 47.35H45.3001L39.4501 38.835Z" fill="#6E85AE"/>
<path d="M46.6002 42.475L42.7002 47.35H50.5002L46.6002 42.475Z" fill="#6E85AE"/>
</svg>
