<svg width="18" height="18" viewBox="0 0 18 18" fill="none" xmlns="http://www.w3.org/2000/svg">
<path d="M16.4464 1.76246C15.4187 0.734713 14.5047 1.03781 14.5047 1.03781L6.44786 9.08816L5.09277 13.1161L9.11888 11.7601L17.1711 3.70417C17.1711 3.70417 17.4733 2.7902 16.4464 1.76246ZM9.38747 10.8825L8.94821 11.3208L7.57447 11.7872C7.46803 11.528 7.31001 11.2932 7.11002 11.097C6.91367 10.8972 6.67891 10.7392 6.41989 10.6326L6.88619 9.25883L7.32546 8.8205C7.32546 8.8205 8.04917 8.7375 8.75889 9.44815C9.46954 10.1579 9.38747 10.8825 9.38747 10.8825ZM14.4189 15.914H2.29492V3.78997H6.95801L8.82324 1.92473H2.29492C1.26904 1.92473 0.429688 2.76409 0.429688 3.78997V15.914C0.429688 16.9399 1.26904 17.7792 2.29492 17.7792H14.4189C15.4448 17.7792 16.2842 16.9399 16.2842 15.914V9.38567L14.4189 11.2509V15.914Z" fill="#274B89"/>
</svg>
