<svg width="19" height="13" viewBox="0 0 19 13" fill="none" xmlns="http://www.w3.org/2000/svg">
<path d="M12.3475 6.49879C12.3475 8.0082 11.0703 9.23181 9.49484 9.23181C7.91936 9.23181 6.64218 8.0082 6.64218 6.49879C6.64218 4.98937 7.91936 3.76577 9.49484 3.76577C11.0703 3.76575 12.3475 4.98938 12.3475 6.49879ZM9.5 0.808228C7.86877 0.815463 6.17795 1.21258 4.57735 1.97288C3.38894 2.56064 2.23076 3.3899 1.2254 4.41344C0.731627 4.93593 0.101824 5.69248 0 6.49968C0.0120333 7.19889 0.762058 8.06194 1.2254 8.58592C2.16817 9.56927 3.29618 10.3754 4.57735 11.0271C6.06998 11.7515 7.72211 12.1685 9.5 12.1917C11.1328 12.1844 12.8232 11.7827 14.422 11.0271C15.6105 10.4393 16.7692 9.60947 17.7746 8.58592C18.2684 8.06344 18.8982 7.30688 19 6.49968C18.988 5.80046 18.2379 4.93739 17.7746 4.41341C16.8318 3.43007 15.7032 2.62458 14.422 1.97285C12.9302 1.24901 11.274 0.834812 9.5 0.808228ZM9.4988 2.22132C11.9707 2.22132 13.9745 4.13706 13.9745 6.50029C13.9745 8.86351 11.9707 10.7793 9.4988 10.7793C7.02691 10.7793 5.02311 8.8635 5.02311 6.50029C5.02311 4.13706 7.02691 2.22132 9.4988 2.22132Z" fill="#C4C4C4"/>
</svg>
