<svg width="105" height="24" viewBox="0 0 105 24" fill="none" xmlns="http://www.w3.org/2000/svg">
<path d="M34.5477 18.096C34.1744 18.096 33.8704 17.984 33.6357 17.76C33.4117 17.5253 33.2997 17.2213 33.2997 16.848V7.888C33.2997 7.51467 33.401 7.22667 33.6037 7.024C33.8064 6.82133 34.0944 6.72 34.4677 6.72H39.9717C40.377 6.72 40.6757 6.8 40.8677 6.96C41.0597 7.12 41.1557 7.37067 41.1557 7.712C41.1557 8.04267 41.0597 8.288 40.8677 8.448C40.6757 8.608 40.377 8.688 39.9717 8.688H35.7637V11.28H39.6517C40.057 11.28 40.3557 11.36 40.5477 11.52C40.7397 11.68 40.8357 11.9307 40.8357 12.272C40.8357 12.6027 40.7397 12.848 40.5477 13.008C40.3557 13.168 40.057 13.248 39.6517 13.248H35.7637V16.848C35.7637 17.232 35.6517 17.536 35.4277 17.76C35.2144 17.984 34.921 18.096 34.5477 18.096ZM45.5656 9.952C46.7176 9.952 47.5709 10.2347 48.1256 10.8C48.6802 11.3547 48.9576 12.208 48.9576 13.36V16.976C48.9576 17.328 48.8562 17.6053 48.6536 17.808C48.4509 18 48.1682 18.096 47.8056 18.096C47.4642 18.096 47.1869 17.9947 46.9736 17.792C46.7709 17.5787 46.6696 17.3067 46.6696 16.976V16.864C46.5096 17.2587 46.2429 17.568 45.8696 17.792C45.4962 18.016 45.0589 18.128 44.5576 18.128C44.0242 18.128 43.5389 18.0213 43.1016 17.808C42.6749 17.5947 42.3336 17.296 42.0776 16.912C41.8322 16.528 41.7096 16.1013 41.7096 15.632C41.7096 15.056 41.8536 14.6027 42.1416 14.272C42.4402 13.9413 42.9149 13.7013 43.5656 13.552C44.2162 13.4027 45.1069 13.328 46.2376 13.328H46.6536V13.04C46.6536 12.592 46.5522 12.2667 46.3496 12.064C46.1576 11.8613 45.8322 11.76 45.3736 11.76C44.9149 11.76 44.2536 11.92 43.3896 12.24C43.1442 12.3573 42.9362 12.416 42.7656 12.416C42.5309 12.416 42.3442 12.336 42.2056 12.176C42.0669 12.0053 41.9976 11.7867 41.9976 11.52C41.9976 11.3067 42.0456 11.1307 42.1416 10.992C42.2376 10.8533 42.3922 10.7253 42.6056 10.608C42.9789 10.4053 43.4322 10.2453 43.9656 10.128C44.5096 10.0107 45.0429 9.952 45.5656 9.952ZM45.0856 16.464C45.5549 16.464 45.9336 16.3093 46.2216 16C46.5096 15.68 46.6536 15.2693 46.6536 14.768V14.496H46.3816C45.5176 14.496 44.9096 14.5653 44.5576 14.704C44.2162 14.8427 44.0456 15.0933 44.0456 15.456C44.0456 15.7547 44.1416 16 44.3336 16.192C44.5362 16.3733 44.7869 16.464 45.0856 16.464ZM54.3959 18.128C53.5853 18.128 52.8759 17.9627 52.2679 17.632C51.6599 17.3013 51.1906 16.832 50.8599 16.224C50.5399 15.616 50.3799 14.9013 50.3799 14.08C50.3799 13.2587 50.5506 12.5387 50.8919 11.92C51.2439 11.2907 51.7346 10.8053 52.3639 10.464C52.9933 10.1227 53.7186 9.952 54.5399 9.952C54.9666 9.952 55.3933 10.0107 55.8199 10.128C56.2573 10.2453 56.6466 10.4107 56.9879 10.624C57.3186 10.8267 57.4839 11.1253 57.4839 11.52C57.4839 11.7973 57.4199 12.0267 57.2919 12.208C57.1639 12.3787 56.9933 12.464 56.7799 12.464C56.6413 12.464 56.5079 12.4427 56.3799 12.4C56.2626 12.3467 56.1026 12.272 55.8999 12.176C55.6759 12.0587 55.4733 11.968 55.2919 11.904C55.1213 11.84 54.9239 11.808 54.6999 11.808C54.1026 11.808 53.6439 12 53.3239 12.384C53.0146 12.7573 52.8599 13.3067 52.8599 14.032C52.8599 14.7573 53.0146 15.312 53.3239 15.696C53.6439 16.08 54.1026 16.272 54.6999 16.272C54.9239 16.272 55.1213 16.2453 55.2919 16.192C55.4626 16.128 55.6706 16.032 55.9159 15.904C56.1186 15.808 56.2786 15.7387 56.3959 15.696C56.5133 15.6427 56.6413 15.616 56.7799 15.616C56.9826 15.616 57.1479 15.7067 57.2759 15.888C57.4146 16.0693 57.4839 16.2987 57.4839 16.576C57.4839 16.9707 57.3186 17.264 56.9879 17.456C56.6466 17.6693 56.2519 17.8347 55.8039 17.952C55.3559 18.0693 54.8866 18.128 54.3959 18.128ZM64.9742 15.664C65.1875 15.664 65.3582 15.7493 65.4862 15.92C65.6249 16.0907 65.6942 16.3093 65.6942 16.576C65.6942 16.7573 65.6409 16.928 65.5342 17.088C65.4275 17.2373 65.2782 17.3653 65.0862 17.472C64.7235 17.664 64.3022 17.824 63.8222 17.952C63.3422 18.0693 62.8995 18.128 62.4942 18.128C61.6409 18.128 60.8942 17.9627 60.2542 17.632C59.6249 17.3013 59.1395 16.832 58.7982 16.224C58.4569 15.6053 58.2862 14.88 58.2862 14.048C58.2862 13.248 58.4515 12.5387 58.7822 11.92C59.1129 11.3013 59.5715 10.8213 60.1582 10.48C60.7449 10.128 61.4115 9.952 62.1582 9.952C62.8729 9.952 63.4969 10.112 64.0302 10.432C64.5742 10.7413 64.9955 11.1893 65.2942 11.776C65.5929 12.352 65.7422 13.0293 65.7422 13.808C65.7422 14.0427 65.6835 14.224 65.5662 14.352C65.4595 14.4693 65.3049 14.528 65.1022 14.528H60.6222C60.6969 15.1573 60.8889 15.616 61.1982 15.904C61.5075 16.1813 61.9502 16.32 62.5262 16.32C62.8355 16.32 63.1129 16.2827 63.3582 16.208C63.6035 16.1333 63.8755 16.032 64.1742 15.904C64.3235 15.84 64.4675 15.7867 64.6062 15.744C64.7449 15.6907 64.8675 15.664 64.9742 15.664ZM62.2222 11.616C61.7635 11.616 61.3955 11.7653 61.1182 12.064C60.8409 12.352 60.6755 12.7733 60.6222 13.328H63.7102C63.6782 12.7627 63.5342 12.336 63.2782 12.048C63.0329 11.76 62.6809 11.616 62.2222 11.616ZM72.0654 9.952C72.7481 9.952 73.3508 10.1173 73.8734 10.448C74.3961 10.7787 74.8014 11.2533 75.0894 11.872C75.3881 12.48 75.5374 13.1893 75.5374 14C75.5374 14.8107 75.3881 15.5307 75.0894 16.16C74.8014 16.7787 74.3908 17.264 73.8574 17.616C73.3348 17.9573 72.7374 18.128 72.0654 18.128C71.5214 18.128 71.0308 18.016 70.5934 17.792C70.1561 17.5573 69.8201 17.2373 69.5854 16.832V16.96C69.5854 17.3013 69.4788 17.5787 69.2654 17.792C69.0521 17.9947 68.7641 18.096 68.4014 18.096C68.0388 18.096 67.7454 17.9947 67.5214 17.792C67.3081 17.5787 67.2014 17.3013 67.2014 16.96V7.744C67.2014 7.41333 67.3134 7.14667 67.5374 6.944C67.7721 6.74133 68.0761 6.64 68.4494 6.64C68.8014 6.64 69.0841 6.736 69.2974 6.928C69.5108 7.12 69.6174 7.376 69.6174 7.696V11.2C69.8521 10.8053 70.1828 10.5013 70.6094 10.288C71.0468 10.064 71.5321 9.952 72.0654 9.952ZM71.3614 16.288C71.9268 16.288 72.3641 16.0907 72.6734 15.696C72.9828 15.2907 73.1374 14.7253 73.1374 14C73.1374 13.2853 72.9828 12.7413 72.6734 12.368C72.3641 11.984 71.9268 11.792 71.3614 11.792C70.7961 11.792 70.3588 11.9893 70.0494 12.384C69.7401 12.768 69.5854 13.3173 69.5854 14.032C69.5854 14.7573 69.7401 15.3173 70.0494 15.712C70.3588 16.096 70.7961 16.288 71.3614 16.288ZM80.7899 18.128C79.9579 18.128 79.2273 17.9627 78.5979 17.632C77.9686 17.2907 77.4833 16.816 77.1419 16.208C76.8006 15.5893 76.6299 14.864 76.6299 14.032C76.6299 13.2 76.8006 12.48 77.1419 11.872C77.4833 11.2533 77.9686 10.7787 78.5979 10.448C79.2273 10.1173 79.9579 9.952 80.7899 9.952C81.6219 9.952 82.3526 10.1173 82.9819 10.448C83.6113 10.7787 84.0966 11.2533 84.4379 11.872C84.7793 12.48 84.9499 13.2 84.9499 14.032C84.9499 14.864 84.7793 15.5893 84.4379 16.208C84.0966 16.816 83.6113 17.2907 82.9819 17.632C82.3526 17.9627 81.6219 18.128 80.7899 18.128ZM80.7899 16.288C81.9633 16.288 82.5499 15.536 82.5499 14.032C82.5499 13.2747 82.3953 12.7093 82.0859 12.336C81.7873 11.9627 81.3553 11.776 80.7899 11.776C79.6166 11.776 79.0299 12.528 79.0299 14.032C79.0299 15.536 79.6166 16.288 80.7899 16.288ZM90.1962 18.128C89.3642 18.128 88.6335 17.9627 88.0042 17.632C87.3749 17.2907 86.8895 16.816 86.5482 16.208C86.2069 15.5893 86.0362 14.864 86.0362 14.032C86.0362 13.2 86.2069 12.48 86.5482 11.872C86.8895 11.2533 87.3749 10.7787 88.0042 10.448C88.6335 10.1173 89.3642 9.952 90.1962 9.952C91.0282 9.952 91.7589 10.1173 92.3882 10.448C93.0175 10.7787 93.5029 11.2533 93.8442 11.872C94.1855 12.48 94.3562 13.2 94.3562 14.032C94.3562 14.864 94.1855 15.5893 93.8442 16.208C93.5029 16.816 93.0175 17.2907 92.3882 17.632C91.7589 17.9627 91.0282 18.128 90.1962 18.128ZM90.1962 16.288C91.3695 16.288 91.9562 15.536 91.9562 14.032C91.9562 13.2747 91.8015 12.7093 91.4922 12.336C91.1935 11.9627 90.7615 11.776 90.1962 11.776C89.0229 11.776 88.4362 12.528 88.4362 14.032C88.4362 15.536 89.0229 16.288 90.1962 16.288ZM103.234 16.128C103.48 16.3627 103.602 16.6293 103.602 16.928C103.602 17.2267 103.49 17.4933 103.266 17.728C103.053 17.9627 102.802 18.08 102.514 18.08C102.237 18.08 101.981 17.968 101.746 17.744L98.2424 14.496V16.944C98.2424 17.3173 98.1251 17.6 97.8904 17.792C97.6664 17.984 97.3838 18.08 97.0424 18.08C96.6904 18.08 96.3971 17.984 96.1624 17.792C95.9384 17.6 95.8264 17.3173 95.8264 16.944V7.776C95.8264 7.40267 95.9384 7.12 96.1624 6.928C96.3971 6.736 96.6904 6.64 97.0424 6.64C97.3838 6.64 97.6664 6.736 97.8904 6.928C98.1251 7.12 98.2424 7.40267 98.2424 7.776V13.504L101.442 10.352C101.677 10.1173 101.938 10 102.226 10C102.525 10 102.786 10.112 103.01 10.336C103.234 10.5493 103.346 10.8053 103.346 11.104C103.346 11.3813 103.224 11.6427 102.978 11.888L100.85 13.92L103.234 16.128Z" fill="#4267B2"/>
<path d="M16.4103 2V6H14.5898C13.9617 6 13.6795 6.81 13.6795 7.5V10H16.4103V14H13.6795V22H10.0385V14H7.30771V10H10.0385V6C10.0385 4.93913 10.4221 3.92172 11.1049 3.17157C11.7877 2.42143 12.7138 2 13.6795 2H16.4103Z" fill="#4267B2"/>
</svg>
