<svg width="123" height="20" viewBox="0 0 123 20" fill="none" xmlns="http://www.w3.org/2000/svg">
<g opacity="0.5">
<path d="M38.0722 4.84945C38.1096 4.72812 38.1749 4.63945 38.2682 4.58345C38.3616 4.51812 38.4642 4.48545 38.5762 4.48545C38.7256 4.48545 38.8516 4.53212 38.9542 4.62545C39.0662 4.70945 39.1222 4.82612 39.1222 4.97545C39.1222 5.04079 39.1082 5.11545 39.0802 5.19945L35.9162 14.1175C35.8696 14.2481 35.7902 14.3508 35.6782 14.4255C35.5662 14.4908 35.4402 14.5235 35.3002 14.5235C35.1696 14.5235 35.0482 14.4908 34.9362 14.4255C34.8242 14.3508 34.7449 14.2481 34.6982 14.1175L31.9542 6.36145L29.1822 14.1175C29.1356 14.2481 29.0562 14.3508 28.9442 14.4255C28.8322 14.4908 28.7109 14.5235 28.5802 14.5235C28.4496 14.5235 28.3282 14.4908 28.2162 14.4255C28.1042 14.3508 28.0249 14.2481 27.9782 14.1175L24.8002 5.19945C24.7722 5.12479 24.7582 5.05479 24.7582 4.98945C24.7582 4.84012 24.8142 4.71879 24.9262 4.62545C25.0476 4.53212 25.1829 4.48545 25.3322 4.48545C25.4442 4.48545 25.5469 4.51812 25.6402 4.58345C25.7429 4.63945 25.8129 4.72812 25.8502 4.84945L28.6082 12.8015L31.4082 4.93345C31.4549 4.79345 31.5296 4.69079 31.6322 4.62545C31.7349 4.55079 31.8469 4.51345 31.9682 4.51345C32.0896 4.51345 32.2016 4.55079 32.3042 4.62545C32.4069 4.70012 32.4816 4.80745 32.5282 4.94745L35.2862 12.8295L38.0722 4.84945ZM43.2931 7.48145C43.6851 7.45345 43.8811 7.61212 43.8811 7.95745C43.8811 8.10679 43.8391 8.22812 43.7551 8.32145C43.6711 8.40545 43.5265 8.45679 43.3211 8.47545L42.9011 8.51745C42.2758 8.57345 41.8091 8.79745 41.5011 9.18945C41.2025 9.57212 41.0531 10.0248 41.0531 10.5475V13.9495C41.0531 14.1361 41.0018 14.2761 40.8991 14.3695C40.7965 14.4628 40.6611 14.5095 40.4931 14.5095C40.3251 14.5095 40.1851 14.4628 40.0731 14.3695C39.9705 14.2668 39.9191 14.1268 39.9191 13.9495V8.04145C39.9191 7.86412 39.9751 7.72879 40.0871 7.63545C40.1991 7.53279 40.3345 7.48145 40.4931 7.48145C40.6425 7.48145 40.7685 7.53279 40.8711 7.63545C40.9738 7.72879 41.0251 7.85945 41.0251 8.02745V8.81145C41.2211 8.40079 41.4965 8.08812 41.8511 7.87345C42.2151 7.65879 42.6305 7.53279 43.0971 7.49545L43.2931 7.48145ZM45.4287 14.5095C45.2607 14.5095 45.1207 14.4628 45.0087 14.3695C44.906 14.2668 44.8547 14.1268 44.8547 13.9495V8.04145C44.8547 7.86412 44.906 7.72879 45.0087 7.63545C45.1207 7.53279 45.2607 7.48145 45.4287 7.48145C45.5967 7.48145 45.732 7.53279 45.8347 7.63545C45.9374 7.72879 45.9887 7.86412 45.9887 8.04145V13.9495C45.9887 14.1361 45.9374 14.2761 45.8347 14.3695C45.732 14.4628 45.5967 14.5095 45.4287 14.5095ZM45.4287 6.01145C45.2047 6.01145 45.0227 5.94612 44.8827 5.81545C44.7427 5.68479 44.6727 5.51212 44.6727 5.29745C44.6727 5.09212 44.7427 4.92412 44.8827 4.79345C45.0227 4.66279 45.2047 4.59745 45.4287 4.59745C45.6527 4.59745 45.8347 4.66279 45.9747 4.79345C46.1147 4.92412 46.1847 5.09212 46.1847 5.29745C46.1847 5.51212 46.1147 5.68479 45.9747 5.81545C45.8347 5.94612 45.6527 6.01145 45.4287 6.01145ZM51.368 13.6135C51.6946 13.6415 51.858 13.7908 51.858 14.0615C51.858 14.2201 51.7973 14.3415 51.676 14.4255C51.564 14.5001 51.3913 14.5281 51.158 14.5095L50.78 14.4815C50.0333 14.4255 49.4826 14.2015 49.128 13.8095C48.7733 13.4175 48.596 12.8248 48.596 12.0315V8.51745H47.658C47.4993 8.51745 47.3733 8.48012 47.28 8.40545C47.196 8.32145 47.154 8.21412 47.154 8.08345C47.154 7.94345 47.196 7.83145 47.28 7.74745C47.3733 7.66345 47.4993 7.62145 47.658 7.62145H48.596V6.03945C48.596 5.86212 48.6473 5.72679 48.75 5.63345C48.8526 5.53079 48.9926 5.47945 49.17 5.47945C49.338 5.47945 49.4733 5.53079 49.576 5.63345C49.6786 5.72679 49.73 5.86212 49.73 6.03945V7.62145H51.284C51.4333 7.62145 51.55 7.66345 51.634 7.74745C51.7273 7.83145 51.774 7.94345 51.774 8.08345C51.774 8.21412 51.7273 8.32145 51.634 8.40545C51.55 8.48012 51.4333 8.51745 51.284 8.51745H49.73V12.0875C49.73 12.6008 49.8326 12.9741 50.038 13.2075C50.2526 13.4315 50.57 13.5575 50.99 13.5855L51.368 13.6135ZM58.2538 12.8575C58.3564 12.8575 58.4451 12.8995 58.5198 12.9835C58.5944 13.0675 58.6318 13.1748 58.6318 13.3055C58.6318 13.5388 58.4684 13.7535 58.1418 13.9495C57.8058 14.1455 57.4511 14.2948 57.0778 14.3975C56.7044 14.4908 56.3404 14.5375 55.9858 14.5375C54.9311 14.5375 54.0958 14.2248 53.4798 13.5995C52.8731 12.9741 52.5698 12.1108 52.5698 11.0095C52.5698 10.3095 52.7051 9.69345 52.9758 9.16145C53.2464 8.62012 53.6244 8.20012 54.1098 7.90145C54.6044 7.60279 55.1644 7.45345 55.7898 7.45345C56.6764 7.45345 57.3811 7.74279 57.9038 8.32145C58.4264 8.90012 58.6878 9.68412 58.6878 10.6735C58.6878 10.8601 58.6504 10.9955 58.5758 11.0795C58.5011 11.1635 58.3798 11.2055 58.2118 11.2055H53.7038C53.7878 12.8108 54.5484 13.6135 55.9858 13.6135C56.3498 13.6135 56.6624 13.5668 56.9238 13.4735C57.1851 13.3708 57.4651 13.2355 57.7638 13.0675C58.0064 12.9275 58.1698 12.8575 58.2538 12.8575ZM55.8038 8.33545C55.2064 8.33545 54.7258 8.52212 54.3618 8.89545C54.0071 9.26879 53.7971 9.79612 53.7318 10.4775H57.6938C57.6751 9.78679 57.5024 9.25945 57.1758 8.89545C56.8491 8.52212 56.3918 8.33545 55.8038 8.33545ZM64.71 14.5095C64.5326 14.5095 64.3926 14.4581 64.29 14.3555C64.1873 14.2435 64.136 14.0988 64.136 13.9215V5.12945C64.136 4.96145 64.1873 4.82612 64.29 4.72345C64.402 4.62079 64.5466 4.56945 64.724 4.56945H69.82C69.988 4.56945 70.1186 4.61145 70.212 4.69545C70.3053 4.77945 70.352 4.90079 70.352 5.05945C70.352 5.20879 70.3053 5.32545 70.212 5.40945C70.1186 5.49345 69.988 5.53545 69.82 5.53545H65.27V8.93745H69.54C69.708 8.93745 69.8386 8.97945 69.932 9.06345C70.0253 9.14745 70.072 9.26879 70.072 9.42745C70.072 9.57679 70.0253 9.69345 69.932 9.77745C69.8386 9.86145 69.708 9.90345 69.54 9.90345H65.27V13.9215C65.27 14.0988 65.2186 14.2435 65.116 14.3555C65.0226 14.4581 64.8873 14.5095 64.71 14.5095ZM76.9022 12.8575C77.0049 12.8575 77.0936 12.8995 77.1682 12.9835C77.2429 13.0675 77.2802 13.1748 77.2802 13.3055C77.2802 13.5388 77.1169 13.7535 76.7902 13.9495C76.4542 14.1455 76.0996 14.2948 75.7262 14.3975C75.3529 14.4908 74.9889 14.5375 74.6342 14.5375C73.5796 14.5375 72.7442 14.2248 72.1282 13.5995C71.5216 12.9741 71.2182 12.1108 71.2182 11.0095C71.2182 10.3095 71.3536 9.69345 71.6242 9.16145C71.8949 8.62012 72.2729 8.20012 72.7582 7.90145C73.2529 7.60279 73.8129 7.45345 74.4382 7.45345C75.3249 7.45345 76.0296 7.74279 76.5522 8.32145C77.0749 8.90012 77.3362 9.68412 77.3362 10.6735C77.3362 10.8601 77.2989 10.9955 77.2242 11.0795C77.1496 11.1635 77.0282 11.2055 76.8602 11.2055H72.3522C72.4362 12.8108 73.1969 13.6135 74.6342 13.6135C74.9982 13.6135 75.3109 13.5668 75.5722 13.4735C75.8336 13.3708 76.1136 13.2355 76.4122 13.0675C76.6549 12.9275 76.8182 12.8575 76.9022 12.8575ZM74.4522 8.33545C73.8549 8.33545 73.3742 8.52212 73.0102 8.89545C72.6556 9.26879 72.4456 9.79612 72.3802 10.4775H76.3422C76.3236 9.78679 76.1509 9.25945 75.8242 8.89545C75.4976 8.52212 75.0402 8.33545 74.4522 8.33545ZM84.285 12.8575C84.3877 12.8575 84.4764 12.8995 84.551 12.9835C84.6257 13.0675 84.663 13.1748 84.663 13.3055C84.663 13.5388 84.4997 13.7535 84.173 13.9495C83.837 14.1455 83.4824 14.2948 83.109 14.3975C82.7357 14.4908 82.3717 14.5375 82.017 14.5375C80.9624 14.5375 80.127 14.2248 79.511 13.5995C78.9044 12.9741 78.601 12.1108 78.601 11.0095C78.601 10.3095 78.7364 9.69345 79.007 9.16145C79.2777 8.62012 79.6557 8.20012 80.141 7.90145C80.6357 7.60279 81.1957 7.45345 81.821 7.45345C82.7077 7.45345 83.4124 7.74279 83.935 8.32145C84.4577 8.90012 84.719 9.68412 84.719 10.6735C84.719 10.8601 84.6817 10.9955 84.607 11.0795C84.5324 11.1635 84.411 11.2055 84.243 11.2055H79.735C79.819 12.8108 80.5797 13.6135 82.017 13.6135C82.381 13.6135 82.6937 13.5668 82.955 13.4735C83.2164 13.3708 83.4964 13.2355 83.795 13.0675C84.0377 12.9275 84.201 12.8575 84.285 12.8575ZM81.835 8.33545C81.2377 8.33545 80.757 8.52212 80.393 8.89545C80.0384 9.26879 79.8284 9.79612 79.763 10.4775H83.725C83.7064 9.78679 83.5337 9.25945 83.207 8.89545C82.8804 8.52212 82.423 8.33545 81.835 8.33545ZM91.8638 4.49945C92.0412 4.49945 92.1812 4.55079 92.2838 4.65345C92.3865 4.75612 92.4378 4.88679 92.4378 5.04545V13.9495C92.4378 14.1175 92.3865 14.2528 92.2838 14.3555C92.1812 14.4581 92.0412 14.5095 91.8638 14.5095C91.6865 14.5095 91.5465 14.4581 91.4438 14.3555C91.3505 14.2528 91.3038 14.1175 91.3038 13.9495V13.1935C91.0985 13.6228 90.7952 13.9541 90.3938 14.1875C90.0018 14.4208 89.5398 14.5375 89.0078 14.5375C88.4105 14.5375 87.8832 14.3881 87.4258 14.0895C86.9685 13.7908 86.6138 13.3755 86.3618 12.8435C86.1098 12.3021 85.9838 11.6768 85.9838 10.9675C85.9838 10.2675 86.1098 9.65145 86.3618 9.11945C86.6138 8.58745 86.9685 8.17679 87.4258 7.88745C87.8832 7.59812 88.4105 7.45345 89.0078 7.45345C89.5398 7.45345 90.0018 7.57012 90.3938 7.80345C90.7952 8.03679 91.0985 8.36812 91.3038 8.79745V5.04545C91.3038 4.87745 91.3505 4.74679 91.4438 4.65345C91.5465 4.55079 91.6865 4.49945 91.8638 4.49945ZM89.2318 13.5995C89.8945 13.5995 90.4032 13.3755 90.7578 12.9275C91.1218 12.4701 91.3038 11.8261 91.3038 10.9955C91.3038 10.1648 91.1218 9.52545 90.7578 9.07745C90.4032 8.62945 89.8945 8.40545 89.2318 8.40545C88.5692 8.40545 88.0512 8.62945 87.6778 9.07745C87.3138 9.52545 87.1318 10.1555 87.1318 10.9675C87.1318 11.7981 87.3138 12.4468 87.6778 12.9135C88.0512 13.3708 88.5692 13.5995 89.2318 13.5995ZM97.9683 7.45345C98.5656 7.45345 99.0929 7.59812 99.5503 7.88745C100.008 8.17679 100.362 8.58745 100.614 9.11945C100.866 9.65145 100.992 10.2675 100.992 10.9675C100.992 11.6768 100.866 12.3021 100.614 12.8435C100.362 13.3755 100.008 13.7908 99.5503 14.0895C99.0929 14.3881 98.5656 14.5375 97.9683 14.5375C97.4363 14.5375 96.9696 14.4208 96.5683 14.1875C96.1763 13.9541 95.8776 13.6228 95.6723 13.1935V13.9495C95.6723 14.1175 95.6209 14.2528 95.5183 14.3555C95.4249 14.4581 95.2896 14.5095 95.1123 14.5095C94.9349 14.5095 94.7949 14.4581 94.6923 14.3555C94.5896 14.2528 94.5383 14.1175 94.5383 13.9495V5.04545C94.5383 4.88679 94.5896 4.75612 94.6923 4.65345C94.7949 4.55079 94.9349 4.49945 95.1123 4.49945C95.2896 4.49945 95.4249 4.55079 95.5183 4.65345C95.6209 4.74679 95.6723 4.87745 95.6723 5.04545V8.79745C95.8776 8.36812 96.1763 8.03679 96.5683 7.80345C96.9696 7.57012 97.4363 7.45345 97.9683 7.45345ZM97.7443 13.5995C98.4069 13.5995 98.9203 13.3708 99.2843 12.9135C99.6483 12.4468 99.8303 11.7981 99.8303 10.9675C99.8303 10.1555 99.6483 9.52545 99.2843 9.07745C98.9203 8.62945 98.4069 8.40545 97.7443 8.40545C97.0816 8.40545 96.5683 8.62945 96.2043 9.07745C95.8496 9.52545 95.6723 10.1648 95.6723 10.9955C95.6723 11.8261 95.8496 12.4701 96.2043 12.9275C96.5683 13.3755 97.0816 13.5995 97.7443 13.5995ZM105.473 7.45345C107.181 7.45345 108.035 8.34945 108.035 10.1415V13.9495C108.035 14.1175 107.983 14.2528 107.881 14.3555C107.787 14.4581 107.657 14.5095 107.489 14.5095C107.321 14.5095 107.185 14.4581 107.083 14.3555C106.98 14.2528 106.929 14.1175 106.929 13.9495V13.2775C106.751 13.6788 106.481 13.9915 106.117 14.2155C105.753 14.4301 105.333 14.5375 104.857 14.5375C104.418 14.5375 104.012 14.4488 103.639 14.2715C103.275 14.0941 102.985 13.8468 102.771 13.5295C102.556 13.2121 102.449 12.8621 102.449 12.4795C102.449 11.9661 102.579 11.5695 102.841 11.2895C103.102 11.0001 103.531 10.7948 104.129 10.6735C104.726 10.5428 105.557 10.4775 106.621 10.4775H106.929V10.0155C106.929 9.45545 106.812 9.04479 106.579 8.78345C106.355 8.52212 105.986 8.39145 105.473 8.39145C104.838 8.39145 104.194 8.56412 103.541 8.90945C103.289 9.06812 103.111 9.14745 103.009 9.14745C102.897 9.14745 102.803 9.10545 102.729 9.02145C102.654 8.93745 102.617 8.83012 102.617 8.69945C102.617 8.56879 102.654 8.45679 102.729 8.36345C102.813 8.26079 102.943 8.15812 103.121 8.05545C103.447 7.86879 103.816 7.72412 104.227 7.62145C104.647 7.50945 105.062 7.45345 105.473 7.45345ZM105.011 13.6415C105.571 13.6415 106.028 13.4548 106.383 13.0815C106.747 12.6988 106.929 12.2088 106.929 11.6115V11.2055H106.677C105.855 11.2055 105.23 11.2428 104.801 11.3175C104.371 11.3828 104.063 11.4995 103.877 11.6675C103.699 11.8261 103.611 12.0641 103.611 12.3815C103.611 12.7455 103.741 13.0488 104.003 13.2915C104.273 13.5248 104.609 13.6415 105.011 13.6415ZM112.925 14.5375C112.29 14.5375 111.725 14.3928 111.231 14.1035C110.745 13.8141 110.367 13.4035 110.097 12.8715C109.835 12.3395 109.705 11.7235 109.705 11.0235C109.705 10.3235 109.84 9.70279 110.111 9.16145C110.391 8.62012 110.778 8.20012 111.273 7.90145C111.767 7.60279 112.337 7.45345 112.981 7.45345C113.335 7.45345 113.685 7.50479 114.031 7.60745C114.385 7.70079 114.693 7.84079 114.955 8.02745C115.123 8.13945 115.239 8.25145 115.305 8.36345C115.379 8.46612 115.417 8.58279 115.417 8.71345C115.417 8.84412 115.379 8.95145 115.305 9.03545C115.239 9.11945 115.151 9.16145 115.039 9.16145C114.973 9.16145 114.903 9.14279 114.829 9.10545C114.754 9.06812 114.689 9.03079 114.633 8.99345C114.586 8.95612 114.553 8.93279 114.535 8.92345C114.292 8.76479 114.059 8.63879 113.835 8.54545C113.62 8.45212 113.354 8.40545 113.037 8.40545C112.355 8.40545 111.823 8.63879 111.441 9.10545C111.067 9.56279 110.881 10.2021 110.881 11.0235C110.881 11.8448 111.067 12.4795 111.441 12.9275C111.823 13.3755 112.355 13.5995 113.037 13.5995C113.354 13.5995 113.625 13.5528 113.849 13.4595C114.082 13.3661 114.315 13.2401 114.549 13.0815C114.651 13.0161 114.749 12.9601 114.843 12.9135C114.936 12.8668 115.015 12.8435 115.081 12.8435C115.183 12.8435 115.267 12.8855 115.333 12.9695C115.407 13.0535 115.445 13.1608 115.445 13.2915C115.445 13.4128 115.412 13.5248 115.347 13.6275C115.281 13.7208 115.16 13.8281 114.983 13.9495C114.721 14.1268 114.404 14.2715 114.031 14.3835C113.667 14.4861 113.298 14.5375 112.925 14.5375ZM122.256 13.5435C122.405 13.6835 122.48 13.8328 122.48 13.9915C122.48 14.1315 122.428 14.2528 122.326 14.3555C122.232 14.4581 122.116 14.5095 121.976 14.5095C121.854 14.5095 121.728 14.4535 121.598 14.3415L117.944 11.1915V13.9495C117.944 14.1268 117.888 14.2668 117.776 14.3695C117.673 14.4628 117.542 14.5095 117.384 14.5095C117.216 14.5095 117.076 14.4628 116.964 14.3695C116.861 14.2668 116.81 14.1268 116.81 13.9495V5.05945C116.81 4.88212 116.861 4.74679 116.964 4.65345C117.076 4.55079 117.216 4.49945 117.384 4.49945C117.542 4.49945 117.673 4.55079 117.776 4.65345C117.888 4.74679 117.944 4.88212 117.944 5.05945V10.7435L121.29 7.67745C121.402 7.56545 121.528 7.50945 121.668 7.50945C121.808 7.50945 121.929 7.56079 122.032 7.66345C122.134 7.76612 122.186 7.88745 122.186 8.02745C122.186 8.18612 122.12 8.32612 121.99 8.44745L119.232 10.9115L122.256 13.5435Z" fill="#274B89"/>
<path d="M13.8089 3.41218L12.0271 1.63036C11.7725 1.37582 11.3271 1.37582 11.0089 1.63036L10.1816 2.45763L12.9816 5.25763L13.8089 4.43036C14.0635 4.17581 14.0635 3.73036 13.8089 3.41218Z" fill="#274B89"/>
<path d="M0.933594 11.727L8.76276 3.89844L11.5526 6.68825L3.72277 14.5161L0.933594 11.727Z" fill="#274B89"/>
<path d="M12.9829 5.28332L11.588 6.67822L8.79883 3.88841L10.1937 2.49414L12.9829 5.28332Z" fill="#274B89"/>
<path d="M0.954544 11.75L0 15.4409L3.6909 14.4864L0.954544 11.75Z" fill="#274B89"/>
<path d="M0.445454 13.5312L0 15.4403L1.90909 14.9949L0.445454 13.5312Z" fill="#274B89"/>
</g>
</svg>
