<svg width="93" height="24" viewBox="0 0 93 24" fill="none" xmlns="http://www.w3.org/2000/svg">
<g clip-path="url(#clip0)">
<path d="M5.91124 14.5035L5.10913 17.6222L2.17743 17.6868C1.30129 15.9943 0.804321 14.0578 0.804321 12C0.804321 10.0101 1.26897 8.13362 2.0926 6.48132H2.09323L4.70326 6.9797L5.84661 9.68176C5.60731 10.4084 5.47688 11.1884 5.47688 12C5.47697 12.8809 5.63018 13.7249 5.91124 14.5035Z" fill="#FBBB00"/>
<path d="M23.6465 9.7583C23.7788 10.4842 23.8478 11.2339 23.8478 12.0001C23.8478 12.8592 23.7611 13.6972 23.5958 14.5056C23.035 17.2563 21.5694 19.6583 19.5392 21.3581L19.5386 21.3574L16.2511 21.1827L15.7858 18.1576C17.133 17.3348 18.1858 16.0471 18.7403 14.5056H12.5793V9.7583H18.8302H23.6465Z" fill="#518EF8"/>
<path d="M19.5385 21.3574L19.5392 21.358C17.5647 23.011 15.0564 24 12.3261 24C7.9383 24 4.12348 21.4457 2.17743 17.6868L5.91124 14.5035C6.88424 17.2081 9.38927 19.1334 12.3261 19.1334C13.5884 19.1334 14.771 18.778 15.7857 18.1576L19.5385 21.3574Z" fill="#28B446"/>
<path d="M19.6803 2.76262L15.9478 5.94525C14.8976 5.26153 13.6561 4.86656 12.3261 4.86656C9.3228 4.86656 6.77091 6.88017 5.84665 9.68175L2.09322 6.48131H2.09259C4.01015 2.63077 7.87308 0 12.3261 0C15.1217 0 17.6849 1.03716 19.6803 2.76262Z" fill="#F14336"/>
</g>
<path d="M48.09 11.776C48.3887 11.776 48.6233 11.8613 48.794 12.032C48.9753 12.192 49.066 12.416 49.066 12.704V15.824C49.066 16.2507 49.0287 16.5813 48.954 16.816C48.89 17.0507 48.7727 17.2373 48.602 17.376C48.4313 17.5147 48.1753 17.632 47.834 17.728C47.418 17.856 46.938 17.9573 46.394 18.032C45.8607 18.1067 45.354 18.144 44.874 18.144C43.6793 18.144 42.6447 17.9147 41.77 17.456C40.8953 16.9867 40.2233 16.32 39.754 15.456C39.2847 14.5813 39.05 13.5467 39.05 12.352C39.05 11.1787 39.2793 10.16 39.738 9.296C40.2073 8.42133 40.874 7.74933 41.738 7.28C42.602 6.81067 43.61 6.576 44.762 6.576C46.2447 6.576 47.4713 6.96 48.442 7.728C48.602 7.856 48.714 7.984 48.778 8.112C48.842 8.24 48.874 8.4 48.874 8.592C48.874 8.86933 48.794 9.10933 48.634 9.312C48.4847 9.504 48.3033 9.6 48.09 9.6C47.9513 9.6 47.8233 9.57867 47.706 9.536C47.5993 9.49333 47.466 9.424 47.306 9.328C46.858 9.05067 46.4473 8.85333 46.074 8.736C45.7007 8.61867 45.29 8.56 44.842 8.56C42.666 8.56 41.578 9.824 41.578 12.352C41.578 13.6533 41.8607 14.624 42.426 15.264C42.9913 15.904 43.8447 16.224 44.986 16.224C45.6047 16.224 46.218 16.144 46.826 15.984V13.504H45.354C45.0447 13.504 44.8047 13.4293 44.634 13.28C44.4633 13.1307 44.378 12.9173 44.378 12.64C44.378 12.3627 44.4633 12.1493 44.634 12C44.8047 11.8507 45.0447 11.776 45.354 11.776H48.09ZM54.7665 18.128C53.9345 18.128 53.2038 17.9627 52.5745 17.632C51.9452 17.2907 51.4598 16.816 51.1185 16.208C50.7772 15.5893 50.6065 14.864 50.6065 14.032C50.6065 13.2 50.7772 12.48 51.1185 11.872C51.4598 11.2533 51.9452 10.7787 52.5745 10.448C53.2038 10.1173 53.9345 9.952 54.7665 9.952C55.5985 9.952 56.3292 10.1173 56.9585 10.448C57.5878 10.7787 58.0732 11.2533 58.4145 11.872C58.7558 12.48 58.9265 13.2 58.9265 14.032C58.9265 14.864 58.7558 15.5893 58.4145 16.208C58.0732 16.816 57.5878 17.2907 56.9585 17.632C56.3292 17.9627 55.5985 18.128 54.7665 18.128ZM54.7665 16.288C55.9398 16.288 56.5265 15.536 56.5265 14.032C56.5265 13.2747 56.3718 12.7093 56.0625 12.336C55.7638 11.9627 55.3318 11.776 54.7665 11.776C53.5932 11.776 53.0065 12.528 53.0065 14.032C53.0065 15.536 53.5932 16.288 54.7665 16.288ZM64.1727 18.128C63.3408 18.128 62.6101 17.9627 61.9808 17.632C61.3514 17.2907 60.8661 16.816 60.5247 16.208C60.1834 15.5893 60.0128 14.864 60.0128 14.032C60.0128 13.2 60.1834 12.48 60.5247 11.872C60.8661 11.2533 61.3514 10.7787 61.9808 10.448C62.6101 10.1173 63.3408 9.952 64.1727 9.952C65.0048 9.952 65.7354 10.1173 66.3648 10.448C66.9941 10.7787 67.4794 11.2533 67.8208 11.872C68.1621 12.48 68.3328 13.2 68.3328 14.032C68.3328 14.864 68.1621 15.5893 67.8208 16.208C67.4794 16.816 66.9941 17.2907 66.3648 17.632C65.7354 17.9627 65.0048 18.128 64.1727 18.128ZM64.1727 16.288C65.3461 16.288 65.9328 15.536 65.9328 14.032C65.9328 13.2747 65.7781 12.7093 65.4688 12.336C65.1701 11.9627 64.7381 11.776 64.1727 11.776C62.9994 11.776 62.4128 12.528 62.4128 14.032C62.4128 15.536 62.9994 16.288 64.1727 16.288ZM76.619 9.984C76.9817 9.984 77.2697 10.0907 77.483 10.304C77.707 10.5067 77.819 10.7787 77.819 11.12V17.152C77.819 18.4213 77.451 19.3813 76.715 20.032C75.979 20.6827 74.9017 21.008 73.483 21.008C72.2883 21.008 71.307 20.7947 70.539 20.368C70.347 20.2613 70.1977 20.128 70.091 19.968C69.9843 19.8187 69.931 19.648 69.931 19.456C69.931 19.1893 69.995 18.9707 70.123 18.8C70.251 18.6293 70.4217 18.544 70.635 18.544C70.7523 18.544 70.891 18.5653 71.051 18.608C71.211 18.6613 71.3763 18.72 71.547 18.784C71.8883 18.912 72.203 19.0133 72.491 19.088C72.779 19.1627 73.0883 19.2 73.419 19.2C74.1017 19.2 74.6083 19.0453 74.939 18.736C75.2697 18.4267 75.435 17.9573 75.435 17.328V16.464C75.211 16.8693 74.875 17.1893 74.427 17.424C73.979 17.6587 73.4777 17.776 72.923 17.776C72.2403 17.776 71.6323 17.616 71.099 17.296C70.5763 16.976 70.1657 16.5227 69.867 15.936C69.5683 15.3387 69.419 14.6507 69.419 13.872C69.419 13.0933 69.5683 12.4107 69.867 11.824C70.1657 11.2267 70.5763 10.768 71.099 10.448C71.6323 10.1173 72.2403 9.952 72.923 9.952C73.467 9.952 73.9577 10.0693 74.395 10.304C74.843 10.528 75.1843 10.8427 75.419 11.248V11.088C75.419 10.7467 75.5257 10.48 75.739 10.288C75.963 10.0853 76.2563 9.984 76.619 9.984ZM73.627 15.936C74.1923 15.936 74.6297 15.7547 74.939 15.392C75.259 15.0293 75.419 14.5227 75.419 13.872C75.419 13.2213 75.259 12.7147 74.939 12.352C74.6297 11.9787 74.1923 11.792 73.627 11.792C73.0617 11.792 72.619 11.9787 72.299 12.352C71.979 12.7147 71.819 13.2213 71.819 13.872C71.819 14.5227 71.979 15.0293 72.299 15.392C72.619 15.7547 73.0617 15.936 73.627 15.936ZM80.894 18.096C80.542 18.096 80.2487 18 80.014 17.808C79.79 17.616 79.678 17.3333 79.678 16.96V7.776C79.678 7.40267 79.79 7.12 80.014 6.928C80.2487 6.736 80.542 6.64 80.894 6.64C81.2353 6.64 81.518 6.736 81.742 6.928C81.9767 7.12 82.094 7.40267 82.094 7.776V16.96C82.094 17.3333 81.9767 17.616 81.742 17.808C81.518 18 81.2353 18.096 80.894 18.096ZM90.2476 15.664C90.461 15.664 90.6316 15.7493 90.7596 15.92C90.8983 16.0907 90.9676 16.3093 90.9676 16.576C90.9676 16.7573 90.9143 16.928 90.8076 17.088C90.701 17.2373 90.5516 17.3653 90.3596 17.472C89.997 17.664 89.5756 17.824 89.0956 17.952C88.6156 18.0693 88.173 18.128 87.7676 18.128C86.9143 18.128 86.1676 17.9627 85.5276 17.632C84.8983 17.3013 84.413 16.832 84.0716 16.224C83.7303 15.6053 83.5596 14.88 83.5596 14.048C83.5596 13.248 83.725 12.5387 84.0556 11.92C84.3863 11.3013 84.845 10.8213 85.4316 10.48C86.0183 10.128 86.685 9.952 87.4316 9.952C88.1463 9.952 88.7703 10.112 89.3036 10.432C89.8476 10.7413 90.269 11.1893 90.5676 11.776C90.8663 12.352 91.0156 13.0293 91.0156 13.808C91.0156 14.0427 90.957 14.224 90.8396 14.352C90.733 14.4693 90.5783 14.528 90.3756 14.528H85.8956C85.9703 15.1573 86.1623 15.616 86.4716 15.904C86.781 16.1813 87.2236 16.32 87.7996 16.32C88.109 16.32 88.3863 16.2827 88.6316 16.208C88.877 16.1333 89.149 16.032 89.4476 15.904C89.597 15.84 89.741 15.7867 89.8796 15.744C90.0183 15.6907 90.141 15.664 90.2476 15.664ZM87.4956 11.616C87.037 11.616 86.669 11.7653 86.3916 12.064C86.1143 12.352 85.949 12.7733 85.8956 13.328H88.9836C88.9516 12.7627 88.8076 12.336 88.5516 12.048C88.3063 11.76 87.9543 11.616 87.4956 11.616Z" fill="black"/>
<defs>
<clipPath id="clip0">
<rect width="23.0435" height="24" fill="white" transform="translate(0.804321)"/>
</clipPath>
</defs>
</svg>
