<svg width="15" height="15" viewBox="0 0 15 15" fill="none" xmlns="http://www.w3.org/2000/svg">
<path d="M8.0526 1.58244C7.83635 1.17369 7.16385 1.17369 6.9476 1.58244L1.3226 12.2074C1.27196 12.3027 1.24686 12.4094 1.24973 12.5172C1.25261 12.625 1.28337 12.7303 1.339 12.8227C1.39464 12.9151 1.47327 12.9915 1.56722 13.0444C1.66117 13.0974 1.76724 13.1252 1.8751 13.1249H13.1251C13.2329 13.1252 13.3389 13.0975 13.4328 13.0445C13.5266 12.9916 13.6052 12.9152 13.6608 12.8229C13.7164 12.7305 13.7471 12.6253 13.7499 12.5176C13.7528 12.4099 13.7276 12.3032 13.677 12.2081L8.0526 1.58244ZM8.12509 11.2499H6.8751V9.99994H8.12509V11.2499ZM6.8751 8.74994V5.62494H8.12509L8.12572 8.74994H6.8751Z" fill="#274B89"/>
</svg>
