<svg width="28" height="29" viewBox="0 0 28 29" fill="none" xmlns="http://www.w3.org/2000/svg">
<circle cx="14" cy="14.686" r="14" fill="#EBF2FC"/>
<path d="M12.4 10.6862C12.4002 11.2535 12.1994 11.8025 11.8333 12.2358C11.4672 12.6692 10.9594 12.9588 10.4 13.0534V16.319C10.9934 16.4192 11.5274 16.7388 11.8963 17.2143C12.2651 17.6897 12.4419 18.2864 12.3916 18.8861C12.3413 19.4858 12.0675 20.0446 11.6245 20.452C11.1816 20.8593 10.6018 21.0854 10 21.0854C9.39822 21.0854 8.8184 20.8593 8.37545 20.452C7.93249 20.0446 7.65873 19.4858 7.6084 18.8861C7.55808 18.2864 7.73487 17.6897 8.10374 17.2143C8.47261 16.7388 9.00664 16.4192 9.6 16.319V13.0542C9.14889 12.9779 8.72897 12.7743 8.38973 12.4673C8.05048 12.1604 7.80604 11.7628 7.68521 11.3216C7.56438 10.8803 7.57219 10.4137 7.70773 9.97673C7.84326 9.53976 8.10087 9.15063 8.4502 8.85519C8.79954 8.55976 9.22603 8.37033 9.67944 8.30922C10.1329 8.24811 10.5943 8.31788 11.0094 8.51029C11.4244 8.7027 11.7759 9.00975 12.0223 9.39525C12.2686 9.78075 12.3997 10.2286 12.4 10.6862ZM15.4832 12.1693C15.446 12.2066 15.4019 12.2362 15.3533 12.2563C15.3047 12.2765 15.2526 12.2869 15.2 12.2869C15.1474 12.2869 15.0953 12.2765 15.0467 12.2563C14.9981 12.2362 14.954 12.2066 14.9168 12.1693L13.3168 10.5694C13.2795 10.5322 13.25 10.4881 13.2298 10.4395C13.2097 10.3909 13.1993 10.3388 13.1993 10.2861C13.1993 10.2335 13.2097 10.1814 13.2298 10.1328C13.25 10.0842 13.2795 10.0401 13.3168 10.0029L14.9168 8.40295C14.9919 8.32784 15.0938 8.28564 15.2 8.28564C15.3062 8.28564 15.4081 8.32784 15.4832 8.40295C15.5583 8.47806 15.6005 8.57993 15.6005 8.68615C15.6005 8.79237 15.5583 8.89424 15.4832 8.96935L14.5656 9.88615H16C16.7426 9.88615 17.4548 10.1811 17.9799 10.7063C18.505 11.2314 18.8 11.9435 18.8 12.6862V16.4222C19.3674 16.6217 19.8392 17.027 20.1221 17.5578C20.405 18.0886 20.4783 18.7063 20.3276 19.2886C20.1769 19.8709 19.8131 20.3754 19.3082 20.7023C18.8033 21.0291 18.194 21.1546 17.6011 21.0538C17.0081 20.953 16.4745 20.6333 16.106 20.1579C15.7375 19.6825 15.5608 19.0861 15.611 18.4868C15.6611 17.8874 15.9345 17.3286 16.3769 16.9211C16.8193 16.5136 17.3985 16.287 18 16.2861V12.6862C18 12.1557 17.7893 11.647 17.4142 11.2719C17.0391 10.8969 16.5304 10.6862 16 10.6862H14.5656L15.4832 11.6029C15.5204 11.6401 15.55 11.6842 15.5702 11.7328C15.5903 11.7814 15.6007 11.8335 15.6007 11.8861C15.6007 11.9388 15.5903 11.9909 15.5702 12.0395C15.55 12.0881 15.5204 12.1322 15.4832 12.1693Z" fill="#274B89"/>
</svg>
