<svg width="162" height="41" viewBox="0 0 162 41" fill="none" xmlns="http://www.w3.org/2000/svg">
<rect x="1.18066" y="0.5" width="160.319" height="40" rx="3.5" fill="#ECF7FF" stroke="#F6F6F6"/>
<path d="M84.5362 25.06C84.3842 25.06 84.2642 25.016 84.1762 24.928C84.0882 24.832 84.0442 24.708 84.0442 24.556V16.984C84.0442 16.832 84.0882 16.712 84.1762 16.624C84.2642 16.528 84.3842 16.48 84.5362 16.48C84.6882 16.48 84.8082 16.528 84.8962 16.624C84.9842 16.712 85.0282 16.832 85.0282 16.984V24.556C85.0282 24.708 84.9842 24.832 84.8962 24.928C84.8082 25.016 84.6882 25.06 84.5362 25.06ZM89.9106 19.012C91.3106 19.012 92.0106 19.784 92.0106 21.328V24.58C92.0106 24.732 91.9666 24.852 91.8786 24.94C91.7986 25.02 91.6826 25.06 91.5306 25.06C91.3786 25.06 91.2586 25.02 91.1706 24.94C91.0826 24.852 91.0386 24.732 91.0386 24.58V21.388C91.0386 20.844 90.9306 20.448 90.7146 20.2C90.5066 19.952 90.1706 19.828 89.7066 19.828C89.1706 19.828 88.7426 19.992 88.4226 20.32C88.1026 20.648 87.9426 21.092 87.9426 21.652V24.58C87.9426 24.732 87.8986 24.852 87.8106 24.94C87.7306 25.02 87.6146 25.06 87.4626 25.06C87.3106 25.06 87.1906 25.02 87.1026 24.94C87.0146 24.852 86.9706 24.732 86.9706 24.58V19.516C86.9706 19.372 87.0146 19.256 87.1026 19.168C87.1906 19.08 87.3106 19.036 87.4626 19.036C87.6066 19.036 87.7186 19.08 87.7986 19.168C87.8866 19.256 87.9306 19.368 87.9306 19.504V20.116C88.1226 19.756 88.3906 19.484 88.7346 19.3C89.0786 19.108 89.4706 19.012 89.9106 19.012ZM96.3709 17.308C95.9469 17.34 95.6269 17.476 95.4109 17.716C95.1949 17.948 95.0869 18.3 95.0869 18.772V19.156H96.4189C96.5549 19.156 96.6589 19.192 96.7309 19.264C96.8029 19.336 96.8389 19.432 96.8389 19.552C96.8389 19.672 96.8029 19.764 96.7309 19.828C96.6589 19.892 96.5549 19.924 96.4189 19.924H95.0869V24.58C95.0869 24.732 95.0389 24.852 94.9429 24.94C94.8549 25.02 94.7429 25.06 94.6069 25.06C94.4629 25.06 94.3429 25.02 94.2469 24.94C94.1589 24.852 94.1149 24.732 94.1149 24.58V19.924H93.3109C93.1749 19.924 93.0669 19.892 92.9869 19.828C92.9149 19.756 92.8789 19.664 92.8789 19.552C92.8789 19.432 92.9149 19.336 92.9869 19.264C93.0669 19.192 93.1749 19.156 93.3109 19.156H94.1149V18.94C94.1149 18.22 94.2949 17.656 94.6549 17.248C95.0149 16.832 95.5309 16.6 96.2029 16.552L96.5149 16.528C96.7229 16.512 96.8709 16.532 96.9589 16.588C97.0549 16.644 97.1029 16.744 97.1029 16.888C97.1029 17.12 96.9629 17.252 96.6829 17.284L96.3709 17.308ZM100.094 25.084C99.5418 25.084 99.0538 24.96 98.6298 24.712C98.2138 24.464 97.8898 24.112 97.6578 23.656C97.4338 23.192 97.3218 22.656 97.3218 22.048C97.3218 21.44 97.4338 20.908 97.6578 20.452C97.8898 19.988 98.2138 19.632 98.6298 19.384C99.0538 19.136 99.5418 19.012 100.094 19.012C100.646 19.012 101.134 19.136 101.558 19.384C101.982 19.632 102.306 19.988 102.53 20.452C102.762 20.908 102.878 21.44 102.878 22.048C102.878 22.656 102.762 23.192 102.53 23.656C102.306 24.112 101.982 24.464 101.558 24.712C101.134 24.96 100.646 25.084 100.094 25.084ZM100.094 24.28C100.67 24.28 101.11 24.092 101.414 23.716C101.726 23.332 101.882 22.776 101.882 22.048C101.882 21.336 101.726 20.788 101.414 20.404C101.102 20.012 100.662 19.816 100.094 19.816C99.5258 19.816 99.0858 20.012 98.7738 20.404C98.4618 20.788 98.3058 21.336 98.3058 22.048C98.3058 22.768 98.4578 23.32 98.7618 23.704C99.0738 24.088 99.5178 24.28 100.094 24.28Z" fill="#274B89"/>
<path d="M67.0002 30V28C67.0002 26.9391 66.5261 25.9217 65.6822 25.1716C64.8383 24.4214 63.6937 24 62.5002 24H53.5002C52.3068 24 51.1622 24.4214 50.3183 25.1716C49.4743 25.9217 49.0002 26.9391 49.0002 28V30" stroke="#274B89" stroke-width="2" stroke-linecap="round" stroke-linejoin="round"/>
<path d="M58.0002 20C60.4855 20 62.5002 18.2091 62.5002 16C62.5002 13.7909 60.4855 12 58.0002 12C55.515 12 53.5002 13.7909 53.5002 16C53.5002 18.2091 55.515 20 58.0002 20Z" stroke="#274B89" stroke-width="2" stroke-linecap="round" stroke-linejoin="round"/>
</svg>
