<svg width="31" height="31" viewBox="0 0 31 31" fill="none" xmlns="http://www.w3.org/2000/svg">
<circle cx="15.5" cy="15.5" r="15.5" fill="#ECF7FF"/>
<g clip-path="url(#clip0)">
<path d="M23.1875 16.9688L25.5313 19.2813L15.125 24.25C15.125 24.25 13.75 24.875 13.0938 23.875C10.5313 19.875 23.1875 16.9688 23.1875 16.9688Z" fill="#256382"/>
<path d="M14.875 21.3438C14.875 21.3438 12.875 22.0312 13.25 23.375C13.625 24.75 15.2187 23.9062 15.2187 23.9062L25.0937 19.3125C25.0937 19.3125 24.5312 17.8438 25.5312 16.875L14.875 21.3438Z" fill="#D9E3E8"/>
<path d="M16.5313 7.5625L26 16.7812L14.8125 21.1562L7.62503 9.96875L16.5313 7.5625Z" fill="#42ADE2"/>
<path d="M16.8125 9.65625L18.625 11.5938L11.8438 14.0313L10.25 11.5625L16.8125 9.65625Z" fill="white"/>
<path d="M25.0626 17.875L18.4688 20.5625L24.9688 17.5938L25.0626 17.875Z" fill="#94989B"/>
<path d="M24.9688 18.6875L17.9375 21.5938L24.8438 18.375L24.9688 18.6875Z" fill="#94989B"/>
<path d="M25.0313 19.125L16.0625 23.0312L24.9063 18.8438L25.0313 19.125Z" fill="#94989B"/>
<path d="M13.0938 23.875C12 21.5938 14.8125 21.1875 14.8125 21.1875L7.625 9.96879C7.625 9.96879 6 9.93754 6 11.625C6 12.3125 6.3125 12.8438 6.3125 12.8438L13.0938 23.875Z" fill="#428BC1"/>
</g>
<defs>
<clipPath id="clip0">
<rect width="20" height="20" fill="white" transform="translate(6 6)"/>
</clipPath>
</defs>
</svg>
