<svg width="17" height="18" viewBox="0 0 17 18" fill="none" xmlns="http://www.w3.org/2000/svg">
<path d="M12.4667 17.9819C11.9354 17.994 10.6132 18 8.5 18C6.38681 18 5.06458 17.994 4.53333 17.9819C3.03403 17.9456 1.90365 17.8429 1.14219 17.6737C0.380729 17.5045 0 17.2205 0 16.8218C0 16.5801 0.118056 16.0937 0.354167 15.3625C0.590278 14.6314 0.85 13.864 1.13333 13.0604C1.41667 12.2568 1.67639 11.3323 1.9125 10.287C2.14861 9.24169 2.26667 8.32628 2.26667 7.54079C2.26667 5.22054 4.34444 4.06042 8.5 4.06042C12.6556 4.06042 14.7333 5.22054 14.7333 7.54079C14.7333 8.32628 14.8514 9.24169 15.0875 10.287C15.3236 11.3323 15.5833 12.2568 15.8667 13.0604C16.15 13.864 16.4097 14.6314 16.6458 15.3625C16.8819 16.0937 17 16.5801 17 16.8218C17 17.2205 16.6193 17.5045 15.8578 17.6737C15.0964 17.8429 13.966 17.9456 12.4667 17.9819ZM8.5 8.12085C9.30278 8.12085 9.97274 8.21752 10.5099 8.41088C11.047 8.60423 11.3215 8.88822 11.3333 9.26284V9.28097C11.3333 9.43807 11.3894 9.57402 11.5016 9.68882C11.6137 9.80363 11.7465 9.86103 11.9 9.86103C12.0535 9.86103 12.1863 9.80363 12.2984 9.68882C12.4106 9.57402 12.4667 9.43807 12.4667 9.28097C12.4667 7.86707 11.3333 7.0997 9.06667 6.97885V6.38066C9.06667 6.22357 9.01059 6.08761 8.89844 5.97281C8.78628 5.85801 8.65347 5.8006 8.5 5.8006C8.34653 5.8006 8.21372 5.85801 8.10156 5.97281C7.98941 6.08761 7.93333 6.22357 7.93333 6.38066V6.97885C5.66667 7.0997 4.53333 7.86707 4.53333 9.28097C4.53333 9.54683 4.5717 9.77643 4.64844 9.96979C4.72517 10.1631 4.84913 10.3233 5.02031 10.4502C5.19149 10.577 5.37743 10.6798 5.57812 10.7583C5.77882 10.8369 6.04444 10.8943 6.375 10.9305C6.70556 10.9668 7.02431 10.9909 7.33125 11.003C7.63819 11.0151 8.02778 11.0211 8.5 11.0211C9.31458 11.0211 9.99045 11.1208 10.5276 11.3202C11.0648 11.5196 11.3333 11.8066 11.3333 12.1813C11.3333 12.5559 11.0648 12.8429 10.5276 13.0423C9.99045 13.2417 9.31458 13.3414 8.5 13.3414C7.69722 13.3414 7.02726 13.2447 6.4901 13.0514C5.95295 12.858 5.67847 12.574 5.66667 12.1994V12.1813C5.66667 12.0242 5.61059 11.8882 5.49844 11.7734C5.38628 11.6586 5.25347 11.6012 5.1 11.6012C4.94653 11.6012 4.81372 11.6586 4.70156 11.7734C4.58941 11.8882 4.53333 12.0242 4.53333 12.1813C4.53333 13.5952 5.66667 14.3625 7.93333 14.4834V15.0816C7.93333 15.2387 7.98941 15.3746 8.10156 15.4894C8.21372 15.6042 8.34653 15.6616 8.5 15.6616C8.65347 15.6616 8.78628 15.6042 8.89844 15.4894C9.01059 15.3746 9.06667 15.2387 9.06667 15.0816V14.4834C11.3333 14.3625 12.4667 13.5952 12.4667 12.1813C12.4667 10.6344 11.1444 9.86103 8.5 9.86103C8.33472 9.86103 8.12813 9.86405 7.88021 9.87009C7.63229 9.87613 7.4316 9.88218 7.27812 9.88822C7.12465 9.89426 6.95347 9.89426 6.76458 9.88822C6.57569 9.88218 6.42222 9.86707 6.30417 9.8429C6.18611 9.81873 6.07396 9.7855 5.96771 9.7432C5.86146 9.70091 5.78472 9.64048 5.7375 9.56193C5.69028 9.48338 5.66667 9.38973 5.66667 9.28097C5.66667 8.90634 5.93819 8.61934 6.48125 8.41994C7.02431 8.22054 7.69722 8.12085 8.5 8.12085ZM8.5 2.9003C7.79167 2.9003 7.14236 2.93656 6.55208 3.00906C6.30417 2.50151 6.09462 2.00906 5.92344 1.53172C5.75226 1.05438 5.66667 0.73716 5.66667 0.58006C5.66667 0.386707 5.82014 0.193353 6.12708 0C6.41042 0.169184 6.77049 0.308157 7.20729 0.416918C7.6441 0.52568 8.075 0.58006 8.5 0.58006C8.925 0.58006 9.3559 0.52568 9.79271 0.416918C10.2295 0.308157 10.5896 0.169184 10.8729 0C11.1799 0.193353 11.3333 0.386707 11.3333 0.58006C11.3333 0.73716 11.2477 1.05438 11.0766 1.53172C10.9054 2.00906 10.6958 2.50151 10.4479 3.00906C9.85764 2.93656 9.20833 2.9003 8.5 2.9003Z" fill="#929AA7"/>
</svg>
