<svg width="22" height="22" viewBox="0 0 22 22" fill="none" xmlns="http://www.w3.org/2000/svg">
<path d="M10.6453 7.09676C8.68479 7.09676 7.09688 8.68467 7.09688 10.6452C7.09688 12.6056 8.68479 14.1935 10.6453 14.1935C12.6058 14.1935 14.1937 12.6056 14.1937 10.6452C14.1937 8.68467 12.6058 7.09676 10.6453 7.09676ZM18.5759 9.75805C18.375 7.95913 17.5683 6.282 16.2884 5.00206C15.0084 3.72211 13.3313 2.91544 11.5324 2.7145V0.887085H9.75817V2.7145C7.95925 2.91544 6.28212 3.72211 5.00218 5.00206C3.72223 6.282 2.91556 7.95913 2.71463 9.75805H0.887207V11.5322H2.71463C2.91556 13.3312 3.72223 15.0083 5.00218 16.2882C6.28212 17.5682 7.95925 18.3749 9.75817 18.5758V20.4032H11.5324V18.5758C13.3313 18.3749 15.0084 17.5682 16.2884 16.2882C17.5683 15.0083 18.375 13.3312 18.5759 11.5322H20.4033V9.75805H18.5759ZM10.6453 16.8548C7.21221 16.8548 4.43559 14.0782 4.43559 10.6452C4.43559 7.21209 7.21221 4.43547 10.6453 4.43547C14.0783 4.43547 16.8549 7.21209 16.8549 10.6452C16.8549 14.0782 14.0783 16.8548 10.6453 16.8548Z" fill="#274B89"/>
</svg>
