<svg width="249" height="16" viewBox="0 0 249 16" fill="none" xmlns="http://www.w3.org/2000/svg">
<path d="M8.00065 14.6673C11.6825 14.6673 14.6673 11.6825 14.6673 8.00065C14.6673 4.31875 11.6825 1.33398 8.00065 1.33398C4.31875 1.33398 1.33398 4.31875 1.33398 8.00065C1.33398 11.6825 4.31875 14.6673 8.00065 14.6673Z" stroke="#274B89" stroke-linecap="round" stroke-linejoin="round"/>
<path d="M8 5.33398V8.00065" stroke="#274B89" stroke-linecap="round" stroke-linejoin="round"/>
<path d="M8 10.666H8.01" stroke="#274B89" stroke-linecap="round" stroke-linejoin="round"/>
<path d="M27.99 11.05C27.8633 11.05 27.76 11.0133 27.68 10.94C27.6067 10.86 27.57 10.7567 27.57 10.63V4.65H25.42C25.3 4.65 25.2067 4.62 25.14 4.56C25.0733 4.5 25.04 4.41333 25.04 4.3C25.04 4.18667 25.0733 4.1 25.14 4.04C25.2067 3.98 25.3 3.95 25.42 3.95H30.55C30.67 3.95 30.7633 3.98 30.83 4.04C30.8967 4.1 30.93 4.18667 30.93 4.3C30.93 4.41333 30.8967 4.5 30.83 4.56C30.7633 4.62 30.67 4.65 30.55 4.65H28.4V10.63C28.4 10.7567 28.3633 10.86 28.29 10.94C28.2167 11.0133 28.1167 11.05 27.99 11.05ZM32.9548 6.01C34.1748 6.01 34.7848 6.65 34.7848 7.93V10.65C34.7848 10.77 34.7482 10.8667 34.6748 10.94C34.6082 11.0133 34.5148 11.05 34.3948 11.05C34.2748 11.05 34.1782 11.0133 34.1048 10.94C34.0315 10.8667 33.9948 10.77 33.9948 10.65V10.17C33.8682 10.4567 33.6748 10.68 33.4148 10.84C33.1548 10.9933 32.8548 11.07 32.5148 11.07C32.2015 11.07 31.9115 11.0067 31.6448 10.88C31.3848 10.7533 31.1782 10.5767 31.0248 10.35C30.8715 10.1233 30.7948 9.87333 30.7948 9.6C30.7948 9.23333 30.8882 8.95 31.0748 8.75C31.2615 8.54333 31.5682 8.39667 31.9948 8.31C32.4215 8.21667 33.0148 8.17 33.7748 8.17H33.9948V7.84C33.9948 7.44 33.9115 7.14667 33.7448 6.96C33.5848 6.77333 33.3215 6.68 32.9548 6.68C32.5015 6.68 32.0415 6.80333 31.5748 7.05C31.3948 7.16333 31.2682 7.22 31.1948 7.22C31.1148 7.22 31.0482 7.19 30.9948 7.13C30.9415 7.07 30.9148 6.99333 30.9148 6.9C30.9148 6.80667 30.9415 6.72667 30.9948 6.66C31.0548 6.58667 31.1482 6.51333 31.2748 6.44C31.5082 6.30667 31.7715 6.20333 32.0648 6.13C32.3648 6.05 32.6615 6.01 32.9548 6.01ZM32.6248 10.43C33.0248 10.43 33.3515 10.2967 33.6048 10.03C33.8648 9.75667 33.9948 9.40667 33.9948 8.98V8.69H33.8148C33.2282 8.69 32.7815 8.71667 32.4748 8.77C32.1682 8.81667 31.9482 8.9 31.8148 9.02C31.6882 9.13333 31.6248 9.30333 31.6248 9.53C31.6248 9.79 31.7182 10.0067 31.9048 10.18C32.0982 10.3467 32.3382 10.43 32.6248 10.43ZM38.7176 6.01C39.1442 6.01 39.5209 6.11667 39.8476 6.33C40.1742 6.54333 40.4276 6.84333 40.6076 7.23C40.7876 7.61 40.8776 8.05333 40.8776 8.56C40.8776 9.06667 40.7876 9.51 40.6076 9.89C40.4276 10.2633 40.1742 10.5533 39.8476 10.76C39.5276 10.9667 39.1509 11.07 38.7176 11.07C38.3376 11.07 38.0042 10.9867 37.7176 10.82C37.4376 10.6533 37.2242 10.4167 37.0776 10.11V12.46C37.0776 12.58 37.0409 12.6733 36.9676 12.74C36.9009 12.8133 36.8042 12.85 36.6776 12.85C36.5509 12.85 36.4509 12.8133 36.3776 12.74C36.3042 12.6667 36.2676 12.5733 36.2676 12.46V6.43C36.2676 6.31 36.3042 6.21333 36.3776 6.14C36.4509 6.06667 36.5509 6.03 36.6776 6.03C36.8042 6.03 36.9009 6.06667 36.9676 6.14C37.0409 6.21333 37.0776 6.31 37.0776 6.43V6.97C37.2242 6.66333 37.4376 6.42667 37.7176 6.26C38.0042 6.09333 38.3376 6.01 38.7176 6.01ZM38.5576 10.4C39.0309 10.4 39.3976 10.24 39.6576 9.92C39.9176 9.6 40.0476 9.14667 40.0476 8.56C40.0476 7.97333 39.9176 7.51667 39.6576 7.19C39.3976 6.85667 39.0309 6.69 38.5576 6.69C38.0842 6.69 37.7176 6.85 37.4576 7.17C37.2042 7.49 37.0776 7.94667 37.0776 8.54C37.0776 9.13333 37.2042 9.59333 37.4576 9.92C37.7176 10.24 38.0842 10.4 38.5576 10.4ZM45.076 11.05C44.956 11.05 44.856 11.0167 44.776 10.95C44.7027 10.8767 44.666 10.7767 44.666 10.65V4.3C44.666 4.17333 44.7027 4.07667 44.776 4.01C44.856 3.93667 44.956 3.9 45.076 3.9C45.1893 3.9 45.2827 3.93667 45.356 4.01C45.436 4.07667 45.476 4.17333 45.476 4.3V10.65C45.476 10.7767 45.436 10.8767 45.356 10.95C45.2827 11.0167 45.1893 11.05 45.076 11.05ZM49.0102 11.07C48.5502 11.07 48.1436 10.9667 47.7902 10.76C47.4436 10.5533 47.1736 10.26 46.9802 9.88C46.7936 9.49333 46.7002 9.04667 46.7002 8.54C46.7002 8.03333 46.7936 7.59 46.9802 7.21C47.1736 6.82333 47.4436 6.52667 47.7902 6.32C48.1436 6.11333 48.5502 6.01 49.0102 6.01C49.4702 6.01 49.8769 6.11333 50.2302 6.32C50.5836 6.52667 50.8536 6.82333 51.0402 7.21C51.2336 7.59 51.3302 8.03333 51.3302 8.54C51.3302 9.04667 51.2336 9.49333 51.0402 9.88C50.8536 10.26 50.5836 10.5533 50.2302 10.76C49.8769 10.9667 49.4702 11.07 49.0102 11.07ZM49.0102 10.4C49.4902 10.4 49.8569 10.2433 50.1102 9.93C50.3702 9.61 50.5002 9.14667 50.5002 8.54C50.5002 7.94667 50.3702 7.49 50.1102 7.17C49.8502 6.84333 49.4836 6.68 49.0102 6.68C48.5369 6.68 48.1702 6.84333 47.9102 7.17C47.6502 7.49 47.5202 7.94667 47.5202 8.54C47.5202 9.14 47.6469 9.6 47.9002 9.92C48.1602 10.24 48.5302 10.4 49.0102 10.4ZM56.4871 6.03C56.6138 6.03 56.7138 6.06667 56.7871 6.14C56.8604 6.21333 56.8971 6.31 56.8971 6.43V10.67C56.8971 11.3967 56.7104 11.9433 56.3371 12.31C55.9638 12.6833 55.4104 12.87 54.6771 12.87C53.9638 12.87 53.3704 12.73 52.8971 12.45C52.6571 12.3167 52.5371 12.1633 52.5371 11.99C52.5371 11.8967 52.5604 11.82 52.6071 11.76C52.6604 11.7 52.7271 11.67 52.8071 11.67C52.8738 11.67 52.9938 11.7167 53.1671 11.81C53.4004 11.93 53.6304 12.0267 53.8571 12.1C54.0838 12.1733 54.3538 12.21 54.6671 12.21C55.1404 12.21 55.4971 12.0833 55.7371 11.83C55.9771 11.5833 56.0971 11.22 56.0971 10.74V9.88C55.9571 10.1933 55.7404 10.4333 55.4471 10.6C55.1604 10.7667 54.8204 10.85 54.4271 10.85C54.0004 10.85 53.6204 10.75 53.2871 10.55C52.9604 10.35 52.7038 10.0667 52.5171 9.7C52.3371 9.33333 52.2471 8.91 52.2471 8.43C52.2471 7.95 52.3371 7.52667 52.5171 7.16C52.7038 6.79333 52.9604 6.51 53.2871 6.31C53.6204 6.11 54.0004 6.01 54.4271 6.01C54.8138 6.01 55.1504 6.09333 55.4371 6.26C55.7238 6.42667 55.9404 6.66333 56.0871 6.97V6.43C56.0871 6.31 56.1204 6.21333 56.1871 6.14C56.2604 6.06667 56.3604 6.03 56.4871 6.03ZM54.5871 10.18C55.0538 10.18 55.4204 10.0267 55.6871 9.72C55.9538 9.40667 56.0871 8.97667 56.0871 8.43C56.0871 7.89 55.9538 7.46667 55.6871 7.16C55.4271 6.84667 55.0604 6.69 54.5871 6.69C54.1138 6.69 53.7404 6.84667 53.4671 7.16C53.2004 7.46667 53.0671 7.89 53.0671 8.43C53.0671 8.97667 53.2004 9.40667 53.4671 9.72C53.7404 10.0267 54.1138 10.18 54.5871 10.18ZM58.8065 11.05C58.6865 11.05 58.5865 11.0167 58.5065 10.95C58.4332 10.8767 58.3965 10.7767 58.3965 10.65V6.43C58.3965 6.30333 58.4332 6.20667 58.5065 6.14C58.5865 6.06667 58.6865 6.03 58.8065 6.03C58.9265 6.03 59.0232 6.06667 59.0965 6.14C59.1698 6.20667 59.2065 6.30333 59.2065 6.43V10.65C59.2065 10.7833 59.1698 10.8833 59.0965 10.95C59.0232 11.0167 58.9265 11.05 58.8065 11.05ZM58.8065 4.98C58.6465 4.98 58.5165 4.93333 58.4165 4.84C58.3165 4.74667 58.2665 4.62333 58.2665 4.47C58.2665 4.32333 58.3165 4.20333 58.4165 4.11C58.5165 4.01667 58.6465 3.97 58.8065 3.97C58.9665 3.97 59.0965 4.01667 59.1965 4.11C59.2965 4.20333 59.3465 4.32333 59.3465 4.47C59.3465 4.62333 59.2965 4.74667 59.1965 4.84C59.0965 4.93333 58.9665 4.98 58.8065 4.98ZM62.3607 11.07C62.054 11.07 61.7607 11.0333 61.4807 10.96C61.2074 10.8867 60.964 10.7833 60.7507 10.65C60.6307 10.57 60.544 10.4967 60.4907 10.43C60.444 10.3567 60.4207 10.27 60.4207 10.17C60.4207 10.0833 60.444 10.0133 60.4907 9.96C60.544 9.9 60.6107 9.87 60.6907 9.87C60.7707 9.87 60.8874 9.92 61.0407 10.02C61.2407 10.14 61.4374 10.2367 61.6307 10.31C61.8307 10.3767 62.0774 10.41 62.3707 10.41C62.7307 10.41 63.0107 10.3467 63.2107 10.22C63.4107 10.0933 63.5107 9.91 63.5107 9.67C63.5107 9.52333 63.474 9.40667 63.4007 9.32C63.3274 9.22667 63.2007 9.14667 63.0207 9.08C62.8407 9.00667 62.5774 8.93333 62.2307 8.86C61.644 8.73333 61.224 8.56333 60.9707 8.35C60.7174 8.13667 60.5907 7.84667 60.5907 7.48C60.5907 7.19333 60.6707 6.94 60.8307 6.72C60.9907 6.5 61.2107 6.32667 61.4907 6.2C61.7774 6.07333 62.1007 6.01 62.4607 6.01C62.7207 6.01 62.9707 6.04667 63.2107 6.12C63.4574 6.18667 63.674 6.28333 63.8607 6.41C64.0874 6.57 64.2007 6.73667 64.2007 6.91C64.2007 6.99667 64.174 7.07 64.1207 7.13C64.0674 7.19 64.004 7.22 63.9307 7.22C63.8507 7.22 63.7307 7.16333 63.5707 7.05C63.384 6.93 63.2074 6.83667 63.0407 6.77C62.874 6.70333 62.6674 6.67 62.4207 6.67C62.1074 6.67 61.854 6.74 61.6607 6.88C61.474 7.02 61.3807 7.20667 61.3807 7.44C61.3807 7.58667 61.414 7.70667 61.4807 7.8C61.554 7.88667 61.6707 7.96667 61.8307 8.04C61.9974 8.10667 62.234 8.17333 62.5407 8.24C62.994 8.34 63.344 8.45 63.5907 8.57C63.844 8.69 64.024 8.83667 64.1307 9.01C64.2374 9.18333 64.2907 9.40333 64.2907 9.67C64.2907 10.09 64.114 10.43 63.7607 10.69C63.4074 10.9433 62.9407 11.07 62.3607 11.07ZM67.7266 10.41C67.9599 10.43 68.0766 10.5367 68.0766 10.73C68.0766 10.8433 68.0332 10.93 67.9466 10.99C67.8666 11.0433 67.7432 11.0633 67.5766 11.05L67.3066 11.03C66.7732 10.99 66.3799 10.83 66.1266 10.55C65.8732 10.27 65.7466 9.84667 65.7466 9.28V6.77H65.0766C64.9632 6.77 64.8732 6.74333 64.8066 6.69C64.7466 6.63 64.7166 6.55333 64.7166 6.46C64.7166 6.36 64.7466 6.28 64.8066 6.22C64.8732 6.16 64.9632 6.13 65.0766 6.13H65.7466V5C65.7466 4.87333 65.7832 4.77667 65.8566 4.71C65.9299 4.63667 66.0299 4.6 66.1566 4.6C66.2766 4.6 66.3732 4.63667 66.4466 4.71C66.5199 4.77667 66.5566 4.87333 66.5566 5V6.13H67.6666C67.7732 6.13 67.8566 6.16 67.9166 6.22C67.9832 6.28 68.0166 6.36 68.0166 6.46C68.0166 6.55333 67.9832 6.63 67.9166 6.69C67.8566 6.74333 67.7732 6.77 67.6666 6.77H66.5566V9.32C66.5566 9.68667 66.6299 9.95333 66.7766 10.12C66.9299 10.28 67.1566 10.37 67.4566 10.39L67.7266 10.41ZM69.285 11.05C69.165 11.05 69.065 11.0167 68.985 10.95C68.9117 10.8767 68.875 10.7767 68.875 10.65V6.43C68.875 6.30333 68.9117 6.20667 68.985 6.14C69.065 6.06667 69.165 6.03 69.285 6.03C69.405 6.03 69.5017 6.06667 69.575 6.14C69.6483 6.20667 69.685 6.30333 69.685 6.43V10.65C69.685 10.7833 69.6483 10.8833 69.575 10.95C69.5017 11.0167 69.405 11.05 69.285 11.05ZM69.285 4.98C69.125 4.98 68.995 4.93333 68.895 4.84C68.795 4.74667 68.745 4.62333 68.745 4.47C68.745 4.32333 68.795 4.20333 68.895 4.11C68.995 4.01667 69.125 3.97 69.285 3.97C69.445 3.97 69.575 4.01667 69.675 4.11C69.775 4.20333 69.825 4.32333 69.825 4.47C69.825 4.62333 69.775 4.74667 69.675 4.84C69.575 4.93333 69.445 4.98 69.285 4.98ZM73.2092 11.07C72.7559 11.07 72.3526 10.9667 71.9992 10.76C71.6526 10.5533 71.3826 10.26 71.1892 9.88C71.0026 9.5 70.9092 9.06 70.9092 8.56C70.9092 8.06 71.0059 7.61667 71.1992 7.23C71.3992 6.84333 71.6759 6.54333 72.0292 6.33C72.3826 6.11667 72.7892 6.01 73.2492 6.01C73.5026 6.01 73.7526 6.04667 73.9992 6.12C74.2526 6.18667 74.4726 6.28667 74.6592 6.42C74.7792 6.5 74.8626 6.58 74.9092 6.66C74.9626 6.73333 74.9892 6.81667 74.9892 6.91C74.9892 7.00333 74.9626 7.08 74.9092 7.14C74.8626 7.2 74.7992 7.23 74.7192 7.23C74.6726 7.23 74.6226 7.21667 74.5692 7.19C74.5159 7.16333 74.4692 7.13667 74.4292 7.11C74.3959 7.08333 74.3726 7.06667 74.3592 7.06C74.1859 6.94667 74.0192 6.85667 73.8592 6.79C73.7059 6.72333 73.5159 6.69 73.2892 6.69C72.8026 6.69 72.4226 6.85667 72.1492 7.19C71.8826 7.51667 71.7492 7.97333 71.7492 8.56C71.7492 9.14667 71.8826 9.6 72.1492 9.92C72.4226 10.24 72.8026 10.4 73.2892 10.4C73.5159 10.4 73.7092 10.3667 73.8692 10.3C74.0359 10.2333 74.2026 10.1433 74.3692 10.03C74.4426 9.98333 74.5126 9.94333 74.5792 9.91C74.6459 9.87667 74.7026 9.86 74.7492 9.86C74.8226 9.86 74.8826 9.89 74.9292 9.95C74.9826 10.01 75.0092 10.0867 75.0092 10.18C75.0092 10.2667 74.9859 10.3467 74.9392 10.42C74.8926 10.4867 74.8059 10.5633 74.6792 10.65C74.4926 10.7767 74.2659 10.88 73.9992 10.96C73.7392 11.0333 73.4759 11.07 73.2092 11.07ZM77.6244 11.07C77.3177 11.07 77.0244 11.0333 76.7444 10.96C76.471 10.8867 76.2277 10.7833 76.0144 10.65C75.8944 10.57 75.8077 10.4967 75.7544 10.43C75.7077 10.3567 75.6844 10.27 75.6844 10.17C75.6844 10.0833 75.7077 10.0133 75.7544 9.96C75.8077 9.9 75.8744 9.87 75.9544 9.87C76.0344 9.87 76.151 9.92 76.3044 10.02C76.5044 10.14 76.701 10.2367 76.8944 10.31C77.0944 10.3767 77.341 10.41 77.6344 10.41C77.9944 10.41 78.2744 10.3467 78.4744 10.22C78.6744 10.0933 78.7744 9.91 78.7744 9.67C78.7744 9.52333 78.7377 9.40667 78.6644 9.32C78.591 9.22667 78.4644 9.14667 78.2844 9.08C78.1044 9.00667 77.841 8.93333 77.4944 8.86C76.9077 8.73333 76.4877 8.56333 76.2344 8.35C75.981 8.13667 75.8544 7.84667 75.8544 7.48C75.8544 7.19333 75.9344 6.94 76.0944 6.72C76.2544 6.5 76.4744 6.32667 76.7544 6.2C77.041 6.07333 77.3644 6.01 77.7244 6.01C77.9844 6.01 78.2344 6.04667 78.4744 6.12C78.721 6.18667 78.9377 6.28333 79.1244 6.41C79.351 6.57 79.4644 6.73667 79.4644 6.91C79.4644 6.99667 79.4377 7.07 79.3844 7.13C79.331 7.19 79.2677 7.22 79.1944 7.22C79.1144 7.22 78.9944 7.16333 78.8344 7.05C78.6477 6.93 78.471 6.83667 78.3044 6.77C78.1377 6.70333 77.931 6.67 77.6844 6.67C77.371 6.67 77.1177 6.74 76.9244 6.88C76.7377 7.02 76.6444 7.20667 76.6444 7.44C76.6444 7.58667 76.6777 7.70667 76.7444 7.8C76.8177 7.88667 76.9344 7.96667 77.0944 8.04C77.261 8.10667 77.4977 8.17333 77.8044 8.24C78.2577 8.34 78.6077 8.45 78.8544 8.57C79.1077 8.69 79.2877 8.83667 79.3944 9.01C79.501 9.18333 79.5544 9.40333 79.5544 9.67C79.5544 10.09 79.3777 10.43 79.0244 10.69C78.671 10.9433 78.2044 11.07 77.6244 11.07ZM85.3772 11.07C84.9239 11.07 84.5205 10.9667 84.1672 10.76C83.8205 10.5533 83.5505 10.26 83.3572 9.88C83.1705 9.5 83.0772 9.06 83.0772 8.56C83.0772 8.06 83.1739 7.61667 83.3672 7.23C83.5672 6.84333 83.8439 6.54333 84.1972 6.33C84.5505 6.11667 84.9572 6.01 85.4172 6.01C85.6705 6.01 85.9205 6.04667 86.1672 6.12C86.4205 6.18667 86.6405 6.28667 86.8272 6.42C86.9472 6.5 87.0305 6.58 87.0772 6.66C87.1305 6.73333 87.1572 6.81667 87.1572 6.91C87.1572 7.00333 87.1305 7.08 87.0772 7.14C87.0305 7.2 86.9672 7.23 86.8872 7.23C86.8405 7.23 86.7905 7.21667 86.7372 7.19C86.6839 7.16333 86.6372 7.13667 86.5972 7.11C86.5639 7.08333 86.5405 7.06667 86.5272 7.06C86.3539 6.94667 86.1872 6.85667 86.0272 6.79C85.8739 6.72333 85.6839 6.69 85.4572 6.69C84.9705 6.69 84.5905 6.85667 84.3172 7.19C84.0505 7.51667 83.9172 7.97333 83.9172 8.56C83.9172 9.14667 84.0505 9.6 84.3172 9.92C84.5905 10.24 84.9705 10.4 85.4572 10.4C85.6839 10.4 85.8772 10.3667 86.0372 10.3C86.2039 10.2333 86.3705 10.1433 86.5372 10.03C86.6105 9.98333 86.6805 9.94333 86.7472 9.91C86.8139 9.87667 86.8705 9.86 86.9172 9.86C86.9905 9.86 87.0505 9.89 87.0972 9.95C87.1505 10.01 87.1772 10.0867 87.1772 10.18C87.1772 10.2667 87.1539 10.3467 87.1072 10.42C87.0605 10.4867 86.9739 10.5633 86.8472 10.65C86.6605 10.7767 86.4339 10.88 86.1672 10.96C85.9072 11.0333 85.6439 11.07 85.3772 11.07ZM90.1423 6.01C91.3623 6.01 91.9723 6.65 91.9723 7.93V10.65C91.9723 10.77 91.9357 10.8667 91.8623 10.94C91.7957 11.0133 91.7023 11.05 91.5823 11.05C91.4623 11.05 91.3657 11.0133 91.2923 10.94C91.219 10.8667 91.1823 10.77 91.1823 10.65V10.17C91.0557 10.4567 90.8623 10.68 90.6023 10.84C90.3423 10.9933 90.0423 11.07 89.7023 11.07C89.389 11.07 89.099 11.0067 88.8323 10.88C88.5723 10.7533 88.3657 10.5767 88.2123 10.35C88.059 10.1233 87.9823 9.87333 87.9823 9.6C87.9823 9.23333 88.0757 8.95 88.2623 8.75C88.449 8.54333 88.7557 8.39667 89.1823 8.31C89.609 8.21667 90.2023 8.17 90.9623 8.17H91.1823V7.84C91.1823 7.44 91.099 7.14667 90.9323 6.96C90.7723 6.77333 90.509 6.68 90.1423 6.68C89.689 6.68 89.229 6.80333 88.7623 7.05C88.5823 7.16333 88.4557 7.22 88.3823 7.22C88.3023 7.22 88.2357 7.19 88.1823 7.13C88.129 7.07 88.1023 6.99333 88.1023 6.9C88.1023 6.80667 88.129 6.72667 88.1823 6.66C88.2423 6.58667 88.3357 6.51333 88.4623 6.44C88.6957 6.30667 88.959 6.20333 89.2523 6.13C89.5523 6.05 89.849 6.01 90.1423 6.01ZM89.8123 10.43C90.2123 10.43 90.539 10.2967 90.7923 10.03C91.0523 9.75667 91.1823 9.40667 91.1823 8.98V8.69H91.0023C90.4157 8.69 89.969 8.71667 89.6623 8.77C89.3557 8.81667 89.1357 8.9 89.0023 9.02C88.8757 9.13333 88.8123 9.30333 88.8123 9.53C88.8123 9.79 88.9057 10.0067 89.0923 10.18C89.2857 10.3467 89.5257 10.43 89.8123 10.43ZM95.8651 6.03C96.1451 6.01 96.2851 6.12333 96.2851 6.37C96.2851 6.47667 96.2551 6.56333 96.1951 6.63C96.1351 6.69 96.0317 6.72667 95.8851 6.74L95.5851 6.77C95.1384 6.81 94.8051 6.97 94.5851 7.25C94.3717 7.52333 94.2651 7.84667 94.2651 8.22V10.65C94.2651 10.7833 94.2284 10.8833 94.1551 10.95C94.0817 11.0167 93.9851 11.05 93.8651 11.05C93.7451 11.05 93.6451 11.0167 93.5651 10.95C93.4917 10.8767 93.4551 10.7767 93.4551 10.65V6.43C93.4551 6.30333 93.4951 6.20667 93.5751 6.14C93.6551 6.06667 93.7517 6.03 93.8651 6.03C93.9717 6.03 94.0617 6.06667 94.1351 6.14C94.2084 6.20667 94.2451 6.3 94.2451 6.42V6.98C94.3851 6.68667 94.5817 6.46333 94.8351 6.31C95.0951 6.15667 95.3917 6.06667 95.7251 6.04L95.8651 6.03ZM100.793 3.9C100.919 3.9 101.019 3.93667 101.093 4.01C101.166 4.08333 101.203 4.17667 101.203 4.29V10.65C101.203 10.77 101.166 10.8667 101.093 10.94C101.019 11.0133 100.919 11.05 100.793 11.05C100.666 11.05 100.566 11.0133 100.493 10.94C100.426 10.8667 100.393 10.77 100.393 10.65V10.11C100.246 10.4167 100.029 10.6533 99.7428 10.82C99.4628 10.9867 99.1328 11.07 98.7528 11.07C98.3261 11.07 97.9495 10.9633 97.6228 10.75C97.2961 10.5367 97.0428 10.24 96.8628 9.86C96.6828 9.47333 96.5928 9.02667 96.5928 8.52C96.5928 8.02 96.6828 7.58 96.8628 7.2C97.0428 6.82 97.2961 6.52667 97.6228 6.32C97.9495 6.11333 98.3261 6.01 98.7528 6.01C99.1328 6.01 99.4628 6.09333 99.7428 6.26C100.029 6.42667 100.246 6.66333 100.393 6.97V4.29C100.393 4.17 100.426 4.07667 100.493 4.01C100.566 3.93667 100.666 3.9 100.793 3.9ZM98.9128 10.4C99.3861 10.4 99.7495 10.24 100.003 9.92C100.263 9.59333 100.393 9.13333 100.393 8.54C100.393 7.94667 100.263 7.49 100.003 7.17C99.7495 6.85 99.3861 6.69 98.9128 6.69C98.4395 6.69 98.0695 6.85 97.8028 7.17C97.5428 7.49 97.4128 7.94 97.4128 8.52C97.4128 9.11333 97.5428 9.57667 97.8028 9.91C98.0695 10.2367 98.4395 10.4 98.9128 10.4ZM107.531 10.41C107.765 10.43 107.881 10.5367 107.881 10.73C107.881 10.8433 107.838 10.93 107.751 10.99C107.671 11.0433 107.548 11.0633 107.381 11.05L107.111 11.03C106.578 10.99 106.185 10.83 105.931 10.55C105.678 10.27 105.551 9.84667 105.551 9.28V6.77H104.881C104.768 6.77 104.678 6.74333 104.611 6.69C104.551 6.63 104.521 6.55333 104.521 6.46C104.521 6.36 104.551 6.28 104.611 6.22C104.678 6.16 104.768 6.13 104.881 6.13H105.551V5C105.551 4.87333 105.588 4.77667 105.661 4.71C105.735 4.63667 105.835 4.6 105.961 4.6C106.081 4.6 106.178 4.63667 106.251 4.71C106.325 4.77667 106.361 4.87333 106.361 5V6.13H107.471C107.578 6.13 107.661 6.16 107.721 6.22C107.788 6.28 107.821 6.36 107.821 6.46C107.821 6.55333 107.788 6.63 107.721 6.69C107.661 6.74333 107.578 6.77 107.471 6.77H106.361V9.32C106.361 9.68667 106.435 9.95333 106.581 10.12C106.735 10.28 106.961 10.37 107.261 10.39L107.531 10.41ZM110.7 11.07C110.24 11.07 109.833 10.9667 109.48 10.76C109.133 10.5533 108.863 10.26 108.67 9.88C108.483 9.49333 108.39 9.04667 108.39 8.54C108.39 8.03333 108.483 7.59 108.67 7.21C108.863 6.82333 109.133 6.52667 109.48 6.32C109.833 6.11333 110.24 6.01 110.7 6.01C111.16 6.01 111.566 6.11333 111.92 6.32C112.273 6.52667 112.543 6.82333 112.73 7.21C112.923 7.59 113.02 8.03333 113.02 8.54C113.02 9.04667 112.923 9.49333 112.73 9.88C112.543 10.26 112.273 10.5533 111.92 10.76C111.566 10.9667 111.16 11.07 110.7 11.07ZM110.7 10.4C111.18 10.4 111.546 10.2433 111.8 9.93C112.06 9.61 112.19 9.14667 112.19 8.54C112.19 7.94667 112.06 7.49 111.8 7.17C111.54 6.84333 111.173 6.68 110.7 6.68C110.226 6.68 109.86 6.84333 109.6 7.17C109.34 7.49 109.21 7.94667 109.21 8.54C109.21 9.14 109.336 9.6 109.59 9.92C109.85 10.24 110.22 10.4 110.7 10.4ZM118.445 11.07C118.138 11.07 117.845 11.0333 117.565 10.96C117.291 10.8867 117.048 10.7833 116.835 10.65C116.715 10.57 116.628 10.4967 116.575 10.43C116.528 10.3567 116.505 10.27 116.505 10.17C116.505 10.0833 116.528 10.0133 116.575 9.96C116.628 9.9 116.695 9.87 116.775 9.87C116.855 9.87 116.971 9.92 117.125 10.02C117.325 10.14 117.521 10.2367 117.715 10.31C117.915 10.3767 118.161 10.41 118.455 10.41C118.815 10.41 119.095 10.3467 119.295 10.22C119.495 10.0933 119.595 9.91 119.595 9.67C119.595 9.52333 119.558 9.40667 119.485 9.32C119.411 9.22667 119.285 9.14667 119.105 9.08C118.925 9.00667 118.661 8.93333 118.315 8.86C117.728 8.73333 117.308 8.56333 117.055 8.35C116.801 8.13667 116.675 7.84667 116.675 7.48C116.675 7.19333 116.755 6.94 116.915 6.72C117.075 6.5 117.295 6.32667 117.575 6.2C117.861 6.07333 118.185 6.01 118.545 6.01C118.805 6.01 119.055 6.04667 119.295 6.12C119.541 6.18667 119.758 6.28333 119.945 6.41C120.171 6.57 120.285 6.73667 120.285 6.91C120.285 6.99667 120.258 7.07 120.205 7.13C120.151 7.19 120.088 7.22 120.015 7.22C119.935 7.22 119.815 7.16333 119.655 7.05C119.468 6.93 119.291 6.83667 119.125 6.77C118.958 6.70333 118.751 6.67 118.505 6.67C118.191 6.67 117.938 6.74 117.745 6.88C117.558 7.02 117.465 7.20667 117.465 7.44C117.465 7.58667 117.498 7.70667 117.565 7.8C117.638 7.88667 117.755 7.96667 117.915 8.04C118.081 8.10667 118.318 8.17333 118.625 8.24C119.078 8.34 119.428 8.45 119.675 8.57C119.928 8.69 120.108 8.83667 120.215 9.01C120.321 9.18333 120.375 9.40333 120.375 9.67C120.375 10.09 120.198 10.43 119.845 10.69C119.491 10.9433 119.025 11.07 118.445 11.07ZM125.379 9.87C125.453 9.87 125.516 9.9 125.569 9.96C125.623 10.02 125.649 10.0967 125.649 10.19C125.649 10.3567 125.533 10.51 125.299 10.65C125.059 10.79 124.806 10.8967 124.539 10.97C124.273 11.0367 124.013 11.07 123.759 11.07C123.006 11.07 122.409 10.8467 121.969 10.4C121.536 9.95333 121.319 9.33667 121.319 8.55C121.319 8.05 121.416 7.61 121.609 7.23C121.803 6.84333 122.073 6.54333 122.419 6.33C122.773 6.11667 123.173 6.01 123.619 6.01C124.253 6.01 124.756 6.21667 125.129 6.63C125.503 7.04333 125.689 7.60333 125.689 8.31C125.689 8.44333 125.663 8.54 125.609 8.6C125.556 8.66 125.469 8.69 125.349 8.69H122.129C122.189 9.83667 122.733 10.41 123.759 10.41C124.019 10.41 124.243 10.3767 124.429 10.31C124.616 10.2367 124.816 10.14 125.029 10.02C125.203 9.92 125.319 9.87 125.379 9.87ZM123.629 6.64C123.203 6.64 122.859 6.77333 122.599 7.04C122.346 7.30667 122.196 7.68333 122.149 8.17H124.979C124.966 7.67667 124.843 7.3 124.609 7.04C124.376 6.77333 124.049 6.64 123.629 6.64ZM130.653 9.87C130.726 9.87 130.789 9.9 130.843 9.96C130.896 10.02 130.923 10.0967 130.923 10.19C130.923 10.3567 130.806 10.51 130.573 10.65C130.333 10.79 130.079 10.8967 129.813 10.97C129.546 11.0367 129.286 11.07 129.033 11.07C128.279 11.07 127.683 10.8467 127.243 10.4C126.809 9.95333 126.593 9.33667 126.593 8.55C126.593 8.05 126.689 7.61 126.883 7.23C127.076 6.84333 127.346 6.54333 127.693 6.33C128.046 6.11667 128.446 6.01 128.893 6.01C129.526 6.01 130.029 6.21667 130.403 6.63C130.776 7.04333 130.963 7.60333 130.963 8.31C130.963 8.44333 130.936 8.54 130.883 8.6C130.829 8.66 130.743 8.69 130.623 8.69H127.403C127.463 9.83667 128.006 10.41 129.033 10.41C129.293 10.41 129.516 10.3767 129.703 10.31C129.889 10.2367 130.089 10.14 130.303 10.02C130.476 9.92 130.593 9.87 130.653 9.87ZM128.903 6.64C128.476 6.64 128.133 6.77333 127.873 7.04C127.619 7.30667 127.469 7.68333 127.423 8.17H130.253C130.239 7.67667 130.116 7.3 129.883 7.04C129.649 6.77333 129.323 6.64 128.903 6.64ZM136.754 11.07C136.294 11.07 135.888 10.9667 135.534 10.76C135.188 10.5533 134.918 10.26 134.724 9.88C134.538 9.49333 134.444 9.04667 134.444 8.54C134.444 8.03333 134.538 7.59 134.724 7.21C134.918 6.82333 135.188 6.52667 135.534 6.32C135.888 6.11333 136.294 6.01 136.754 6.01C137.214 6.01 137.621 6.11333 137.974 6.32C138.328 6.52667 138.598 6.82333 138.784 7.21C138.978 7.59 139.074 8.03333 139.074 8.54C139.074 9.04667 138.978 9.49333 138.784 9.88C138.598 10.26 138.328 10.5533 137.974 10.76C137.621 10.9667 137.214 11.07 136.754 11.07ZM136.754 10.4C137.234 10.4 137.601 10.2433 137.854 9.93C138.114 9.61 138.244 9.14667 138.244 8.54C138.244 7.94667 138.114 7.49 137.854 7.17C137.594 6.84333 137.228 6.68 136.754 6.68C136.281 6.68 135.914 6.84333 135.654 7.17C135.394 7.49 135.264 7.94667 135.264 8.54C135.264 9.14 135.391 9.6 135.644 9.92C135.904 10.24 136.274 10.4 136.754 10.4ZM142.521 10.41C142.755 10.43 142.871 10.5367 142.871 10.73C142.871 10.8433 142.828 10.93 142.741 10.99C142.661 11.0433 142.538 11.0633 142.371 11.05L142.101 11.03C141.568 10.99 141.175 10.83 140.921 10.55C140.668 10.27 140.541 9.84667 140.541 9.28V6.77H139.871C139.758 6.77 139.668 6.74333 139.601 6.69C139.541 6.63 139.511 6.55333 139.511 6.46C139.511 6.36 139.541 6.28 139.601 6.22C139.668 6.16 139.758 6.13 139.871 6.13H140.541V5C140.541 4.87333 140.578 4.77667 140.651 4.71C140.725 4.63667 140.825 4.6 140.951 4.6C141.071 4.6 141.168 4.63667 141.241 4.71C141.315 4.77667 141.351 4.87333 141.351 5V6.13H142.461C142.568 6.13 142.651 6.16 142.711 6.22C142.778 6.28 142.811 6.36 142.811 6.46C142.811 6.55333 142.778 6.63 142.711 6.69C142.651 6.74333 142.568 6.77 142.461 6.77H141.351V9.32C141.351 9.68667 141.425 9.95333 141.571 10.12C141.725 10.28 141.951 10.37 142.251 10.39L142.521 10.41ZM146.13 6.01C146.703 6.01 147.137 6.17333 147.43 6.5C147.723 6.82 147.87 7.3 147.87 7.94V10.65C147.87 10.7767 147.833 10.8767 147.76 10.95C147.687 11.0167 147.59 11.05 147.47 11.05C147.343 11.05 147.243 11.0167 147.17 10.95C147.097 10.8767 147.06 10.7767 147.06 10.65V7.96C147.06 7.52667 146.97 7.20667 146.79 7C146.617 6.79333 146.337 6.69 145.95 6.69C145.503 6.69 145.147 6.82667 144.88 7.1C144.613 7.37333 144.48 7.74333 144.48 8.21V10.65C144.48 10.7767 144.443 10.8767 144.37 10.95C144.303 11.0167 144.207 11.05 144.08 11.05C143.953 11.05 143.853 11.0167 143.78 10.95C143.707 10.8767 143.67 10.7767 143.67 10.65V4.29C143.67 4.17667 143.707 4.08333 143.78 4.01C143.86 3.93667 143.96 3.9 144.08 3.9C144.207 3.9 144.303 3.93667 144.37 4.01C144.443 4.07667 144.48 4.17 144.48 4.29V6.91C144.64 6.61667 144.863 6.39333 145.15 6.24C145.437 6.08667 145.763 6.01 146.13 6.01ZM153.124 9.87C153.197 9.87 153.26 9.9 153.314 9.96C153.367 10.02 153.394 10.0967 153.394 10.19C153.394 10.3567 153.277 10.51 153.044 10.65C152.804 10.79 152.55 10.8967 152.284 10.97C152.017 11.0367 151.757 11.07 151.504 11.07C150.75 11.07 150.154 10.8467 149.714 10.4C149.28 9.95333 149.064 9.33667 149.064 8.55C149.064 8.05 149.16 7.61 149.354 7.23C149.547 6.84333 149.817 6.54333 150.164 6.33C150.517 6.11667 150.917 6.01 151.364 6.01C151.997 6.01 152.5 6.21667 152.874 6.63C153.247 7.04333 153.434 7.60333 153.434 8.31C153.434 8.44333 153.407 8.54 153.354 8.6C153.3 8.66 153.214 8.69 153.094 8.69H149.874C149.934 9.83667 150.477 10.41 151.504 10.41C151.764 10.41 151.987 10.3767 152.174 10.31C152.36 10.2367 152.56 10.14 152.774 10.02C152.947 9.92 153.064 9.87 153.124 9.87ZM151.374 6.64C150.947 6.64 150.604 6.77333 150.344 7.04C150.09 7.30667 149.94 7.68333 149.894 8.17H152.724C152.71 7.67667 152.587 7.3 152.354 7.04C152.12 6.77333 151.794 6.64 151.374 6.64ZM157.037 6.03C157.317 6.01 157.457 6.12333 157.457 6.37C157.457 6.47667 157.427 6.56333 157.367 6.63C157.307 6.69 157.204 6.72667 157.057 6.74L156.757 6.77C156.31 6.81 155.977 6.97 155.757 7.25C155.544 7.52333 155.437 7.84667 155.437 8.22V10.65C155.437 10.7833 155.4 10.8833 155.327 10.95C155.254 11.0167 155.157 11.05 155.037 11.05C154.917 11.05 154.817 11.0167 154.737 10.95C154.664 10.8767 154.627 10.7767 154.627 10.65V6.43C154.627 6.30333 154.667 6.20667 154.747 6.14C154.827 6.06667 154.924 6.03 155.037 6.03C155.144 6.03 155.234 6.06667 155.307 6.14C155.38 6.20667 155.417 6.3 155.417 6.42V6.98C155.557 6.68667 155.754 6.46333 156.007 6.31C156.267 6.15667 156.564 6.06667 156.897 6.04L157.037 6.03ZM162.75 11.07C162.29 11.07 161.884 10.9667 161.53 10.76C161.184 10.5533 160.914 10.26 160.72 9.88C160.534 9.49333 160.44 9.04667 160.44 8.54C160.44 8.03333 160.534 7.59 160.72 7.21C160.914 6.82333 161.184 6.52667 161.53 6.32C161.884 6.11333 162.29 6.01 162.75 6.01C163.21 6.01 163.617 6.11333 163.97 6.32C164.324 6.52667 164.594 6.82333 164.78 7.21C164.974 7.59 165.07 8.03333 165.07 8.54C165.07 9.04667 164.974 9.49333 164.78 9.88C164.594 10.26 164.324 10.5533 163.97 10.76C163.617 10.9667 163.21 11.07 162.75 11.07ZM162.75 10.4C163.23 10.4 163.597 10.2433 163.85 9.93C164.11 9.61 164.24 9.14667 164.24 8.54C164.24 7.94667 164.11 7.49 163.85 7.17C163.59 6.84333 163.224 6.68 162.75 6.68C162.277 6.68 161.91 6.84333 161.65 7.17C161.39 7.49 161.26 7.94667 161.26 8.54C161.26 9.14 161.387 9.6 161.64 9.92C161.9 10.24 162.27 10.4 162.75 10.4ZM168.727 6.01C169.154 6.01 169.531 6.11667 169.857 6.33C170.184 6.54333 170.437 6.84333 170.617 7.23C170.797 7.61 170.887 8.05333 170.887 8.56C170.887 9.06667 170.797 9.51 170.617 9.89C170.437 10.2633 170.184 10.5533 169.857 10.76C169.537 10.9667 169.161 11.07 168.727 11.07C168.347 11.07 168.014 10.9867 167.727 10.82C167.447 10.6533 167.234 10.4167 167.087 10.11V12.46C167.087 12.58 167.051 12.6733 166.977 12.74C166.911 12.8133 166.814 12.85 166.687 12.85C166.561 12.85 166.461 12.8133 166.387 12.74C166.314 12.6667 166.277 12.5733 166.277 12.46V6.43C166.277 6.31 166.314 6.21333 166.387 6.14C166.461 6.06667 166.561 6.03 166.687 6.03C166.814 6.03 166.911 6.06667 166.977 6.14C167.051 6.21333 167.087 6.31 167.087 6.43V6.97C167.234 6.66333 167.447 6.42667 167.727 6.26C168.014 6.09333 168.347 6.01 168.727 6.01ZM168.567 10.4C169.041 10.4 169.407 10.24 169.667 9.92C169.927 9.6 170.057 9.14667 170.057 8.56C170.057 7.97333 169.927 7.51667 169.667 7.19C169.407 6.85667 169.041 6.69 168.567 6.69C168.094 6.69 167.727 6.85 167.467 7.17C167.214 7.49 167.087 7.94667 167.087 8.54C167.087 9.13333 167.214 9.59333 167.467 9.92C167.727 10.24 168.094 10.4 168.567 10.4ZM174.338 10.41C174.571 10.43 174.688 10.5367 174.688 10.73C174.688 10.8433 174.645 10.93 174.558 10.99C174.478 11.0433 174.355 11.0633 174.188 11.05L173.918 11.03C173.385 10.99 172.991 10.83 172.738 10.55C172.485 10.27 172.358 9.84667 172.358 9.28V6.77H171.688C171.575 6.77 171.485 6.74333 171.418 6.69C171.358 6.63 171.328 6.55333 171.328 6.46C171.328 6.36 171.358 6.28 171.418 6.22C171.485 6.16 171.575 6.13 171.688 6.13H172.358V5C172.358 4.87333 172.395 4.77667 172.468 4.71C172.541 4.63667 172.641 4.6 172.768 4.6C172.888 4.6 172.985 4.63667 173.058 4.71C173.131 4.77667 173.168 4.87333 173.168 5V6.13H174.278C174.385 6.13 174.468 6.16 174.528 6.22C174.595 6.28 174.628 6.36 174.628 6.46C174.628 6.55333 174.595 6.63 174.528 6.69C174.468 6.74333 174.385 6.77 174.278 6.77H173.168V9.32C173.168 9.68667 173.241 9.95333 173.388 10.12C173.541 10.28 173.768 10.37 174.068 10.39L174.338 10.41ZM175.896 11.05C175.776 11.05 175.676 11.0167 175.596 10.95C175.523 10.8767 175.486 10.7767 175.486 10.65V6.43C175.486 6.30333 175.523 6.20667 175.596 6.14C175.676 6.06667 175.776 6.03 175.896 6.03C176.016 6.03 176.113 6.06667 176.186 6.14C176.26 6.20667 176.296 6.30333 176.296 6.43V10.65C176.296 10.7833 176.26 10.8833 176.186 10.95C176.113 11.0167 176.016 11.05 175.896 11.05ZM175.896 4.98C175.736 4.98 175.606 4.93333 175.506 4.84C175.406 4.74667 175.356 4.62333 175.356 4.47C175.356 4.32333 175.406 4.20333 175.506 4.11C175.606 4.01667 175.736 3.97 175.896 3.97C176.056 3.97 176.186 4.01667 176.286 4.11C176.386 4.20333 176.436 4.32333 176.436 4.47C176.436 4.62333 176.386 4.74667 176.286 4.84C176.186 4.93333 176.056 4.98 175.896 4.98ZM179.831 11.07C179.371 11.07 178.964 10.9667 178.611 10.76C178.264 10.5533 177.994 10.26 177.801 9.88C177.614 9.49333 177.521 9.04667 177.521 8.54C177.521 8.03333 177.614 7.59 177.801 7.21C177.994 6.82333 178.264 6.52667 178.611 6.32C178.964 6.11333 179.371 6.01 179.831 6.01C180.291 6.01 180.697 6.11333 181.051 6.32C181.404 6.52667 181.674 6.82333 181.861 7.21C182.054 7.59 182.151 8.03333 182.151 8.54C182.151 9.04667 182.054 9.49333 181.861 9.88C181.674 10.26 181.404 10.5533 181.051 10.76C180.697 10.9667 180.291 11.07 179.831 11.07ZM179.831 10.4C180.311 10.4 180.677 10.2433 180.931 9.93C181.191 9.61 181.321 9.14667 181.321 8.54C181.321 7.94667 181.191 7.49 180.931 7.17C180.671 6.84333 180.304 6.68 179.831 6.68C179.357 6.68 178.991 6.84333 178.731 7.17C178.471 7.49 178.341 7.94667 178.341 8.54C178.341 9.14 178.467 9.6 178.721 9.92C178.981 10.24 179.351 10.4 179.831 10.4ZM185.807 6.01C186.974 6.01 187.557 6.65333 187.557 7.94V10.65C187.557 10.7767 187.521 10.8767 187.447 10.95C187.381 11.0167 187.284 11.05 187.157 11.05C187.031 11.05 186.931 11.0167 186.857 10.95C186.784 10.8767 186.747 10.7767 186.747 10.65V7.99C186.747 7.53667 186.657 7.20667 186.477 7C186.304 6.79333 186.024 6.69 185.637 6.69C185.191 6.69 184.834 6.82667 184.567 7.1C184.301 7.37333 184.167 7.74333 184.167 8.21V10.65C184.167 10.7767 184.131 10.8767 184.057 10.95C183.991 11.0167 183.894 11.05 183.767 11.05C183.641 11.05 183.541 11.0167 183.467 10.95C183.394 10.8767 183.357 10.7767 183.357 10.65V6.43C183.357 6.31 183.394 6.21333 183.467 6.14C183.541 6.06667 183.641 6.03 183.767 6.03C183.887 6.03 183.981 6.06667 184.047 6.14C184.121 6.21333 184.157 6.30667 184.157 6.42V6.93C184.317 6.63 184.541 6.40333 184.827 6.25C185.114 6.09 185.441 6.01 185.807 6.01ZM190.681 11.07C190.374 11.07 190.081 11.0333 189.801 10.96C189.528 10.8867 189.284 10.7833 189.071 10.65C188.951 10.57 188.864 10.4967 188.811 10.43C188.764 10.3567 188.741 10.27 188.741 10.17C188.741 10.0833 188.764 10.0133 188.811 9.96C188.864 9.9 188.931 9.87 189.011 9.87C189.091 9.87 189.208 9.92 189.361 10.02C189.561 10.14 189.758 10.2367 189.951 10.31C190.151 10.3767 190.398 10.41 190.691 10.41C191.051 10.41 191.331 10.3467 191.531 10.22C191.731 10.0933 191.831 9.91 191.831 9.67C191.831 9.52333 191.794 9.40667 191.721 9.32C191.648 9.22667 191.521 9.14667 191.341 9.08C191.161 9.00667 190.898 8.93333 190.551 8.86C189.964 8.73333 189.544 8.56333 189.291 8.35C189.038 8.13667 188.911 7.84667 188.911 7.48C188.911 7.19333 188.991 6.94 189.151 6.72C189.311 6.5 189.531 6.32667 189.811 6.2C190.098 6.07333 190.421 6.01 190.781 6.01C191.041 6.01 191.291 6.04667 191.531 6.12C191.778 6.18667 191.994 6.28333 192.181 6.41C192.408 6.57 192.521 6.73667 192.521 6.91C192.521 6.99667 192.494 7.07 192.441 7.13C192.388 7.19 192.324 7.22 192.251 7.22C192.171 7.22 192.051 7.16333 191.891 7.05C191.704 6.93 191.528 6.83667 191.361 6.77C191.194 6.70333 190.988 6.67 190.741 6.67C190.428 6.67 190.174 6.74 189.981 6.88C189.794 7.02 189.701 7.20667 189.701 7.44C189.701 7.58667 189.734 7.70667 189.801 7.8C189.874 7.88667 189.991 7.96667 190.151 8.04C190.318 8.10667 190.554 8.17333 190.861 8.24C191.314 8.34 191.664 8.45 191.911 8.57C192.164 8.69 192.344 8.83667 192.451 9.01C192.558 9.18333 192.611 9.40333 192.611 9.67C192.611 10.09 192.434 10.43 192.081 10.69C191.728 10.9433 191.261 11.07 190.681 11.07ZM198.434 11.07C197.98 11.07 197.577 10.9667 197.224 10.76C196.877 10.5533 196.607 10.26 196.414 9.88C196.227 9.5 196.134 9.06 196.134 8.56C196.134 8.06 196.23 7.61667 196.424 7.23C196.624 6.84333 196.9 6.54333 197.254 6.33C197.607 6.11667 198.014 6.01 198.474 6.01C198.727 6.01 198.977 6.04667 199.224 6.12C199.477 6.18667 199.697 6.28667 199.884 6.42C200.004 6.5 200.087 6.58 200.134 6.66C200.187 6.73333 200.214 6.81667 200.214 6.91C200.214 7.00333 200.187 7.08 200.134 7.14C200.087 7.2 200.024 7.23 199.944 7.23C199.897 7.23 199.847 7.21667 199.794 7.19C199.74 7.16333 199.694 7.13667 199.654 7.11C199.62 7.08333 199.597 7.06667 199.584 7.06C199.41 6.94667 199.244 6.85667 199.084 6.79C198.93 6.72333 198.74 6.69 198.514 6.69C198.027 6.69 197.647 6.85667 197.374 7.19C197.107 7.51667 196.974 7.97333 196.974 8.56C196.974 9.14667 197.107 9.6 197.374 9.92C197.647 10.24 198.027 10.4 198.514 10.4C198.74 10.4 198.934 10.3667 199.094 10.3C199.26 10.2333 199.427 10.1433 199.594 10.03C199.667 9.98333 199.737 9.94333 199.804 9.91C199.87 9.87667 199.927 9.86 199.974 9.86C200.047 9.86 200.107 9.89 200.154 9.95C200.207 10.01 200.234 10.0867 200.234 10.18C200.234 10.2667 200.21 10.3467 200.164 10.42C200.117 10.4867 200.03 10.5633 199.904 10.65C199.717 10.7767 199.49 10.88 199.224 10.96C198.964 11.0333 198.7 11.07 198.434 11.07ZM201.619 11.05C201.499 11.05 201.399 11.0167 201.319 10.95C201.246 10.8767 201.209 10.7767 201.209 10.65V4.3C201.209 4.17333 201.246 4.07667 201.319 4.01C201.399 3.93667 201.499 3.9 201.619 3.9C201.732 3.9 201.826 3.93667 201.899 4.01C201.979 4.07667 202.019 4.17333 202.019 4.3V10.65C202.019 10.7767 201.979 10.8767 201.899 10.95C201.826 11.0167 201.732 11.05 201.619 11.05ZM205.553 11.07C205.093 11.07 204.687 10.9667 204.333 10.76C203.987 10.5533 203.717 10.26 203.523 9.88C203.337 9.49333 203.243 9.04667 203.243 8.54C203.243 8.03333 203.337 7.59 203.523 7.21C203.717 6.82333 203.987 6.52667 204.333 6.32C204.687 6.11333 205.093 6.01 205.553 6.01C206.013 6.01 206.42 6.11333 206.773 6.32C207.127 6.52667 207.397 6.82333 207.583 7.21C207.777 7.59 207.873 8.03333 207.873 8.54C207.873 9.04667 207.777 9.49333 207.583 9.88C207.397 10.26 207.127 10.5533 206.773 10.76C206.42 10.9667 206.013 11.07 205.553 11.07ZM205.553 10.4C206.033 10.4 206.4 10.2433 206.653 9.93C206.913 9.61 207.043 9.14667 207.043 8.54C207.043 7.94667 206.913 7.49 206.653 7.17C206.393 6.84333 206.027 6.68 205.553 6.68C205.08 6.68 204.713 6.84333 204.453 7.17C204.193 7.49 204.063 7.94667 204.063 8.54C204.063 9.14 204.19 9.6 204.443 9.92C204.703 10.24 205.073 10.4 205.553 10.4ZM210.72 11.07C210.413 11.07 210.12 11.0333 209.84 10.96C209.567 10.8867 209.323 10.7833 209.11 10.65C208.99 10.57 208.903 10.4967 208.85 10.43C208.803 10.3567 208.78 10.27 208.78 10.17C208.78 10.0833 208.803 10.0133 208.85 9.96C208.903 9.9 208.97 9.87 209.05 9.87C209.13 9.87 209.247 9.92 209.4 10.02C209.6 10.14 209.797 10.2367 209.99 10.31C210.19 10.3767 210.437 10.41 210.73 10.41C211.09 10.41 211.37 10.3467 211.57 10.22C211.77 10.0933 211.87 9.91 211.87 9.67C211.87 9.52333 211.833 9.40667 211.76 9.32C211.687 9.22667 211.56 9.14667 211.38 9.08C211.2 9.00667 210.937 8.93333 210.59 8.86C210.003 8.73333 209.583 8.56333 209.33 8.35C209.077 8.13667 208.95 7.84667 208.95 7.48C208.95 7.19333 209.03 6.94 209.19 6.72C209.35 6.5 209.57 6.32667 209.85 6.2C210.137 6.07333 210.46 6.01 210.82 6.01C211.08 6.01 211.33 6.04667 211.57 6.12C211.817 6.18667 212.033 6.28333 212.22 6.41C212.447 6.57 212.56 6.73667 212.56 6.91C212.56 6.99667 212.533 7.07 212.48 7.13C212.427 7.19 212.363 7.22 212.29 7.22C212.21 7.22 212.09 7.16333 211.93 7.05C211.743 6.93 211.567 6.83667 211.4 6.77C211.233 6.70333 211.027 6.67 210.78 6.67C210.467 6.67 210.213 6.74 210.02 6.88C209.833 7.02 209.74 7.20667 209.74 7.44C209.74 7.58667 209.773 7.70667 209.84 7.8C209.913 7.88667 210.03 7.96667 210.19 8.04C210.357 8.10667 210.593 8.17333 210.9 8.24C211.353 8.34 211.703 8.45 211.95 8.57C212.203 8.69 212.383 8.83667 212.49 9.01C212.597 9.18333 212.65 9.40333 212.65 9.67C212.65 10.09 212.473 10.43 212.12 10.69C211.767 10.9433 211.3 11.07 210.72 11.07ZM217.655 9.87C217.728 9.87 217.791 9.9 217.845 9.96C217.898 10.02 217.925 10.0967 217.925 10.19C217.925 10.3567 217.808 10.51 217.575 10.65C217.335 10.79 217.081 10.8967 216.815 10.97C216.548 11.0367 216.288 11.07 216.035 11.07C215.281 11.07 214.685 10.8467 214.245 10.4C213.811 9.95333 213.595 9.33667 213.595 8.55C213.595 8.05 213.691 7.61 213.885 7.23C214.078 6.84333 214.348 6.54333 214.695 6.33C215.048 6.11667 215.448 6.01 215.895 6.01C216.528 6.01 217.031 6.21667 217.405 6.63C217.778 7.04333 217.965 7.60333 217.965 8.31C217.965 8.44333 217.938 8.54 217.885 8.6C217.831 8.66 217.745 8.69 217.625 8.69H214.405C214.465 9.83667 215.008 10.41 216.035 10.41C216.295 10.41 216.518 10.3767 216.705 10.31C216.891 10.2367 217.091 10.14 217.305 10.02C217.478 9.92 217.595 9.87 217.655 9.87ZM215.905 6.64C215.478 6.64 215.135 6.77333 214.875 7.04C214.621 7.30667 214.471 7.68333 214.425 8.17H217.255C217.241 7.67667 217.118 7.3 216.885 7.04C216.651 6.77333 216.325 6.64 215.905 6.64ZM223.986 10.41C224.22 10.43 224.336 10.5367 224.336 10.73C224.336 10.8433 224.293 10.93 224.206 10.99C224.126 11.0433 224.003 11.0633 223.836 11.05L223.566 11.03C223.033 10.99 222.64 10.83 222.386 10.55C222.133 10.27 222.006 9.84667 222.006 9.28V6.77H221.336C221.223 6.77 221.133 6.74333 221.066 6.69C221.006 6.63 220.976 6.55333 220.976 6.46C220.976 6.36 221.006 6.28 221.066 6.22C221.133 6.16 221.223 6.13 221.336 6.13H222.006V5C222.006 4.87333 222.043 4.77667 222.116 4.71C222.19 4.63667 222.29 4.6 222.416 4.6C222.536 4.6 222.633 4.63667 222.706 4.71C222.78 4.77667 222.816 4.87333 222.816 5V6.13H223.926C224.033 6.13 224.116 6.16 224.176 6.22C224.243 6.28 224.276 6.36 224.276 6.46C224.276 6.55333 224.243 6.63 224.176 6.69C224.116 6.74333 224.033 6.77 223.926 6.77H222.816V9.32C222.816 9.68667 222.89 9.95333 223.036 10.12C223.19 10.28 223.416 10.37 223.716 10.39L223.986 10.41ZM227.155 11.07C226.695 11.07 226.288 10.9667 225.935 10.76C225.588 10.5533 225.318 10.26 225.125 9.88C224.938 9.49333 224.845 9.04667 224.845 8.54C224.845 8.03333 224.938 7.59 225.125 7.21C225.318 6.82333 225.588 6.52667 225.935 6.32C226.288 6.11333 226.695 6.01 227.155 6.01C227.615 6.01 228.021 6.11333 228.375 6.32C228.728 6.52667 228.998 6.82333 229.185 7.21C229.378 7.59 229.475 8.03333 229.475 8.54C229.475 9.04667 229.378 9.49333 229.185 9.88C228.998 10.26 228.728 10.5533 228.375 10.76C228.021 10.9667 227.615 11.07 227.155 11.07ZM227.155 10.4C227.635 10.4 228.001 10.2433 228.255 9.93C228.515 9.61 228.645 9.14667 228.645 8.54C228.645 7.94667 228.515 7.49 228.255 7.17C227.995 6.84333 227.628 6.68 227.155 6.68C226.681 6.68 226.315 6.84333 226.055 7.17C225.795 7.49 225.665 7.94667 225.665 8.54C225.665 9.14 225.791 9.6 226.045 9.92C226.305 10.24 226.675 10.4 227.155 10.4ZM236.77 6.28C236.843 6.12 236.96 6.04 237.12 6.04C237.22 6.04 237.31 6.07333 237.39 6.14C237.47 6.20667 237.51 6.29 237.51 6.39C237.51 6.45 237.496 6.50333 237.47 6.55L234.66 12.61C234.626 12.6833 234.576 12.74 234.51 12.78C234.45 12.82 234.386 12.84 234.32 12.84C234.22 12.84 234.13 12.8067 234.05 12.74C233.976 12.68 233.94 12.6 233.94 12.5C233.94 12.4467 233.953 12.3933 233.98 12.34L234.68 10.83L232.7 6.55C232.673 6.50333 232.66 6.45333 232.66 6.4C232.66 6.3 232.703 6.21333 232.79 6.14C232.883 6.06667 232.983 6.03 233.09 6.03C233.156 6.03 233.22 6.05 233.28 6.09C233.346 6.13 233.396 6.18667 233.43 6.26L235.1 10.01L236.77 6.28ZM240.358 11.07C239.898 11.07 239.491 10.9667 239.138 10.76C238.791 10.5533 238.521 10.26 238.328 9.88C238.141 9.49333 238.048 9.04667 238.048 8.54C238.048 8.03333 238.141 7.59 238.328 7.21C238.521 6.82333 238.791 6.52667 239.138 6.32C239.491 6.11333 239.898 6.01 240.358 6.01C240.818 6.01 241.225 6.11333 241.578 6.32C241.931 6.52667 242.201 6.82333 242.388 7.21C242.581 7.59 242.678 8.03333 242.678 8.54C242.678 9.04667 242.581 9.49333 242.388 9.88C242.201 10.26 241.931 10.5533 241.578 10.76C241.225 10.9667 240.818 11.07 240.358 11.07ZM240.358 10.4C240.838 10.4 241.205 10.2433 241.458 9.93C241.718 9.61 241.848 9.14667 241.848 8.54C241.848 7.94667 241.718 7.49 241.458 7.17C241.198 6.84333 240.831 6.68 240.358 6.68C239.885 6.68 239.518 6.84333 239.258 7.17C238.998 7.49 238.868 7.94667 238.868 8.54C238.868 9.14 238.995 9.6 239.248 9.92C239.508 10.24 239.878 10.4 240.358 10.4ZM247.585 6.03C247.711 6.03 247.808 6.06667 247.875 6.14C247.948 6.21333 247.985 6.31 247.985 6.43V10.66C247.985 10.7733 247.948 10.8667 247.875 10.94C247.808 11.0133 247.711 11.05 247.585 11.05C247.465 11.05 247.368 11.0167 247.295 10.95C247.228 10.8767 247.195 10.7833 247.195 10.67V10.17C247.041 10.4633 246.825 10.6867 246.545 10.84C246.271 10.9933 245.961 11.07 245.615 11.07C245.035 11.07 244.598 10.91 244.305 10.59C244.011 10.2633 243.865 9.78333 243.865 9.15V6.43C243.865 6.31 243.901 6.21333 243.975 6.14C244.048 6.06667 244.148 6.03 244.275 6.03C244.401 6.03 244.498 6.06667 244.565 6.14C244.638 6.21333 244.675 6.31 244.675 6.43V9.13C244.675 9.56333 244.761 9.88333 244.935 10.09C245.108 10.29 245.381 10.39 245.755 10.39C246.181 10.39 246.525 10.2533 246.785 9.98C247.045 9.7 247.175 9.33333 247.175 8.88V6.43C247.175 6.31 247.211 6.21333 247.285 6.14C247.358 6.06667 247.458 6.03 247.585 6.03Z" fill="#274B89"/>
</svg>
