<svg width="20" height="18" viewBox="0 0 20 18" fill="none" xmlns="http://www.w3.org/2000/svg">
<path d="M18.4438 3.50006C18.4438 5.43307 16.8769 7 14.9438 7C13.0108 7 11.4438 5.43307 11.4438 3.50006C11.4438 1.56706 13.0108 0 14.9438 0C16.8769 0 18.4438 1.56706 18.4438 3.50006Z" fill="#AA3939"/>
<path d="M16.3037 9.58238C16.2998 9.58238 16.296 9.58328 16.2921 9.58328C12.5939 9.58328 9.58384 6.57403 9.58384 2.875C9.58384 1.85811 9.81774 0.896854 10.225 0.032463C10.0141 0.012458 9.80044 0 9.58384 0C5.87904 0 2.8756 3.00327 2.8756 6.70827V9.38008C2.8756 11.2766 2.04472 13.0668 0.58704 14.2992C0.10114 14.7142 -0.114516 15.3754 0.0599096 16.0205C0.26311 16.7708 1.00485 17.25 1.78308 17.25H17.3799C18.1964 17.25 18.966 16.721 19.1317 15.9208C19.2601 15.3017 19.0397 14.6835 18.5596 14.2801C17.1662 13.1119 16.3602 11.3954 16.3037 9.58238Z" fill="#274B89"/>
</svg>
