<svg width="163" height="41" viewBox="0 0 163 41" fill="none" xmlns="http://www.w3.org/2000/svg">
<rect x="1.34082" y="0.5" width="160.319" height="40" rx="3.5" fill="#ECF7FF" stroke="#F6F6F6"/>
<path d="M83.5562 17.48C83.7082 17.48 83.8242 17.528 83.9042 17.624C83.9922 17.712 84.0362 17.832 84.0362 17.984V25.58C84.0362 25.724 83.9962 25.84 83.9162 25.928C83.8362 26.016 83.7242 26.06 83.5802 26.06C83.4362 26.06 83.3282 26.016 83.2562 25.928C83.1842 25.84 83.1482 25.724 83.1482 25.58V19.448L80.5442 24.44C80.4322 24.672 80.2682 24.788 80.0522 24.788C79.8442 24.788 79.6802 24.672 79.5602 24.44L76.9442 19.508V25.58C76.9442 25.724 76.9042 25.84 76.8242 25.928C76.7522 26.016 76.6442 26.06 76.5002 26.06C76.3562 26.06 76.2442 26.016 76.1642 25.928C76.0842 25.84 76.0442 25.724 76.0442 25.58V17.984C76.0442 17.832 76.0882 17.712 76.1762 17.624C76.2642 17.528 76.3842 17.48 76.5362 17.48C76.7362 17.48 76.8962 17.596 77.0162 17.828L80.0642 23.672L83.0762 17.828C83.1402 17.7 83.2082 17.612 83.2802 17.564C83.3602 17.508 83.4522 17.48 83.5562 17.48ZM90.5141 24.644C90.6021 24.644 90.6781 24.68 90.7421 24.752C90.8061 24.824 90.8381 24.916 90.8381 25.028C90.8381 25.228 90.6981 25.412 90.4181 25.58C90.1301 25.748 89.8261 25.876 89.5061 25.964C89.1861 26.044 88.8741 26.084 88.5701 26.084C87.6661 26.084 86.9501 25.816 86.4221 25.28C85.9021 24.744 85.6421 24.004 85.6421 23.06C85.6421 22.46 85.7581 21.932 85.9901 21.476C86.2221 21.012 86.5461 20.652 86.9621 20.396C87.3861 20.14 87.8661 20.012 88.4021 20.012C89.1621 20.012 89.7661 20.26 90.2141 20.756C90.6621 21.252 90.8861 21.924 90.8861 22.772C90.8861 22.932 90.8541 23.048 90.7901 23.12C90.7261 23.192 90.6221 23.228 90.4781 23.228H86.6141C86.6861 24.604 87.3381 25.292 88.5701 25.292C88.8821 25.292 89.1501 25.252 89.3741 25.172C89.5981 25.084 89.8381 24.968 90.0941 24.824C90.3021 24.704 90.4421 24.644 90.5141 24.644ZM88.4141 20.768C87.9021 20.768 87.4901 20.928 87.1781 21.248C86.8741 21.568 86.6941 22.02 86.6381 22.604H90.0341C90.0181 22.012 89.8701 21.56 89.5901 21.248C89.3101 20.928 88.9181 20.768 88.4141 20.768ZM94.2862 26.084C93.9182 26.084 93.5662 26.04 93.2302 25.952C92.9022 25.864 92.6102 25.74 92.3542 25.58C92.2102 25.484 92.1062 25.396 92.0422 25.316C91.9862 25.228 91.9582 25.124 91.9582 25.004C91.9582 24.9 91.9862 24.816 92.0422 24.752C92.1062 24.68 92.1862 24.644 92.2822 24.644C92.3782 24.644 92.5182 24.704 92.7022 24.824C92.9422 24.968 93.1782 25.084 93.4102 25.172C93.6502 25.252 93.9462 25.292 94.2982 25.292C94.7302 25.292 95.0662 25.216 95.3062 25.064C95.5462 24.912 95.6662 24.692 95.6662 24.404C95.6662 24.228 95.6222 24.088 95.5342 23.984C95.4462 23.872 95.2942 23.776 95.0782 23.696C94.8622 23.608 94.5462 23.52 94.1302 23.432C93.4262 23.28 92.9222 23.076 92.6182 22.82C92.3142 22.564 92.1622 22.216 92.1622 21.776C92.1622 21.432 92.2582 21.128 92.4502 20.864C92.6422 20.6 92.9062 20.392 93.2422 20.24C93.5862 20.088 93.9742 20.012 94.4062 20.012C94.7182 20.012 95.0182 20.056 95.3062 20.144C95.6022 20.224 95.8622 20.34 96.0862 20.492C96.3582 20.684 96.4942 20.884 96.4942 21.092C96.4942 21.196 96.4622 21.284 96.3982 21.356C96.3342 21.428 96.2582 21.464 96.1702 21.464C96.0742 21.464 95.9302 21.396 95.7382 21.26C95.5142 21.116 95.3022 21.004 95.1022 20.924C94.9022 20.844 94.6542 20.804 94.3582 20.804C93.9822 20.804 93.6782 20.888 93.4462 21.056C93.2222 21.224 93.1102 21.448 93.1102 21.728C93.1102 21.904 93.1502 22.048 93.2302 22.16C93.3182 22.264 93.4582 22.36 93.6502 22.448C93.8502 22.528 94.1342 22.608 94.5022 22.688C95.0462 22.808 95.4662 22.94 95.7622 23.084C96.0662 23.228 96.2822 23.404 96.4102 23.612C96.5382 23.82 96.6022 24.084 96.6022 24.404C96.6022 24.908 96.3902 25.316 95.9662 25.628C95.5422 25.932 94.9822 26.084 94.2862 26.084ZM100.052 26.084C99.6838 26.084 99.3318 26.04 98.9958 25.952C98.6678 25.864 98.3758 25.74 98.1198 25.58C97.9758 25.484 97.8718 25.396 97.8078 25.316C97.7518 25.228 97.7238 25.124 97.7238 25.004C97.7238 24.9 97.7518 24.816 97.8078 24.752C97.8718 24.68 97.9518 24.644 98.0478 24.644C98.1438 24.644 98.2838 24.704 98.4678 24.824C98.7078 24.968 98.9438 25.084 99.1758 25.172C99.4158 25.252 99.7118 25.292 100.064 25.292C100.496 25.292 100.832 25.216 101.072 25.064C101.312 24.912 101.432 24.692 101.432 24.404C101.432 24.228 101.388 24.088 101.3 23.984C101.212 23.872 101.06 23.776 100.844 23.696C100.628 23.608 100.312 23.52 99.8958 23.432C99.1918 23.28 98.6878 23.076 98.3838 22.82C98.0798 22.564 97.9278 22.216 97.9278 21.776C97.9278 21.432 98.0238 21.128 98.2158 20.864C98.4078 20.6 98.6718 20.392 99.0078 20.24C99.3518 20.088 99.7398 20.012 100.172 20.012C100.484 20.012 100.784 20.056 101.072 20.144C101.368 20.224 101.628 20.34 101.852 20.492C102.124 20.684 102.26 20.884 102.26 21.092C102.26 21.196 102.228 21.284 102.164 21.356C102.1 21.428 102.024 21.464 101.936 21.464C101.84 21.464 101.696 21.396 101.504 21.26C101.28 21.116 101.068 21.004 100.868 20.924C100.668 20.844 100.42 20.804 100.124 20.804C99.7478 20.804 99.4438 20.888 99.2118 21.056C98.9878 21.224 98.8758 21.448 98.8758 21.728C98.8758 21.904 98.9158 22.048 98.9958 22.16C99.0838 22.264 99.2238 22.36 99.4158 22.448C99.6158 22.528 99.8998 22.608 100.268 22.688C100.812 22.808 101.232 22.94 101.528 23.084C101.832 23.228 102.048 23.404 102.176 23.612C102.304 23.82 102.368 24.084 102.368 24.404C102.368 24.908 102.156 25.316 101.732 25.628C101.308 25.932 100.748 26.084 100.052 26.084ZM106.237 20.012C107.701 20.012 108.433 20.78 108.433 22.316V25.58C108.433 25.724 108.389 25.84 108.301 25.928C108.221 26.016 108.109 26.06 107.965 26.06C107.821 26.06 107.705 26.016 107.617 25.928C107.529 25.84 107.485 25.724 107.485 25.58V25.004C107.333 25.348 107.101 25.616 106.789 25.808C106.477 25.992 106.117 26.084 105.709 26.084C105.333 26.084 104.985 26.008 104.665 25.856C104.353 25.704 104.105 25.492 103.921 25.22C103.737 24.948 103.645 24.648 103.645 24.32C103.645 23.88 103.757 23.54 103.981 23.3C104.205 23.052 104.573 22.876 105.085 22.772C105.597 22.66 106.309 22.604 107.221 22.604H107.485V22.208C107.485 21.728 107.385 21.376 107.185 21.152C106.993 20.928 106.677 20.816 106.237 20.816C105.693 20.816 105.141 20.964 104.581 21.26C104.365 21.396 104.213 21.464 104.125 21.464C104.029 21.464 103.949 21.428 103.885 21.356C103.821 21.284 103.789 21.192 103.789 21.08C103.789 20.968 103.821 20.872 103.885 20.792C103.957 20.704 104.069 20.616 104.221 20.528C104.501 20.368 104.817 20.244 105.169 20.156C105.529 20.06 105.885 20.012 106.237 20.012ZM105.841 25.316C106.321 25.316 106.713 25.156 107.017 24.836C107.329 24.508 107.485 24.088 107.485 23.576V23.228H107.269C106.565 23.228 106.029 23.26 105.661 23.324C105.293 23.38 105.029 23.48 104.869 23.624C104.717 23.76 104.641 23.964 104.641 24.236C104.641 24.548 104.753 24.808 104.977 25.016C105.209 25.216 105.497 25.316 105.841 25.316ZM114.953 20.036C115.105 20.036 115.225 20.08 115.313 20.168C115.401 20.256 115.445 20.372 115.445 20.516V25.604C115.445 26.476 115.221 27.132 114.773 27.572C114.325 28.02 113.661 28.244 112.781 28.244C111.925 28.244 111.213 28.076 110.645 27.74C110.357 27.58 110.213 27.396 110.213 27.188C110.213 27.076 110.241 26.984 110.297 26.912C110.361 26.84 110.441 26.804 110.537 26.804C110.617 26.804 110.761 26.86 110.969 26.972C111.249 27.116 111.525 27.232 111.797 27.32C112.069 27.408 112.393 27.452 112.769 27.452C113.337 27.452 113.765 27.3 114.053 26.996C114.341 26.7 114.485 26.264 114.485 25.688V24.656C114.317 25.032 114.057 25.32 113.705 25.52C113.361 25.72 112.953 25.82 112.481 25.82C111.969 25.82 111.513 25.7 111.113 25.46C110.721 25.22 110.413 24.88 110.189 24.44C109.973 24 109.865 23.492 109.865 22.916C109.865 22.34 109.973 21.832 110.189 21.392C110.413 20.952 110.721 20.612 111.113 20.372C111.513 20.132 111.969 20.012 112.481 20.012C112.945 20.012 113.349 20.112 113.693 20.312C114.037 20.512 114.297 20.796 114.473 21.164V20.516C114.473 20.372 114.513 20.256 114.593 20.168C114.681 20.08 114.801 20.036 114.953 20.036ZM112.673 25.016C113.233 25.016 113.673 24.832 113.993 24.464C114.313 24.088 114.473 23.572 114.473 22.916C114.473 22.268 114.313 21.76 113.993 21.392C113.681 21.016 113.241 20.828 112.673 20.828C112.105 20.828 111.657 21.016 111.329 21.392C111.009 21.76 110.849 22.268 110.849 22.916C110.849 23.572 111.009 24.088 111.329 24.464C111.657 24.832 112.105 25.016 112.673 25.016ZM121.768 24.644C121.856 24.644 121.932 24.68 121.996 24.752C122.06 24.824 122.092 24.916 122.092 25.028C122.092 25.228 121.952 25.412 121.672 25.58C121.384 25.748 121.08 25.876 120.76 25.964C120.44 26.044 120.128 26.084 119.824 26.084C118.92 26.084 118.204 25.816 117.676 25.28C117.156 24.744 116.896 24.004 116.896 23.06C116.896 22.46 117.012 21.932 117.244 21.476C117.476 21.012 117.8 20.652 118.216 20.396C118.64 20.14 119.12 20.012 119.656 20.012C120.416 20.012 121.02 20.26 121.468 20.756C121.916 21.252 122.14 21.924 122.14 22.772C122.14 22.932 122.108 23.048 122.044 23.12C121.98 23.192 121.876 23.228 121.732 23.228H117.868C117.94 24.604 118.592 25.292 119.824 25.292C120.136 25.292 120.404 25.252 120.628 25.172C120.852 25.084 121.092 24.968 121.348 24.824C121.556 24.704 121.696 24.644 121.768 24.644ZM119.668 20.768C119.156 20.768 118.744 20.928 118.432 21.248C118.128 21.568 117.948 22.02 117.892 22.604H121.288C121.272 22.012 121.124 21.56 120.844 21.248C120.564 20.928 120.172 20.768 119.668 20.768Z" fill="#274B89"/>
<path d="M59.0002 19.5C59.0037 20.8199 58.6953 22.1219 58.1002 23.3C57.3947 24.7118 56.31 25.8992 54.9677 26.7293C53.6254 27.5594 52.0785 27.9994 50.5002 28C49.1804 28.0035 47.8783 27.6951 46.7002 27.1L41.0002 29L42.9002 23.3C42.3052 22.1219 41.9968 20.8199 42.0002 19.5C42.0009 17.9218 42.4409 16.3749 43.271 15.0326C44.1011 13.6903 45.2885 12.6056 46.7002 11.9C47.8783 11.305 49.1804 10.9966 50.5002 11H51.0002C53.0846 11.115 55.0533 11.9948 56.5294 13.4709C58.0055 14.947 58.8852 16.9157 59.0002 19V19.5Z" stroke="#274B89" stroke-width="2" stroke-linecap="round" stroke-linejoin="round"/>
</svg>
