<svg width="21" height="22" viewBox="0 0 21 22" fill="none" xmlns="http://www.w3.org/2000/svg">
<g clip-path="url(#clip0)">
<path d="M15.4 21.818C14.7437 21.8327 13.1104 21.84 10.5 21.84C7.88958 21.84 6.25625 21.8327 5.6 21.818C3.74792 21.774 2.35156 21.6494 1.41094 21.4441C0.470313 21.2388 0 20.8943 0 20.4104C0 20.1171 0.145833 19.527 0.4375 18.6399C0.729167 17.7528 1.05 16.8217 1.4 15.8466C1.75 14.8716 2.07083 13.7499 2.3625 12.4816C2.65417 11.2133 2.8 10.1026 2.8 9.14949C2.8 6.33426 5.36667 4.92665 10.5 4.92665C15.6333 4.92665 18.2 6.33426 18.2 9.14949C18.2 10.1026 18.3458 11.2133 18.6375 12.4816C18.9292 13.7499 19.25 14.8716 19.6 15.8466C19.95 16.8217 20.2708 17.7528 20.5625 18.6399C20.8542 19.527 21 20.1171 21 20.4104C21 20.8943 20.5297 21.2388 19.5891 21.4441C18.6484 21.6494 17.2521 21.774 15.4 21.818ZM10.5 9.85329C11.4917 9.85329 12.3193 9.97059 12.9828 10.2052C13.6464 10.4398 13.9854 10.7844 14 11.2389V11.2609C14 11.4515 14.0693 11.6165 14.2078 11.7558C14.3464 11.8951 14.5104 11.9647 14.7 11.9647C14.8896 11.9647 15.0536 11.8951 15.1922 11.7558C15.3307 11.6165 15.4 11.4515 15.4 11.2609C15.4 9.54538 14 8.6143 11.2 8.46767V7.74187C11.2 7.55126 11.1307 7.3863 10.9922 7.24701C10.8536 7.10771 10.6896 7.03807 10.5 7.03807C10.3104 7.03807 10.1464 7.10771 10.0078 7.24701C9.86927 7.3863 9.8 7.55126 9.8 7.74187V8.46767C7 8.6143 5.6 9.54538 5.6 11.2609C5.6 11.5835 5.6474 11.8621 5.74219 12.0967C5.83698 12.3313 5.9901 12.5256 6.20156 12.6795C6.41302 12.8335 6.64271 12.9581 6.89062 13.0534C7.13854 13.1487 7.46667 13.2184 7.875 13.2624C8.28333 13.3063 8.67708 13.3357 9.05625 13.3503C9.43542 13.365 9.91667 13.3723 10.5 13.3723C11.5062 13.3723 12.3411 13.4933 13.0047 13.7352C13.6682 13.9772 14 14.3254 14 14.7799C14 15.2345 13.6682 15.5827 13.0047 15.8247C12.3411 16.0666 11.5062 16.1876 10.5 16.1876C9.50833 16.1876 8.68073 16.0703 8.01719 15.8356C7.35365 15.601 7.01458 15.2565 7 14.8019V14.7799C7 14.5893 6.93073 14.4244 6.79219 14.2851C6.65365 14.1458 6.48958 14.0761 6.3 14.0761C6.11042 14.0761 5.94635 14.1458 5.80781 14.2851C5.66927 14.4244 5.6 14.5893 5.6 14.7799C5.6 16.4955 7 17.4265 9.8 17.5732V18.299C9.8 18.4896 9.86927 18.6545 10.0078 18.7938C10.1464 18.9331 10.3104 19.0028 10.5 19.0028C10.6896 19.0028 10.8536 18.9331 10.9922 18.7938C11.1307 18.6545 11.2 18.4896 11.2 18.299V17.5732C14 17.4265 15.4 16.4955 15.4 14.7799C15.4 12.9031 13.7667 11.9647 10.5 11.9647C10.2958 11.9647 10.0406 11.9684 9.73438 11.9757C9.42812 11.983 9.18021 11.9904 8.99062 11.9977C8.80104 12.005 8.58958 12.005 8.35625 11.9977C8.12292 11.9904 7.93333 11.972 7.7875 11.9427C7.64167 11.9134 7.50312 11.8731 7.37187 11.8218C7.24062 11.7704 7.14583 11.6971 7.0875 11.6018C7.02917 11.5065 7 11.3929 7 11.2609C7 10.8064 7.33542 10.4581 8.00625 10.2162C8.67708 9.97426 9.50833 9.85329 10.5 9.85329ZM10.5 3.51903C9.625 3.51903 8.82292 3.56302 8.09375 3.651C7.7875 3.03517 7.52865 2.43766 7.31719 1.85849C7.10573 1.27932 7 0.894421 7 0.703807C7 0.469204 7.18958 0.234602 7.56875 0C7.91875 0.205277 8.36354 0.373897 8.90312 0.505861C9.44271 0.637825 9.975 0.703807 10.5 0.703807C11.025 0.703807 11.5573 0.637825 12.0969 0.505861C12.6365 0.373897 13.0813 0.205277 13.4312 0C13.8104 0.234602 14 0.469204 14 0.703807C14 0.894421 13.8943 1.27932 13.6828 1.85849C13.4714 2.43766 13.2125 3.03517 12.9062 3.651C12.1771 3.56302 11.375 3.51903 10.5 3.51903Z" fill="#FFAC33"/>
</g>
<defs>
<clipPath id="clip0">
<rect width="21" height="21.84" fill="white"/>
</clipPath>
</defs>
</svg>
