<svg width="38" height="38" viewBox="0 0 38 38" fill="none" xmlns="http://www.w3.org/2000/svg">
<g filter="url(#filter0_d)">
<path d="M19 30C27.2843 30 34 23.2843 34 15C34 6.71573 27.2843 0 19 0C10.7157 0 4 6.71573 4 15C4 23.2843 10.7157 30 19 30Z" fill="white"/>
</g>
<path d="M24.7875 20H12.7125C12.319 20 12 20.319 12 20.7125V20.7875C12 21.181 12.319 21.5 12.7125 21.5H24.7875C25.181 21.5 25.5 21.181 25.5 20.7875V20.7125C25.5 20.319 25.181 20 24.7875 20Z" fill="#274B89"/>
<path d="M24.7875 10H12.7125C12.319 10 12 10.319 12 10.7125V10.7875C12 11.181 12.319 11.5 12.7125 11.5H24.7875C25.181 11.5 25.5 11.181 25.5 10.7875V10.7125C25.5 10.319 25.181 10 24.7875 10Z" fill="#274B89"/>
<g clip-path="url(#clip0)">
<path d="M24.7875 15H12.7125C12.319 15 12 15.319 12 15.7125V15.7875C12 16.181 12.319 16.5 12.7125 16.5H24.7875C25.181 16.5 25.5 16.181 25.5 15.7875V15.7125C25.5 15.319 25.181 15 24.7875 15Z" fill="#274B89"/>
</g>
<defs>
<filter id="filter0_d" x="0" y="0" width="38" height="38" filterUnits="userSpaceOnUse" color-interpolation-filters="sRGB">
<feFlood flood-opacity="0" result="BackgroundImageFix"/>
<feColorMatrix in="SourceAlpha" type="matrix" values="0 0 0 0 0 0 0 0 0 0 0 0 0 0 0 0 0 0 127 0" result="hardAlpha"/>
<feOffset dy="4"/>
<feGaussianBlur stdDeviation="2"/>
<feColorMatrix type="matrix" values="0 0 0 0 0 0 0 0 0 0 0 0 0 0 0 0 0 0 0.25 0"/>
<feBlend mode="normal" in2="BackgroundImageFix" result="effect1_dropShadow"/>
<feBlend mode="normal" in="SourceGraphic" in2="effect1_dropShadow" result="shape"/>
</filter>
<clipPath id="clip0">
<rect width="14" height="2" fill="white" transform="translate(12 15)"/>
</clipPath>
</defs>
</svg>
