<svg width="21" height="19" viewBox="0 0 21 19" fill="none" xmlns="http://www.w3.org/2000/svg">
<path d="M17.2471 10.4984C17.2432 10.4984 17.2394 10.4993 17.2355 10.4993C13.5373 10.4993 10.5272 7.49005 10.5272 3.79102C10.5272 2.77413 10.7611 1.81287 11.1684 0.948479C10.9575 0.928474 10.7438 0.916016 10.5272 0.916016C6.8224 0.916016 3.81896 3.91929 3.81896 7.62429V10.2961C3.81896 12.1926 2.98808 13.9828 1.5304 15.2152C1.0445 15.6302 0.828844 16.2914 1.00327 16.9365C1.20647 17.6868 1.94821 18.166 2.72644 18.166H18.3233C19.1398 18.166 19.9094 17.637 20.0751 16.8368C20.2035 16.2177 19.9831 15.5995 19.503 15.1961C18.1096 14.0279 17.3036 12.3114 17.2471 10.4984Z" fill="#274B89"/>
</svg>
