<svg width="31" height="31" viewBox="0 0 31 31" fill="none" xmlns="http://www.w3.org/2000/svg">
<circle cx="15.5" cy="15.5" r="15.5" fill="#ECF7FF"/>
<g clip-path="url(#clip0)">
<path d="M15.5 5C21.2987 5 26 9.70106 26 15.5C26 21.2989 21.2987 26 15.5 26C9.70106 26 5 21.2989 5 15.5C5 9.70106 9.70106 5 15.5 5Z" fill="#ECF7FF"/>
<path d="M9.6179 19.0486C9.38121 18.9999 9.16858 18.871 9.01592 18.6837C8.86326 18.4964 8.77993 18.2621 8.78 18.0205C8.78 17.8699 8.78084 17.7321 8.7821 17.6005H8.78V13.6105C8.78 13.4434 8.71363 13.2831 8.59548 13.165C8.47733 13.0468 8.31709 12.9805 8.15 12.9805H7.31C7.14291 12.9805 6.98267 13.0468 6.86452 13.165C6.74637 13.2831 6.68 13.4434 6.68 13.6105V17.6005H6.6779C6.67916 17.7321 6.68 17.8699 6.68 18.0205C6.68007 18.2621 6.59674 18.4964 6.44408 18.6837C6.29142 18.871 6.07879 18.9999 5.8421 19.0486C5.34818 19.144 5 19.6037 5 20.1205V20.5405C5 20.8189 5.11062 21.086 5.30754 21.2829C5.50445 21.4798 5.77152 21.5905 6.05 21.5905H9.41C9.68848 21.5905 9.95555 21.4798 10.1525 21.2829C10.3494 21.086 10.46 20.8189 10.46 20.5405V20.1205C10.46 19.6037 10.1118 19.144 9.6179 19.0486ZM7.73 14.4505C7.67483 14.4505 7.62021 14.4396 7.56924 14.4185C7.51828 14.3973 7.47197 14.3664 7.43297 14.3273C7.39397 14.2883 7.36304 14.242 7.34194 14.191C7.32084 14.1401 7.30999 14.0854 7.31 14.0303C7.31001 13.9751 7.32089 13.9205 7.34202 13.8695C7.36314 13.8185 7.3941 13.7722 7.43312 13.7332C7.47214 13.6942 7.51846 13.6633 7.56943 13.6422C7.62041 13.6211 7.67504 13.6102 7.73021 13.6103C7.84163 13.6103 7.94847 13.6546 8.02724 13.7334C8.106 13.8122 8.15024 13.9191 8.15021 14.0305C8.15018 14.1419 8.10589 14.2487 8.02709 14.3275C7.94829 14.4063 7.84142 14.4505 7.73 14.4505Z" fill="#DF9274"/>
<path d="M5.84005 19.0488C5.35768 19.1427 5.01706 19.585 5.00278 20.0877C5.01706 20.8206 5.37049 21.4271 5.84005 21.5684V19.0488Z" fill="#C88368"/>
<path d="M5 22.4297H10.46V25.9997H5V22.4297Z" fill="#2C3E50"/>
<path d="M5.41998 25.9997H5.83998V22.4297H5.41998V25.9997ZM6.25998 25.9997H6.67998V22.4297H6.25998V25.9997ZM7.09998 25.9997H7.51998V22.4297H7.09998V25.9997ZM7.93998 25.9997H8.35998V22.4297H7.93998V25.9997ZM8.77998 25.9997H9.19998V22.4297H8.77998V25.9997ZM9.61998 22.4297V25.9997H10.04V22.4297H9.61998Z" fill="#283848"/>
<path d="M5 19.9102H10.46V22.2202H5V19.9102Z" fill="#95A5A6"/>
<path d="M5 22.0102H10.46V22.4302H5V22.0102ZM5 19.9102H10.46V20.3302H5V19.9102Z" fill="#BDC3C7"/>
<path d="M6.67999 13.6105V15.0805H8.77999V13.6105C8.77999 13.4434 8.71362 13.2831 8.59547 13.165C8.47732 13.0468 8.31708 12.9805 8.14999 12.9805H7.30999C7.14291 12.9805 6.98266 13.0468 6.86452 13.165C6.74637 13.2831 6.67999 13.4434 6.67999 13.6105ZM7.72999 13.6105C7.78516 13.6105 7.83979 13.6214 7.89075 13.6425C7.94172 13.6636 7.98802 13.6946 8.02702 13.7336C8.06602 13.7726 8.09695 13.8189 8.11805 13.8699C8.13915 13.9209 8.15001 13.9755 8.14999 14.0307C8.14998 14.0858 8.1391 14.1405 8.11797 14.1914C8.09685 14.2424 8.06589 14.2887 8.02687 14.3277C7.98785 14.3667 7.94153 14.3976 7.89056 14.4187C7.83958 14.4398 7.78495 14.4507 7.72978 14.4507C7.61836 14.4507 7.51152 14.4064 7.43275 14.3276C7.35399 14.2488 7.30975 14.1419 7.30978 14.0305C7.30981 13.9191 7.3541 13.8122 7.4329 13.7334C7.51171 13.6547 7.61857 13.6104 7.72999 13.6105Z" fill="#C0392C"/>
<path d="M5 19.9102H5.84V22.2202H5V19.9102Z" fill="#869495"/>
<path d="M5 19.9102H5.84V20.3302H5V19.9102ZM5 22.0102H5.84V22.4302H5V22.0102Z" fill="#AAAFB3"/>
<path d="M30.2 14.2398H29.4762C29.4762 10.1284 26.1739 6.67833 22.115 6.67833C18.0561 6.67833 14.6491 10.1284 14.6491 14.2398H14.03C14.03 9.72376 17.6569 6.0498 22.115 6.0498C26.5731 6.0498 30.2 9.72376 30.2 14.2398Z" fill="#7F8C8D"/>
<path d="M13.19 14.2402H29.78V31.4602H13.19V14.2402Z" fill="#2C3E50"/>
<path d="M13.19 19.2803H29.78V23.4803H13.19V19.2803Z" fill="#F1C40E"/>
<path d="M21.17 14.2402H16.97V17.2852C16.97 17.5916 17.0917 17.8853 17.3083 18.1019C17.5249 18.3185 17.8187 18.4402 18.125 18.4402C18.4313 18.4402 18.7251 18.3185 18.9417 18.1019C19.1583 17.8853 19.28 17.5916 19.28 17.2852V16.4452C19.28 15.9236 19.7034 15.5002 20.225 15.5002C20.7466 15.5002 21.17 15.9236 21.17 16.4452V16.3402C21.17 16.563 21.2585 16.7767 21.416 16.9342C21.5736 17.0917 21.7872 17.1802 22.01 17.1802C22.2328 17.1802 22.4464 17.0917 22.604 16.9342C22.7615 16.7767 22.85 16.563 22.85 16.3402V14.2402H21.17Z" fill="#253544"/>
<path d="M21.59 14.2402H17.39V16.8652C17.39 17.1716 17.5117 17.4653 17.7283 17.6819C17.9449 17.8985 18.2387 18.0202 18.545 18.0202C18.8513 18.0202 19.1451 17.8985 19.3617 17.6819C19.5783 17.4653 19.7 17.1716 19.7 16.8652V16.0252C19.7052 15.7781 19.8071 15.5428 19.9837 15.3698C20.1604 15.1968 20.3978 15.0999 20.645 15.0999C20.8922 15.0999 21.1296 15.1968 21.3063 15.3698C21.4829 15.5428 21.5848 15.7781 21.59 16.0252V15.9202C21.59 16.143 21.6785 16.3567 21.836 16.5142C21.9936 16.6717 22.2072 16.7602 22.43 16.7602C22.6528 16.7602 22.8665 16.6717 23.024 16.5142C23.1815 16.3567 23.27 16.143 23.27 15.9202V14.2402H21.59Z" fill="#F1C40E"/>
<path d="M13.19 14.2402H15.29V28.5202H13.19V14.2402Z" fill="#283848"/>
<path d="M13.19 19.2803H15.29V23.4803H13.19V19.2803Z" fill="#D8B00C"/>
</g>
<defs>
<clipPath id="clip0">
<rect width="21" height="21" fill="white" transform="translate(5 5)"/>
</clipPath>
</defs>
</svg>
