<svg width="22" height="22" viewBox="0 0 22 22" fill="none" xmlns="http://www.w3.org/2000/svg">
<path d="M16.2659 15.2818L1.93861 21.5159C1.00468 21.8876 0.0765555 20.9674 0.440114 20.0304L6.70105 5.47754" fill="#FFB636"/>
<path d="M0.440165 20.0303L0.937743 18.8737C0.980411 18.8087 1.02295 18.7435 1.06566 18.6785C3.54053 14.9083 6.05167 11.161 8.64857 7.47363L11.5603 10.4582C9.36336 11.9665 2.22968 19.3386 0.735447 21.294C0.410173 20.9948 0.252091 20.515 0.440165 20.0303Z" fill="#FFD469"/>
<path d="M13.0789 8.78458C15.7367 11.4424 17.1904 14.2978 16.3258 15.1624C15.4612 16.027 12.6058 14.5733 9.94796 11.9155C7.29013 9.25776 5.83649 6.40231 6.70107 5.53769C7.56564 4.67307 10.4211 6.12675 13.0789 8.78458Z" fill="#A06C33"/>
<path d="M6.68598 14.0751C6.68598 14.3335 6.47655 14.5429 6.21826 14.5429C5.95998 14.5429 5.75055 14.3335 5.75055 14.0751C5.75055 13.8168 5.95994 13.6074 6.21826 13.6074C6.47659 13.6074 6.68598 13.8168 6.68598 14.0751Z" fill="#F7F9AA"/>
<path d="M21.5697 9.15954C21.5697 9.53027 21.2692 9.8308 20.8985 9.8308C20.5277 9.8308 20.2272 9.53027 20.2272 9.15954C20.2272 8.78881 20.5277 8.48828 20.8985 8.48828C21.2692 8.48828 21.5697 8.78881 21.5697 9.15954ZM17.0871 18.098C16.7164 18.098 16.4158 18.3985 16.4158 18.7692C16.4158 19.14 16.7164 19.4405 17.0871 19.4405C17.4578 19.4405 17.7584 19.14 17.7584 18.7692C17.7584 18.3985 17.4578 18.098 17.0871 18.098Z" fill="#FFB636"/>
<path d="M15.2947 3.41671C15.2371 3.80622 14.9854 4.15027 14.6042 4.36064C14.341 4.50588 14.0314 4.58137 13.7101 4.58137C13.6078 4.58133 13.5056 4.57377 13.4043 4.55877C13.1771 4.52517 12.9497 4.55946 12.7804 4.65283C12.7045 4.69468 12.5742 4.78625 12.553 4.92946C12.5318 5.07268 12.6302 5.19806 12.6906 5.26006C12.822 5.39477 13.0225 5.49128 13.2427 5.52733C13.2488 5.52798 13.2548 5.52819 13.2608 5.52909C14.1898 5.66642 14.8533 6.40222 14.7399 7.16934C14.6823 7.55889 14.4306 7.90295 14.0493 8.11332C13.7861 8.25855 13.4766 8.33405 13.1553 8.33405C13.053 8.334 12.9508 8.32645 12.8495 8.31145C12.6223 8.2778 12.3948 8.31209 12.2256 8.40551C12.1497 8.44736 12.0193 8.53893 11.9981 8.68214C11.9642 8.91198 12.2464 9.21543 12.7058 9.28332C12.9558 9.32027 13.1285 9.55286 13.0915 9.80285C13.0579 10.0302 12.8626 10.1935 12.6395 10.1935C12.6172 10.1935 12.5947 10.1919 12.572 10.1885C11.643 10.0512 10.9795 9.31537 11.0929 8.54829C11.1505 8.15874 11.4022 7.81469 11.7835 7.60431C12.1296 7.41336 12.5557 7.34298 12.9834 7.40618C13.2106 7.43974 13.438 7.4055 13.6073 7.31212C13.6831 7.27027 13.8135 7.17871 13.8347 7.03549C13.8681 6.80939 13.5951 6.51252 13.1488 6.43831C13.1415 6.43758 13.1341 6.43698 13.1268 6.4359C12.6992 6.37265 12.3116 6.18205 12.0356 5.8991C11.7315 5.5874 11.5901 5.18521 11.6478 4.79562C11.7053 4.4061 11.957 4.06205 12.3383 3.85168C12.6844 3.66072 13.1105 3.59034 13.5381 3.65355C13.7653 3.68706 13.9928 3.65286 14.162 3.55949C14.2379 3.51764 14.3683 3.42607 14.3895 3.28286C14.4106 3.13964 14.3123 3.01426 14.2518 2.95226C14.1168 2.8139 13.9091 2.71524 13.6818 2.68168C13.4318 2.64473 13.2591 2.41214 13.2961 2.16215C13.333 1.91215 13.5657 1.73968 13.8156 1.77642C14.2432 1.83967 14.6308 2.03028 14.9068 2.31322C15.2109 2.62496 15.3523 3.02715 15.2947 3.41671Z" fill="#BEA4FF"/>
<path d="M3.51189 6.86126C3.51189 7.28137 3.17132 7.62194 2.75122 7.62194C2.33111 7.62194 1.99054 7.28137 1.99054 6.86126C1.99054 6.44116 2.33111 6.10059 2.75122 6.10059C3.17132 6.10059 3.51189 6.44111 3.51189 6.86126ZM17.1091 5.98242C16.6238 5.98242 16.2303 6.37589 16.2303 6.86122C16.2303 7.34655 16.6238 7.74002 17.1091 7.74002C17.5945 7.74002 17.9879 7.34655 17.9879 6.86122C17.9879 6.37589 17.5945 5.98242 17.1091 5.98242ZM9.26102 17.0109C8.77565 17.0109 8.38223 17.4044 8.38223 17.8897C8.38223 18.375 8.77569 18.7685 9.26102 18.7685C9.7464 18.7685 10.1398 18.375 10.1398 17.8897C10.1398 17.4044 9.7464 17.0109 9.26102 17.0109ZM20.9186 12.9871C21.0515 12.7297 20.9506 12.4133 20.6932 12.2804C20.5906 12.2275 20.4682 12.1572 20.3264 12.0759C19.0806 11.3612 16.4885 9.87406 13.4363 12.3384C13.2109 12.5203 13.1757 12.8505 13.3577 13.0758C13.5395 13.3012 13.8697 13.3364 14.0951 13.1544C16.5888 11.1411 18.6018 12.2957 19.8044 12.9856C19.9507 13.0695 20.0888 13.1488 20.2119 13.2123C20.2731 13.244 20.3399 13.2632 20.4085 13.269C20.4772 13.2748 20.5463 13.267 20.6119 13.2461C20.6775 13.2252 20.7384 13.1915 20.791 13.1471C20.8436 13.1026 20.887 13.0483 20.9186 12.9871Z" fill="#FF6E83"/>
<path d="M18.6843 2.69717C18.6843 2.9555 18.4748 3.16488 18.2166 3.16488C17.9582 3.16488 17.7488 2.9555 17.7488 2.69717C17.7488 2.43884 17.9582 2.22945 18.2166 2.22945C18.4749 2.22941 18.6843 2.43884 18.6843 2.69717ZM1.99048 0.510832C1.73215 0.510832 1.52277 0.720219 1.52277 0.978547C1.52277 1.23688 1.73215 1.44626 1.99048 1.44626C2.24881 1.44626 2.45824 1.23688 2.45824 0.978547C2.45824 0.720219 2.24881 0.510832 1.99048 0.510832ZM9.32443 6.61484C9.37733 6.51112 9.44255 6.393 9.5116 6.26796C9.86197 5.63327 10.3418 4.76409 10.3706 3.75175C10.4053 2.53556 9.77191 1.43135 8.48809 0.469797C8.26521 0.302864 7.9493 0.348282 7.7825 0.571075C7.61561 0.79391 7.66094 1.10982 7.88378 1.27666C8.90428 2.04099 9.38811 2.8412 9.36298 3.723C9.34106 4.49094 8.94631 5.20611 8.62907 5.78074C8.55598 5.91321 8.48689 6.03829 8.42656 6.15658C8.30001 6.40455 8.39846 6.70813 8.64639 6.83467C8.71717 6.87095 8.79557 6.88987 8.87511 6.88989C8.96808 6.88995 9.05927 6.86428 9.13857 6.81574C9.21786 6.7672 9.28219 6.69767 9.32443 6.61484Z" fill="#59CAFC"/>
</svg>
