<svg width="14" height="15" viewBox="0 0 14 15" fill="none" xmlns="http://www.w3.org/2000/svg">
<path d="M13.8094 1.97272L12.0276 0.190909C11.773 -0.0636362 11.3276 -0.0636362 11.0094 0.190909L10.1821 1.01818L12.9821 3.81818L13.8094 2.9909C14.0639 2.73636 14.0639 2.29091 13.8094 1.97272Z" fill="#274B89"/>
<path d="M0.933594 10.2875L8.76276 2.45898L11.5526 5.2488L3.72277 13.0767L0.933594 10.2875Z" fill="#274B89"/>
<path d="M12.9819 3.84289L11.587 5.23779L8.79785 2.44798L10.1928 1.05371L12.9819 3.84289Z" fill="#274B89"/>
<path d="M0.954544 10.3096L0 14.0005L3.6909 13.0459L0.954544 10.3096Z" fill="#274B89"/>
<path d="M0.445454 12.0923L0 14.0014L1.90909 13.5559L0.445454 12.0923Z" fill="#274B89"/>
</svg>
