<svg width="22" height="22" viewBox="0 0 22 22" fill="none" xmlns="http://www.w3.org/2000/svg">
<g clip-path="url(#clip0)">
<path d="M21.7 3.1L18.9 0.3C18.5 -0.1 17.8 -0.1 17.3 0.3L16 1.6L20.4 6L21.7 4.7C22.1 4.3 22.1 3.6 21.7 3.1Z" fill="#E57373"/>
<path d="M1.46704 16.1672L13.77 3.86523L18.154 8.24924L5.85004 20.5502L1.46704 16.1672Z" fill="#FF9800"/>
<path d="M20.4 6.03827L18.208 8.23027L13.825 3.84627L16.0169 1.65527L20.4 6.03827Z" fill="#B0BEC5"/>
<path d="M1.5 16.2002L0 22.0002L5.8 20.5002L1.5 16.2002Z" fill="#FFC107"/>
<path d="M0.700001 19L0 22L3 21.3L0.700001 19Z" fill="#37474F"/>
</g>
<defs>
<clipPath id="clip0">
<rect width="22" height="22" fill="white"/>
</clipPath>
</defs>
</svg>
