<svg width="25" height="18" viewBox="0 0 25 18" fill="none" xmlns="http://www.w3.org/2000/svg">
<path d="M9 9C11.4814 9 13.5 6.98143 13.5 4.5C13.5 2.01857 11.4814 0 9 0C6.51857 0 4.5 2.01857 4.5 4.5C4.5 6.98143 6.51857 9 9 9ZM9 2.57143C10.0671 2.57143 10.9286 3.43286 10.9286 4.5C10.9286 5.56714 10.0671 6.42857 9 6.42857C7.93286 6.42857 7.07143 5.56714 7.07143 4.5C7.07143 3.43286 7.93286 2.57143 9 2.57143ZM9 11.25C5.99143 11.25 0 12.7543 0 15.75V18H18V15.75C18 12.7543 12.0086 11.25 9 11.25ZM3.00857 15.4286C4.08857 14.6829 6.69857 13.8214 9 13.8214C11.3014 13.8214 13.9114 14.6829 14.9914 15.4286H3.00857ZM15.4286 9C17.91 9 19.9286 6.98143 19.9286 4.5C19.9286 2.01857 17.91 0 15.4286 0C15.12 0 14.8114 0.0257145 14.5157 0.0900002C15.527 1.33614 16.0767 2.89333 16.0721 4.49815C16.0674 6.10298 15.5085 7.65693 14.49 8.89714C14.7986 8.96143 15.1071 9 15.4286 9ZM18.4114 11.5971C19.6971 12.6386 20.5714 14.0014 20.5714 15.75V18H24.4286V15.75C24.4286 13.5771 21.2914 12.2014 18.4114 11.5971Z" fill="#274B89"/>
</svg>
