<svg width="20" height="15" viewBox="0 0 20 15" fill="none" xmlns="http://www.w3.org/2000/svg">
<path d="M10 0C4.486 0 3.48971e-06 4.486 3.48971e-06 10C-0.00129293 11.5434 0.358639 13.0656 1.051 14.445C1.221 14.785 1.567 15 1.946 15H18.053C18.432 15 18.779 14.785 18.949 14.445C19.6414 13.0656 20.0013 11.5434 20 10C20 4.486 15.514 0 10 0ZM15.022 5.022L11.06 11.06C10.9498 11.2283 10.8074 11.3733 10.6411 11.4865C10.4748 11.5998 10.2878 11.6791 10.0908 11.72C9.89376 11.7608 9.69062 11.7624 9.49298 11.7247C9.29534 11.687 9.10709 11.6106 8.939 11.5C8.72628 11.3609 8.55156 11.171 8.43064 10.9474C8.30972 10.7238 8.24639 10.4737 8.24639 10.2195C8.24639 9.96533 8.30972 9.71516 8.43064 9.49159C8.55156 9.26803 8.72628 9.07811 8.939 8.939L14.977 4.977C14.9843 4.97247 14.9931 4.97097 15.0015 4.97284C15.0099 4.97471 15.0173 4.97979 15.022 4.987C15.0252 4.99229 15.0269 4.99834 15.0269 5.0045C15.0269 5.01067 15.0252 5.01671 15.022 5.022Z" fill="#929AA7"/>
</svg>
