<svg width="27" height="27" viewBox="0 0 27 27" fill="none" xmlns="http://www.w3.org/2000/svg">
<path d="M9.82915 4.8252L24.7601 9.8337L19.7516 24.7647L4.82065 19.7562L9.82915 4.8252Z" fill="#64B5F6"/>
<path d="M10.8214 7.0332L22.59 10.8695L19.1025 21.5682L7.33389 17.732L10.8214 7.0332Z" fill="#1E88E5"/>
<path d="M6.12056 3.25L21.6028 6.10075L18.7521 21.583L3.26981 18.7322L6.12056 3.25Z" fill="#90CAF9"/>
<path d="M7.4357 5.3125L19.6251 7.47812L17.6563 18.5594L5.46695 16.3937L7.4357 5.3125Z" fill="#42A5F5"/>
<path d="M2.25 2.25H18V18H2.25V2.25Z" fill="#BBDEFB"/>
<path d="M3.9375 3.9375H16.3125V15.1875H3.9375V3.9375Z" fill="#4CAF50"/>
<path d="M9 7.3125C9 6.69375 9.50625 6.1875 10.125 6.1875C10.7437 6.1875 11.25 6.69375 11.25 7.3125C11.25 7.93125 10.125 9.5625 10.125 9.5625C10.125 9.5625 9 7.93125 9 7.3125Z" fill="white"/>
<path d="M11.25 11.8125C11.25 12.4313 10.7437 12.9375 10.125 12.9375C9.50625 12.9375 9 12.4313 9 11.8125C9 11.1938 10.125 9.5625 10.125 9.5625C10.125 9.5625 11.25 11.1938 11.25 11.8125Z" fill="white"/>
<path d="M7.59374 9.39328C7.03124 9.05578 6.86249 8.38078 7.19999 7.87453C7.53749 7.31203 8.21249 7.14328 8.71874 7.48078C9.28124 7.81828 10.125 9.56203 10.125 9.56203C10.125 9.56203 8.15624 9.73078 7.59374 9.39328Z" fill="white"/>
<path d="M12.6562 9.73145C13.2188 10.0689 13.3875 10.7439 13.05 11.2502C12.7125 11.8127 12.0375 11.9814 11.5312 11.6439C10.9688 11.3627 10.125 9.5627 10.125 9.5627C10.125 9.5627 12.0938 9.39395 12.6562 9.73145Z" fill="white"/>
<path d="M12.6562 9.39328C13.2188 9.05578 13.3875 8.38078 13.05 7.87453C12.7125 7.31203 12.0375 7.14328 11.5312 7.48078C10.9688 7.76203 10.125 9.56203 10.125 9.56203C10.125 9.56203 12.0938 9.73078 12.6562 9.39328Z" fill="white"/>
<path d="M7.59374 9.73145C7.03124 10.0689 6.86249 10.7439 7.19999 11.2502C7.53749 11.8127 8.21249 11.9814 8.71874 11.6439C9.28124 11.3064 10.125 9.5627 10.125 9.5627C10.125 9.5627 8.15624 9.39395 7.59374 9.73145Z" fill="white"/>
<path d="M10.125 10.6875C10.7463 10.6875 11.25 10.1838 11.25 9.5625C11.25 8.94118 10.7463 8.4375 10.125 8.4375C9.50368 8.4375 9 8.94118 9 9.5625C9 10.1838 9.50368 10.6875 10.125 10.6875Z" fill="#FFC107"/>
</svg>
