<svg width="36" height="36" viewBox="0 0 36 36" fill="none" xmlns="http://www.w3.org/2000/svg">
<path d="M18.3311 34.1797C27.392 34.1797 34.7373 26.8344 34.7373 17.7734C34.7373 8.71252 27.392 1.36719 18.3311 1.36719C9.27013 1.36719 1.9248 8.71252 1.9248 17.7734C1.9248 26.8344 9.27013 34.1797 18.3311 34.1797Z" fill="#FFB211" fill-opacity="0.24"/>
<path fill-rule="evenodd" clip-rule="evenodd" d="M13.3311 25.2734C13.1984 25.2734 13.0713 25.2208 12.9775 25.127C12.8837 25.0332 12.8311 24.906 12.8311 24.7734C12.8311 24.6408 12.8837 24.5137 12.9775 24.4199C13.0713 24.3261 13.1984 24.2734 13.3311 24.2734H14.3311V23.2734C14.3308 22.4244 14.5708 21.5926 15.0233 20.8742C15.4758 20.1558 16.1222 19.58 16.8881 19.2134C17.1781 19.0744 17.3311 18.8364 17.3311 18.6234V17.9234C17.3311 17.7104 17.1771 17.4724 16.8881 17.3334C16.1222 16.9668 15.4758 16.3911 15.0233 15.6727C14.5708 14.9542 14.3308 14.1225 14.3311 13.2734V12.2734H13.3311C13.1984 12.2734 13.0713 12.2208 12.9775 12.127C12.8837 12.0332 12.8311 11.906 12.8311 11.7734C12.8311 11.6408 12.8837 11.5137 12.9775 11.4199C13.0713 11.3261 13.1984 11.2734 13.3311 11.2734H24.3311C24.4637 11.2734 24.5908 11.3261 24.6846 11.4199C24.7784 11.5137 24.8311 11.6408 24.8311 11.7734C24.8311 11.906 24.7784 12.0332 24.6846 12.127C24.5908 12.2208 24.4637 12.2734 24.3311 12.2734H23.3311V13.2734C23.3313 14.1225 23.0913 14.9542 22.6388 15.6727C22.1863 16.3911 21.5399 16.9668 20.7741 17.3334C20.4841 17.4724 20.3311 17.7104 20.3311 17.9234V18.6234C20.3311 18.8364 20.4851 19.0744 20.7741 19.2134C21.5399 19.58 22.1863 20.1558 22.6388 20.8742C23.0913 21.5926 23.3313 22.4244 23.3311 23.2734V24.2734H24.3311C24.4637 24.2734 24.5908 24.3261 24.6846 24.4199C24.7784 24.5137 24.8311 24.6408 24.8311 24.7734C24.8311 24.906 24.7784 25.0332 24.6846 25.127C24.5908 25.2208 24.4637 25.2734 24.3311 25.2734H13.3311ZM15.3311 12.2734V13.2734C15.3311 13.8104 15.4511 14.3184 15.6681 14.7734H21.9941C22.2101 14.3184 22.3311 13.8104 22.3311 13.2734V12.2734H15.3311ZM18.3311 18.6234C18.3311 19.3244 17.8531 19.8594 17.3201 20.1154C16.7243 20.4005 16.2215 20.8484 15.8695 21.4072C15.5175 21.966 15.3309 22.613 15.3311 23.2734C15.3311 23.2734 16.1971 21.9744 18.3311 21.7934V18.6234ZM19.3311 18.6234C19.3311 19.3244 19.8091 19.8594 20.3421 20.1154C20.9378 20.4005 21.4406 20.8484 21.7926 21.4072C22.1446 21.966 22.3312 22.613 22.3311 23.2734C22.3311 23.2734 21.4651 21.9744 19.3311 21.7934V18.6234Z" fill="#FFB211"/>
</svg>
