<svg width="12" height="12" viewBox="0 0 12 12" fill="none" xmlns="http://www.w3.org/2000/svg">
<path d="M11.3809 4.59192L7.87729 4.10313L6.31106 1.05519C6.26828 0.97174 6.19791 0.904185 6.11097 0.863122C5.89294 0.759802 5.62799 0.845902 5.51898 1.05519L3.95275 4.10313L0.449094 4.59192C0.352498 4.60516 0.264183 4.64887 0.196566 4.71511C0.114821 4.79576 0.0697754 4.90426 0.0713279 5.01678C0.0728804 5.12929 0.120904 5.23661 0.204845 5.31516L2.73979 7.68754L2.1409 11.0375C2.12685 11.1154 2.13583 11.1956 2.16683 11.2688C2.19782 11.3421 2.24958 11.4056 2.31624 11.4521C2.3829 11.4985 2.4618 11.5262 2.54397 11.5318C2.62615 11.5374 2.70833 11.5208 2.78119 11.4839L5.91502 9.9023L9.04885 11.4839C9.13441 11.5276 9.23377 11.5422 9.32898 11.5263C9.56909 11.4865 9.73054 11.268 9.68914 11.0375L9.09025 7.68754L11.6252 5.31516C11.6942 5.25025 11.7397 5.16548 11.7535 5.07275C11.7908 4.84094 11.6224 4.62636 11.3809 4.59192Z" fill="#FFB211"/>
</svg>
