<svg width="24" height="24" viewBox="0 0 24 24" fill="none" xmlns="http://www.w3.org/2000/svg">
<circle cx="12" cy="12" r="12" fill="#C2E0FF"/>
<path d="M14.295 15L11.5 12.205V7.5H12.5V11.79L15 14.295L14.295 15Z" fill="white"/>
<path d="M12 5C11.0675 5.00013 10.1445 5.18739 9.28561 5.55068C8.42677 5.91397 7.64955 6.44591 7 7.115V5H6V9H10V8H7.54C8.47801 6.95765 9.75149 6.27676 11.1393 6.0756C12.527 5.87444 13.9414 6.16571 15.1368 6.89882C16.3322 7.63193 17.233 8.76057 17.6829 10.0887C18.1327 11.4169 18.1032 12.8607 17.5993 14.1693C17.0955 15.4779 16.1492 16.5688 14.9249 17.2523C13.7005 17.9359 12.2754 18.1691 10.897 17.9113C9.51862 17.6535 8.27407 16.9211 7.3795 15.8412C6.48492 14.7614 5.99683 13.4023 6 12H5C5 13.3845 5.41054 14.7378 6.17971 15.889C6.94888 17.0401 8.04213 17.9373 9.32122 18.4672C10.6003 18.997 12.0078 19.1356 13.3656 18.8655C14.7235 18.5954 15.9708 17.9287 16.9497 16.9497C17.9287 15.9708 18.5954 14.7235 18.8655 13.3656C19.1356 12.0078 18.997 10.6003 18.4672 9.32122C17.9373 8.04213 17.0401 6.94888 15.889 6.17971C14.7378 5.41054 13.3845 5 12 5Z" fill="white"/>
</svg>
