<svg width="31" height="31" viewBox="0 0 31 31" fill="none" xmlns="http://www.w3.org/2000/svg">
<circle cx="15.5" cy="15.5" r="15.5" fill="#ECF7FF"/>
<path d="M17.4082 14.9909L18.3074 14.0918C18.6296 14.219 18.974 14.281 19.3204 14.2742C19.6668 14.2673 20.0084 14.1917 20.3254 14.0518C20.362 14.0357 20.3942 14.0111 20.4192 13.9799C20.4443 13.9487 20.4614 13.912 20.4693 13.8728C20.4771 13.8336 20.4754 13.7931 20.4643 13.7547C20.4531 13.7163 20.4329 13.6812 20.4054 13.6522L18.8069 12.0537C18.7595 12.0087 18.7218 11.9544 18.696 11.8943C18.6702 11.8342 18.657 11.7695 18.657 11.7041C18.657 11.6387 18.6702 11.574 18.696 11.5139C18.7218 11.4537 18.7595 11.3995 18.8069 11.3544L20.4054 9.75593C20.4333 9.72718 20.4539 9.69205 20.4653 9.65357C20.4766 9.61509 20.4784 9.57443 20.4706 9.53508C20.4627 9.49574 20.4454 9.45891 20.4201 9.42776C20.3948 9.39661 20.3623 9.37209 20.3254 9.35631C19.8601 9.14405 19.3423 9.07451 18.8375 9.15648C18.3327 9.23845 17.8635 9.46825 17.4893 9.81683C17.115 10.1654 16.8525 10.6171 16.735 11.1149C16.6174 11.6126 16.65 12.134 16.8288 12.6132L15.9096 13.5323L17.4082 14.9909Z" fill="url(#paint0_radial)"/>
<path d="M15.6898 13.732L14.451 12.4932L12.9724 13.9718L14.2112 15.2106L15.6898 16.6892L20.2455 21.2448C20.2768 21.2765 20.3142 21.3016 20.3553 21.3188C20.3965 21.3359 20.4406 21.3447 20.4852 21.3447C20.5298 21.3447 20.5739 21.3359 20.6151 21.3188C20.6563 21.3016 20.6936 21.2765 20.725 21.2448L21.744 20.2258C21.7771 20.1952 21.8035 20.1581 21.8215 20.1169C21.8396 20.0756 21.8489 20.0311 21.8489 19.986C21.8489 19.941 21.8396 19.8964 21.8215 19.8552C21.8035 19.8139 21.7771 19.7768 21.744 19.7463L17.1684 15.2306L15.6898 13.732Z" fill="url(#paint1_radial)"/>
<path d="M21.0847 10.5544L19.746 11.8932C19.6978 11.9446 19.6711 12.0125 19.6711 12.083C19.6711 12.1535 19.6978 12.2213 19.746 12.2728L20.765 13.2918C20.7914 13.3189 20.8233 13.34 20.8585 13.3538C20.8938 13.3676 20.9315 13.3738 20.9693 13.3719C21.0071 13.37 21.0441 13.3601 21.0777 13.3429C21.1114 13.3256 21.141 13.3014 21.1646 13.2718C21.4553 12.9045 21.6405 12.4649 21.7004 12.0002C21.7602 11.5356 21.6924 11.0634 21.5043 10.6343C21.4862 10.597 21.4596 10.5645 21.4266 10.5392C21.3937 10.514 21.3553 10.4968 21.3146 10.4891C21.2738 10.4813 21.2318 10.4832 21.1919 10.4945C21.152 10.5059 21.1153 10.5264 21.0847 10.5544Z" fill="url(#paint2_radial)"/>
<path d="M10.8744 16.8688L12.4729 18.4673C12.5202 18.5124 12.5579 18.5667 12.5837 18.6268C12.6095 18.6869 12.6228 18.7516 12.6228 18.817C12.6228 18.8824 12.6095 18.9471 12.5837 19.0072C12.5579 19.0673 12.5202 19.1216 12.4729 19.1667L10.8744 20.7651C10.8464 20.7939 10.8258 20.829 10.8145 20.8675C10.8031 20.906 10.8013 20.9466 10.8092 20.986C10.817 21.0253 10.8343 21.0622 10.8596 21.0933C10.8849 21.1245 10.9174 21.149 10.9543 21.1648C11.4176 21.3769 11.9334 21.4471 12.4366 21.3666C12.9398 21.2861 13.4079 21.0583 13.7819 20.7121C14.1559 20.366 14.419 19.9168 14.538 19.4213C14.6571 18.9258 14.6268 18.4061 14.451 17.9278L15.45 16.9288L13.9714 15.4502L12.9924 16.4293C12.3345 16.1722 11.6016 16.1866 10.9543 16.4692C10.9177 16.4853 10.8855 16.51 10.8605 16.5412C10.8355 16.5723 10.8183 16.6091 10.8105 16.6483C10.8026 16.6875 10.8044 16.728 10.8155 16.7664C10.8266 16.8048 10.8468 16.8399 10.8744 16.8688Z" fill="url(#paint3_radial)"/>
<path d="M10.1151 17.2484C9.82439 17.6158 9.63918 18.0554 9.57933 18.52C9.51949 18.9847 9.58728 19.4568 9.77543 19.8859C9.79239 19.927 9.81941 19.9632 9.854 19.9911C9.88859 20.0191 9.92964 20.0379 9.9734 20.0459C10.0172 20.0538 10.0622 20.0506 10.1044 20.0367C10.1466 20.0227 10.1847 19.9983 10.215 19.9658L11.5537 18.6271C11.6019 18.5756 11.6287 18.5077 11.6287 18.4373C11.6287 18.3668 11.6019 18.2989 11.5537 18.2474L10.5347 17.2284C10.5064 17.2011 10.4728 17.1798 10.436 17.166C10.3992 17.1521 10.3599 17.1459 10.3206 17.1478C10.2813 17.1497 10.2428 17.1595 10.2075 17.1768C10.1721 17.1941 10.1407 17.2185 10.1151 17.2484Z" fill="url(#paint4_radial)"/>
<path d="M10.4548 12.7923H10.5547L10.4548 12.6924V12.7923Z" fill="url(#paint5_radial)"/>
<path d="M11.3739 14.191L11.6736 13.8913L10.5747 12.7924H10.4748C10.4717 12.7578 10.4786 12.7231 10.4947 12.6924L10.275 12.4727L9.97524 12.7724L9.79541 12.6125C9.71853 12.5358 9.61433 12.4926 9.50568 12.4926C9.39704 12.4926 9.29284 12.5358 9.21596 12.6125L9.13604 12.6924C9.05926 12.7693 9.01614 12.8735 9.01614 12.9822C9.01614 13.0908 9.05926 13.195 9.13604 13.2719L10.8744 15.0102C10.9513 15.087 11.0555 15.1301 11.1641 15.1301C11.2728 15.1301 11.377 15.087 11.4538 15.0102L11.5338 14.9303C11.6105 14.8534 11.6536 14.7492 11.6536 14.6406C11.6536 14.5319 11.6105 14.4277 11.5338 14.3509L11.3739 14.191Z" fill="url(#paint6_radial)"/>
<path d="M13.0723 9.73574L14.471 11.1344C16.0894 10.0554 16.9886 10.9546 15.7497 9.71576C14.8906 8.85658 13.8116 9.2562 13.0723 9.73574Z" fill="url(#paint7_radial)"/>
<path d="M14.371 11.514L14.2112 11.3541L12.7925 9.91551L12.6327 9.75566C12.5966 9.71777 12.5532 9.6876 12.5051 9.66698C12.4571 9.64637 12.4053 9.63574 12.353 9.63574C12.3006 9.63574 12.2489 9.64637 12.2008 9.66698C12.1527 9.6876 12.1093 9.71777 12.0732 9.75566L10.3349 11.494C10.2581 11.5709 10.215 11.6751 10.215 11.7837C10.215 11.8924 10.2581 11.9966 10.3349 12.0735L10.4548 12.1933L10.4748 12.2133L10.6146 12.3532C10.9343 11.8736 11.5537 11.3941 11.0742 10.9345C11.5537 11.4141 10.9343 11.8936 10.6146 12.3532L11.0342 12.7728L11.9134 13.6519L12.0732 13.8118C12.1096 13.8493 12.153 13.8792 12.2011 13.8998C12.2491 13.9204 12.3007 13.9312 12.353 13.9317H12.4329C12.4915 13.9174 12.5461 13.8901 12.5927 13.8518C12.6127 13.8318 12.6327 13.8318 12.6327 13.8118L12.7126 13.7319L14.1912 12.2533L14.3111 12.1334L14.371 12.0735C14.3957 12.0507 14.416 12.0236 14.431 11.9935C14.4804 11.9198 14.5015 11.8307 14.4905 11.7426C14.4795 11.6545 14.4371 11.5733 14.371 11.514Z" fill="url(#paint8_radial)"/>
<path d="M15.49 5.05956C15.4382 5.05762 15.3868 5.06956 15.3411 5.09415C15.2954 5.11874 15.2572 5.15509 15.2303 5.19943L14.6908 6.07859L14.431 6.09857L13.7317 5.33929C13.6963 5.30312 13.6524 5.27636 13.6041 5.26143C13.5558 5.2465 13.5044 5.24388 13.4548 5.25381C13.4052 5.26373 13.3589 5.28588 13.32 5.31826C13.2811 5.35063 13.2509 5.3922 13.2322 5.4392L12.8725 6.39829L12.6327 6.47821L11.7935 5.87878C11.75 5.85378 11.7013 5.83912 11.6511 5.83595C11.601 5.83278 11.5509 5.84118 11.5045 5.86049C11.4582 5.8798 11.4169 5.90952 11.3838 5.94734C11.3508 5.98515 11.3269 6.03006 11.314 6.07859L11.1541 7.09762L10.9144 7.19753L9.97526 6.77792C9.92918 6.75932 9.87925 6.75224 9.82982 6.75731C9.78039 6.76237 9.73294 6.77943 9.69159 6.80699C9.65024 6.83456 9.61625 6.8718 9.59256 6.91548C9.56887 6.95916 9.5562 7.00797 9.55566 7.05766L9.59562 8.09667L9.39581 8.25652L8.39676 8.01674C8.3476 8.00804 8.29707 8.01132 8.24945 8.02632C8.20183 8.04131 8.15854 8.06758 8.12323 8.10288C8.08793 8.13818 8.06167 8.18148 8.04668 8.22909C8.03168 8.27671 8.0284 8.32724 8.0371 8.3764L8.27687 9.37545L8.11703 9.57526L7.07801 9.5353C7.02857 9.5365 6.98014 9.54958 6.93681 9.57344C6.89349 9.59731 6.85655 9.63125 6.82911 9.67241C6.80168 9.71356 6.78455 9.76072 6.77918 9.80989C6.77382 9.85906 6.78037 9.90879 6.79828 9.9549L7.21788 10.894L7.098 11.1138L6.07897 11.2736C6.02994 11.2858 5.98445 11.3093 5.94613 11.3422C5.90781 11.3751 5.87773 11.4165 5.85831 11.4631C5.83888 11.5097 5.83065 11.5602 5.83427 11.6106C5.83789 11.661 5.85326 11.7098 5.87916 11.7532L6.47859 12.5924L6.39866 12.8721L5.43958 13.2318C5.3929 13.2509 5.35168 13.2812 5.31959 13.3201C5.28749 13.359 5.26552 13.4053 5.25563 13.4547C5.24574 13.5042 5.24824 13.5553 5.2629 13.6036C5.27756 13.6518 5.30394 13.6957 5.33967 13.7313L6.09895 14.4306L6.07897 14.6904L5.1998 15.2299C5.15812 15.2592 5.12411 15.2981 5.10062 15.3433C5.07714 15.3885 5.06488 15.4387 5.06488 15.4896C5.06488 15.5406 5.07714 15.5908 5.10062 15.636C5.12411 15.6812 5.15812 15.7201 5.1998 15.7494L6.07897 16.2889L6.09895 16.5486L5.33967 17.248C5.3035 17.2833 5.27674 17.3272 5.26181 17.3755C5.24688 17.4239 5.24426 17.4752 5.25418 17.5248C5.2641 17.5744 5.28626 17.6208 5.31863 17.6597C5.35101 17.6985 5.39258 17.7287 5.43958 17.7475L6.39866 18.1271L6.47859 18.3669L5.87916 19.2061C5.85326 19.2495 5.83789 19.2983 5.83427 19.3487C5.83065 19.399 5.83888 19.4496 5.85831 19.4962C5.87773 19.5428 5.90781 19.5842 5.94613 19.6171C5.98445 19.65 6.02994 19.6735 6.07897 19.6856L7.098 19.8455L7.21788 20.0653L6.79828 21.0044C6.77968 21.0505 6.7726 21.1004 6.77767 21.1498C6.78273 21.1992 6.79979 21.2467 6.82735 21.288C6.85492 21.3294 6.89216 21.3634 6.93584 21.3871C6.97952 21.4108 7.02833 21.4234 7.07801 21.424L8.11703 21.384L8.27687 21.5838L8.0371 22.5829C8.0284 22.632 8.03168 22.6826 8.04668 22.7302C8.06167 22.7778 8.08793 22.8211 8.12323 22.8564C8.15854 22.8917 8.20183 22.918 8.24945 22.933C8.29707 22.948 8.3476 22.9512 8.39676 22.9425L9.39581 22.7028L9.59562 22.8626L9.55566 23.9016C9.55685 23.9511 9.56994 23.9995 9.5938 24.0428C9.61767 24.0861 9.65161 24.1231 9.69276 24.1505C9.73392 24.178 9.78107 24.1951 9.83024 24.2004C9.87941 24.2058 9.92915 24.1993 9.97526 24.1814L10.9144 23.7618L11.1342 23.8816L11.294 24.9007C11.3061 24.9497 11.3296 24.9952 11.3625 25.0335C11.3954 25.0718 11.4368 25.1019 11.4835 25.1213C11.5301 25.1408 11.5806 25.149 11.631 25.1454C11.6814 25.1417 11.7302 25.1264 11.7735 25.1005L12.6127 24.501L12.8525 24.581L13.2122 25.5401C13.2313 25.5867 13.2616 25.628 13.3005 25.66C13.3394 25.6921 13.3857 25.7141 13.4351 25.724C13.4846 25.7339 13.5357 25.7314 13.584 25.7167C13.6322 25.7021 13.6761 25.6757 13.7117 25.64L14.411 24.8807L14.6708 24.9007L15.2103 25.7798C15.2396 25.8215 15.2785 25.8555 15.3237 25.879C15.3689 25.9025 15.4191 25.9148 15.47 25.9148C15.521 25.9148 15.5712 25.9025 15.6164 25.879C15.6616 25.8555 15.7005 25.8215 15.7298 25.7798L16.2693 24.9007L16.529 24.8807L17.2283 25.64C17.2637 25.6761 17.3076 25.7029 17.3559 25.7178C17.4043 25.7328 17.4556 25.7354 17.5052 25.7255C17.5548 25.7155 17.6012 25.6934 17.6401 25.661C17.6789 25.6286 17.7091 25.5871 17.7279 25.5401L18.0875 24.581L18.3273 24.501L19.1665 25.1005C19.2101 25.1255 19.2588 25.1401 19.3089 25.1433C19.359 25.1465 19.4092 25.1381 19.4555 25.1188C19.5019 25.0995 19.5432 25.0697 19.5762 25.0319C19.6092 24.9941 19.6331 24.9492 19.646 24.9007L19.8059 23.8816L20.0257 23.7618L20.9648 24.1814C21.0109 24.2 21.0608 24.207 21.1102 24.202C21.1597 24.1969 21.2071 24.1798 21.2485 24.1523C21.2898 24.1247 21.3238 24.0875 21.3475 24.0438C21.3712 24.0001 21.3838 23.9513 21.3844 23.9016L21.3444 22.8626L21.5442 22.7028L22.5433 22.9425C22.5924 22.9512 22.643 22.948 22.6906 22.933C22.7382 22.918 22.7815 22.8917 22.8168 22.8564C22.8521 22.8211 22.8784 22.7778 22.8934 22.7302C22.9084 22.6826 22.9116 22.632 22.9029 22.5829L22.6632 21.5838L22.823 21.384L23.862 21.424C23.9115 21.4228 23.9599 21.4097 24.0032 21.3858C24.0466 21.362 24.0835 21.328 24.1109 21.2869C24.1384 21.2457 24.1555 21.1986 24.1609 21.1494C24.1662 21.1002 24.1597 21.0505 24.1418 21.0044L23.7821 20.0653L23.902 19.8455L24.921 19.6856C24.97 19.6735 25.0155 19.65 25.0539 19.6171C25.0922 19.5842 25.1223 19.5428 25.1417 19.4962C25.1611 19.4496 25.1693 19.399 25.1657 19.3487C25.1621 19.2983 25.1467 19.2495 25.1208 19.2061L24.5214 18.3669L24.6013 18.1271L25.5604 17.7675C25.6071 17.7484 25.6483 17.718 25.6804 17.6791C25.7125 17.6402 25.7345 17.5939 25.7444 17.5445C25.7542 17.495 25.7518 17.4439 25.7371 17.3957C25.7224 17.3474 25.6961 17.3035 25.6603 17.2679L24.901 16.5686L24.921 16.3088L25.8002 15.7694C25.8419 15.7401 25.8759 15.7012 25.8994 15.656C25.9228 15.6108 25.9351 15.5606 25.9351 15.5096C25.9351 15.4587 25.9228 15.4085 25.8994 15.3633C25.8759 15.318 25.8419 15.2792 25.8002 15.2499L24.921 14.7104L24.901 14.4506L25.6603 13.7513C25.6965 13.7159 25.7233 13.672 25.7382 13.6237C25.7531 13.5754 25.7557 13.524 25.7458 13.4744C25.7359 13.4248 25.7137 13.3785 25.6814 13.3396C25.649 13.3007 25.6074 13.2705 25.5604 13.2518L24.6013 12.8921L24.5214 12.6523L25.1208 11.8131C25.1458 11.7696 25.1605 11.7209 25.1637 11.6708C25.1668 11.6206 25.1584 11.5705 25.1391 11.5241C25.1198 11.4778 25.0901 11.4365 25.0523 11.4034C25.0145 11.3704 24.9695 11.3465 24.921 11.3336L23.902 11.1737L23.7821 10.914L24.2017 9.97488C24.2203 9.9288 24.2274 9.87888 24.2223 9.82945C24.2173 9.78001 24.2002 9.73256 24.1726 9.69122C24.1451 9.64987 24.1078 9.61587 24.0641 9.59219C24.0205 9.5685 23.9717 9.55583 23.922 9.55528L22.9029 9.59524L22.7431 9.39543L22.9829 8.39638C22.9916 8.34722 22.9883 8.29669 22.9733 8.24907C22.9583 8.20146 22.932 8.15816 22.8967 8.12286C22.8614 8.08756 22.8181 8.06129 22.7705 8.0463C22.7229 8.03131 22.6724 8.02802 22.6232 8.03673L21.6242 8.2765L21.4244 8.11665L21.4643 7.07764C21.4631 7.02819 21.45 6.97976 21.4262 6.93644C21.4023 6.89311 21.3684 6.85617 21.3272 6.82874C21.286 6.8013 21.2389 6.78417 21.1897 6.77881C21.1406 6.77344 21.0908 6.77999 21.0447 6.79791L20.0856 7.19753L19.8658 7.07764L19.706 6.05861C19.6938 6.00959 19.6704 5.96409 19.6375 5.92577C19.6046 5.88745 19.5632 5.85738 19.5165 5.83795C19.4699 5.81852 19.4194 5.81029 19.369 5.81391C19.3186 5.81753 19.2698 5.83291 19.2264 5.8588L18.3872 6.45823L18.1275 6.39829L17.7678 5.4392C17.7487 5.39253 17.7184 5.35131 17.6795 5.31921C17.6406 5.28712 17.5943 5.26514 17.5449 5.25525C17.4954 5.24536 17.4443 5.24786 17.396 5.26252C17.3478 5.27719 17.3039 5.30356 17.2683 5.33929L16.569 6.09857L16.3092 6.07859L15.7697 5.19943C15.7403 5.15283 15.6987 5.11516 15.6494 5.09051C15.6001 5.06586 15.545 5.05516 15.49 5.05956ZM15.49 6.89781C15.5702 6.89861 15.6494 6.91532 15.7231 6.94698C15.7968 6.97864 15.8634 7.02462 15.9192 7.08224C15.9749 7.13986 16.0187 7.20798 16.0479 7.28265C16.0772 7.35732 16.0913 7.43706 16.0894 7.51722C16.0894 8.33644 14.8506 8.33644 14.8506 7.51722C14.8482 7.43352 14.8633 7.35023 14.8948 7.27266C14.9264 7.19509 14.9737 7.12494 15.0339 7.06667C15.094 7.00841 15.1656 6.9633 15.2442 6.93423C15.3227 6.90516 15.4064 6.89276 15.49 6.89781ZM16.9087 7.91684C17.9992 8.12484 19.0319 8.56651 19.9355 9.2115C20.8392 9.85649 21.5925 10.6895 22.1437 11.6533L21.4044 13.3117C21.345 13.447 21.341 13.6002 21.3933 13.7385C21.4456 13.8767 21.55 13.9889 21.6841 14.051L23.1028 14.6704C23.1427 15.11 23.1028 15.9892 23.1028 15.9892C22.99 17.4264 22.4778 18.8036 21.6242 19.9654C21.4119 20.2499 21.1852 20.5234 20.9448 20.7846L19.6261 20.5049C19.4779 20.475 19.3239 20.5043 19.197 20.5864C19.07 20.6685 18.9802 20.797 18.9467 20.9444L18.627 22.403C17.6244 22.8559 16.5358 23.0868 15.4357 23.0799C14.3356 23.073 13.2499 22.8285 12.2531 22.3631L11.9334 20.9045C11.9008 20.7565 11.8112 20.6274 11.684 20.5451C11.5568 20.4628 11.4023 20.434 11.254 20.4649L9.97526 20.7446C9.73548 20.5049 9.31588 19.9654 9.31588 19.9654C8.77123 19.2325 8.36495 18.4064 8.11703 17.5277C8.11703 17.5277 8.0371 17.228 7.99714 17.0881C7.97716 17.0282 7.97716 16.9682 7.95718 16.9083C7.9208 16.7367 7.89411 16.5633 7.87725 16.3888C7.85727 16.3088 7.85727 16.2289 7.83729 16.129C7.81731 15.9892 7.79733 15.5096 7.79733 15.4297V15.1699C7.79733 15.07 7.81731 14.9701 7.81731 14.8702C7.81731 14.7903 7.83729 14.6904 7.83729 14.6105L9.17602 14.011C9.24497 13.9804 9.30708 13.9363 9.35867 13.8812C9.41026 13.8262 9.45028 13.7613 9.47636 13.6905C9.50245 13.6197 9.51406 13.5444 9.51052 13.4691C9.50698 13.3937 9.48836 13.3198 9.45575 13.2518L8.7764 11.7132C9.04963 11.2182 9.37809 10.7556 9.75547 10.3345C9.75547 10.3345 9.93529 10.1347 9.99524 10.0748C10.1151 9.9549 10.235 9.83501 10.3749 9.71513L10.4148 9.67517C11.4352 8.77847 12.6771 8.17134 14.0114 7.91684L14.9705 8.91589C15.0741 9.02406 15.2163 9.08687 15.366 9.09061C15.5157 9.09435 15.6609 9.03873 15.7697 8.93587L16.9087 7.91684ZM8.07706 12.5125C8.19092 12.515 8.30175 12.5496 8.39676 12.6124C8.50969 12.6866 8.5953 12.7957 8.64058 12.923C8.68586 13.0503 8.68835 13.189 8.64765 13.3178C8.60695 13.4467 8.5253 13.5588 8.41511 13.637C8.30491 13.7152 8.17218 13.7554 8.0371 13.7513C7.87631 13.7461 7.72385 13.6786 7.61197 13.5629C7.5001 13.4473 7.43759 13.2927 7.43767 13.1319C7.43866 13.0491 7.45602 12.9674 7.48874 12.8914C7.52147 12.8154 7.56893 12.7466 7.62837 12.689C7.6878 12.6314 7.75805 12.5862 7.83507 12.5559C7.91208 12.5256 7.99432 12.5108 8.07706 12.5125ZM22.883 12.5324C22.9631 12.5332 23.0424 12.55 23.116 12.5816C23.1897 12.6133 23.2564 12.6593 23.3121 12.7169C23.3679 12.7745 23.4117 12.8426 23.4409 12.9173C23.4701 12.992 23.4842 13.0717 23.4824 13.1519C23.4824 13.9711 22.2436 13.9711 22.2436 13.1519C22.2488 12.9858 22.3184 12.8282 22.4378 12.7126C22.5571 12.597 22.7168 12.5324 22.883 12.5324ZM10.8744 21.2641C10.9546 21.2649 11.0338 21.2816 11.1075 21.3133C11.1812 21.345 11.2478 21.3909 11.3036 21.4486C11.3593 21.5062 11.4031 21.5743 11.4323 21.649C11.4615 21.7236 11.4757 21.8034 11.4738 21.8835C11.4738 22.7028 10.235 22.7028 10.235 21.8835C10.2402 21.7174 10.3099 21.5599 10.4292 21.4443C10.5486 21.3287 10.7082 21.264 10.8744 21.2641ZM20.0856 21.2841C20.1658 21.2849 20.245 21.3016 20.3187 21.3333C20.3924 21.3649 20.459 21.4109 20.5148 21.4685C20.5706 21.5262 20.6143 21.5943 20.6435 21.669C20.6728 21.7436 20.6869 21.8234 20.6851 21.9035C20.6851 22.7227 19.4462 22.7227 19.4462 21.9035C19.4472 21.8208 19.4646 21.739 19.4973 21.663C19.53 21.587 19.5775 21.5182 19.6369 21.4607C19.6964 21.4031 19.7666 21.3578 19.8436 21.3275C19.9206 21.2972 20.0029 21.2825 20.0856 21.2841Z" fill="url(#paint9_radial)"/>
<defs>
<radialGradient id="paint0_radial" cx="0" cy="0" r="1" gradientUnits="userSpaceOnUse" gradientTransform="translate(18.1923 12.0561) scale(2.62909)">
<stop stop-color="#7D7D7D"/>
<stop offset="0.267" stop-color="#7E7C7A"/>
<stop offset="0.45" stop-color="#817871"/>
<stop offset="0.608" stop-color="#867162"/>
<stop offset="0.753" stop-color="#8D684C"/>
<stop offset="0.886" stop-color="#965C30"/>
<stop offset="1" stop-color="#A04F12"/>
</radialGradient>
<radialGradient id="paint1_radial" cx="0" cy="0" r="1" gradientUnits="userSpaceOnUse" gradientTransform="translate(564.312 540.489) scale(196.891 196.337)">
<stop stop-color="#7D7D7D"/>
<stop offset="0.267" stop-color="#7E7C7A"/>
<stop offset="0.45" stop-color="#817871"/>
<stop offset="0.608" stop-color="#867162"/>
<stop offset="0.753" stop-color="#8D684C"/>
<stop offset="0.886" stop-color="#965C30"/>
<stop offset="1" stop-color="#A04F12"/>
</radialGradient>
<radialGradient id="paint2_radial" cx="0" cy="0" r="1" gradientUnits="userSpaceOnUse" gradientTransform="translate(180.75 110.627) scale(12.8503 18.0984)">
<stop stop-color="#7D7D7D"/>
<stop offset="0.267" stop-color="#7E7C7A"/>
<stop offset="0.45" stop-color="#817871"/>
<stop offset="0.608" stop-color="#867162"/>
<stop offset="0.753" stop-color="#8D684C"/>
<stop offset="0.886" stop-color="#965C30"/>
<stop offset="1" stop-color="#A04F12"/>
</radialGradient>
<radialGradient id="paint3_radial" cx="0" cy="0" r="1" gradientUnits="userSpaceOnUse" gradientTransform="translate(199.772 415.141) scale(62.0476 79.4528)">
<stop stop-color="#7D7D7D"/>
<stop offset="0.267" stop-color="#7E7C7A"/>
<stop offset="0.45" stop-color="#817871"/>
<stop offset="0.608" stop-color="#867162"/>
<stop offset="0.753" stop-color="#8D684C"/>
<stop offset="0.886" stop-color="#965C30"/>
<stop offset="1" stop-color="#A04F12"/>
</radialGradient>
<radialGradient id="paint4_radial" cx="0" cy="0" r="1" gradientUnits="userSpaceOnUse" gradientTransform="translate(67.5164 214.701) scale(13.0604 18.3101)">
<stop stop-color="#7D7D7D"/>
<stop offset="0.267" stop-color="#7E7C7A"/>
<stop offset="0.45" stop-color="#817871"/>
<stop offset="0.608" stop-color="#867162"/>
<stop offset="0.753" stop-color="#8D684C"/>
<stop offset="0.886" stop-color="#965C30"/>
<stop offset="1" stop-color="#A04F12"/>
</radialGradient>
<radialGradient id="paint5_radial" cx="0" cy="0" r="1" gradientUnits="userSpaceOnUse" gradientTransform="translate(13.2071 16.5637) scale(0.024976)">
<stop stop-color="#7D7D7D"/>
<stop offset="0.267" stop-color="#7E7C7A"/>
<stop offset="0.45" stop-color="#817871"/>
<stop offset="0.608" stop-color="#867162"/>
<stop offset="0.753" stop-color="#8D684C"/>
<stop offset="0.886" stop-color="#965C30"/>
<stop offset="1" stop-color="#A04F12"/>
</radialGradient>
<radialGradient id="paint6_radial" cx="0" cy="0" r="1" gradientUnits="userSpaceOnUse" gradientTransform="translate(80.1037 129.534) scale(17.6722)">
<stop stop-color="#7D7D7D"/>
<stop offset="0.267" stop-color="#7E7C7A"/>
<stop offset="0.45" stop-color="#817871"/>
<stop offset="0.608" stop-color="#867162"/>
<stop offset="0.753" stop-color="#8D684C"/>
<stop offset="0.886" stop-color="#965C30"/>
<stop offset="1" stop-color="#A04F12"/>
</radialGradient>
<radialGradient id="paint7_radial" cx="0" cy="0" r="1" gradientUnits="userSpaceOnUse" gradientTransform="translate(171.174 58.9834) scale(21.7895 12.8634)">
<stop stop-color="#7D7D7D"/>
<stop offset="0.267" stop-color="#7E7C7A"/>
<stop offset="0.45" stop-color="#817871"/>
<stop offset="0.608" stop-color="#867162"/>
<stop offset="0.753" stop-color="#8D684C"/>
<stop offset="0.886" stop-color="#965C30"/>
<stop offset="1" stop-color="#A04F12"/>
</radialGradient>
<radialGradient id="paint8_radial" cx="0" cy="0" r="1" gradientUnits="userSpaceOnUse" gradientTransform="translate(167.684 155.483) scale(45.8981 46.0868)">
<stop stop-color="#7D7D7D"/>
<stop offset="0.267" stop-color="#7E7C7A"/>
<stop offset="0.45" stop-color="#817871"/>
<stop offset="0.608" stop-color="#867162"/>
<stop offset="0.753" stop-color="#8D684C"/>
<stop offset="0.886" stop-color="#965C30"/>
<stop offset="1" stop-color="#A04F12"/>
</radialGradient>
<radialGradient id="paint9_radial" cx="0" cy="0" r="1" gradientUnits="userSpaceOnUse" gradientTransform="translate(1101.8 1099.76) scale(1089.55 1088.82)">
<stop stop-color="#7D7D7D"/>
<stop offset="0.267" stop-color="#7E7C7A"/>
<stop offset="0.45" stop-color="#817871"/>
<stop offset="0.608" stop-color="#867162"/>
<stop offset="0.753" stop-color="#8D684C"/>
<stop offset="0.886" stop-color="#965C30"/>
<stop offset="1" stop-color="#A04F12"/>
</radialGradient>
</defs>
</svg>
