<svg width="15" height="16" viewBox="0 0 15 16" fill="none" xmlns="http://www.w3.org/2000/svg">
<path d="M8.99482 0.299805V4.44985C8.99482 4.81673 9.14056 5.1686 9.39999 5.42802C9.65942 5.68745 10.0113 5.8332 10.3782 5.8332H14.5282V13.6722C14.5282 14.0391 14.3825 14.3909 14.123 14.6503C13.8636 14.9098 13.5117 15.0555 13.1449 15.0555H8.7578C9.44659 14.2214 9.85068 13.189 9.91106 12.1089C9.97144 11.0288 9.68495 9.95778 9.09342 9.0521C8.50189 8.14642 7.63631 7.45357 6.62308 7.07473C5.60985 6.69589 4.50204 6.6509 3.46143 6.94633V1.68315C3.46143 1.31627 3.60717 0.964406 3.8666 0.704978C4.12603 0.44555 4.47789 0.299805 4.84477 0.299805H8.99482Z" fill="#FB4D39" fill-opacity="0.75"/>
<path d="M9.91309 0.530273V4.44976C9.91309 4.57205 9.96167 4.68934 10.0481 4.77582C10.1346 4.86229 10.2519 4.91087 10.3742 4.91087H14.2937L9.91309 0.530273Z" fill="#FB4D39" fill-opacity="0.75"/>
<path d="M8.99442 11.8278C8.99442 12.9284 8.55718 13.984 7.7789 14.7623C7.00062 15.5406 5.94504 15.9778 4.84438 15.9778C3.74372 15.9778 2.68814 15.5406 1.90986 14.7623C1.13157 13.984 0.694336 12.9284 0.694336 11.8278C0.694336 10.7271 1.13157 9.67154 1.90986 8.89325C2.68814 8.11497 3.74372 7.67773 4.84438 7.67773C5.94504 7.67773 7.00062 8.11497 7.7789 8.89325C8.55718 9.67154 8.99442 10.7271 8.99442 11.8278ZM4.84438 9.5222C4.72208 9.5222 4.6048 9.57078 4.51832 9.65725C4.43184 9.74373 4.38326 9.86102 4.38326 9.98331V11.8278C4.38326 11.9501 4.43184 12.0674 4.51832 12.1538C4.6048 12.2403 4.72208 12.2889 4.84438 12.2889C4.96667 12.2889 5.08396 12.2403 5.17044 12.1538C5.25691 12.0674 5.30549 11.9501 5.30549 11.8278V9.98331C5.30549 9.86102 5.25691 9.74373 5.17044 9.65725C5.08396 9.57078 4.96667 9.5222 4.84438 9.5222ZM4.84438 14.2486C4.99725 14.2486 5.14386 14.1879 5.25195 14.0798C5.36005 13.9717 5.42077 13.8251 5.42077 13.6722C5.42077 13.5194 5.36005 13.3728 5.25195 13.2647C5.14386 13.1566 4.99725 13.0958 4.84438 13.0958C4.69151 13.0958 4.5449 13.1566 4.43681 13.2647C4.32871 13.3728 4.26798 13.5194 4.26798 13.6722C4.26798 13.8251 4.32871 13.9717 4.43681 14.0798C4.5449 14.1879 4.69151 14.2486 4.84438 14.2486Z" fill="#FB4D39" fill-opacity="0.75"/>
</svg>
