<svg width="68" height="20" viewBox="0 0 68 20" fill="none" xmlns="http://www.w3.org/2000/svg">
<g opacity="0.5">
<path d="M33.1826 13.7255C33.248 13.8281 33.2806 13.9355 33.2806 14.0475C33.2806 14.1875 33.2246 14.3041 33.1126 14.3975C33.01 14.4815 32.8886 14.5235 32.7486 14.5235C32.534 14.5235 32.366 14.4301 32.2446 14.2435L30.3686 11.2755C30.126 10.8928 29.874 10.6315 29.6126 10.4915C29.3513 10.3421 28.9966 10.2675 28.5486 10.2675H26.7846V13.9215C26.7846 14.0988 26.7333 14.2435 26.6306 14.3555C26.528 14.4581 26.3926 14.5095 26.2246 14.5095C26.0473 14.5095 25.9073 14.4581 25.8046 14.3555C25.702 14.2435 25.6506 14.0988 25.6506 13.9215V5.12945C25.6506 4.96145 25.702 4.82612 25.8046 4.72345C25.9166 4.62079 26.0613 4.56945 26.2386 4.56945H29.7106C30.784 4.56945 31.6006 4.80745 32.1606 5.28345C32.73 5.75945 33.0146 6.45945 33.0146 7.38345C33.0146 8.16745 32.786 8.79745 32.3286 9.27345C31.8806 9.74945 31.2366 10.0388 30.3966 10.1415C30.63 10.2161 30.84 10.3375 31.0266 10.5055C31.2133 10.6735 31.4 10.9068 31.5866 11.2055L33.1826 13.7255ZM29.6126 9.31545C30.378 9.31545 30.9473 9.15679 31.3206 8.83945C31.7033 8.52212 31.8946 8.04145 31.8946 7.39745C31.8946 6.76279 31.708 6.29145 31.3346 5.98345C30.9613 5.67545 30.3873 5.52145 29.6126 5.52145H26.7846V9.31545H29.6126ZM40.3583 12.8575C40.4609 12.8575 40.5496 12.8995 40.6243 12.9835C40.6989 13.0675 40.7363 13.1748 40.7363 13.3055C40.7363 13.5388 40.5729 13.7535 40.2463 13.9495C39.9103 14.1455 39.5556 14.2948 39.1823 14.3975C38.8089 14.4908 38.4449 14.5375 38.0903 14.5375C37.0356 14.5375 36.2003 14.2248 35.5843 13.5995C34.9776 12.9741 34.6743 12.1108 34.6743 11.0095C34.6743 10.3095 34.8096 9.69345 35.0803 9.16145C35.3509 8.62012 35.7289 8.20012 36.2143 7.90145C36.7089 7.60279 37.2689 7.45345 37.8943 7.45345C38.7809 7.45345 39.4856 7.74279 40.0083 8.32145C40.5309 8.90012 40.7923 9.68412 40.7923 10.6735C40.7923 10.8601 40.7549 10.9955 40.6803 11.0795C40.6056 11.1635 40.4843 11.2055 40.3163 11.2055H35.8083C35.8923 12.8108 36.6529 13.6135 38.0903 13.6135C38.4543 13.6135 38.7669 13.5668 39.0283 13.4735C39.2896 13.3708 39.5696 13.2355 39.8683 13.0675C40.1109 12.9275 40.2743 12.8575 40.3583 12.8575ZM37.9083 8.33545C37.3109 8.33545 36.8303 8.52212 36.4663 8.89545C36.1116 9.26879 35.9016 9.79612 35.8363 10.4775H39.7983C39.7796 9.78679 39.6069 9.25945 39.2803 8.89545C38.9536 8.52212 38.4963 8.33545 37.9083 8.33545ZM45.8931 7.45345C46.4904 7.45345 47.0178 7.60279 47.4751 7.90145C47.9324 8.20012 48.2871 8.62012 48.5391 9.16145C48.7911 9.69345 48.9171 10.3141 48.9171 11.0235C48.9171 11.7328 48.7911 12.3535 48.5391 12.8855C48.2871 13.4081 47.9324 13.8141 47.4751 14.1035C47.0271 14.3928 46.4998 14.5375 45.8931 14.5375C45.3611 14.5375 44.8944 14.4208 44.4931 14.1875C44.1011 13.9541 43.8024 13.6228 43.5971 13.1935V16.4835C43.5971 16.6515 43.5458 16.7821 43.4431 16.8755C43.3498 16.9781 43.2144 17.0295 43.0371 17.0295C42.8598 17.0295 42.7198 16.9781 42.6171 16.8755C42.5144 16.7728 42.4631 16.6421 42.4631 16.4835V8.04145C42.4631 7.87345 42.5144 7.73812 42.6171 7.63545C42.7198 7.53279 42.8598 7.48145 43.0371 7.48145C43.2144 7.48145 43.3498 7.53279 43.4431 7.63545C43.5458 7.73812 43.5971 7.87345 43.5971 8.04145V8.79745C43.8024 8.36812 44.1011 8.03679 44.4931 7.80345C44.8944 7.57012 45.3611 7.45345 45.8931 7.45345ZM45.6691 13.5995C46.3318 13.5995 46.8451 13.3755 47.2091 12.9275C47.5731 12.4795 47.7551 11.8448 47.7551 11.0235C47.7551 10.2021 47.5731 9.56279 47.2091 9.10545C46.8451 8.63879 46.3318 8.40545 45.6691 8.40545C45.0064 8.40545 44.4931 8.62945 44.1291 9.07745C43.7744 9.52545 43.5971 10.1648 43.5971 10.9955C43.5971 11.8261 43.7744 12.4701 44.1291 12.9275C44.4931 13.3755 45.0064 13.5995 45.6691 13.5995ZM53.4395 14.5375C52.7955 14.5375 52.2262 14.3928 51.7315 14.1035C51.2462 13.8141 50.8682 13.4035 50.5975 12.8715C50.3362 12.3301 50.2055 11.7048 50.2055 10.9955C50.2055 10.2861 50.3362 9.66545 50.5975 9.13345C50.8682 8.59212 51.2462 8.17679 51.7315 7.88745C52.2262 7.59812 52.7955 7.45345 53.4395 7.45345C54.0835 7.45345 54.6529 7.59812 55.1475 7.88745C55.6422 8.17679 56.0202 8.59212 56.2815 9.13345C56.5522 9.66545 56.6875 10.2861 56.6875 10.9955C56.6875 11.7048 56.5522 12.3301 56.2815 12.8715C56.0202 13.4035 55.6422 13.8141 55.1475 14.1035C54.6529 14.3928 54.0835 14.5375 53.4395 14.5375ZM53.4395 13.5995C54.1115 13.5995 54.6249 13.3801 54.9795 12.9415C55.3435 12.4935 55.5255 11.8448 55.5255 10.9955C55.5255 10.1648 55.3435 9.52545 54.9795 9.07745C54.6155 8.62012 54.1022 8.39145 53.4395 8.39145C52.7769 8.39145 52.2635 8.62012 51.8995 9.07745C51.5355 9.52545 51.3535 10.1648 51.3535 10.9955C51.3535 11.8355 51.5309 12.4795 51.8855 12.9275C52.2495 13.3755 52.7675 13.5995 53.4395 13.5995ZM61.7511 7.48145C62.1431 7.45345 62.3391 7.61212 62.3391 7.95745C62.3391 8.10679 62.2971 8.22812 62.2131 8.32145C62.1291 8.40545 61.9845 8.45679 61.7791 8.47545L61.3591 8.51745C60.7338 8.57345 60.2671 8.79745 59.9591 9.18945C59.6605 9.57212 59.5111 10.0248 59.5111 10.5475V13.9495C59.5111 14.1361 59.4598 14.2761 59.3571 14.3695C59.2545 14.4628 59.1191 14.5095 58.9511 14.5095C58.7831 14.5095 58.6431 14.4628 58.5311 14.3695C58.4285 14.2668 58.3771 14.1268 58.3771 13.9495V8.04145C58.3771 7.86412 58.4331 7.72879 58.5451 7.63545C58.6571 7.53279 58.7925 7.48145 58.9511 7.48145C59.1005 7.48145 59.2265 7.53279 59.3291 7.63545C59.4318 7.72879 59.4831 7.85945 59.4831 8.02745V8.81145C59.6791 8.40079 59.9545 8.08812 60.3091 7.87345C60.6731 7.65879 61.0885 7.53279 61.5551 7.49545L61.7511 7.48145ZM67.0096 13.6135C67.3362 13.6415 67.4996 13.7908 67.4996 14.0615C67.4996 14.2201 67.4389 14.3415 67.3176 14.4255C67.2056 14.5001 67.0329 14.5281 66.7996 14.5095L66.4216 14.4815C65.6749 14.4255 65.1242 14.2015 64.7696 13.8095C64.4149 13.4175 64.2376 12.8248 64.2376 12.0315V8.51745H63.2996C63.1409 8.51745 63.0149 8.48012 62.9216 8.40545C62.8376 8.32145 62.7956 8.21412 62.7956 8.08345C62.7956 7.94345 62.8376 7.83145 62.9216 7.74745C63.0149 7.66345 63.1409 7.62145 63.2996 7.62145H64.2376V6.03945C64.2376 5.86212 64.2889 5.72679 64.3916 5.63345C64.4942 5.53079 64.6342 5.47945 64.8116 5.47945C64.9796 5.47945 65.1149 5.53079 65.2176 5.63345C65.3202 5.72679 65.3716 5.86212 65.3716 6.03945V7.62145H66.9256C67.0749 7.62145 67.1916 7.66345 67.2756 7.74745C67.3689 7.83145 67.4156 7.94345 67.4156 8.08345C67.4156 8.21412 67.3689 8.32145 67.2756 8.40545C67.1916 8.48012 67.0749 8.51745 66.9256 8.51745H65.3716V12.0875C65.3716 12.6008 65.4742 12.9741 65.6796 13.2075C65.8942 13.4315 66.2116 13.5575 66.6316 13.5855L67.0096 13.6135Z" fill="#274B89"/>
<path d="M8.05308 4.02141C7.83683 3.61266 7.16433 3.61266 6.94808 4.02141L1.32308 14.6464C1.27245 14.7416 1.24735 14.8484 1.25022 14.9562C1.2531 15.064 1.28385 15.1692 1.33949 15.2616C1.39513 15.354 1.47376 15.4304 1.56771 15.4834C1.66166 15.5364 1.76773 15.5641 1.87558 15.5639H13.1256C13.2334 15.5641 13.3394 15.5364 13.4333 15.4835C13.5271 15.4305 13.6057 15.3542 13.6613 15.2618C13.7169 15.1695 13.7476 15.0643 13.7504 14.9566C13.7532 14.8488 13.7281 14.7422 13.6775 14.647L8.05308 4.02141ZM8.12558 13.6889H6.87558V12.4389H8.12558V13.6889ZM6.87558 11.1889V8.06391H8.12558L8.12621 11.1889H6.87558Z" fill="#274B89"/>
</g>
</svg>
