<svg width="16" height="17" viewBox="0 0 16 17" fill="none" xmlns="http://www.w3.org/2000/svg">
<path d="M13.9617 0.453125H2.51255C2.07876 0.453125 1.66274 0.625446 1.35601 0.932179C1.04927 1.23891 0.876953 1.65493 0.876953 2.08872V12.7201C0.876953 13.1539 1.04927 13.5699 1.35601 13.8766C1.66274 14.1833 2.07876 14.3557 2.51255 14.3557H5.78373L8.23712 16.8091L10.6905 14.3557H13.9617C14.3955 14.3557 14.8115 14.1833 15.1182 13.8766C15.425 13.5699 15.5973 13.1539 15.5973 12.7201V2.08872C15.5973 1.65493 15.425 1.23891 15.1182 0.932179C14.8115 0.625446 14.3955 0.453125 13.9617 0.453125ZM8.23712 2.90651C9.64946 2.90651 10.6905 3.94675 10.6905 5.3599C10.6905 6.77306 9.64946 7.81329 8.23712 7.81329C6.82561 7.81329 5.78373 6.77306 5.78373 5.3599C5.78373 3.94675 6.82561 2.90651 8.23712 2.90651ZM4.29289 11.9023C4.74922 10.4932 6.33411 9.44889 8.23712 9.44889C10.1401 9.44889 11.7258 10.4932 12.1814 11.9023H4.29289Z" fill="#274B89"/>
</svg>
