<svg width="24" height="24" viewBox="0 0 24 24" fill="none" xmlns="http://www.w3.org/2000/svg">
<path d="M20.6688 0.555573H2.9725C1.58207 0.555573 0.444458 1.69954 0.444458 3.09773V20.8928C0.444458 22.291 1.58207 23.435 2.9725 23.435H20.6688C22.0592 23.435 23.1968 22.291 23.1968 20.8928V3.09773C23.1968 1.69954 22.0592 0.555573 20.6688 0.555573ZM11.8333 19.6217C10.9485 19.6217 10.2406 18.9099 10.2406 18.0202C10.2406 17.1177 10.9485 16.4313 11.8333 16.4313C12.7307 16.4313 13.4133 17.1177 13.4133 18.0202C13.4007 18.8972 12.7307 19.6217 11.8333 19.6217ZM15.638 10.2158C14.6773 11.6267 13.7672 12.0715 13.2742 12.974C13.072 13.3426 12.9962 13.5841 12.9962 14.7662H10.6957C10.6957 14.1434 10.5945 13.1265 11.0875 12.2495C11.7069 11.1436 12.8824 10.4827 13.565 9.50395C14.2855 8.47438 13.881 6.54235 11.8333 6.54235C10.4934 6.54235 9.83612 7.55921 9.55803 8.42354L7.4724 7.53378C8.04121 5.83054 9.57067 4.3688 11.808 4.3688C13.6787 4.3688 14.9554 5.22042 15.6127 6.30084C16.1689 7.21602 16.4975 8.93197 15.638 10.2158Z" fill="#929AA7"/>
</svg>
