<svg width="12" height="13" viewBox="0 0 12 13" fill="none" xmlns="http://www.w3.org/2000/svg">
<path fill-rule="evenodd" clip-rule="evenodd" d="M8.62308 8.69072H8.13019L7.95886 8.52063C8.5641 7.81483 8.93222 6.89982 8.93222 5.89729C8.93222 3.66875 7.1258 1.86234 4.89726 1.86234C2.66872 1.86234 0.862305 3.66875 0.862305 5.89729C0.862305 8.12583 2.66872 9.93225 4.89726 9.93225C5.89979 9.93225 6.81418 9.56476 7.51998 8.96013L7.69131 9.13022V9.62187L10.7939 12.7201L11.7194 11.7945L8.62308 8.69072ZM4.89689 8.69065C3.35367 8.69065 2.10345 7.44044 2.10345 5.89722C2.10345 4.35463 3.35367 3.10379 4.89689 3.10379C6.43948 3.10379 7.69032 4.35463 7.69032 5.89722C7.69032 7.44044 6.43948 8.69065 4.89689 8.69065Z" fill="#274B89"/>
<circle cx="8.31111" cy="3.10378" r="2.06921" fill="#39B54A" stroke="white" stroke-width="0.827683"/>
</svg>
