<svg width="61" height="19" viewBox="0 0 61 19" fill="none" xmlns="http://www.w3.org/2000/svg">
<g opacity="0.5">
<path d="M28.7664 14.112C28.0664 14.112 27.3944 14.0093 26.7504 13.804C26.1158 13.5893 25.6071 13.3047 25.2244 12.95C25.0844 12.8193 25.0144 12.656 25.0144 12.46C25.0144 12.3293 25.0518 12.2173 25.1264 12.124C25.2011 12.0213 25.2898 11.97 25.3924 11.97C25.5138 11.97 25.6444 12.0213 25.7844 12.124C26.6524 12.796 27.6418 13.132 28.7524 13.132C29.5551 13.132 30.1711 12.978 30.6004 12.67C31.0298 12.362 31.2444 11.9233 31.2444 11.354C31.2444 11.0273 31.1418 10.766 30.9364 10.57C30.7311 10.3647 30.4604 10.2013 30.1244 10.08C29.7884 9.95867 29.3358 9.83267 28.7664 9.702C28.0011 9.52467 27.3711 9.338 26.8764 9.142C26.3911 8.946 25.9944 8.666 25.6864 8.302C25.3878 7.938 25.2384 7.462 25.2384 6.874C25.2384 6.314 25.3878 5.81933 25.6864 5.39C25.9944 4.95133 26.4191 4.61533 26.9604 4.382C27.5111 4.13933 28.1364 4.018 28.8364 4.018C29.4898 4.018 30.0964 4.12067 30.6564 4.326C31.2258 4.522 31.7018 4.80667 32.0844 5.18C32.2338 5.32933 32.3084 5.49267 32.3084 5.67C32.3084 5.80067 32.2711 5.91733 32.1964 6.02C32.1218 6.11333 32.0331 6.16 31.9304 6.16C31.8278 6.16 31.6924 6.10867 31.5244 6.006C31.0671 5.63267 30.6424 5.37133 30.2504 5.222C29.8584 5.07267 29.3871 4.998 28.8364 4.998C28.0618 4.998 27.4598 5.16133 27.0304 5.488C26.6011 5.80533 26.3864 6.25333 26.3864 6.832C26.3864 7.32667 26.5731 7.7 26.9464 7.952C27.3291 8.19467 27.9124 8.40933 28.6964 8.596C29.5458 8.80133 30.2131 8.99267 30.6984 9.17C31.1838 9.338 31.5851 9.59467 31.9024 9.94C32.2291 10.2853 32.3924 10.7473 32.3924 11.326C32.3924 11.8767 32.2384 12.362 31.9304 12.782C31.6318 13.202 31.2071 13.5287 30.6564 13.762C30.1058 13.9953 29.4758 14.112 28.7664 14.112ZM37.5331 7.014C38.3357 7.014 38.9424 7.24267 39.3531 7.7C39.7637 8.148 39.9691 8.82 39.9691 9.716V13.51C39.9691 13.6873 39.9177 13.8273 39.8151 13.93C39.7124 14.0233 39.5771 14.07 39.4091 14.07C39.2317 14.07 39.0917 14.0233 38.9891 13.93C38.8864 13.8273 38.8351 13.6873 38.8351 13.51V9.744C38.8351 9.13733 38.7091 8.68933 38.4571 8.4C38.2144 8.11067 37.8224 7.966 37.2811 7.966C36.6557 7.966 36.1564 8.15733 35.7831 8.54C35.4097 8.92267 35.2231 9.44067 35.2231 10.094V13.51C35.2231 13.6873 35.1717 13.8273 35.0691 13.93C34.9757 14.0233 34.8404 14.07 34.6631 14.07C34.4857 14.07 34.3457 14.0233 34.2431 13.93C34.1404 13.8273 34.0891 13.6873 34.0891 13.51V4.606C34.0891 4.44733 34.1404 4.31667 34.2431 4.214C34.3551 4.11133 34.4951 4.06 34.6631 4.06C34.8404 4.06 34.9757 4.11133 35.0691 4.214C35.1717 4.30733 35.2231 4.438 35.2231 4.606V8.274C35.4471 7.86333 35.7597 7.55067 36.1611 7.336C36.5624 7.12133 37.0197 7.014 37.5331 7.014ZM44.8321 7.014C46.5401 7.014 47.3941 7.91 47.3941 9.702V13.51C47.3941 13.678 47.3428 13.8133 47.2401 13.916C47.1468 14.0187 47.0161 14.07 46.8481 14.07C46.6801 14.07 46.5448 14.0187 46.4421 13.916C46.3394 13.8133 46.2881 13.678 46.2881 13.51V12.838C46.1108 13.2393 45.8401 13.552 45.4761 13.776C45.1121 13.9907 44.6921 14.098 44.2161 14.098C43.7774 14.098 43.3714 14.0093 42.9981 13.832C42.6341 13.6547 42.3448 13.4073 42.1301 13.09C41.9154 12.7727 41.8081 12.4227 41.8081 12.04C41.8081 11.5267 41.9388 11.13 42.2001 10.85C42.4614 10.5607 42.8908 10.3553 43.4881 10.234C44.0854 10.1033 44.9161 10.038 45.9801 10.038H46.2881V9.576C46.2881 9.016 46.1714 8.60533 45.9381 8.344C45.7141 8.08267 45.3454 7.952 44.8321 7.952C44.1974 7.952 43.5534 8.12467 42.9001 8.47C42.6481 8.62867 42.4708 8.708 42.3681 8.708C42.2561 8.708 42.1628 8.666 42.0881 8.582C42.0134 8.498 41.9761 8.39067 41.9761 8.26C41.9761 8.12933 42.0134 8.01733 42.0881 7.924C42.1721 7.82133 42.3028 7.71867 42.4801 7.616C42.8068 7.42933 43.1754 7.28467 43.5861 7.182C44.0061 7.07 44.4214 7.014 44.8321 7.014ZM44.3701 13.202C44.9301 13.202 45.3874 13.0153 45.7421 12.642C46.1061 12.2593 46.2881 11.7693 46.2881 11.172V10.766H46.0361C45.2148 10.766 44.5894 10.8033 44.1601 10.878C43.7308 10.9433 43.4228 11.06 43.2361 11.228C43.0588 11.3867 42.9701 11.6247 42.9701 11.942C42.9701 12.306 43.1008 12.6093 43.3621 12.852C43.6328 13.0853 43.9688 13.202 44.3701 13.202ZM52.8439 7.042C53.2359 7.014 53.4319 7.17267 53.4319 7.518C53.4319 7.66733 53.3899 7.78867 53.3059 7.882C53.2219 7.966 53.0773 8.01733 52.8719 8.036L52.4519 8.078C51.8266 8.134 51.3599 8.358 51.0519 8.75C50.7533 9.13267 50.6039 9.58533 50.6039 10.108V13.51C50.6039 13.6967 50.5526 13.8367 50.4499 13.93C50.3473 14.0233 50.2119 14.07 50.0439 14.07C49.8759 14.07 49.7359 14.0233 49.6239 13.93C49.5213 13.8273 49.4699 13.6873 49.4699 13.51V7.602C49.4699 7.42467 49.5259 7.28933 49.6379 7.196C49.7499 7.09333 49.8853 7.042 50.0439 7.042C50.1933 7.042 50.3193 7.09333 50.4219 7.196C50.5246 7.28933 50.5759 7.42 50.5759 7.588V8.372C50.7719 7.96133 51.0473 7.64867 51.4019 7.434C51.7659 7.21933 52.1813 7.09333 52.6479 7.056L52.8439 7.042ZM59.5468 12.418C59.6494 12.418 59.7381 12.46 59.8128 12.544C59.8874 12.628 59.9248 12.7353 59.9248 12.866C59.9248 13.0993 59.7614 13.314 59.4348 13.51C59.0988 13.706 58.7441 13.8553 58.3708 13.958C57.9974 14.0513 57.6334 14.098 57.2788 14.098C56.2241 14.098 55.3888 13.7853 54.7728 13.16C54.1661 12.5347 53.8628 11.6713 53.8628 10.57C53.8628 9.87 53.9981 9.254 54.2688 8.722C54.5394 8.18067 54.9174 7.76067 55.4028 7.462C55.8974 7.16333 56.4574 7.014 57.0828 7.014C57.9694 7.014 58.6741 7.30333 59.1968 7.882C59.7194 8.46067 59.9808 9.24467 59.9808 10.234C59.9808 10.4207 59.9434 10.556 59.8688 10.64C59.7941 10.724 59.6728 10.766 59.5048 10.766H54.9968C55.0808 12.3713 55.8414 13.174 57.2788 13.174C57.6428 13.174 57.9554 13.1273 58.2168 13.034C58.4781 12.9313 58.7581 12.796 59.0568 12.628C59.2994 12.488 59.4628 12.418 59.5468 12.418ZM57.0968 7.896C56.4994 7.896 56.0188 8.08267 55.6548 8.456C55.3001 8.82933 55.0901 9.35667 55.0248 10.038H58.9868C58.9681 9.34733 58.7954 8.82 58.4688 8.456C58.1421 8.08267 57.6848 7.896 57.0968 7.896Z" fill="#274B89"/>
<path d="M8.95124 7.33248V4L12.5755 7.6243L15.4814 10.5302L12.5239 12.9949L8.95124 15.9724V12.7116C2.67897 12.2388 0.481445 15.8685 0.481445 15.8685C0.481445 13.6071 0.66778 11.2602 2.44567 9.48303C4.5123 7.41564 7.50521 7.26934 8.95124 7.33248Z" fill="#274B89"/>
</g>
</svg>
