<svg width="56" height="61" viewBox="0 0 56 61" fill="none" xmlns="http://www.w3.org/2000/svg">
<path fill-rule="evenodd" clip-rule="evenodd" d="M27.9998 32C36.7874 32 43.9111 24.8366 43.9111 16C43.9111 7.16344 36.7874 0 27.9998 0C19.2123 0 12.0886 7.16344 12.0886 16C12.0886 24.8366 19.2123 32 27.9998 32ZM27.9996 26.56C33.7994 26.56 38.501 21.8321 38.501 16C38.501 10.1679 33.7994 5.44002 27.9996 5.44002C22.1999 5.44002 17.4982 10.1679 17.4982 16C17.4982 21.8321 22.1999 26.56 27.9996 26.56Z" fill="#274B89"/>
<ellipse cx="27.9994" cy="16" rx="4.77336" ry="4.8" fill="#274B89"/>
<path d="M6.33755 53.1886C5.7844 53.1886 5.23126 53.1446 4.67811 53.0566C4.12496 52.9811 3.60324 52.8617 3.11296 52.6983C2.62267 52.5223 2.18266 52.3086 1.79295 52.0571C1.56666 51.9063 1.40952 51.724 1.32152 51.5103C1.23351 51.2966 1.20209 51.0891 1.22723 50.888C1.26494 50.6743 1.34666 50.492 1.47237 50.3411C1.61066 50.1777 1.78038 50.0771 1.98152 50.0394C2.18266 50.0017 2.40266 50.0583 2.64152 50.2091C3.19467 50.536 3.77925 50.7748 4.39525 50.9257C5.01125 51.0766 5.65869 51.152 6.33755 51.152C7.3307 51.152 8.05356 50.9886 8.50613 50.6617C8.95871 50.3223 9.18499 49.8886 9.18499 49.3605C9.18499 48.9205 9.02157 48.5748 8.69471 48.3234C8.38042 48.072 7.83356 47.8645 7.05412 47.7011L4.97982 47.2674C3.78553 47.016 2.89295 46.5948 2.30209 46.004C1.7238 45.4005 1.43466 44.6085 1.43466 43.6279C1.43466 43.0119 1.56037 42.4525 1.8118 41.9496C2.06323 41.4468 2.41524 41.0131 2.86781 40.6485C3.33296 40.2839 3.87982 40.0073 4.50839 39.8188C5.14954 39.6176 5.85354 39.5171 6.62041 39.5171C7.3747 39.5171 8.09127 39.6113 8.77014 39.7999C9.449 39.9885 10.0587 40.2651 10.5993 40.6296C10.8004 40.7679 10.9324 40.9376 10.9953 41.1388C11.0707 41.3399 11.0896 41.5411 11.0519 41.7422C11.0142 41.9308 10.9261 42.0942 10.7879 42.2325C10.6496 42.3708 10.4736 42.4525 10.2599 42.4776C10.0587 42.5028 9.82614 42.4399 9.56214 42.2891C9.09699 42.0251 8.62556 41.8365 8.14785 41.7234C7.67013 41.6102 7.1547 41.5536 6.60155 41.5536C6.02326 41.5536 5.52669 41.6354 5.11183 41.7988C4.69697 41.9622 4.37639 42.1948 4.15011 42.4965C3.93639 42.7856 3.82953 43.1314 3.82953 43.5337C3.82953 43.9862 3.98039 44.3508 4.28211 44.6274C4.58382 44.8914 5.09925 45.0988 5.8284 45.2497L7.88384 45.6834C9.12842 45.9474 10.0524 46.3622 10.6559 46.928C11.2719 47.4937 11.5799 48.248 11.5799 49.1908C11.5799 49.7943 11.4542 50.3411 11.2027 50.8314C10.9639 51.3217 10.6119 51.7428 10.1467 52.0949C9.69414 52.4469 9.14728 52.7171 8.50613 52.9057C7.86499 53.0943 7.14212 53.1886 6.33755 53.1886ZM14.5944 56.5452C14.2172 56.5452 13.9281 56.4446 13.7269 56.2434C13.5258 56.0423 13.4252 55.7469 13.4252 55.3572V44.8159C13.4252 44.4262 13.5258 44.1308 13.7269 43.9297C13.9281 43.7285 14.2109 43.6279 14.5755 43.6279C14.9527 43.6279 15.2418 43.7285 15.443 43.9297C15.6441 44.1308 15.7447 44.4262 15.7447 44.8159V46.2868L15.5372 45.7211C15.7258 45.0799 16.1092 44.5645 16.6875 44.1748C17.2784 43.7851 17.9635 43.5902 18.743 43.5902C19.5476 43.5902 20.2516 43.7851 20.855 44.1748C21.471 44.5645 21.9487 45.1177 22.2881 45.8342C22.6276 46.5382 22.7973 47.3868 22.7973 48.38C22.7973 49.3605 22.6276 50.2154 22.2881 50.9446C21.9487 51.6611 21.4773 52.2143 20.8738 52.604C20.2704 52.9937 19.5601 53.1886 18.743 53.1886C17.9761 53.1886 17.3035 53 16.7252 52.6229C16.147 52.2331 15.7572 51.7303 15.5561 51.1143H15.7824V55.3572C15.7824 55.7469 15.6755 56.0423 15.4618 56.2434C15.2607 56.4446 14.9715 56.5452 14.5944 56.5452ZM18.083 51.3971C18.5481 51.3971 18.9567 51.284 19.3087 51.0577C19.6607 50.8314 19.931 50.4983 20.1196 50.0583C20.3207 49.6057 20.4213 49.0463 20.4213 48.38C20.4213 47.3742 20.2076 46.6262 19.7801 46.136C19.3527 45.6331 18.787 45.3817 18.083 45.3817C17.6178 45.3817 17.2093 45.4948 16.8573 45.7211C16.5052 45.9348 16.2287 46.268 16.0275 46.7205C15.839 47.1605 15.7447 47.7137 15.7447 48.38C15.7447 49.3731 15.9584 50.1274 16.3858 50.6428C16.8133 51.1457 17.379 51.3971 18.083 51.3971ZM28.9374 53.1886C27.982 53.1886 27.1522 52.9937 26.4482 52.604C25.7442 52.2143 25.1974 51.6611 24.8077 50.9446C24.4179 50.2154 24.2231 49.3605 24.2231 48.38C24.2231 47.6383 24.3299 46.9782 24.5436 46.4C24.7699 45.8091 25.0905 45.3062 25.5054 44.8914C25.9202 44.4639 26.4168 44.1434 26.9951 43.9297C27.5734 43.7034 28.2208 43.5902 28.9374 43.5902C29.8928 43.5902 30.7225 43.7851 31.4266 44.1748C32.1306 44.5645 32.6774 45.1177 33.0671 45.8342C33.4569 46.5508 33.6517 47.3994 33.6517 48.38C33.6517 49.1217 33.5386 49.788 33.3123 50.3788C33.0986 50.9697 32.7843 51.4788 32.3694 51.9063C31.9546 52.3211 31.458 52.6417 30.8797 52.868C30.3014 53.0817 29.654 53.1886 28.9374 53.1886ZM28.9374 51.3971C29.4025 51.3971 29.8111 51.284 30.1631 51.0577C30.5151 50.8314 30.7854 50.4983 30.974 50.0583C31.1751 49.6057 31.2757 49.0463 31.2757 48.38C31.2757 47.3742 31.062 46.6262 30.6345 46.136C30.2071 45.6331 29.6414 45.3817 28.9374 45.3817C28.4722 45.3817 28.0637 45.4948 27.7117 45.7211C27.3597 45.9348 27.0831 46.268 26.882 46.7205C26.6934 47.1605 26.5991 47.7137 26.5991 48.38C26.5991 49.3731 26.8128 50.1274 27.2402 50.6428C27.6677 51.1457 28.2334 51.3971 28.9374 51.3971ZM39.7292 53.1886C38.9121 53.1886 38.2269 53.0503 37.6738 52.7737C37.1332 52.4971 36.7309 52.0949 36.4669 51.5668C36.2029 51.0263 36.0709 50.36 36.0709 49.568V45.5514H35.0903C34.7886 45.5514 34.556 45.476 34.3926 45.3251C34.2292 45.1617 34.1474 44.9417 34.1474 44.6651C34.1474 44.3759 34.2292 44.1559 34.3926 44.0051C34.556 43.8542 34.7886 43.7788 35.0903 43.7788H36.0709V42.0628C36.0709 41.6731 36.1715 41.3776 36.3726 41.1765C36.5863 40.9754 36.8818 40.8748 37.2589 40.8748C37.636 40.8748 37.9252 40.9754 38.1263 41.1765C38.3275 41.3776 38.428 41.6731 38.428 42.0628V43.7788H40.4269C40.7286 43.7788 40.9612 43.8542 41.1246 44.0051C41.2881 44.1559 41.3698 44.3759 41.3698 44.6651C41.3698 44.9417 41.2881 45.1617 41.1246 45.3251C40.9612 45.476 40.7286 45.5514 40.4269 45.5514H38.428V49.436C38.428 50.0394 38.56 50.492 38.8241 50.7937C39.0881 51.0954 39.5155 51.2463 40.1063 51.2463C40.3201 51.2463 40.5086 51.2274 40.6721 51.1897C40.8355 51.152 40.9801 51.1268 41.1058 51.1143C41.2566 51.1017 41.3824 51.152 41.4829 51.2651C41.5835 51.3657 41.6338 51.5794 41.6338 51.9063C41.6338 52.1577 41.5898 52.384 41.5018 52.5851C41.4264 52.7737 41.2818 52.9057 41.0681 52.9811C40.9046 53.0314 40.6909 53.0754 40.4269 53.1131C40.1629 53.1634 39.9303 53.1886 39.7292 53.1886ZM46.4324 53.1886C45.6152 53.1886 44.9301 53.0503 44.3769 52.7737C43.8363 52.4971 43.4341 52.0949 43.1701 51.5668C42.9061 51.0263 42.7741 50.36 42.7741 49.568V45.5514H41.7935C41.4918 45.5514 41.2592 45.476 41.0958 45.3251C40.9323 45.1617 40.8506 44.9417 40.8506 44.6651C40.8506 44.3759 40.9323 44.1559 41.0958 44.0051C41.2592 43.8542 41.4918 43.7788 41.7935 43.7788H42.7741V42.0628C42.7741 41.6731 42.8746 41.3776 43.0758 41.1765C43.2895 40.9754 43.5849 40.8748 43.9621 40.8748C44.3392 40.8748 44.6284 40.9754 44.8295 41.1765C45.0306 41.3776 45.1312 41.6731 45.1312 42.0628V43.7788H47.1301C47.4318 43.7788 47.6644 43.8542 47.8278 44.0051C47.9912 44.1559 48.0729 44.3759 48.0729 44.6651C48.0729 44.9417 47.9912 45.1617 47.8278 45.3251C47.6644 45.476 47.4318 45.5514 47.1301 45.5514H45.1312V49.436C45.1312 50.0394 45.2632 50.492 45.5272 50.7937C45.7912 51.0954 46.2187 51.2463 46.8095 51.2463C47.0232 51.2463 47.2118 51.2274 47.3752 51.1897C47.5387 51.152 47.6832 51.1268 47.8089 51.1143C47.9598 51.1017 48.0855 51.152 48.1861 51.2651C48.2867 51.3657 48.337 51.5794 48.337 51.9063C48.337 52.1577 48.2929 52.384 48.2049 52.5851C48.1295 52.7737 47.9849 52.9057 47.7712 52.9811C47.6078 53.0314 47.3941 53.0754 47.1301 53.1131C46.8661 53.1634 46.6335 53.1886 46.4324 53.1886ZM50.6524 53.1509C50.2627 53.1509 49.961 53.0503 49.7473 52.8491C49.5461 52.6354 49.4456 52.3337 49.4456 51.944V44.8159C49.4456 44.4262 49.5461 44.1308 49.7473 43.9297C49.9484 43.7285 50.2313 43.6279 50.5958 43.6279C50.9604 43.6279 51.2433 43.7285 51.4444 43.9297C51.6456 44.1308 51.7461 44.4262 51.7461 44.8159V46.004H51.5576C51.7336 45.2497 52.0793 44.6777 52.5947 44.2879C53.1101 43.8982 53.7953 43.6657 54.6502 43.5902C54.9142 43.5651 55.1216 43.6342 55.2724 43.7977C55.4359 43.9485 55.5302 44.1874 55.5553 44.5142C55.5804 44.8285 55.505 45.0862 55.329 45.2874C55.1656 45.476 54.9142 45.5891 54.5747 45.6268L54.1599 45.6645C53.393 45.74 52.8147 45.9788 52.425 46.3811C52.0353 46.7708 51.8404 47.324 51.8404 48.0405V51.944C51.8404 52.3337 51.7399 52.6354 51.5387 52.8491C51.3376 53.0503 51.0421 53.1509 50.6524 53.1509Z" fill="#274B89"/>
</svg>
