<svg width="14" height="13" viewBox="0 0 14 13" fill="none" xmlns="http://www.w3.org/2000/svg">
<g clip-path="url(#clip0)">
<path d="M7.25022 13.0004C10.6406 13.0004 13.3891 10.252 13.3891 6.86155C13.3891 3.47113 10.6406 0.722656 7.25022 0.722656C3.8598 0.722656 1.11133 3.47113 1.11133 6.86155C1.11133 10.252 3.8598 13.0004 7.25022 13.0004Z" fill="#F40C0C"/>
<path d="M7.25022 12.2778C10.6406 12.2778 13.3891 9.5293 13.3891 6.13889C13.3891 2.74847 10.6406 0 7.25022 0C3.8598 0 1.11133 2.74847 1.11133 6.13889C1.11133 9.5293 3.8598 12.2778 7.25022 12.2778Z" fill="#FF6D4D"/>
<path d="M7.25038 11.5554C10.0425 11.5554 12.3059 9.292 12.3059 6.49989C12.3059 3.70779 10.0425 1.44434 7.25038 1.44434C4.45827 1.44434 2.19482 3.70779 2.19482 6.49989C2.19482 9.292 4.45827 11.5554 7.25038 11.5554Z" fill="#FFB6B6"/>
<path d="M7.25038 11.1941C10.0425 11.1941 12.3059 8.93067 12.3059 6.13856C12.3059 3.34646 10.0425 1.08301 7.25038 1.08301C4.45827 1.08301 2.19482 3.34646 2.19482 6.13856C2.19482 8.93067 4.45827 11.1941 7.25038 11.1941Z" fill="#FF3333"/>
<path d="M6.94103 7.93474C8.3086 7.93474 9.41722 7.12846 9.41722 6.13387C9.41722 5.13928 8.3086 4.33301 6.94103 4.33301C5.57347 4.33301 4.46484 5.13928 4.46484 6.13387C4.46484 7.12846 5.57347 7.93474 6.94103 7.93474Z" fill="#FF725F"/>
</g>
<defs>
<clipPath id="clip0">
<rect width="13" height="13" fill="white" transform="translate(0.750488)"/>
</clipPath>
</defs>
</svg>
