<svg width="2162" height="692" viewBox="0 0 2162 692" fill="none" xmlns="http://www.w3.org/2000/svg">
<path fill-rule="evenodd" clip-rule="evenodd" d="M318.511 678.819C494.421 678.819 637.023 534.265 637.023 355.946C637.023 177.628 494.421 33.0735 318.511 33.0735C142.602 33.0735 0 177.628 0 355.946C0 534.265 142.602 678.819 318.511 678.819ZM318.504 569.044C434.603 569.044 528.723 473.637 528.723 355.946C528.723 238.257 434.603 142.85 318.504 142.85C202.404 142.85 108.287 238.257 108.287 355.946C108.287 473.637 202.404 569.044 318.504 569.044Z" fill="#274B89"/>
<path d="M318.499 452.806C371.272 452.806 414.052 409.44 414.052 355.944C414.052 302.449 371.272 259.083 318.499 259.083C265.726 259.083 222.945 302.449 222.945 355.944C222.945 409.44 265.726 452.806 318.499 452.806Z" fill="#274B89"/>
<path d="M948.42 484.974C924.785 484.974 902.378 481.909 881.199 475.783C860.329 469.351 843.294 460.779 830.094 450.057C823.037 444.85 819.504 437.499 819.504 428.002C819.504 421.571 821.348 416.059 825.031 411.463C829.021 406.564 833.626 404.114 838.844 404.114C844.367 404.114 850.661 406.258 857.718 410.548C870.919 420.04 884.731 426.932 899.155 431.222C913.584 435.508 929.542 437.654 947.038 437.654C969.445 437.654 986.635 433.823 998.603 426.166C1010.58 418.204 1016.56 406.717 1016.56 391.709C1016.56 380.07 1010.88 371.188 999.525 365.062C988.475 358.63 969.906 352.505 943.815 346.685C916.806 340.866 894.86 334.128 877.976 326.47C861.096 318.813 848.357 309.012 839.762 297.067C831.171 285.122 826.871 269.96 826.871 251.583C826.871 232.594 832.244 215.594 842.984 200.587C853.729 185.578 868.614 173.94 887.644 165.67C906.984 157.094 928.62 152.806 952.561 152.806C996.454 152.806 1032.21 164.445 1059.84 187.723C1063.83 191.092 1066.59 194.461 1068.13 197.83C1069.97 200.893 1070.89 204.875 1070.89 209.775C1070.89 216.207 1068.89 221.873 1064.9 226.774C1061.22 231.368 1056.77 233.665 1051.55 233.665C1048.48 233.665 1045.56 233.206 1042.8 232.287C1040.35 231.368 1036.97 229.684 1032.67 227.234C1020.09 218.045 1007.81 211.307 995.842 207.019C984.179 202.425 969.751 200.127 952.561 200.127C931.691 200.127 915.117 204.415 902.839 212.991C890.866 221.261 884.882 232.9 884.882 247.908C884.882 260.465 890.255 270.113 900.999 276.852C911.74 283.59 930.003 289.869 955.788 295.689C983.102 301.814 1005.2 308.706 1022.08 316.363C1039.27 323.714 1052.32 333.208 1061.22 344.847C1070.43 356.486 1075.03 371.035 1075.03 388.493C1075.03 407.482 1069.66 424.331 1058.91 439.029C1048.48 453.427 1033.6 464.76 1014.26 473.027C995.226 480.993 973.279 484.974 948.42 484.974ZM1253.99 250.664C1273.32 250.664 1290.51 255.565 1305.55 265.366C1320.9 275.167 1332.72 289.103 1341.01 307.174C1349.6 324.939 1353.9 345.46 1353.9 368.738C1353.9 392.015 1349.6 412.383 1341.01 429.842C1332.72 447.301 1321.06 460.779 1306.02 470.271C1290.98 479.768 1273.63 484.514 1253.99 484.514C1238.03 484.514 1223.76 481.144 1211.17 474.407C1198.59 467.67 1188.92 458.328 1182.17 446.381V540.106C1182.17 548.068 1179.55 554.345 1174.34 558.941C1169.12 563.537 1162.21 565.832 1153.62 565.832C1145.03 565.832 1137.97 563.382 1132.44 558.481C1127.22 553.58 1124.62 547.148 1124.62 539.186V278.689C1124.62 270.42 1127.07 263.835 1131.98 258.934C1137.2 254.033 1144.11 251.583 1152.7 251.583C1161.29 251.583 1168.2 254.033 1173.42 258.934C1178.64 263.835 1181.24 270.42 1181.24 278.689V290.175C1188 277.618 1197.67 267.97 1210.25 261.231C1223.14 254.187 1237.72 250.664 1253.99 250.664ZM1238.79 439.949C1256.91 439.949 1271.02 433.823 1281.15 421.571C1291.28 409.013 1296.35 391.403 1296.35 368.738C1296.35 345.46 1291.28 327.389 1281.15 314.525C1271.02 301.661 1256.91 295.229 1238.79 295.229C1220.38 295.229 1206.11 301.508 1195.98 314.066C1186.15 326.623 1181.24 344.541 1181.24 367.819C1181.24 390.79 1186.15 408.553 1195.98 421.111C1206.11 433.668 1220.38 439.949 1238.79 439.949ZM1503.8 484.514C1480.78 484.514 1460.52 479.768 1443.02 470.271C1425.83 460.779 1412.48 447.146 1402.97 429.382C1393.45 411.618 1388.7 390.944 1388.7 367.359C1388.7 343.775 1393.45 323.254 1402.97 305.796C1412.48 288.031 1425.83 274.401 1443.02 264.907C1460.52 255.412 1480.78 250.664 1503.8 250.664C1526.82 250.664 1546.92 255.412 1564.11 264.907C1581.61 274.401 1594.96 288.031 1604.17 305.796C1613.68 323.254 1618.44 343.775 1618.44 367.359C1618.44 390.944 1613.68 411.618 1604.17 429.382C1594.96 447.146 1581.61 460.779 1564.11 470.271C1546.92 479.768 1526.82 484.514 1503.8 484.514ZM1503.34 439.949C1522.06 439.949 1536.33 433.823 1546.16 421.571C1555.98 409.322 1560.89 391.25 1560.89 367.359C1560.89 343.775 1555.98 325.858 1546.16 313.606C1536.33 301.048 1522.22 294.769 1503.8 294.769C1485.38 294.769 1471.11 301.048 1460.98 313.606C1451.16 325.858 1446.25 343.775 1446.25 367.359C1446.25 391.25 1451.16 409.322 1460.98 421.571C1470.8 433.823 1484.92 439.949 1503.34 439.949ZM1781.54 440.869C1796.89 441.785 1804.57 448.677 1804.57 461.544C1804.57 468.891 1801.5 474.562 1795.36 478.543C1789.53 482.218 1781.08 483.749 1770.04 483.134L1757.6 482.218C1706.04 478.543 1680.26 450.977 1680.26 399.52V299.364H1657.24C1648.95 299.364 1642.5 297.526 1637.9 293.851C1633.6 290.175 1631.45 284.815 1631.45 277.771C1631.45 270.726 1633.6 265.366 1637.9 261.691C1642.5 258.015 1648.95 256.177 1657.24 256.177H1680.26V213.91C1680.26 205.64 1682.86 199.055 1688.09 194.155C1693.3 189.254 1700.36 186.804 1709.26 186.804C1717.86 186.804 1724.76 189.254 1729.98 194.155C1735.2 199.055 1737.81 205.64 1737.81 213.91V256.177H1776.94C1785.23 256.177 1791.52 258.015 1795.82 261.691C1800.42 265.366 1802.72 270.726 1802.72 277.771C1802.72 284.815 1800.42 290.175 1795.82 293.851C1791.52 297.526 1785.23 299.364 1776.94 299.364H1737.81V403.654C1737.81 426.321 1748.24 438.419 1769.12 439.949L1781.54 440.869ZM1948.35 440.869C1963.7 441.785 1971.37 448.677 1971.37 461.544C1971.37 468.891 1968.3 474.562 1962.17 478.543C1956.33 482.218 1947.89 483.749 1936.84 483.134L1924.41 482.218C1872.85 478.543 1847.07 450.977 1847.07 399.52V299.364H1824.04C1815.76 299.364 1809.31 297.526 1804.71 293.851C1800.41 290.175 1798.26 284.815 1798.26 277.771C1798.26 270.726 1800.41 265.366 1804.71 261.691C1809.31 258.015 1815.76 256.177 1824.04 256.177H1847.07V213.91C1847.07 205.64 1849.67 199.055 1854.89 194.155C1860.11 189.254 1867.17 186.804 1876.07 186.804C1884.66 186.804 1891.57 189.254 1896.79 194.155C1902.01 199.055 1904.62 205.64 1904.62 213.91V256.177H1943.75C1952.04 256.177 1958.33 258.015 1962.63 261.691C1967.23 265.366 1969.53 270.726 1969.53 277.771C1969.53 284.815 1967.23 290.175 1962.63 293.851C1958.33 297.526 1952.04 299.364 1943.75 299.364H1904.62V403.654C1904.62 426.321 1915.05 438.419 1935.92 439.949L1948.35 440.869ZM2127.06 251.583C2135.04 250.971 2141.33 252.655 2145.93 256.637C2150.54 260.619 2152.84 266.591 2152.84 274.555C2152.84 282.824 2150.84 288.95 2146.85 292.932C2142.86 296.913 2135.65 299.517 2125.21 300.742L2111.4 302.121C2093.29 303.958 2079.94 310.084 2071.35 320.498C2063.06 330.911 2058.92 343.929 2058.92 359.549V456.028C2058.92 464.91 2056.15 471.802 2050.63 476.703C2045.1 481.298 2038.2 483.594 2029.91 483.594C2021.62 483.594 2014.71 481.298 2009.19 476.703C2003.97 471.802 2001.36 464.91 2001.36 456.028V278.23C2001.36 269.654 2003.97 263.069 2009.19 258.475C2014.71 253.88 2021.47 251.583 2029.45 251.583C2037.43 251.583 2043.88 253.88 2048.79 258.475C2053.7 262.763 2056.15 269.042 2056.15 277.311V295.689C2061.98 282.212 2070.58 271.798 2081.94 264.447C2093.6 257.097 2106.49 252.962 2120.61 252.043L2127.06 251.583Z" fill="#274B89"/>
</svg>
