<svg width="16" height="16" viewBox="0 0 16 16" fill="none" xmlns="http://www.w3.org/2000/svg">
<path d="M7.9925 0.5C3.8525 0.5 0.5 3.86 0.5 8C0.5 12.14 3.8525 15.5 7.9925 15.5C12.14 15.5 15.5 12.14 15.5 8C15.5 3.86 12.14 0.5 7.9925 0.5ZM10.415 12.0425L8 10.5875L5.585 12.0425C5.52182 12.0808 5.44875 12.0997 5.3749 12.0968C5.30106 12.0939 5.2297 12.0693 5.16972 12.0262C5.10975 11.983 5.06381 11.9231 5.03763 11.854C5.01145 11.7849 5.00619 11.7096 5.0225 11.6375L5.66 8.8925L3.5375 7.055C3.48237 7.00589 3.44279 6.94173 3.42364 6.87043C3.40449 6.79912 3.40659 6.72377 3.4297 6.65364C3.45281 6.58351 3.49592 6.52167 3.55371 6.47572C3.61151 6.42977 3.68147 6.40171 3.755 6.395L6.56 6.155L7.655 3.5675C7.7825 3.26 8.2175 3.26 8.345 3.5675L9.44 6.1475L12.245 6.3875C12.3188 6.39385 12.3891 6.42192 12.447 6.46818C12.5049 6.51444 12.5478 6.57681 12.5702 6.64742C12.5927 6.71804 12.5938 6.79372 12.5732 6.86493C12.5527 6.93613 12.5116 6.99966 12.455 7.0475L10.3325 8.885L10.97 11.6375C11.045 11.96 10.7 12.215 10.415 12.0425Z" fill="#274B89"/>
</svg>
