<svg width="22" height="22" viewBox="0 0 22 22" fill="none" xmlns="http://www.w3.org/2000/svg">
<path d="M13.8531 4.22765C15.95 6.84015 16.5 8.21515 16.3281 10.5183C18.9406 10.5183 19.5594 12.6495 21.2781 12.6495V16.0183H11.1375C11.1375 16.0183 11.5156 15.4339 11.1031 14.6089L11.4812 11.7214C11.4812 11.7214 12.1344 12.6152 13.2 12.0308C13.2 12.0308 11.9969 11.1027 12.7187 9.6589C12.3062 8.76515 12.2719 8.38703 12.4094 7.0464C10.1406 6.11828 8.04373 6.29015 5.77498 6.42765C5.0531 7.56203 2.95623 8.07765 2.06248 7.90578C1.54685 7.80265 3.43748 7.35578 3.09373 7.1839C3.09373 7.1839 2.13123 7.49328 0.756226 7.28703C0.584351 7.25265 1.09998 5.98078 1.51248 5.6714C1.8906 5.3964 2.88748 4.8464 3.8156 4.88078C4.39998 4.91515 4.98435 5.22453 5.4656 5.22453C6.04998 5.2589 6.80623 4.94953 7.56248 4.77765C9.52185 4.26203 11.275 3.95265 13.8531 4.22765Z" fill="#B47D56"/>
<path d="M12.7188 9.65918C12.7188 9.65918 13.7156 11.1373 15.7781 10.7592C13.9563 10.4498 12.7188 9.65918 12.7188 9.65918Z" fill="#935E3E"/>
<path d="M13.7156 8.04332C13.7156 8.04332 12.9937 6.25582 10.9312 6.59957C12.5468 6.94332 13.7156 8.04332 13.7156 8.04332Z" fill="#935E3E"/>
<path d="M17.9781 14.6094C17.9781 14.6094 18.6312 11.4469 16.1906 10.8281C18.1499 11.6875 17.9781 14.6094 17.9781 14.6094Z" fill="#935E3E"/>
<path d="M11.3094 11.8594L11 14.575C12.3406 14.7813 13.5094 14.5406 13.5094 14.5406C12.65 12.3406 11.3094 11.8594 11.3094 11.8594Z" fill="#935E3E"/>
<path d="M17.2471 13.4249C17.2722 13.1985 17.1549 12.9997 16.9851 12.9808C16.8153 12.9619 16.6572 13.1302 16.6321 13.3566C16.6069 13.583 16.7242 13.7819 16.894 13.8008C17.0638 13.8196 17.2219 13.6514 17.2471 13.4249Z" fill="#935E3E"/>
<path d="M2.88751 12.6157C2.61251 14.8501 4.50314 16.9126 7.08126 17.222C8.21564 17.3595 9.48751 16.8439 10.3813 16.3282C11.4813 15.7095 12.2031 14.1282 12.2375 13.7157C12.2719 13.3032 11.9625 11.6189 11.0344 10.7595C10.2781 10.072 9.17814 9.28137 8.04376 9.14387C5.46564 8.83449 3.16251 10.3814 2.88751 12.6157Z" fill="#B47D56"/>
<path d="M7.11562 13.1316C7.49374 9.90031 9.21249 9.48781 9.21249 9.48781C9.21249 9.48781 8.83437 9.21281 8.00937 9.10969C5.43124 8.80031 3.12812 10.3472 2.85312 12.5816C2.57812 14.8159 4.46874 16.8784 7.04687 17.1878C7.87187 17.2909 8.28437 17.1191 8.28437 17.1191C8.28437 17.1534 6.73749 16.3628 7.11562 13.1316Z" fill="#F15744"/>
<path d="M8.62811 13.7498C8.14686 13.5779 7.56248 14.0591 7.32186 14.781C7.08123 15.5029 7.28749 16.2248 7.76873 16.3966C8.24998 16.5685 8.83436 16.0873 9.07498 15.3654C9.31561 14.6091 9.14373 13.8873 8.62811 13.7498Z" fill="#231F20"/>
<path d="M8.55937 14.1282C8.21562 14.025 7.80312 14.3344 7.63125 14.85C7.45937 15.3657 7.59687 15.8469 7.94062 15.9844C8.28437 16.0875 8.69687 15.7782 8.86874 15.2625C9.04062 14.7469 8.90312 14.2313 8.55937 14.1282Z" fill="#44618B"/>
<path d="M8.49063 13.0278C7.97501 12.9934 7.63126 12.3403 7.66563 11.5841C7.73438 10.8278 8.18126 10.2434 8.69688 10.2778C9.21251 10.3122 9.55626 10.9653 9.52188 11.7216C9.45313 12.4778 9.00626 13.0622 8.49063 13.0278Z" fill="#231F20"/>
<path d="M8.52498 12.6157C8.14685 12.5813 7.90623 12.1344 7.9406 11.5844C7.97498 11.0344 8.31873 10.6219 8.66248 10.6563C9.04061 10.6907 9.28123 11.1375 9.24686 11.6875C9.21248 12.2375 8.86873 12.65 8.52498 12.6157Z" fill="#44618B"/>
<path d="M8.31875 12.7881L8.25 13.8881H8.6625L8.76562 12.8225L8.31875 12.7881Z" fill="#428BC1"/>
<path d="M8.93752 10.4846L9.41877 9.6252L9.04064 9.41895L8.45627 10.3127L8.93752 10.4846Z" fill="#428BC1"/>
<path d="M9.38434 13.7848C9.59059 13.8191 9.79684 13.6473 9.83121 13.441C9.86559 13.2348 9.69371 13.0285 9.48746 12.9941L9.38434 13.7848Z" fill="#935E3E"/>
<path d="M11.2062 12.6848C11.55 12.7192 11.4125 13.1317 11.3437 13.6129C11.275 14.0942 11.3437 14.541 11 14.5067C10.6562 14.4723 10.4156 14.0254 10.4844 13.5098C10.5187 13.0285 10.8625 12.6504 11.2062 12.6848Z" fill="#574137"/>
<path d="M8.27509 13.9839L8.29434 13.7783L8.63637 13.8099L8.61746 14.0155L8.27509 13.9839Z" fill="#44618B"/>
<path d="M8.36896 12.9002L8.38271 12.6943L8.72577 12.7174L8.71202 12.9233L8.36896 12.9002Z" fill="#44618B"/>
<path d="M8.48541 10.3706L8.57272 10.1836L8.94638 10.3582L8.85907 10.5452L8.48541 10.3706Z" fill="#44618B"/>
<path d="M0.6875 14.4375H21.3125V21.3125H0.6875V14.4375Z" fill="#75D6FF"/>
<path d="M8.18123 19.1805C7.66561 19.2493 7.04686 19.2149 6.56561 19.043C5.91248 18.8368 5.32811 18.4586 4.64061 18.3555C3.71248 18.1836 2.71561 18.3555 1.85623 18.6993C2.99061 18.6305 4.05623 18.5274 5.15623 18.9399C6.08436 19.2836 7.14998 19.6618 8.18123 19.1805Z" fill="#42ADE2"/>
<path d="M12.1688 16.5339C11.6875 16.6027 11 16.6027 10.5531 16.3964C9.9 16.1902 9.31563 15.812 8.62813 15.7089C7.7 15.537 6.70312 15.6745 5.84375 16.0527C6.97812 15.9839 8.04375 15.8808 9.14375 16.2933C10.0719 16.637 11.1719 17.0152 12.1688 16.5339Z" fill="#42ADE2"/>
<path d="M16.1563 19.1805C15.675 19.2493 14.9875 19.2493 14.5406 19.043C13.8875 18.8368 13.3031 18.4586 12.6156 18.3555C11.6875 18.1836 10.6906 18.3555 9.83127 18.6993C10.9656 18.6305 12.0313 18.5274 13.1313 18.9399C14.0594 19.2836 15.1594 19.6618 16.1563 19.1805Z" fill="#42ADE2"/>
<path d="M20.1781 16.5339C19.6968 16.6027 19.0093 16.6027 18.5625 16.3964C17.9093 16.1902 17.325 15.812 16.6375 15.7089C15.7093 15.537 14.7125 15.6745 13.8531 16.0527C14.9875 15.9839 16.0531 15.8808 17.1531 16.2933C18.0812 16.637 19.1812 17.0152 20.1781 16.5339Z" fill="#42ADE2"/>
</svg>
