<svg width="13" height="18" viewBox="0 0 13 18" fill="none" xmlns="http://www.w3.org/2000/svg">
<path d="M2.53884 4.47282H9.50364C9.74747 4.47282 9.94506 4.27523 9.94506 4.03152V2.6302C9.94506 2.48044 9.82373 2.35911 9.6741 2.35911L8.14647 2.33553V2.12641C8.14647 2.03338 8.13992 1.94219 8.12839 1.85244C8.10572 1.6766 8.06183 1.50771 7.99907 1.34812C7.68828 0.558692 6.91994 0 6.0215 0C6.01744 0 6.01337 0 6.00944 0C5.11493 0.00497898 4.35249 0.562623 4.04354 1.34812C3.98064 1.50771 3.93675 1.6766 3.91408 1.85244C3.90255 1.94219 3.896 2.03338 3.896 2.12641V2.35911H2.36837C2.21874 2.35911 2.09741 2.48044 2.09741 2.63007V4.03139C2.09741 4.27523 2.29513 4.47282 2.53884 4.47282ZM6.02124 1.62511C6.30032 1.62511 6.52647 1.85139 6.52647 2.13047C6.52647 2.40956 6.30032 2.63584 6.02124 2.63584C5.74215 2.63584 5.51587 2.40956 5.51587 2.13047C5.51587 1.85139 5.74215 1.62511 6.02124 1.62511Z" fill="#274B89"/>
<path d="M11.8678 2.35742H11.4153C11.4347 2.4456 11.4451 2.53706 11.4451 2.631V4.03232C11.4451 4.83171 10.7947 5.48212 9.99521 5.48212H3.03042C2.23091 5.48212 1.5805 4.83171 1.5805 4.03219V2.63087C1.5805 2.53693 1.59085 2.4456 1.61024 2.35742H1.15768C0.773248 2.35742 0.46167 2.669 0.46167 3.05343V16.4784C0.46167 16.8629 0.773248 17.1746 1.15768 17.1746H11.8678C12.2523 17.1746 12.564 16.8629 12.564 16.4784V3.05356C12.564 2.66913 12.2523 2.35742 11.8678 2.35742ZM10.0823 14.1958H2.94329C2.66473 14.1958 2.43897 13.9701 2.43897 13.6915C2.43897 13.4131 2.66473 13.1873 2.94329 13.1873H10.0823C10.3609 13.1873 10.5867 13.4131 10.5867 13.6915C10.5867 13.9701 10.3609 14.1958 10.0823 14.1958ZM10.0823 12.0695H2.94329C2.66473 12.0695 2.43897 11.8438 2.43897 11.5652C2.43897 11.2868 2.66473 11.0609 2.94329 11.0609H10.0823C10.3609 11.0609 10.5867 11.2868 10.5867 11.5652C10.5867 11.8438 10.3609 12.0695 10.0823 12.0695ZM10.0823 9.94314H2.94329C2.66473 9.94314 2.43897 9.71738 2.43897 9.43895C2.43897 9.16039 2.66473 8.93464 2.94329 8.93464H10.0823C10.3609 8.93464 10.5867 9.16039 10.5867 9.43895C10.5867 9.71738 10.3609 9.94314 10.0823 9.94314ZM10.0823 7.81686H2.94329C2.66473 7.81686 2.43897 7.5911 2.43897 7.31254C2.43897 7.03411 2.66473 6.80822 2.94329 6.80822H10.0823C10.3609 6.80822 10.5867 7.03411 10.5867 7.31254C10.5867 7.5911 10.3609 7.81686 10.0823 7.81686Z" fill="#274B89"/>
</svg>
