<svg width="19" height="20" viewBox="0 0 19 20" fill="none" xmlns="http://www.w3.org/2000/svg">
<path d="M0.599996 10.083L4.052 11.594L14 6.167L8 13.167L16.6 17.083C16.7471 17.1474 16.9075 17.1755 17.0677 17.1648C17.2279 17.1541 17.3832 17.105 17.5204 17.0216C17.6576 16.9382 17.7728 16.8231 17.8561 16.6858C17.9394 16.5485 17.9884 16.3932 17.999 16.233L18.999 1.233C19.0101 1.05938 18.9759 0.885855 18.8996 0.729497C18.8233 0.573139 18.7076 0.439336 18.5639 0.341255C18.4203 0.243175 18.2535 0.184196 18.0801 0.170123C17.9067 0.156051 17.7326 0.187369 17.575 0.260996L0.574996 8.261C0.401586 8.34327 0.255454 8.47362 0.153981 8.63654C0.0525078 8.79946 -3.65875e-05 8.9881 0.00259679 9.18002C0.00523016 9.37194 0.0629303 9.55907 0.168835 9.71914C0.27474 9.87922 0.424393 10.0055 0.599996 10.083ZM6 19.167L10.776 16.851L6 14.623V19.167Z" fill="#929AA7"/>
</svg>
