<svg width="31" height="31" viewBox="0 0 31 31" fill="none" xmlns="http://www.w3.org/2000/svg">
<circle cx="15.5" cy="15.5" r="15.5" fill="#ECF7FF"/>
<path d="M7.36642 9.18394L10.0347 6.51562L10.6844 7.16531L8.01611 9.83363L7.36642 9.18394Z" fill="#ACB8BF"/>
<path d="M12.0288 9.85516L14.6974 7.1875L15.3471 7.83719L12.6785 10.5048L12.0288 9.85516Z" fill="#ACB8BF"/>
<path d="M21.1798 22.9987L23.8488 20.3311L24.4985 20.9811L21.8295 23.6487L21.1798 22.9987Z" fill="#ACB8BF"/>
<path d="M20.5134 18.3073L23.1824 15.6396L23.8321 16.2897L21.1628 18.9573L20.5134 18.3073Z" fill="#ACB8BF"/>
<path d="M23.5062 24.9175L21.9641 11.1035L19.8969 9.03629L6.08281 7.4941C5.42656 7.42848 5.55781 9.0691 6.3125 9.43004L16.7141 14.2863L21.5703 24.6879C21.9312 25.4425 23.5719 25.5738 23.5062 24.9175Z" fill="#42ADE2"/>
<path d="M25.1141 7.65824C25.8359 6.24731 24.7531 5.16449 23.3422 5.88637C21.5375 6.80512 18.8797 8.87231 16.1891 11.5301C11.9891 15.7301 9.29843 19.8973 10.1844 20.8161C11.0703 21.702 15.2703 19.0114 19.4703 14.8114C22.1281 12.1536 24.1953 9.46293 25.1141 7.65824Z" fill="#DAE3EA"/>
<path d="M12.35 24.7529L11.825 19.8966L11.1031 19.1748L6.24686 18.6498C6.01717 18.6169 6.04999 19.2076 6.31249 19.3388L9.95467 21.0451L11.6609 24.6873C11.7922 24.9498 12.3828 24.9826 12.35 24.7529Z" fill="#42ADE2"/>
<path d="M11.6282 20.1591C10.1516 21.6357 8.80628 22.6529 8.6094 22.4232C8.41253 22.2263 9.42972 20.8482 10.8735 19.3716C12.35 17.8951 13.6953 16.8779 13.925 17.1076C14.0891 17.3044 13.0719 18.6826 11.6282 20.1591Z" fill="#ACB8BF"/>
<path d="M24.6219 8.1827C24.7859 7.59207 24.7203 7.03426 24.3594 6.64051C23.9984 6.27957 23.4078 6.18113 22.85 6.37801L21.7344 7.06707C22.2922 6.8702 23.1125 7.16551 23.4734 7.52645C23.8672 7.9202 24.1297 8.7077 23.9328 9.26551L24.6219 8.1827Z" fill="#3E4347"/>
<path d="M22.6085 8.18108L24.4637 6.32422L24.6727 6.53291L22.8172 8.39009L22.6085 8.18108Z" fill="#DAE3EA"/>
</svg>
