<svg width="41" height="41" viewBox="0 0 41 41" fill="none" xmlns="http://www.w3.org/2000/svg">
<path d="M4.80445 5.94141H21.7029C24.0975 5.94141 26.0392 8.45138 26.0392 11.5469V16.8673L27.0623 17.1677L27.8125 22.4766L27.2942 27.8354L21.9463 27.8027C21.8624 27.8104 21.7868 27.8354 21.7035 27.8354H4.80509C2.40851 27.8354 0.467421 25.3267 0.467421 22.2299V11.5475C0.466139 8.45202 2.40852 5.94141 4.80445 5.94141Z" fill="#F48020"/>
<path d="M4.80445 5.95312H21.7029C24.0975 5.95312 26.0392 8.46245 26.0392 11.5586V16.8796L27.0623 17.1801L27.8125 22.4883L27.4525 26.218L27.0623 23.4652L26.0392 23.1648V17.8444C26.0392 14.7489 24.0982 12.2389 21.7029 12.2389H4.80445C2.40788 12.2389 0.466782 14.7495 0.466782 17.8444V11.558C0.466782 8.46245 2.40788 5.95312 4.80445 5.95312Z" fill="#F9A425"/>
<path d="M28.3388 12.2422H31.7803C34.6554 12.4299 40.3736 13.7476 40.2641 21.2557V24.0194C40.2641 26.384 39.2352 28.3001 37.9687 28.3001H28.3401C27.0723 28.3001 26.0428 26.3846 26.0428 24.0194V16.5215C26.0428 14.1576 27.0717 12.2402 28.3401 12.2402" fill="#E3E4E3"/>
<path d="M27.4199 9.60156H29.4827C31.2028 9.70022 34.6269 10.3844 34.5616 14.2839V15.717C34.5616 16.9457 33.9434 17.9406 33.1868 17.9406H27.4212C26.6633 17.9406 26.0464 16.9457 26.0464 15.717V11.8265C26.0451 10.5977 26.6627 9.60156 27.4205 9.60156" fill="#E3E4E3"/>
<path d="M32.726 14.3301H34.4518C35.8926 14.4377 38.76 15.1917 38.7043 19.4871V21.0682C38.7043 22.4218 38.1899 23.5192 37.5537 23.5192H32.726C32.0898 23.5192 31.5728 22.4218 31.5728 21.0682V16.7792C31.5728 15.4268 32.0898 14.3307 32.726 14.3307" fill="#A2C2CA"/>
<path d="M35.2077 19.7016C35.2916 17.8912 35.168 16.0296 34.6344 14.3242C36.0841 14.4395 38.915 15.2102 38.8606 19.4813V21.0623C38.8606 22.416 38.3449 23.5133 37.7087 23.5133H34.5716C34.9419 22.3673 35.143 21.0995 35.2077 19.7042" fill="#83AFB7"/>
<path d="M27.362 29.4317C27.363 30.6101 27.8318 31.74 28.6655 32.5729C29.4992 33.4059 30.6294 33.8738 31.8079 33.8737C32.9857 33.8727 34.115 33.4044 34.9478 32.5716C35.7807 31.7387 36.249 30.6095 36.25 29.4317C36.2497 28.2535 35.7816 27.1237 34.9486 26.2905C34.1157 25.4574 32.986 24.989 31.8079 24.9883C31.2242 24.9881 30.6462 25.1029 30.1069 25.3261C29.5676 25.5493 29.0775 25.8766 28.6647 26.2892C28.2518 26.7018 27.9243 27.1917 27.7008 27.7309C27.4773 28.27 27.3621 28.848 27.362 29.4317Z" fill="white"/>
<path d="M28.1488 29.4312C28.1497 30.4005 28.5353 31.3298 29.221 32.0148C29.9066 32.6999 30.8362 33.0847 31.8055 33.0847C32.7741 33.0835 33.7027 32.6982 34.3876 32.0133C35.0725 31.3284 35.4578 30.3998 35.459 29.4312C35.4463 28.4702 35.0556 27.5529 34.3715 26.8778C33.6874 26.2027 32.765 25.8242 31.8039 25.8242C30.8428 25.8242 29.9204 26.2027 29.2363 26.8778C28.5522 27.5529 28.1615 28.4702 28.1488 29.4312Z" fill="#243438"/>
<path d="M29.4371 29.379C29.4371 30.0074 29.6867 30.61 30.131 31.0544C30.5754 31.4987 31.178 31.7483 31.8064 31.7483C32.4348 31.7483 33.0375 31.4987 33.4818 31.0544C33.9262 30.61 34.1758 30.0074 34.1758 29.379C34.1582 28.7623 33.9009 28.1767 33.4585 27.7467C33.016 27.3167 32.4234 27.0762 31.8064 27.0762C31.1895 27.0762 30.5968 27.3167 30.1544 27.7467C29.712 28.1767 29.4546 28.7623 29.4371 29.379Z" fill="#969796"/>
<path d="M9.07375 30.0061C9.07409 31.0322 9.48186 32.0162 10.2074 32.7418C10.933 33.4674 11.917 33.8751 12.9431 33.8755C13.9691 33.8748 14.9529 33.4669 15.6784 32.7414C16.4039 32.0159 16.8118 31.0321 16.8125 30.0061C16.8122 28.98 16.4044 27.996 15.6788 27.2704C14.9532 26.5448 13.9692 26.1371 12.9431 26.1367C12.435 26.1367 11.9318 26.2368 11.4624 26.4313C10.9929 26.6257 10.5664 26.9107 10.2071 27.27C9.84776 27.6293 9.56274 28.0559 9.36829 28.5253C9.17383 28.9948 9.07375 29.498 9.07375 30.0061Z" fill="white"/>
<path d="M9.75969 30.0049C9.75969 30.8485 10.0948 31.6575 10.6913 32.254C11.2878 32.8505 12.0968 33.1856 12.9404 33.1856C13.784 33.1856 14.593 32.8505 15.1895 32.254C15.786 31.6575 16.1211 30.8485 16.1211 30.0049C16.1214 29.5874 16.0395 29.1739 15.88 28.7881C15.7204 28.4022 15.4865 28.0516 15.1914 27.7562C14.8963 27.4608 14.5459 27.2265 14.1602 27.0666C13.7745 26.9067 13.3611 26.8243 12.9436 26.8242C12.5256 26.8237 12.1116 26.9056 11.7253 27.0652C11.339 27.2249 10.9879 27.4591 10.6922 27.7545C10.3965 28.0499 10.162 28.4007 10.0019 28.7869C9.84192 29.173 9.7596 29.5869 9.75969 30.0049Z" fill="#243438"/>
<path d="M10.8776 29.9632C10.8776 30.2343 10.931 30.5026 11.0347 30.753C11.1385 31.0034 11.2905 31.2309 11.4822 31.4225C11.6739 31.6142 11.9014 31.7661 12.1519 31.8698C12.4023 31.9735 12.6707 32.0268 12.9417 32.0267C13.3494 32.0263 13.7479 31.9051 14.0867 31.6783C14.4256 31.4515 14.6896 31.1294 14.8454 30.7526C15.0012 30.3759 15.0419 29.9614 14.9622 29.5615C14.8825 29.1616 14.6861 28.7944 14.3977 28.5061C14.1094 28.2179 13.7421 28.0215 13.3422 27.942C12.9423 27.8624 12.5278 27.9032 12.1511 28.0591C11.7743 28.2151 11.4523 28.4792 11.2256 28.8181C10.999 29.157 10.8779 29.5555 10.8776 29.9632Z" fill="#969796"/>
<path d="M1.16023 29.9631C1.16065 30.4708 1.26107 30.9735 1.45575 31.4424C1.65044 31.9113 1.93557 32.3373 2.29487 32.696C2.65418 33.0547 3.08062 33.3391 3.54984 33.533C4.01907 33.7269 4.52189 33.8265 5.02961 33.8261C5.53732 33.8257 6.03998 33.7253 6.50888 33.5306C6.97779 33.3359 7.40376 33.0508 7.76247 32.6915C8.12118 32.3322 8.4056 31.9057 8.59951 31.4365C8.79341 30.9673 8.893 30.4644 8.89258 29.9567C8.89173 28.9313 8.48358 27.9483 7.75793 27.2239C7.03229 26.4994 6.04857 26.0929 5.0232 26.0938C3.99783 26.0946 3.01479 26.5027 2.29034 27.2284C1.5659 27.954 1.15938 28.9378 1.16023 29.9631Z" fill="white"/>
<path d="M1.84438 29.962C1.8454 30.8058 2.18127 31.6147 2.77824 32.2111C3.37521 32.8074 4.18446 33.1425 5.02828 33.1427C5.87186 33.1427 6.68088 32.8075 7.27738 32.2111C7.87388 31.6146 8.20898 30.8055 8.20898 29.962C8.20898 29.1184 7.87388 28.3094 7.27738 27.7129C6.68088 27.1164 5.87186 26.7813 5.02828 26.7813C4.61036 26.781 4.19649 26.8631 3.8103 27.0228C3.4241 27.1825 3.07315 27.4167 2.77749 27.7121C2.48183 28.0075 2.24725 28.3582 2.08714 28.7442C1.92704 29.1302 1.84454 29.544 1.84438 29.962Z" fill="#243438"/>
<path d="M2.96649 29.919C2.96166 30.1929 3.01144 30.4651 3.11293 30.7195C3.21441 30.974 3.36556 31.2057 3.55756 31.4011C3.74956 31.5965 3.97856 31.7517 4.23119 31.8577C4.48382 31.9636 4.75503 32.0182 5.02898 32.0182C5.30293 32.0182 5.57414 31.9636 5.82678 31.8577C6.07941 31.7517 6.30841 31.5965 6.50041 31.4011C6.69241 31.2057 6.84356 30.974 6.94504 30.7195C7.04652 30.4651 7.0963 30.1929 7.09148 29.919C7.08195 29.3783 6.86046 28.863 6.4747 28.484C6.08895 28.105 5.56978 27.8926 5.02898 27.8926C4.48819 27.8926 3.96902 28.105 3.58326 28.484C3.19751 28.863 2.97602 29.3783 2.96649 29.919Z" fill="#969796"/>
<path d="M38.8657 25.7983C38.8657 26.8759 39.3013 27.7503 39.8401 27.7503C40.3782 27.7503 40.8145 26.8759 40.8145 25.7983V25.7548C40.8145 24.6785 40.3782 23.8066 39.8401 23.8066C39.3013 23.8066 38.8657 24.6785 38.8657 25.7548V25.7983Z" fill="#F1F1F1"/>
<path d="M0.187297 23.5399C0.187297 24.6174 0.622922 25.4893 1.16233 25.4893C1.69981 25.4893 2.13672 24.6174 2.13672 23.5399V23.4976C2.13672 22.4188 1.69981 21.5469 1.16233 21.5469C0.622281 21.5469 0.187297 22.4188 0.187297 23.4976V23.5399Z" fill="#DF394C"/>
</svg>
