<svg width="50" height="50" viewBox="0 0 50 50" fill="none" xmlns="http://www.w3.org/2000/svg">
<rect x="0.5" y="0.5" width="49" height="49" rx="5.5" stroke="#274B89"/>
<path d="M31.8625 31.5628H18.2125C17.14 31.5628 16.2625 30.7097 16.2625 29.667V20.1878C16.2625 19.1451 17.14 18.292 18.2125 18.292H31.8625C32.9349 18.292 33.8125 19.1451 33.8125 20.1878V29.667C33.8125 30.7097 32.9349 31.5628 31.8625 31.5628Z" fill="#274B89"/>
<path d="M29.4249 23.5049C30.2326 23.5049 30.8874 22.8683 30.8874 22.083C30.8874 21.2977 30.2326 20.6611 29.4249 20.6611C28.6172 20.6611 27.9624 21.2977 27.9624 22.083C27.9624 22.8683 28.6172 23.5049 29.4249 23.5049Z" fill="#C2E0FF"/>
<path d="M23.0875 22.9834L18.7 29.1923H27.475L23.0875 22.9834Z" fill="#6E85AE"/>
<path d="M28.4499 25.6377L25.5249 29.1924H31.3749L28.4499 25.6377Z" fill="#6E85AE"/>
</svg>
