<svg width="21" height="21" viewBox="0 0 21 21" fill="none" xmlns="http://www.w3.org/2000/svg">
<g clip-path="url(#clip0)">
<path d="M10.4997 21.0003C15.9765 21.0003 20.4163 16.5605 20.4163 11.0837C20.4163 5.60684 15.9765 1.16699 10.4997 1.16699C5.02285 1.16699 0.583008 5.60684 0.583008 11.0837C0.583008 16.5605 5.02285 21.0003 10.4997 21.0003Z" fill="#F4900C"/>
<path d="M10.4997 19.8333C15.9765 19.8333 20.4163 15.3935 20.4163 9.91667C20.4163 4.43984 15.9765 0 10.4997 0C5.02285 0 0.583008 4.43984 0.583008 9.91667C0.583008 15.3935 5.02285 19.8333 10.4997 19.8333Z" fill="#FFCC4D"/>
<path d="M10.4997 18.6663C15.01 18.6663 18.6663 15.01 18.6663 10.4997C18.6663 5.98935 15.01 2.33301 10.4997 2.33301C5.98935 2.33301 2.33301 5.98935 2.33301 10.4997C2.33301 15.01 5.98935 18.6663 10.4997 18.6663Z" fill="#FFE8B6"/>
<path d="M10.4997 18.0833C15.01 18.0833 18.6663 14.427 18.6663 9.91667C18.6663 5.40634 15.01 1.75 10.4997 1.75C5.98935 1.75 2.33301 5.40634 2.33301 9.91667C2.33301 14.427 5.98935 18.0833 10.4997 18.0833Z" fill="#FFAC33"/>
<path d="M10 12.8182C12.2091 12.8182 14 11.5157 14 9.90909C14 8.30244 12.2091 7 10 7C7.79086 7 6 8.30244 6 9.90909C6 11.5157 7.79086 12.8182 10 12.8182Z" fill="#FFCB5F"/>
</g>
<defs>
<clipPath id="clip0">
<rect width="21" height="21" fill="white"/>
</clipPath>
</defs>
</svg>
