<svg width="28" height="28" viewBox="0 0 28 28" fill="none" xmlns="http://www.w3.org/2000/svg">
<path d="M14.0159 26.1876C20.8659 26.1876 26.419 20.6345 26.419 13.7845C26.419 6.93446 20.8659 1.3814 14.0159 1.3814C7.16585 1.3814 1.61279 6.93446 1.61279 13.7845C1.61279 20.6345 7.16585 26.1876 14.0159 26.1876Z" fill="#C4C4C4" stroke="#C2E0FF" stroke-width="2.69634"/>
<path d="M14.3511 9.08545C15.8327 9.08545 17.0328 10.2855 17.0328 11.7672C17.0328 13.2489 15.8327 14.449 14.3511 14.449C12.8694 14.449 11.6693 13.2489 11.6693 11.7672C11.6693 10.2855 12.8694 9.08545 14.3511 9.08545ZM14.3511 19.8125C14.3511 19.8125 19.7146 19.8125 19.7146 18.4716C19.7146 16.8626 17.0999 15.1194 14.3511 15.1194C11.6023 15.1194 8.98755 16.8626 8.98755 18.4716C8.98755 19.8125 14.3511 19.8125 14.3511 19.8125Z" fill="#274B89"/>
</svg>
