<svg width="18" height="16" viewBox="0 0 18 16" fill="none" xmlns="http://www.w3.org/2000/svg">
<g clip-path="url(#clip0)">
<path d="M5.112 12.427C5.976 11.862 7.051 11.433 8.234 11.171C7.99312 10.8853 7.78108 10.5764 7.601 10.249C7.13189 9.40855 6.8822 8.46344 6.875 7.50098C6.875 6.15698 6.875 4.88698 7.353 3.84798C7.817 2.83998 8.652 2.21498 9.841 1.98098C9.577 0.785976 8.873 0.000976562 7 0.000976562C4 0.000976562 4 2.01598 4 4.50098C4 6.04898 4.898 7.59598 6 8.21698V9.04198C2.608 9.31898 0 10.986 0 13.001H4.359C4.586 12.799 4.837 12.608 5.112 12.428V12.427Z" fill="#929AA7"/>
</g>
<path d="M12 12.041V11.216C13.102 10.595 14 9.048 14 7.5C14 5.015 14 3 11 3C8 3 8 5.015 8 7.5C8 9.048 8.898 10.595 10 11.216V12.041C6.608 12.318 4 13.985 4 16H18C18 13.985 15.392 12.318 12 12.041Z" fill="#929AA7"/>
<defs>
<clipPath id="clip0">
<rect width="10" height="13" fill="white"/>
</clipPath>
</defs>
</svg>
