<svg width="36" height="27" viewBox="0 0 36 27" fill="none" xmlns="http://www.w3.org/2000/svg">
<rect x="0.129883" y="0.495209" width="35.5644" height="26.0094" rx="2.5865" fill="#FFEFCD"/>
<path d="M12.1095 16.9174C12.1544 16.8209 12.2285 16.7726 12.332 16.7726C12.401 16.7726 12.463 16.7967 12.5182 16.845C12.5734 16.8898 12.601 16.945 12.601 17.0105C12.601 17.0347 12.5924 17.0674 12.5751 17.1088L11.1163 20.3057C11.0922 20.3609 11.0543 20.404 11.0025 20.4351C10.9508 20.4661 10.8956 20.4816 10.837 20.4816C10.7784 20.4816 10.7215 20.4661 10.6663 20.4351C10.6145 20.404 10.5766 20.3609 10.5525 20.3057L9.09886 17.1088C9.08161 17.0674 9.07299 17.0347 9.07299 17.0105C9.07299 16.9416 9.10058 16.8847 9.15576 16.8398C9.21439 16.795 9.27819 16.7726 9.34716 16.7726C9.45407 16.7726 9.52994 16.8209 9.57477 16.9174L10.8422 19.7574L12.1095 16.9174ZM14.6936 19.8143C14.7419 19.8143 14.7816 19.8333 14.8126 19.8712C14.8436 19.9091 14.8592 19.9574 14.8592 20.016C14.8592 20.1161 14.7971 20.2005 14.6729 20.2695C14.5522 20.3385 14.4195 20.3919 14.2746 20.4299C14.1332 20.4678 13.997 20.4868 13.8659 20.4868C13.4659 20.4868 13.1503 20.3713 12.9193 20.1402C12.6882 19.9057 12.5727 19.5867 12.5727 19.1832C12.5727 18.9245 12.6227 18.6952 12.7227 18.4952C12.8262 18.2952 12.9693 18.14 13.1521 18.0296C13.3383 17.9193 13.5487 17.8641 13.7832 17.8641C14.1211 17.8641 14.3884 17.9727 14.585 18.19C14.7816 18.4072 14.8799 18.7004 14.8799 19.0694C14.8799 19.2073 14.8178 19.2763 14.6936 19.2763H13.0952C13.1297 19.8108 13.3866 20.0781 13.8659 20.0781C13.9935 20.0781 14.1039 20.0609 14.197 20.0264C14.2901 19.9919 14.3884 19.9471 14.4919 19.8919C14.5022 19.885 14.5298 19.8712 14.5746 19.8505C14.6229 19.8264 14.6626 19.8143 14.6936 19.8143ZM13.7935 18.2469C13.5935 18.2469 13.4331 18.3107 13.3124 18.4383C13.1917 18.5659 13.1193 18.7452 13.0952 18.9763H14.4298C14.4195 18.7418 14.3591 18.5624 14.2487 18.4383C14.1418 18.3107 13.9901 18.2469 13.7935 18.2469ZM16.7799 17.8744C16.9454 17.8641 17.0282 17.9348 17.0282 18.0865C17.0282 18.1624 17.0092 18.2193 16.9713 18.2572C16.9333 18.2952 16.8678 18.3176 16.7747 18.3245L16.6195 18.34C16.4023 18.3607 16.2402 18.4366 16.1333 18.5676C16.0298 18.6987 15.9781 18.8573 15.9781 19.0435V20.2281C15.9781 20.3109 15.9539 20.373 15.9056 20.4144C15.8574 20.4557 15.7953 20.4764 15.7194 20.4764C15.6435 20.4764 15.5797 20.4557 15.528 20.4144C15.4797 20.373 15.4556 20.3109 15.4556 20.2281V18.1227C15.4556 18.0434 15.4797 17.9831 15.528 17.9417C15.5797 17.8968 15.6435 17.8744 15.7194 17.8744C15.7884 17.8744 15.8453 17.8968 15.8901 17.9417C15.9384 17.9831 15.9625 18.0417 15.9625 18.1176V18.3659C16.0315 18.2141 16.1315 18.0986 16.2626 18.0193C16.3936 17.9399 16.5419 17.8934 16.7075 17.8796L16.7799 17.8744ZM17.6138 20.4764C17.538 20.4764 17.4742 20.4557 17.4224 20.4144C17.3741 20.373 17.35 20.3109 17.35 20.2281V18.1279C17.35 18.0451 17.3741 17.9831 17.4224 17.9417C17.4742 17.8968 17.538 17.8744 17.6138 17.8744C17.6897 17.8744 17.7518 17.8968 17.8001 17.9417C17.8483 17.9831 17.8725 18.0451 17.8725 18.1279V20.2281C17.8725 20.3109 17.8483 20.373 17.8001 20.4144C17.7518 20.4557 17.6897 20.4764 17.6138 20.4764ZM17.6138 17.3675C17.5138 17.3675 17.4345 17.3399 17.3759 17.2847C17.3172 17.2295 17.2879 17.1571 17.2879 17.0674C17.2879 16.9778 17.3172 16.9071 17.3759 16.8553C17.4345 16.8002 17.5138 16.7726 17.6138 16.7726C17.7104 16.7726 17.788 16.8002 17.8466 16.8553C17.9087 16.9071 17.9397 16.9778 17.9397 17.0674C17.9397 17.1571 17.9104 17.2295 17.8518 17.2847C17.7932 17.3399 17.7138 17.3675 17.6138 17.3675ZM20.6307 17.3675C20.5306 17.3675 20.4513 17.3399 20.3927 17.2847C20.3341 17.2295 20.3048 17.1571 20.3048 17.0674C20.3048 16.9778 20.3341 16.9071 20.3927 16.8553C20.4513 16.8002 20.5306 16.7726 20.6307 16.7726C20.7272 16.7726 20.8048 16.8002 20.8634 16.8553C20.9255 16.9071 20.9566 16.9778 20.9566 17.0674C20.9566 17.1571 20.9272 17.2295 20.8686 17.2847C20.81 17.3399 20.7307 17.3675 20.6307 17.3675ZM20.6617 17.9261C20.7341 17.9261 20.7893 17.9451 20.8272 17.9831C20.8686 18.0175 20.8893 18.0658 20.8893 18.1279V20.2281C20.8893 20.3109 20.8652 20.373 20.8169 20.4144C20.7686 20.4557 20.7065 20.4764 20.6307 20.4764C20.5548 20.4764 20.491 20.4557 20.4393 20.4144C20.391 20.373 20.3668 20.3109 20.3668 20.2281V18.3296H19.2857V20.223C19.2857 20.3057 19.2598 20.3695 19.2081 20.4144C19.1598 20.4557 19.0977 20.4764 19.0219 20.4764C18.946 20.4764 18.8839 20.4557 18.8356 20.4144C18.7873 20.3695 18.7632 20.3057 18.7632 20.223V18.3296H18.4528C18.3804 18.3296 18.3235 18.3124 18.2821 18.2779C18.2442 18.24 18.2252 18.19 18.2252 18.1279C18.2252 18.0658 18.2442 18.0175 18.2821 17.9831C18.3235 17.9451 18.3804 17.9261 18.4528 17.9261H18.7632V17.8692C18.7632 17.552 18.8442 17.3037 19.0063 17.1243C19.1684 16.9416 19.3978 16.8364 19.6943 16.8088L19.8185 16.7984L19.8857 16.7933C20.0375 16.7933 20.1134 16.8571 20.1134 16.9847C20.1134 17.1054 20.0461 17.1743 19.9116 17.1916L19.7926 17.2019C19.6202 17.2157 19.4926 17.2709 19.4098 17.3675C19.3271 17.4606 19.2857 17.5985 19.2857 17.7813V17.9261H20.6617ZM23.5948 19.8143C23.6431 19.8143 23.6828 19.8333 23.7138 19.8712C23.7448 19.9091 23.7604 19.9574 23.7604 20.016C23.7604 20.1161 23.6983 20.2005 23.5741 20.2695C23.4534 20.3385 23.3207 20.3919 23.1758 20.4299C23.0344 20.4678 22.8982 20.4868 22.7671 20.4868C22.3671 20.4868 22.0516 20.3713 21.8205 20.1402C21.5894 19.9057 21.4739 19.5867 21.4739 19.1832C21.4739 18.9245 21.5239 18.6952 21.6239 18.4952C21.7274 18.2952 21.8705 18.14 22.0533 18.0296C22.2395 17.9193 22.4499 17.8641 22.6844 17.8641C23.0224 17.8641 23.2896 17.9727 23.4862 18.19C23.6828 18.4072 23.7811 18.7004 23.7811 19.0694C23.7811 19.2073 23.719 19.2763 23.5948 19.2763H21.9964C22.0309 19.8108 22.2878 20.0781 22.7671 20.0781C22.8948 20.0781 23.0051 20.0609 23.0982 20.0264C23.1913 19.9919 23.2896 19.9471 23.3931 19.8919C23.4034 19.885 23.431 19.8712 23.4759 19.8505C23.5241 19.8264 23.5638 19.8143 23.5948 19.8143ZM22.6947 18.2469C22.4947 18.2469 22.3343 18.3107 22.2136 18.4383C22.0929 18.5659 22.0205 18.7452 21.9964 18.9763H23.331C23.3207 18.7418 23.2603 18.5624 23.15 18.4383C23.043 18.3107 22.8913 18.2469 22.6947 18.2469ZM26.4208 16.7777C26.5001 16.7777 26.5639 16.8002 26.6122 16.845C26.6605 16.8898 26.6847 16.9502 26.6847 17.026V20.223C26.6847 20.3023 26.6605 20.3644 26.6122 20.4092C26.5674 20.454 26.5053 20.4764 26.426 20.4764C26.3467 20.4764 26.2829 20.454 26.2346 20.4092C26.1898 20.3644 26.1674 20.3023 26.1674 20.223V20.016C26.0915 20.1678 25.9811 20.285 25.8363 20.3678C25.6914 20.4471 25.5242 20.4868 25.3345 20.4868C25.1172 20.4868 24.9224 20.4316 24.7499 20.3213C24.581 20.2109 24.4482 20.0557 24.3516 19.8557C24.2585 19.6557 24.212 19.4263 24.212 19.1677C24.212 18.9056 24.2585 18.6762 24.3516 18.4797C24.4482 18.2831 24.581 18.1313 24.7499 18.0244C24.9189 17.9175 25.1138 17.8641 25.3345 17.8641C25.5242 17.8641 25.6897 17.9055 25.8311 17.9882C25.9759 18.0675 26.0863 18.1814 26.1622 18.3296V17.0157C26.1622 16.9433 26.1846 16.8864 26.2294 16.845C26.2777 16.8002 26.3415 16.7777 26.4208 16.7777ZM25.4586 20.0729C25.6828 20.0729 25.857 19.9954 25.9811 19.8402C26.1053 19.685 26.1674 19.4643 26.1674 19.178C26.1674 18.8918 26.1053 18.6711 25.9811 18.5159C25.8604 18.3607 25.6863 18.2831 25.4586 18.2831C25.231 18.2831 25.0534 18.3607 24.9258 18.5159C24.8017 18.6676 24.7396 18.8849 24.7396 19.1677C24.7396 19.4505 24.8034 19.6729 24.931 19.835C25.0586 19.9936 25.2345 20.0729 25.4586 20.0729Z" fill="#FFB211"/>
</svg>
