<svg width="17" height="15" viewBox="0 0 17 15" fill="none" xmlns="http://www.w3.org/2000/svg">
<g clip-path="url(#clip0)">
<path d="M16.2004 6.83789H12.4968C12.1419 6.83789 11.8542 7.12557 11.8542 7.48042V9.84093C11.8542 10.1958 12.1419 10.4835 12.4968 10.4835H16.2004C16.5553 10.4835 16.8429 10.1958 16.8429 9.84093V7.48042C16.8429 7.12554 16.5553 6.83789 16.2004 6.83789ZM13.773 9.58803C13.2608 9.58803 12.8456 9.17283 12.8456 8.66064C12.8456 8.14845 13.2608 7.73325 13.773 7.73325C14.2852 7.73325 14.7004 8.14845 14.7004 8.66064C14.7004 9.17283 14.2852 9.58803 13.773 9.58803Z" fill="#274B89"/>
</g>
<path d="M12.0097 10.9339C11.226 10.9339 10.5883 10.349 10.5883 9.63003V7.46468C10.5883 6.74574 11.226 6.16085 12.0097 6.16085H15.7134C15.7358 6.16085 15.7581 6.16148 15.7803 6.16239V4.00535C15.7803 3.45011 15.2896 3 14.6843 3H1.09601C0.49068 2.99997 0 3.45008 0 4.00533V13.0893C0 13.6446 0.49068 14.0947 1.09601 14.0947H14.6843C15.2896 14.0947 15.7803 13.6447 15.7803 13.0893V10.9323C15.7581 10.9333 15.7358 10.9339 15.7134 10.9339H12.0097Z" fill="#274B89"/>
<path d="M13.2628 1.60641C13.0176 0.864254 12.2172 0.461393 11.4751 0.706591L5.90723 2.54607H13.5733L13.2628 1.60641Z" fill="#274B89"/>
<defs>
<clipPath id="clip0">
<rect width="17" height="13" fill="white" transform="translate(0 2)"/>
</clipPath>
</defs>
</svg>
