<svg width="26" height="29" viewBox="0 0 26 29" fill="none" xmlns="http://www.w3.org/2000/svg">
<path d="M23.1111 0.0732422H2.88889C2.12271 0.0732422 1.38791 0.377606 0.846136 0.919378C0.304364 1.46115 0 2.19595 0 2.96213V21.7399C0 22.5061 0.304364 23.2409 0.846136 23.7827C1.38791 24.3244 2.12271 24.6288 2.88889 24.6288H8.66667L13 28.9621L17.3333 24.6288H23.1111C23.8773 24.6288 24.6121 24.3244 25.1539 23.7827C25.6956 23.2409 26 22.5061 26 21.7399V2.96213C26 2.19595 25.6956 1.46115 25.1539 0.919378C24.6121 0.377606 23.8773 0.0732422 23.1111 0.0732422ZM13 4.40658C15.4946 4.40658 17.3333 6.24391 17.3333 8.73991C17.3333 11.2359 15.4946 13.0732 13 13.0732C10.5069 13.0732 8.66667 11.2359 8.66667 8.73991C8.66667 6.24391 10.5069 4.40658 13 4.40658ZM6.03344 20.2955C6.83944 17.8067 9.63878 15.9621 13 15.9621C16.3612 15.9621 19.162 17.8067 19.9666 20.2955H6.03344Z" fill="white"/>
</svg>
