<svg width="24" height="24" viewBox="0 0 24 24" fill="none" xmlns="http://www.w3.org/2000/svg">
<path d="M20.6688 0.729492H2.9725C1.58207 0.729492 0.444458 1.87346 0.444458 3.27165V21.0667C0.444458 22.4649 1.58207 23.6089 2.9725 23.6089H20.6688C22.0592 23.6089 23.1968 22.4649 23.1968 21.0667V3.27165C23.1968 1.87346 22.0592 0.729492 20.6688 0.729492ZM11.8333 19.7956C10.9485 19.7956 10.2406 19.0838 10.2406 18.1941C10.2406 17.2916 10.9485 16.6052 11.8333 16.6052C12.7307 16.6052 13.4133 17.2916 13.4133 18.1941C13.4007 19.0711 12.7307 19.7956 11.8333 19.7956ZM15.638 10.3897C14.6773 11.8006 13.7672 12.2455 13.2742 13.1479C13.072 13.5165 12.9962 13.758 12.9962 14.9401H10.6957C10.6957 14.3173 10.5945 13.3004 11.0875 12.4234C11.7069 11.3176 12.8824 10.6566 13.565 9.67787C14.2855 8.6483 13.881 6.71626 11.8333 6.71626C10.4934 6.71626 9.83612 7.73313 9.55803 8.59746L7.4724 7.7077C8.04121 6.00446 9.57067 4.54272 11.808 4.54272C13.6787 4.54272 14.9554 5.39434 15.6127 6.47476C16.1689 7.38994 16.4975 9.10589 15.638 10.3897Z" fill="white"/>
</svg>
