<svg width="26" height="30" viewBox="0 0 26 30" fill="none" xmlns="http://www.w3.org/2000/svg">
<path d="M23.1111 0.961914H2.88889C2.12271 0.961914 1.38791 1.26628 0.846136 1.80805C0.304364 2.34982 0 3.08462 0 3.8508V22.6286C0 23.3948 0.304364 24.1296 0.846136 24.6713C1.38791 25.2131 2.12271 25.5175 2.88889 25.5175H8.66667L13 29.8508L17.3333 25.5175H23.1111C23.8773 25.5175 24.6121 25.2131 25.1539 24.6713C25.6956 24.1296 26 23.3948 26 22.6286V3.8508C26 3.08462 25.6956 2.34982 25.1539 1.80805C24.6121 1.26628 23.8773 0.961914 23.1111 0.961914Z" fill="white"/>
<path d="M12.2778 5.41504C7.95892 5.41504 4.45374 8.92022 4.45374 13.2391C4.45374 17.558 7.95892 21.0632 12.2778 21.0632C16.5967 21.0632 20.1019 17.558 20.1019 13.2391C20.1019 8.92022 16.5967 5.41504 12.2778 5.41504ZM15.1023 10.3755C15.9395 10.3755 16.6123 11.0484 16.6123 11.8855C16.6123 12.7227 15.9395 13.3956 15.1023 13.3956C14.2651 13.3956 13.5923 12.7227 13.5923 11.8855C13.5844 11.0484 14.2651 10.3755 15.1023 10.3755ZM10.4079 9.1393C11.425 9.1393 12.2543 9.96865 12.2543 10.9858C12.2543 12.0029 11.425 12.8323 10.4079 12.8323C9.39073 12.8323 8.56137 12.0029 8.56137 10.9858C8.56137 9.96083 9.3829 9.1393 10.4079 9.1393ZM10.4079 16.2827V19.2167C8.53008 18.6299 7.0435 17.1824 6.38628 15.336C7.20781 14.4597 9.25772 14.0137 10.4079 14.0137C10.8225 14.0137 11.3467 14.0763 11.8944 14.1858C10.6113 14.8665 10.4079 15.7663 10.4079 16.2827ZM12.2778 19.4984C12.0666 19.4984 11.8631 19.4905 11.6597 19.4671V16.2827C11.6597 15.1717 13.96 14.6161 15.1023 14.6161C15.9395 14.6161 17.3869 14.9213 18.1067 15.5159C17.1913 17.8397 14.9302 19.4984 12.2778 19.4984Z" fill="#274B89"/>
</svg>
