<svg width="23" height="24" viewBox="0 0 23 24" fill="none" xmlns="http://www.w3.org/2000/svg">
<path d="M19.9716 13.4104C20.019 13.0529 20.0427 12.6835 20.0427 12.2903C20.0427 11.909 20.019 11.5276 19.9597 11.1701L22.3653 9.28736C22.469 9.20144 22.5398 9.08204 22.5657 8.94949C22.5917 8.81695 22.5711 8.67946 22.5075 8.56046L20.2323 4.60424C20.1653 4.48455 20.0583 4.39257 19.9304 4.34459C19.8024 4.29661 19.6617 4.29572 19.5331 4.34208L16.7009 5.48605C16.1084 5.03323 15.4804 4.6519 14.7812 4.36591L14.3546 1.33916C14.3336 1.20275 14.2647 1.07844 14.1603 0.988791C14.0559 0.899143 13.9231 0.850107 13.7858 0.850589H9.23532C8.95092 0.850589 8.72577 1.05317 8.67836 1.33916L8.25176 4.36591C7.5526 4.6519 6.91269 5.04514 6.33203 5.48605L3.49984 4.34208C3.23914 4.24675 2.94288 4.34208 2.80068 4.60424L0.537296 8.56046C0.395094 8.81071 0.442494 9.12053 0.679498 9.28736L3.08508 11.1701C3.02583 11.5276 2.97843 11.9209 2.97843 12.2903C2.97843 12.6597 3.00213 13.0529 3.06138 13.4104L0.655797 15.2932C0.552137 15.3791 0.481308 15.4985 0.455379 15.6311C0.429449 15.7636 0.450023 15.9011 0.513596 16.0201L2.78883 19.9763C2.93103 20.2385 3.22729 20.3219 3.48799 20.2385L6.32018 19.0945C6.91269 19.5473 7.54075 19.9287 8.23991 20.2146L8.66652 23.2414C8.72577 23.5274 8.95092 23.73 9.23532 23.73H13.7858C14.0702 23.73 14.3072 23.5274 14.3427 23.2414L14.7694 20.2146C15.4685 19.9287 16.1084 19.5473 16.6891 19.0945L19.5213 20.2385C19.782 20.3338 20.0782 20.2385 20.2204 19.9763L22.4957 16.0201C22.6379 15.7579 22.5786 15.46 22.3535 15.2932L19.9716 13.4104ZM11.5106 16.5802C9.16422 16.5802 7.24449 14.6497 7.24449 12.2903C7.24449 9.93084 9.16422 8.0004 11.5106 8.0004C13.8569 8.0004 15.7766 9.93084 15.7766 12.2903C15.7766 14.6497 13.8569 16.5802 11.5106 16.5802Z" fill="white"/>
</svg>
