<svg width="27" height="27" viewBox="0 0 27 27" fill="none" xmlns="http://www.w3.org/2000/svg">
<path d="M13.5515 2.56836C7.6055 2.56944 2.76807 7.40688 2.76807 13.3528C2.76807 19.2977 7.6055 24.1352 13.5515 24.1363C19.4974 24.1363 24.3349 19.2988 24.3349 13.3528C24.3349 7.40688 19.4985 2.56944 13.5515 2.56836ZM13.5515 21.9796C8.79491 21.9785 4.92475 18.1083 4.92475 13.3528C4.92475 8.59629 8.79491 4.72612 13.5515 4.72504C18.308 4.72612 22.1782 8.59629 22.1782 13.3528C22.1782 18.1094 18.308 21.9796 13.5515 21.9796Z" fill="black"/>
<path d="M14.6302 9.04688H12.4735V13.3602H9.22876L13.5475 17.679L17.8652 13.3602H14.6302V9.04688Z" fill="black"/>
</svg>
