<svg width="30" height="30" viewBox="0 0 30 30" fill="none" xmlns="http://www.w3.org/2000/svg">
<rect width="30" height="30" rx="15" fill="white"/>
<path d="M22 22H17.3333M8 12.6667V8V12.6667ZM8 8H12.6667H8ZM8 8L12.6667 12.6667L8 8ZM22 12.6667V8V12.6667ZM22 8H17.3333H22ZM22 8L17.3333 12.6667L22 8ZM8 17.3333V22V17.3333ZM8 22H12.6667H8ZM8 22L12.6667 17.3333L8 22ZM22 22L17.3333 17.3333L22 22ZM22 22V17.3333V22Z" stroke="#274B89" stroke-width="2" stroke-linecap="round" stroke-linejoin="round"/>
</svg>
