<svg width="130" height="41" viewBox="0 0 130 41" fill="none" xmlns="http://www.w3.org/2000/svg">
<path d="M62.1361 28.3882C61.0193 28.3882 59.9274 28.2632 58.8606 28.0132C57.8104 27.7631 56.8936 27.3881 56.1101 26.888C55.7267 26.6379 55.4933 26.3295 55.41 25.9628C55.3266 25.5961 55.3516 25.2544 55.485 24.9376C55.635 24.6042 55.8601 24.3792 56.1601 24.2625C56.4768 24.1292 56.8352 24.1875 57.2353 24.4376C57.9688 24.871 58.7439 25.1877 59.5607 25.3877C60.3775 25.5877 61.236 25.6878 62.1361 25.6878C63.453 25.6878 64.4115 25.4711 65.0116 25.0377C65.6117 24.5876 65.9118 24.0125 65.9118 23.3124C65.9118 22.7289 65.6951 22.2705 65.2617 21.9371C64.8449 21.6037 64.1198 21.3287 63.0863 21.112L60.3358 20.5369C57.202 19.8701 55.635 18.2615 55.635 15.7111C55.635 14.6109 55.9267 13.6524 56.5102 12.8356C57.0936 12.0188 57.9021 11.3853 58.9356 10.9353C59.9691 10.4852 61.161 10.2601 62.5112 10.2601C63.5114 10.2601 64.4615 10.3852 65.3617 10.6352C66.2618 10.8852 67.0703 11.252 67.7871 11.7354C68.1205 11.9688 68.3205 12.2605 68.3872 12.6105C68.4539 12.9439 68.4122 13.2607 68.2622 13.5607C68.1121 13.8441 67.8704 14.0441 67.537 14.1608C67.2203 14.2608 66.8453 14.1858 66.4119 13.9358C65.7951 13.5857 65.17 13.3357 64.5365 13.1856C63.9031 13.0356 63.2196 12.9606 62.4862 12.9606C61.336 12.9606 60.4358 13.2023 59.7857 13.6857C59.1356 14.1691 58.8106 14.8026 58.8106 15.586C58.8106 16.1861 59.0106 16.6696 59.4107 17.0363C59.8107 17.3864 60.4942 17.6614 61.461 17.8614L64.1865 18.4365C65.8368 18.7866 67.062 19.3367 67.8621 20.0868C68.6789 20.8369 69.0873 21.8371 69.0873 23.0873C69.0873 24.1375 68.8039 25.0627 68.2372 25.8628C67.6704 26.6629 66.8619 27.288 65.8118 27.7381C64.7782 28.1715 63.553 28.3882 62.1361 28.3882ZM73.0845 32.839C72.051 32.839 71.5342 32.3139 71.5342 31.2637V17.2863C71.5342 16.2362 72.0426 15.7111 73.0595 15.7111C74.093 15.7111 74.6097 16.2362 74.6097 17.2863V17.8114C74.9598 17.1613 75.4849 16.6446 76.185 16.2612C76.8851 15.8611 77.6853 15.6611 78.5854 15.6611C79.6523 15.6611 80.5858 15.9194 81.3859 16.4362C82.2027 16.9529 82.8361 17.6864 83.2862 18.6366C83.7363 19.5701 83.9613 20.6953 83.9613 22.0121C83.9613 23.3124 83.7363 24.4459 83.2862 25.4127C82.8361 26.3629 82.211 27.0963 81.4109 27.6131C80.6108 28.1298 79.6689 28.3882 78.5854 28.3882C77.7186 28.3882 76.9351 28.2049 76.235 27.8381C75.5516 27.4547 75.0265 26.9463 74.6597 26.3129V31.2637C74.6597 32.3139 74.1347 32.839 73.0845 32.839ZM77.7103 26.0128C78.6438 26.0128 79.3939 25.6794 79.9606 25.0127C80.5274 24.3292 80.8108 23.329 80.8108 22.0121C80.8108 20.6786 80.5274 19.6867 79.9606 19.0366C79.3939 18.3699 78.6438 18.0365 77.7103 18.0365C76.7768 18.0365 76.0266 18.3699 75.4599 19.0366C74.8931 19.6867 74.6097 20.6786 74.6097 22.0121C74.6097 23.329 74.8931 24.3292 75.4599 25.0127C76.0266 25.6794 76.7768 26.0128 77.7103 26.0128ZM92.1029 28.3882C90.8361 28.3882 89.7359 28.1298 88.8024 27.6131C87.8689 27.0963 87.1438 26.3629 86.627 25.4127C86.1103 24.4459 85.8519 23.3124 85.8519 22.0121C85.8519 20.7119 86.1103 19.5867 86.627 18.6366C87.1438 17.6864 87.8689 16.9529 88.8024 16.4362C89.7359 15.9194 90.8361 15.6611 92.1029 15.6611C93.3698 15.6611 94.47 15.9194 95.4035 16.4362C96.337 16.9529 97.0621 17.6864 97.5789 18.6366C98.0956 19.5867 98.354 20.7119 98.354 22.0121C98.354 23.3124 98.0956 24.4459 97.5789 25.4127C97.0621 26.3629 96.337 27.0963 95.4035 27.6131C94.47 28.1298 93.3698 28.3882 92.1029 28.3882ZM92.1029 26.0128C93.0364 26.0128 93.7866 25.6794 94.3533 25.0127C94.9201 24.3292 95.2035 23.329 95.2035 22.0121C95.2035 20.6786 94.9201 19.6867 94.3533 19.0366C93.7866 18.3699 93.0364 18.0365 92.1029 18.0365C91.1695 18.0365 90.4193 18.3699 89.8526 19.0366C89.2858 19.6867 89.0024 20.6786 89.0024 22.0121C89.0024 23.329 89.2858 24.3292 89.8526 25.0127C90.4193 25.6794 91.1695 26.0128 92.1029 26.0128ZM106.413 28.3882C103.179 28.3882 101.562 26.788 101.562 23.5874V18.2615H100.262C99.4281 18.2615 99.0113 17.8698 99.0113 17.0863C99.0113 16.3028 99.4281 15.9111 100.262 15.9111H101.562V13.6357C101.562 12.5855 102.087 12.0604 103.137 12.0604C104.171 12.0604 104.687 12.5855 104.687 13.6357V15.9111H107.338C108.171 15.9111 108.588 16.3028 108.588 17.0863C108.588 17.8698 108.171 18.2615 107.338 18.2615H104.687V23.4124C104.687 24.2125 104.862 24.8126 105.212 25.2127C105.562 25.6128 106.129 25.8128 106.913 25.8128C107.196 25.8128 107.446 25.7878 107.663 25.7378C107.88 25.6878 108.071 25.6544 108.238 25.6378C108.438 25.6211 108.605 25.6878 108.738 25.8378C108.871 25.9711 108.938 26.2545 108.938 26.6879C108.938 27.0213 108.88 27.3214 108.763 27.5881C108.663 27.8381 108.471 28.0132 108.188 28.1132C107.971 28.1799 107.688 28.2382 107.338 28.2882C106.988 28.3549 106.679 28.3882 106.413 28.3882ZM115.301 28.3882C112.067 28.3882 110.45 26.788 110.45 23.5874V18.2615H109.15C108.316 18.2615 107.9 17.8698 107.9 17.0863C107.9 16.3028 108.316 15.9111 109.15 15.9111H110.45V13.6357C110.45 12.5855 110.975 12.0604 112.025 12.0604C113.059 12.0604 113.576 12.5855 113.576 13.6357V15.9111H116.226C117.059 15.9111 117.476 16.3028 117.476 17.0863C117.476 17.8698 117.059 18.2615 116.226 18.2615H113.576V23.4124C113.576 24.2125 113.751 24.8126 114.101 25.2127C114.451 25.6128 115.017 25.8128 115.801 25.8128C116.084 25.8128 116.334 25.7878 116.551 25.7378C116.768 25.6878 116.959 25.6544 117.126 25.6378C117.326 25.6211 117.493 25.6878 117.626 25.8378C117.76 25.9711 117.826 26.2545 117.826 26.6879C117.826 27.0213 117.768 27.3214 117.651 27.5881C117.551 27.8381 117.36 28.0132 117.076 28.1132C116.859 28.1799 116.576 28.2382 116.226 28.2882C115.876 28.3549 115.568 28.3882 115.301 28.3882ZM120.897 28.3382C119.83 28.3382 119.296 27.8048 119.296 26.7379V17.2863C119.296 16.2362 119.805 15.7111 120.821 15.7111C121.838 15.7111 122.347 16.2362 122.347 17.2863V18.0615C122.947 16.6279 124.23 15.8278 126.197 15.6611C126.914 15.5777 127.314 15.9861 127.398 16.8863C127.481 17.7698 127.048 18.2615 126.097 18.3615L125.547 18.4115C123.497 18.6116 122.472 19.6617 122.472 21.5621V26.7379C122.472 27.8048 121.947 28.3382 120.897 28.3382Z" fill="white"/>
<path fill-rule="evenodd" clip-rule="evenodd" d="M20.5 41C31.8218 41 41 31.8218 41 20.5C41 9.17816 31.8218 0 20.5 0C9.17816 0 0 9.17816 0 20.5C0 31.8218 9.17816 41 20.5 41ZM20.5007 34.0302C27.9731 34.0302 34.0307 27.9726 34.0307 20.5002C34.0307 13.0278 27.9731 6.97021 20.5007 6.97021C13.0283 6.97021 6.9707 13.0278 6.9707 20.5002C6.9707 27.9726 13.0283 34.0302 20.5007 34.0302Z" fill="white"/>
<circle cx="20.4996" cy="20.5001" r="6.15" fill="white"/>
</svg>
