<svg width="132" height="44" viewBox="0 0 132 44" fill="none" xmlns="http://www.w3.org/2000/svg">
<rect width="132" height="44" rx="22" fill="white"/>
<path d="M47.668 27.096C46.86 27.096 46.156 26.924 45.556 26.58C44.956 26.228 44.496 25.728 44.176 25.08C43.856 24.424 43.696 23.652 43.696 22.764C43.696 21.884 43.856 21.12 44.176 20.472C44.496 19.816 44.956 19.316 45.556 18.972C46.156 18.62 46.86 18.444 47.668 18.444C48.196 18.444 48.696 18.528 49.168 18.696C49.64 18.856 50.052 19.092 50.404 19.404C50.556 19.524 50.632 19.684 50.632 19.884C50.632 20.028 50.592 20.152 50.512 20.256C50.432 20.352 50.336 20.4 50.224 20.4C50.088 20.4 49.956 20.348 49.828 20.244C49.444 19.956 49.092 19.756 48.772 19.644C48.46 19.524 48.104 19.464 47.704 19.464C46.824 19.464 46.148 19.748 45.676 20.316C45.204 20.884 44.968 21.7 44.968 22.764C44.968 23.836 45.204 24.656 45.676 25.224C46.148 25.792 46.824 26.076 47.704 26.076C48.088 26.076 48.436 26.016 48.748 25.896C49.068 25.776 49.428 25.576 49.828 25.296C49.988 25.192 50.12 25.14 50.224 25.14C50.336 25.14 50.432 25.192 50.512 25.296C50.592 25.392 50.632 25.512 50.632 25.656C50.632 25.856 50.556 26.016 50.404 26.136C50.052 26.448 49.64 26.688 49.168 26.856C48.696 27.016 48.196 27.096 47.668 27.096ZM55.0331 21.024C55.4171 21 55.6091 21.164 55.6091 21.516C55.6091 21.692 55.5651 21.824 55.4771 21.912C55.3891 22 55.2371 22.052 55.0211 22.068L54.6611 22.104C54.1571 22.152 53.7811 22.328 53.5331 22.632C53.2931 22.936 53.1731 23.304 53.1731 23.736V26.484C53.1731 26.676 53.1171 26.82 53.0051 26.916C52.8931 27.012 52.7491 27.06 52.5731 27.06C52.3971 27.06 52.2491 27.012 52.1291 26.916C52.0171 26.82 51.9611 26.676 51.9611 26.484V21.6C51.9611 21.416 52.0171 21.276 52.1291 21.18C52.2491 21.076 52.3971 21.024 52.5731 21.024C52.7331 21.024 52.8651 21.076 52.9691 21.18C53.0811 21.276 53.1371 21.412 53.1371 21.588V22.164C53.2971 21.812 53.5291 21.544 53.8331 21.36C54.1371 21.176 54.4811 21.068 54.8651 21.036L55.0331 21.024ZM60.8224 25.524C60.9344 25.524 61.0264 25.568 61.0984 25.656C61.1704 25.744 61.2064 25.856 61.2064 25.992C61.2064 26.224 61.0624 26.42 60.7744 26.58C60.4944 26.74 60.1864 26.864 59.8504 26.952C59.5224 27.04 59.2064 27.084 58.9024 27.084C57.9744 27.084 57.2424 26.816 56.7064 26.28C56.1704 25.736 55.9024 24.996 55.9024 24.06C55.9024 23.46 56.0184 22.928 56.2504 22.464C56.4904 22 56.8224 21.64 57.2464 21.384C57.6784 21.128 58.1664 21 58.7104 21C59.4944 21 60.1144 21.252 60.5704 21.756C61.0264 22.26 61.2544 22.94 61.2544 23.796C61.2544 24.116 61.1104 24.276 60.8224 24.276H57.1144C57.1944 25.516 57.7904 26.136 58.9024 26.136C59.1984 26.136 59.4544 26.096 59.6704 26.016C59.8864 25.936 60.1144 25.832 60.3544 25.704C60.3784 25.688 60.4424 25.656 60.5464 25.608C60.6584 25.552 60.7504 25.524 60.8224 25.524ZM58.7344 21.888C58.2704 21.888 57.8984 22.036 57.6184 22.332C57.3384 22.628 57.1704 23.044 57.1144 23.58H60.2104C60.1864 23.036 60.0464 22.62 59.7904 22.332C59.5424 22.036 59.1904 21.888 58.7344 21.888ZM65.05 21C65.826 21 66.402 21.196 66.778 21.588C67.162 21.98 67.354 22.576 67.354 23.376V26.484C67.354 26.668 67.302 26.812 67.198 26.916C67.094 27.012 66.95 27.06 66.766 27.06C66.59 27.06 66.45 27.008 66.346 26.904C66.242 26.8 66.19 26.66 66.19 26.484V26.04C66.038 26.376 65.81 26.636 65.506 26.82C65.21 26.996 64.862 27.084 64.462 27.084C64.078 27.084 63.726 27.008 63.406 26.856C63.094 26.696 62.846 26.48 62.662 26.208C62.478 25.936 62.386 25.628 62.386 25.284C62.378 24.852 62.486 24.516 62.71 24.276C62.934 24.028 63.298 23.852 63.802 23.748C64.306 23.636 65.006 23.58 65.902 23.58H66.178V23.232C66.178 22.784 66.086 22.46 65.902 22.26C65.718 22.06 65.422 21.96 65.014 21.96C64.734 21.96 64.47 21.996 64.222 22.068C63.974 22.14 63.702 22.244 63.406 22.38C63.19 22.5 63.038 22.56 62.95 22.56C62.83 22.56 62.73 22.516 62.65 22.428C62.578 22.34 62.542 22.228 62.542 22.092C62.542 21.972 62.574 21.868 62.638 21.78C62.71 21.684 62.822 21.592 62.974 21.504C63.254 21.352 63.582 21.232 63.958 21.144C64.334 21.048 64.698 21 65.05 21ZM64.678 26.184C65.118 26.184 65.478 26.036 65.758 25.74C66.038 25.436 66.178 25.048 66.178 24.576V24.264H65.962C65.338 24.264 64.858 24.292 64.522 24.348C64.186 24.404 63.946 24.5 63.802 24.636C63.658 24.764 63.586 24.952 63.586 25.2C63.586 25.488 63.69 25.724 63.898 25.908C64.106 26.092 64.366 26.184 64.678 26.184ZM71.8799 26.136C72.0559 26.152 72.1799 26.2 72.2519 26.28C72.3319 26.352 72.3719 26.456 72.3719 26.592C72.3719 26.752 72.3079 26.876 72.1799 26.964C72.0599 27.044 71.8799 27.076 71.6399 27.06L71.3159 27.036C70.6679 26.988 70.1839 26.792 69.8639 26.448C69.5439 26.096 69.3839 25.58 69.3839 24.9V22.08H68.6639C68.3119 22.08 68.1359 21.924 68.1359 21.612C68.1359 21.468 68.1799 21.356 68.2679 21.276C68.3639 21.188 68.4959 21.144 68.6639 21.144H69.3839V19.908C69.3839 19.724 69.4359 19.58 69.5399 19.476C69.6519 19.372 69.7999 19.32 69.9839 19.32C70.1679 19.32 70.3159 19.372 70.4279 19.476C70.5399 19.58 70.5959 19.724 70.5959 19.908V21.144H71.7839C71.9519 21.144 72.0799 21.188 72.1679 21.276C72.2639 21.356 72.3119 21.468 72.3119 21.612C72.3119 21.764 72.2639 21.88 72.1679 21.96C72.0799 22.04 71.9519 22.08 71.7839 22.08H70.5959V24.984C70.5959 25.36 70.6719 25.636 70.8239 25.812C70.9839 25.988 71.2239 26.088 71.5439 26.112L71.8799 26.136ZM77.8263 25.524C77.9383 25.524 78.0303 25.568 78.1023 25.656C78.1743 25.744 78.2103 25.856 78.2103 25.992C78.2103 26.224 78.0663 26.42 77.7783 26.58C77.4983 26.74 77.1903 26.864 76.8543 26.952C76.5263 27.04 76.2103 27.084 75.9063 27.084C74.9783 27.084 74.2463 26.816 73.7103 26.28C73.1743 25.736 72.9063 24.996 72.9063 24.06C72.9063 23.46 73.0223 22.928 73.2543 22.464C73.4943 22 73.8263 21.64 74.2503 21.384C74.6823 21.128 75.1703 21 75.7143 21C76.4983 21 77.1183 21.252 77.5743 21.756C78.0303 22.26 78.2583 22.94 78.2583 23.796C78.2583 24.116 78.1143 24.276 77.8263 24.276H74.1183C74.1983 25.516 74.7943 26.136 75.9063 26.136C76.2023 26.136 76.4583 26.096 76.6743 26.016C76.8903 25.936 77.1183 25.832 77.3583 25.704C77.3823 25.688 77.4463 25.656 77.5503 25.608C77.6623 25.552 77.7543 25.524 77.8263 25.524ZM75.7383 21.888C75.2743 21.888 74.9023 22.036 74.6223 22.332C74.3423 22.628 74.1743 23.044 74.1183 23.58H77.2143C77.1903 23.036 77.0503 22.62 76.7943 22.332C76.5463 22.036 76.1943 21.888 75.7383 21.888ZM85.218 21C85.994 21 86.57 21.196 86.946 21.588C87.33 21.98 87.522 22.576 87.522 23.376V26.484C87.522 26.668 87.47 26.812 87.366 26.916C87.262 27.012 87.118 27.06 86.934 27.06C86.758 27.06 86.618 27.008 86.514 26.904C86.41 26.8 86.358 26.66 86.358 26.484V26.04C86.206 26.376 85.978 26.636 85.674 26.82C85.378 26.996 85.03 27.084 84.63 27.084C84.246 27.084 83.894 27.008 83.574 26.856C83.262 26.696 83.014 26.48 82.83 26.208C82.646 25.936 82.554 25.628 82.554 25.284C82.546 24.852 82.654 24.516 82.878 24.276C83.102 24.028 83.466 23.852 83.97 23.748C84.474 23.636 85.174 23.58 86.07 23.58H86.346V23.232C86.346 22.784 86.254 22.46 86.07 22.26C85.886 22.06 85.59 21.96 85.182 21.96C84.902 21.96 84.638 21.996 84.39 22.068C84.142 22.14 83.87 22.244 83.574 22.38C83.358 22.5 83.206 22.56 83.118 22.56C82.998 22.56 82.898 22.516 82.818 22.428C82.746 22.34 82.71 22.228 82.71 22.092C82.71 21.972 82.742 21.868 82.806 21.78C82.878 21.684 82.99 21.592 83.142 21.504C83.422 21.352 83.75 21.232 84.126 21.144C84.502 21.048 84.866 21 85.218 21ZM84.846 26.184C85.286 26.184 85.646 26.036 85.926 25.74C86.206 25.436 86.346 25.048 86.346 24.576V24.264H86.13C85.506 24.264 85.026 24.292 84.69 24.348C84.354 24.404 84.114 24.5 83.97 24.636C83.826 24.764 83.754 24.952 83.754 25.2C83.754 25.488 83.858 25.724 84.066 25.908C84.274 26.092 84.534 26.184 84.846 26.184ZM92.3358 21C93.7358 21 94.4358 21.788 94.4358 23.364V26.484C94.4358 26.668 94.3798 26.812 94.2678 26.916C94.1638 27.012 94.0158 27.06 93.8238 27.06C93.6398 27.06 93.4918 27.008 93.3798 26.904C93.2758 26.8 93.2238 26.66 93.2238 26.484V23.424C93.2238 22.928 93.1238 22.564 92.9238 22.332C92.7318 22.1 92.4278 21.984 92.0118 21.984C91.5238 21.984 91.1318 22.136 90.8358 22.44C90.5398 22.744 90.3918 23.152 90.3918 23.664V26.484C90.3918 26.66 90.3358 26.8 90.2238 26.904C90.1198 27.008 89.9758 27.06 89.7918 27.06C89.6078 27.06 89.4598 27.008 89.3478 26.904C89.2358 26.8 89.1798 26.66 89.1798 26.484V21.6C89.1798 21.432 89.2358 21.296 89.3478 21.192C89.4678 21.08 89.6158 21.024 89.7918 21.024C89.9678 21.024 90.1078 21.076 90.2118 21.18C90.3158 21.284 90.3678 21.42 90.3678 21.588V22.08C90.5598 21.728 90.8278 21.46 91.1718 21.276C91.5158 21.092 91.9038 21 92.3358 21ZM101.718 21C102.494 21 103.07 21.196 103.446 21.588C103.83 21.98 104.022 22.576 104.022 23.376V26.484C104.022 26.668 103.97 26.812 103.866 26.916C103.762 27.012 103.618 27.06 103.434 27.06C103.258 27.06 103.118 27.008 103.014 26.904C102.91 26.8 102.858 26.66 102.858 26.484V26.04C102.706 26.376 102.478 26.636 102.174 26.82C101.878 26.996 101.53 27.084 101.13 27.084C100.746 27.084 100.394 27.008 100.074 26.856C99.762 26.696 99.514 26.48 99.33 26.208C99.146 25.936 99.054 25.628 99.054 25.284C99.046 24.852 99.154 24.516 99.378 24.276C99.602 24.028 99.966 23.852 100.47 23.748C100.974 23.636 101.674 23.58 102.57 23.58H102.846V23.232C102.846 22.784 102.754 22.46 102.57 22.26C102.386 22.06 102.09 21.96 101.682 21.96C101.402 21.96 101.138 21.996 100.89 22.068C100.642 22.14 100.37 22.244 100.074 22.38C99.858 22.5 99.706 22.56 99.618 22.56C99.498 22.56 99.398 22.516 99.318 22.428C99.246 22.34 99.21 22.228 99.21 22.092C99.21 21.972 99.242 21.868 99.306 21.78C99.378 21.684 99.49 21.592 99.642 21.504C99.922 21.352 100.25 21.232 100.626 21.144C101.002 21.048 101.366 21 101.718 21ZM101.346 26.184C101.786 26.184 102.146 26.036 102.426 25.74C102.706 25.436 102.846 25.048 102.846 24.576V24.264H102.63C102.006 24.264 101.526 24.292 101.19 24.348C100.854 24.404 100.614 24.5 100.47 24.636C100.326 24.764 100.254 24.952 100.254 25.2C100.254 25.488 100.358 25.724 100.566 25.908C100.774 26.092 101.034 26.184 101.346 26.184ZM110.468 18.48C110.652 18.48 110.8 18.532 110.912 18.636C111.024 18.74 111.08 18.88 111.08 19.056V26.472C111.08 26.656 111.024 26.8 110.912 26.904C110.808 27.008 110.664 27.06 110.48 27.06C110.296 27.06 110.148 27.008 110.036 26.904C109.932 26.8 109.88 26.656 109.88 26.472V25.992C109.704 26.344 109.448 26.616 109.112 26.808C108.776 26.992 108.388 27.084 107.948 27.084C107.444 27.084 106.992 26.956 106.592 26.7C106.2 26.444 105.892 26.084 105.668 25.62C105.452 25.156 105.344 24.624 105.344 24.024C105.344 23.416 105.452 22.884 105.668 22.428C105.892 21.972 106.2 21.62 106.592 21.372C106.984 21.124 107.436 21 107.948 21C108.388 21 108.772 21.096 109.1 21.288C109.436 21.472 109.692 21.736 109.868 22.08V19.032C109.868 18.864 109.92 18.732 110.024 18.636C110.136 18.532 110.284 18.48 110.468 18.48ZM108.236 26.124C108.756 26.124 109.16 25.944 109.448 25.584C109.736 25.224 109.88 24.712 109.88 24.048C109.88 23.384 109.736 22.872 109.448 22.512C109.168 22.152 108.764 21.972 108.236 21.972C107.708 21.972 107.296 22.152 107 22.512C106.712 22.864 106.568 23.368 106.568 24.024C106.568 24.68 106.716 25.196 107.012 25.572C107.308 25.94 107.716 26.124 108.236 26.124Z" fill="#39B54A"/>
<path d="M14 17C14 15.3431 15.3431 14 17 14H35C36.6569 14 38 15.3431 38 17V27C38 28.6569 36.6569 30 35 30H17C15.3431 30 14 28.6569 14 27V17Z" fill="#39B54A"/>
<path d="M25.435 24.307C25.471 24.385 25.489 24.463 25.489 24.541C25.489 24.679 25.432 24.796 25.318 24.892C25.21 24.988 25.084 25.036 24.94 25.036C24.844 25.036 24.754 25.012 24.67 24.964C24.586 24.91 24.52 24.829 24.472 24.721L23.932 23.515H20.764L20.224 24.721C20.176 24.829 20.11 24.91 20.026 24.964C19.942 25.012 19.849 25.036 19.747 25.036C19.609 25.036 19.483 24.988 19.369 24.892C19.255 24.796 19.198 24.679 19.198 24.541C19.198 24.463 19.216 24.385 19.252 24.307L21.736 18.97C21.79 18.85 21.871 18.76 21.979 18.7C22.093 18.634 22.213 18.601 22.339 18.601C22.465 18.601 22.582 18.634 22.69 18.7C22.804 18.76 22.888 18.85 22.942 18.97L25.435 24.307ZM21.16 22.615H23.536L22.348 19.942L21.16 22.615ZM26.9217 25C26.7477 25 26.6097 24.952 26.5077 24.856C26.4117 24.76 26.3637 24.625 26.3637 24.451V19.204C26.3637 19.03 26.4117 18.895 26.5077 18.799C26.6097 18.703 26.7477 18.655 26.9217 18.655H28.7037C29.7417 18.655 30.5457 18.934 31.1157 19.492C31.6917 20.044 31.9797 20.821 31.9797 21.823C31.9797 22.831 31.6917 23.614 31.1157 24.172C30.5457 24.724 29.7417 25 28.7037 25H26.9217ZM28.6317 24.055C30.0897 24.055 30.8187 23.311 30.8187 21.823C30.8187 20.341 30.0897 19.6 28.6317 19.6H27.5247V24.055H28.6317Z" fill="white"/>
</svg>
