<svg width="26" height="29" viewBox="0 0 26 29" fill="none" xmlns="http://www.w3.org/2000/svg">
<path d="M23.1111 0H2.88889C2.12271 0 1.38791 0.304364 0.846136 0.846136C0.304364 1.38791 0 2.12271 0 2.88889V21.6667C0 22.4328 0.304364 23.1676 0.846136 23.7094C1.38791 24.2512 2.12271 24.5556 2.88889 24.5556H8.66667L13 28.8889L17.3333 24.5556H23.1111C23.8773 24.5556 24.6121 24.2512 25.1539 23.7094C25.6956 23.1676 26 22.4328 26 21.6667V2.88889C26 2.12271 25.6956 1.38791 25.1539 0.846136C24.6121 0.304364 23.8773 0 23.1111 0ZM13 4.33333C15.4946 4.33333 17.3333 6.17067 17.3333 8.66667C17.3333 11.1627 15.4946 13 13 13C10.5069 13 8.66667 11.1627 8.66667 8.66667C8.66667 6.17067 10.5069 4.33333 13 4.33333ZM6.03344 20.2222C6.83944 17.7334 9.63878 15.8889 13 15.8889C16.3612 15.8889 19.162 17.7334 19.9666 20.2222H6.03344Z" fill="#929AA7"/>
</svg>
