<svg width="26" height="30" viewBox="0 0 26 30" fill="none" xmlns="http://www.w3.org/2000/svg">
<path d="M23.1111 0.444336H2.88889C2.12271 0.444336 1.38791 0.7487 0.846136 1.29047C0.304364 1.83224 0 2.56704 0 3.33322V22.111C0 22.8772 0.304364 23.612 0.846136 24.1538C1.38791 24.6955 2.12271 24.9999 2.88889 24.9999H8.66667L13 29.3332L17.3333 24.9999H23.1111C23.8773 24.9999 24.6121 24.6955 25.1539 24.1538C25.6956 23.612 26 22.8772 26 22.111V3.33322C26 2.56704 25.6956 1.83224 25.1539 1.29047C24.6121 0.7487 23.8773 0.444336 23.1111 0.444336Z" fill="#929AA7"/>
<path d="M12.2778 4.89795C7.95892 4.89795 4.45374 8.40313 4.45374 12.722C4.45374 17.0409 7.95892 20.5461 12.2778 20.5461C16.5967 20.5461 20.1019 17.0409 20.1019 12.722C20.1019 8.40313 16.5967 4.89795 12.2778 4.89795ZM15.1023 9.85841C15.9395 9.85841 16.6123 10.5313 16.6123 11.3685C16.6123 12.2056 15.9395 12.8785 15.1023 12.8785C14.2651 12.8785 13.5923 12.2056 13.5923 11.3685C13.5844 10.5313 14.2651 9.85841 15.1023 9.85841ZM10.4079 8.62221C11.425 8.62221 12.2543 9.45156 12.2543 10.4687C12.2543 11.4858 11.425 12.3152 10.4079 12.3152C9.39073 12.3152 8.56137 11.4858 8.56137 10.4687C8.56137 9.44374 9.3829 8.62221 10.4079 8.62221ZM10.4079 15.7656V18.6996C8.53008 18.1128 7.0435 16.6654 6.38628 14.8189C7.20781 13.9426 9.25772 13.4966 10.4079 13.4966C10.8225 13.4966 11.3467 13.5592 11.8944 13.6687C10.6113 14.3494 10.4079 15.2492 10.4079 15.7656ZM12.2778 18.9813C12.0666 18.9813 11.8631 18.9735 11.6597 18.95V15.7656C11.6597 14.6546 13.96 14.0991 15.1023 14.0991C15.9395 14.0991 17.3869 14.4042 18.1067 14.9988C17.1913 17.3226 14.9302 18.9813 12.2778 18.9813Z" fill="white"/>
</svg>
