<svg width="23" height="24" viewBox="0 0 23 24" fill="none" xmlns="http://www.w3.org/2000/svg">
<path d="M19.9716 13.4487C20.019 13.0913 20.0427 12.7218 20.0427 12.3286C20.0427 11.9473 20.019 11.566 19.9597 11.2085L22.3653 9.32569C22.469 9.23977 22.5398 9.12037 22.5657 8.98782C22.5917 8.85528 22.5711 8.71779 22.5075 8.59879L20.2323 4.64257C20.1653 4.52288 20.0583 4.4309 19.9304 4.38292C19.8024 4.33494 19.6617 4.33405 19.5331 4.38041L16.7009 5.52438C16.1084 5.07156 15.4804 4.69023 14.7812 4.40424L14.3546 1.37749C14.3336 1.24108 14.2647 1.11677 14.1603 1.02712C14.0559 0.937473 13.9231 0.888438 13.7858 0.88892H9.23532C8.95092 0.88892 8.72577 1.0915 8.67836 1.37749L8.25176 4.40424C7.5526 4.69023 6.91269 5.08347 6.33203 5.52438L3.49984 4.38041C3.23914 4.28508 2.94288 4.38041 2.80068 4.64257L0.537296 8.59879C0.395094 8.84904 0.442494 9.15886 0.679498 9.32569L3.08508 11.2085C3.02583 11.566 2.97843 11.9592 2.97843 12.3286C2.97843 12.698 3.00213 13.0913 3.06138 13.4487L0.655797 15.3315C0.552137 15.4174 0.481308 15.5369 0.455379 15.6694C0.429449 15.8019 0.450023 15.9394 0.513596 16.0584L2.78883 20.0147C2.93103 20.2768 3.22729 20.3602 3.48799 20.2768L6.32018 19.1328C6.91269 19.5857 7.54075 19.967 8.23991 20.253L8.66652 23.2797C8.72577 23.5657 8.95092 23.7683 9.23532 23.7683H13.7858C14.0702 23.7683 14.3072 23.5657 14.3427 23.2797L14.7694 20.253C15.4685 19.967 16.1084 19.5857 16.6891 19.1328L19.5213 20.2768C19.782 20.3721 20.0782 20.2768 20.2204 20.0147L22.4957 16.0584C22.6379 15.7963 22.5786 15.4984 22.3535 15.3315L19.9716 13.4487ZM11.5106 16.6185C9.16422 16.6185 7.24449 14.688 7.24449 12.3286C7.24449 9.96917 9.16422 8.03873 11.5106 8.03873C13.8569 8.03873 15.7766 9.96917 15.7766 12.3286C15.7766 14.688 13.8569 16.6185 11.5106 16.6185Z" fill="#929AA7"/>
</svg>
