<svg width="24" height="24" viewBox="0 0 24 24" fill="none" xmlns="http://www.w3.org/2000/svg">
<path d="M20.6688 0.555664H2.9725C1.58207 0.555664 0.444458 1.69963 0.444458 3.09782V20.8929C0.444458 22.2911 1.58207 23.435 2.9725 23.435H20.6688C22.0592 23.435 23.1968 22.2911 23.1968 20.8929V3.09782C23.1968 1.69963 22.0592 0.555664 20.6688 0.555664ZM11.8333 19.6218C10.9485 19.6218 10.2406 18.91 10.2406 18.0203C10.2406 17.1178 10.9485 16.4314 11.8333 16.4314C12.7307 16.4314 13.4133 17.1178 13.4133 18.0203C13.4007 18.8973 12.7307 19.6218 11.8333 19.6218ZM15.638 10.2158C14.6773 11.6267 13.7672 12.0716 13.2742 12.9741C13.072 13.3427 12.9962 13.5842 12.9962 14.7663H10.6957C10.6957 14.1435 10.5945 13.1266 11.0875 12.2496C11.7069 11.1437 12.8824 10.4828 13.565 9.50405C14.2855 8.47447 13.881 6.54244 11.8333 6.54244C10.4934 6.54244 9.83612 7.5593 9.55803 8.42363L7.4724 7.53388C8.04121 5.83063 9.57067 4.36889 11.808 4.36889C13.6787 4.36889 14.9554 5.22052 15.6127 6.30093C16.1689 7.21611 16.4975 8.93206 15.638 10.2158Z" fill="#929AA7"/>
</svg>
